<?xml version="1.0" encoding="UTF-8" standalone="no"?>
<svg width="1440px" height="1167px" viewBox="0 0 1440 1167" version="1.1" xmlns="http://www.w3.org/2000/svg" xmlns:xlink="http://www.w3.org/1999/xlink" xmlns:sketch="http://www.bohemiancoding.com/sketch/ns">
    <!-- Generator: Sketch 3.4.2 (15857) - http://www.bohemiancoding.com/sketch -->
    <title>APPLYDS</title>
    <desc>Created with Sketch.</desc>
    <defs>
        <linearGradient x1="0%" y1="56.3891113%" x2="100%" y2="56.3891113%" id="linearGradient-1">
            <stop stop-color="#FFFFFF" offset="0%"></stop>
            <stop stop-color="#FFFFFF" stop-opacity="0" offset="100%"></stop>
        </linearGradient>
    </defs>
    <g id="Page-1" stroke="none" stroke-width="1" fill="none" fill-rule="evenodd" sketch:type="MSPage">
        <g id="APPLYDS" sketch:type="MSArtboardGroup">
            <path d="M28.8520001,434.95 C27.3320001,434.95 26.3020001,435.7 26.3020001,436.9 C26.3020001,439.39 30.0820001,438.52 30.0820001,440.08 C30.0820001,440.62 29.5920001,440.93 28.7720001,440.93 C28.0220001,440.93 27.1220001,440.57 26.4020001,439.91 L25.8920001,440.93 C26.6120001,441.59 27.6520001,442.04 28.7520001,442.04 C30.2920001,442.04 31.3920001,441.27 31.3920001,440.02 C31.4020001,437.5 27.6220001,438.32 27.6220001,436.79 C27.6220001,436.32 28.0720001,436.06 28.7620001,436.06 C29.2920001,436.06 30.0520001,436.25 30.8120001,436.71 L31.3020001,435.67 C30.6520001,435.24 29.7620001,434.95 28.8520001,434.95 L28.8520001,434.95 Z M38.472,436.06 L38.472,435 L33.472,435 L33.472,442 L38.592,442 L38.592,440.94 L34.652,440.94 L34.652,439.01 L38.072,439.01 L38.072,437.95 L34.652,437.95 L34.652,436.06 L38.472,436.06 Z M46.802,442 L46.802,435 L45.642,435 L45.642,440.03 L41.892,435 L40.732,435 L40.732,442 L41.912,442 L41.912,436.98 L45.642,442 L46.802,442 Z M51.652,434.95 C50.132,434.95 49.102,435.7 49.102,436.9 C49.102,439.39 52.882,438.52 52.882,440.08 C52.882,440.62 52.392,440.93 51.572,440.93 C50.822,440.93 49.922,440.57 49.202,439.91 L48.692,440.93 C49.412,441.59 50.452,442.04 51.552,442.04 C53.092,442.04 54.192,441.27 54.192,440.02 C54.202,437.5 50.422,438.32 50.422,436.79 C50.422,436.32 50.872,436.06 51.562,436.06 C52.092,436.06 52.852,436.25 53.612,436.71 L54.102,435.67 C53.452,435.24 52.562,434.95 51.652,434.95 L51.652,434.95 Z M61.272,436.06 L61.272,435 L56.272,435 L56.272,442 L61.392,442 L61.392,440.94 L57.452,440.94 L57.452,439.01 L60.872,439.01 L60.872,437.95 L57.452,437.95 L57.452,436.06 L61.272,436.06 Z M64.232,439.188 C63.396,439.188 62.748,439.796 62.748,440.6 C62.748,441.4 63.396,442.02 64.232,442.02 C65.068,442.02 65.716,441.4 65.716,440.6 C65.716,439.8 65.068,439.188 64.232,439.188 L64.232,439.188 Z M64.236,439.612 C64.784,439.612 65.232,440.044 65.232,440.6 C65.232,441.156 64.784,441.596 64.236,441.596 C63.688,441.596 63.228,441.156 63.228,440.6 C63.228,440.044 63.684,439.612 64.236,439.612 L64.236,439.612 Z M68.096,439.624 L68.1,439.2 L66.22,439.2 L66.22,442 L66.692,442 L66.692,440.852 L67.964,440.852 L67.964,440.432 L66.692,440.432 L66.692,439.624 L68.096,439.624 Z M74.688,440.42 L75.358,442 L76.618,442 L73.558,435 L72.348,435 L69.258,442 L70.488,442 L71.158,440.42 L74.688,440.42 Z M74.238,439.37 L71.598,439.37 L72.918,436.26 L74.238,439.37 Z M82.688,442 L84.028,442 L82.458,439.66 C83.388,439.3 83.908,438.51 83.908,437.39 C83.908,435.87 82.878,435 81.088,435 L78.248,435 L78.248,442 L79.428,442 L79.428,439.89 L81.088,439.89 C81.198,439.89 81.308,439.89 81.408,439.88 L82.688,442 Z M79.428,438.83 L79.428,436.06 L81.088,436.06 C82.168,436.06 82.788,436.5 82.788,437.42 C82.788,438.37 82.168,438.83 81.088,438.83 L79.428,438.83 Z M90.958,436.06 L90.958,435 L85.348,435 L85.348,436.06 L87.558,436.06 L87.558,442 L88.738,442 L88.738,436.06 L90.958,436.06 Z M94.968,434.95 C93.448,434.95 92.418,435.7 92.418,436.9 C92.418,439.39 96.198,438.52 96.198,440.08 C96.198,440.62 95.708,440.93 94.888,440.93 C94.138,440.93 93.238,440.57 92.518,439.91 L92.008,440.93 C92.728,441.59 93.768,442.04 94.868,442.04 C96.408,442.04 97.508,441.27 97.508,440.02 C97.518,437.5 93.738,438.32 93.738,436.79 C93.738,436.32 94.188,436.06 94.878,436.06 C95.408,436.06 96.168,436.25 96.928,436.71 L97.418,435.67 C96.768,435.24 95.878,434.95 94.968,434.95 L94.968,434.95 Z M28.3566011,443.6414 C27.0732011,443.6414 26.0750011,444.59 26.0750011,445.8238 C26.0750011,447.07 27.0608011,448.031 28.3318011,448.031 C28.945601,448.031 29.571801,447.752 30.012001,447.318 L29.578001,446.8344 C29.249401,447.1506 28.803001,447.349 28.3690011,447.349 C27.5010011,447.349 26.8190011,446.6732 26.8190011,445.8176 C26.8190011,444.962 27.5010011,444.2924 28.3690011,444.2924 C28.809201,444.2924 29.261801,444.5032 29.578001,444.8442 L30.005801,444.311 C29.584201,443.8956 28.970401,443.6414 28.3566011,443.6414 L28.3566011,443.6414 Z M33.0376009,443.6414 C31.741801,443.6414 30.737401,444.5838 30.737401,445.83 C30.737401,447.07 31.741801,448.031 33.0376009,448.031 C34.3334009,448.031 35.3378008,447.07 35.3378008,445.83 C35.3378008,444.59 34.3334009,443.6414 33.0376009,443.6414 L33.0376009,443.6414 Z M33.0438009,444.2986 C33.8932009,444.2986 34.5876009,444.9682 34.5876009,445.83 C34.5876009,446.6918 33.8932009,447.3738 33.0438009,447.3738 C32.1944009,447.3738 31.481401,446.6918 31.481401,445.83 C31.481401,444.9682 32.1882009,444.2986 33.0438009,444.2986 L33.0438009,444.2986 Z M37.2846008,447.3366 L37.2846008,443.66 L36.5530008,443.66 L36.5530008,448 L39.1632007,448 L39.1632007,447.3366 L37.2846008,447.3366 Z M41.0294007,447.3366 L41.0294007,443.66 L40.2978007,443.66 L40.2978007,448 L42.9080006,448 L42.9080006,447.3366 L41.0294007,447.3366 Z M47.1426005,444.3172 L47.1426005,443.66 L44.0426006,443.66 L44.0426006,448 L47.2170005,448 L47.2170005,447.3428 L44.7742006,447.3428 L44.7742006,446.1462 L46.8946005,446.1462 L46.8946005,445.489 L44.7742006,445.489 L44.7742006,444.3172 L47.1426005,444.3172 Z M51.5136003,445.8672 L51.5136003,447.0762 C51.2036004,447.2622 50.8378004,447.3738 50.5154004,447.3738 C49.6288004,447.3738 48.9282004,446.698 48.9282004,445.83 C48.9282004,444.9682 49.6226004,444.2924 50.5092004,444.2924 C50.9618004,444.2924 51.4268003,444.4784 51.7616003,444.7884 L52.1770003,444.249 C51.7492003,443.877 51.1292004,443.6414 50.5092004,443.6414 C49.1948004,443.6414 48.1842004,444.59 48.1842004,445.83 C48.1842004,447.07 49.1824004,448.031 50.4658004,448.031 C51.0610004,448.031 51.7120003,447.8016 52.1522003,447.4668 L52.1522003,445.8672 L51.5136003,445.8672 Z M56.7216002,444.3172 L56.7216002,443.66 L53.6216003,443.66 L53.6216003,448 L56.7960002,448 L56.7960002,447.3428 L54.3532003,447.3428 L54.3532003,446.1462 L56.4736002,446.1462 L56.4736002,445.489 L54.3532003,445.489 L54.3532003,444.3172 L56.7216002,444.3172 Z M62.097,443.6414 C60.8012001,443.6414 59.7968001,444.5838 59.7968001,445.83 C59.7968001,447.07 60.8012001,448.031 62.097,448.031 C63.3928,448.031 64.3971999,447.07 64.3971999,445.83 C64.3971999,444.59 63.3928,443.6414 62.097,443.6414 L62.097,443.6414 Z M62.1032,444.2986 C62.9526,444.2986 63.647,444.9682 63.647,445.83 C63.647,446.6918 62.9526,447.3738 62.1032,447.3738 C61.2538,447.3738 60.5408001,446.6918 60.5408001,445.83 C60.5408001,444.9682 61.2476,444.2986 62.1032,444.2986 L62.1032,444.2986 Z M68.5201998,444.3172 L68.5263998,443.66 L65.6123999,443.66 L65.6123999,448 L66.3439999,448 L66.3439999,446.2206 L68.3155998,446.2206 L68.3155998,445.5696 L66.3439999,445.5696 L66.3439999,444.3172 L68.5201998,444.3172 Z M71.6449997,443.66 L71.6449997,448 L73.4057997,448 C74.7201996,448 75.6687996,447.0824 75.6687996,445.83 C75.6687996,444.5714 74.7263996,443.66 73.4243997,443.66 L71.6449997,443.66 Z M72.3765997,444.3172 L73.4119997,444.3172 C74.2675996,444.3172 74.9309996,444.9496 74.9309996,445.8362 C74.9309996,446.7166 74.2861996,447.3428 73.4429997,447.3428 L72.3765997,447.3428 L72.3765997,444.3172 Z M79.9839995,444.3172 L79.9839995,443.66 L76.8839996,443.66 L76.8839996,448 L80.0583995,448 L80.0583995,447.3428 L77.6155995,447.3428 L77.6155995,446.1462 L79.7359995,446.1462 L79.7359995,445.489 L77.6155995,445.489 L77.6155995,444.3172 L79.9839995,444.3172 Z M82.8111994,443.629 C81.8687994,443.629 81.2301994,444.094 81.2301994,444.838 C81.2301994,446.3818 83.5737993,445.8424 83.5737993,446.8096 C83.5737993,447.1444 83.2699994,447.3366 82.7615994,447.3366 C82.2965994,447.3366 81.7385994,447.1134 81.2921994,446.7042 L80.9759994,447.3366 C81.4223994,447.7458 82.0671994,448.0248 82.7491994,448.0248 C83.7039993,448.0248 84.3859993,447.5474 84.3859993,446.7724 C84.3921993,445.21 82.0485994,445.7184 82.0485994,444.7698 C82.0485994,444.4784 82.3275994,444.3172 82.7553994,444.3172 C83.0839994,444.3172 83.5551993,444.435 84.0263993,444.7202 L84.3301993,444.0754 C83.9271993,443.8088 83.3753994,443.629 82.8111994,443.629 L82.8111994,443.629 Z M86.4071993,448 L86.4071993,443.66 L85.6755993,443.66 L85.6755993,448 L86.4071993,448 Z M90.9517991,445.8672 L90.9517991,447.0762 C90.6417991,447.2622 90.2759991,447.3738 89.9535991,447.3738 C89.0669992,447.3738 88.3663992,446.698 88.3663992,445.83 C88.3663992,444.9682 89.0607992,444.2924 89.9473991,444.2924 C90.3999991,444.2924 90.8649991,444.4784 91.1997991,444.7884 L91.6151991,444.249 C91.1873991,443.877 90.5673991,443.6414 89.9473991,443.6414 C88.6329992,443.6414 87.6223992,444.59 87.6223992,445.83 C87.6223992,447.07 88.6205992,448.031 89.9039992,448.031 C90.4991991,448.031 91.1501991,447.8016 91.5903991,447.4668 L91.5903991,445.8672 L90.9517991,445.8672 Z M96.8231989,448 L96.8231989,443.66 L96.103999,443.66 L96.103999,446.7786 L93.778999,443.66 L93.0597991,443.66 L93.0597991,448 L93.791399,448 L93.791399,444.8876 L96.103999,448 L96.8231989,448 Z" id="SENSEOF-ARTS--Copy" fill="#000000" sketch:type="MSShapeGroup"></path>
            <rect id="Rectangle-18" fill-opacity="0.8" fill="#000000" sketch:type="MSShapeGroup" x="0" y="0" width="1440" height="100"></rect>
            <path d="M687.39,58 L689.67,58 L684.37,44.66 L681.87,44.66 L676.57,58 L678.85,58 L679.93,55.24 L686.31,55.24 L687.39,58 Z M683.11,46.7 L685.73,53.46 L680.51,53.46 L683.11,46.7 Z M690.63,53.16 C690.63,56.06 692.63,58.24 695.55,58.24 C697.37,58.24 698.47,57.48 699.17,56.54 L697.97,55.44 C697.39,56.24 696.61,56.64 695.63,56.64 C693.73,56.64 692.51,55.16 692.51,53.16 C692.51,51.16 693.73,49.7 695.63,49.7 C696.61,49.7 697.39,50.08 697.97,50.9 L699.17,49.8 C698.47,48.86 697.37,48.1 695.55,48.1 C692.63,48.1 690.63,50.26 690.63,53.16 L690.63,53.16 Z M707.11,58 L708.91,58 L708.91,51.48 C708.91,49.02 707.13,48.1 705.03,48.1 C703.47,48.1 702.15,48.62 701.07,49.68 L701.85,50.92 C702.71,50.06 703.65,49.64 704.75,49.64 C706.13,49.64 707.11,50.36 707.11,51.56 L707.11,53.16 C706.37,52.3 705.25,51.88 703.95,51.88 C702.33,51.88 700.59,52.84 700.59,55.04 C700.59,57.16 702.35,58.24 703.95,58.24 C705.25,58.24 706.35,57.78 707.11,56.94 L707.11,58 Z M707.11,55.88 C706.57,56.6 705.63,56.98 704.63,56.98 C703.33,56.98 702.41,56.2 702.41,55.06 C702.41,53.92 703.33,53.14 704.63,53.14 C705.63,53.14 706.57,53.52 707.11,54.24 L707.11,55.88 Z M718.67,58 L720.47,58 L720.47,44.66 L718.67,44.66 L718.67,49.74 C717.89,48.7 716.75,48.1 715.51,48.1 C712.99,48.1 711.19,50.08 711.19,53.18 C711.19,56.34 712.99,58.24 715.51,58.24 C716.79,58.24 717.95,57.58 718.67,56.62 L718.67,58 Z M718.67,55.24 C718.17,56.02 717.09,56.64 715.99,56.64 C714.19,56.64 713.07,55.18 713.07,53.18 C713.07,51.16 714.19,49.7 715.99,49.7 C717.09,49.7 718.17,50.34 718.67,51.12 L718.67,55.24 Z M729.31,58 L731.11,58 L731.11,51.48 C731.11,49.02 729.33,48.1 727.23,48.1 C725.67,48.1 724.35,48.62 723.27,49.68 L724.05,50.92 C724.91,50.06 725.85,49.64 726.95,49.64 C728.33,49.64 729.31,50.36 729.31,51.56 L729.31,53.16 C728.57,52.3 727.45,51.88 726.15,51.88 C724.53,51.88 722.79,52.84 722.79,55.04 C722.79,57.16 724.55,58.24 726.15,58.24 C727.45,58.24 728.55,57.78 729.31,56.94 L729.31,58 Z M729.31,55.88 C728.77,56.6 727.83,56.98 726.83,56.98 C725.53,56.98 724.61,56.2 724.61,55.06 C724.61,53.92 725.53,53.14 726.83,53.14 C727.83,53.14 728.77,53.52 729.31,54.24 L729.31,55.88 Z M745.73,58 L747.53,58 L747.53,51.02 C747.53,49.08 746.57,48.1 744.79,48.1 C743.37,48.1 742.09,49 741.53,49.9 C741.23,48.86 740.37,48.1 738.91,48.1 C737.47,48.1 736.19,49.1 735.79,49.7 L735.79,48.34 L733.99,48.34 L733.99,58 L735.79,58 L735.79,51.1 C736.27,50.4 737.21,49.7 738.15,49.7 C739.37,49.7 739.85,50.44 739.85,51.56 L739.85,58 L741.65,58 L741.65,51.08 C742.11,50.38 743.07,49.7 744.05,49.7 C745.23,49.7 745.73,50.44 745.73,51.56 L745.73,58 Z M751.27,47.06 C751.91,47.06 752.43,46.54 752.43,45.9 C752.43,45.26 751.91,44.76 751.27,44.76 C750.65,44.76 750.11,45.26 750.11,45.9 C750.11,46.54 750.65,47.06 751.27,47.06 L751.27,47.06 Z M750.39,58 L752.19,58 L752.19,48.34 L750.39,48.34 L750.39,58 Z M754.45,53.16 C754.45,56.06 756.45,58.24 759.37,58.24 C761.19,58.24 762.29,57.48 762.99,56.54 L761.79,55.44 C761.21,56.24 760.43,56.64 759.45,56.64 C757.55,56.64 756.33,55.16 756.33,53.16 C756.33,51.16 757.55,49.7 759.45,49.7 C760.43,49.7 761.21,50.08 761.79,50.9 L762.99,49.8 C762.29,48.86 761.19,48.1 759.37,48.1 C756.45,48.1 754.45,50.26 754.45,53.16 L754.45,53.16 Z" id="Acadamic" fill="#FFFFFF" sketch:type="MSShapeGroup"></path>
            <path d="M858.95,58 L861.23,58 L855.93,44.66 L853.43,44.66 L848.13,58 L850.41,58 L851.49,55.24 L857.87,55.24 L858.95,58 Z M854.67,46.7 L857.29,53.46 L852.07,53.46 L854.67,46.7 Z M869.67,58 L871.47,58 L871.47,44.66 L869.67,44.66 L869.67,49.74 C868.89,48.7 867.75,48.1 866.51,48.1 C863.99,48.1 862.19,50.08 862.19,53.18 C862.19,56.34 863.99,58.24 866.51,58.24 C867.79,58.24 868.95,57.58 869.67,56.62 L869.67,58 Z M869.67,55.24 C869.17,56.02 868.09,56.64 866.99,56.64 C865.19,56.64 864.07,55.18 864.07,53.18 C864.07,51.16 865.19,49.7 866.99,49.7 C868.09,49.7 869.17,50.34 869.67,51.12 L869.67,55.24 Z M886.09,58 L887.89,58 L887.89,51.02 C887.89,49.08 886.93,48.1 885.15,48.1 C883.73,48.1 882.45,49 881.89,49.9 C881.59,48.86 880.73,48.1 879.27,48.1 C877.83,48.1 876.55,49.1 876.15,49.7 L876.15,48.34 L874.35,48.34 L874.35,58 L876.15,58 L876.15,51.1 C876.63,50.4 877.57,49.7 878.51,49.7 C879.73,49.7 880.21,50.44 880.21,51.56 L880.21,58 L882.01,58 L882.01,51.08 C882.47,50.38 883.43,49.7 884.41,49.7 C885.59,49.7 886.09,50.44 886.09,51.56 L886.09,58 Z M891.63,47.06 C892.27,47.06 892.79,46.54 892.79,45.9 C892.79,45.26 892.27,44.76 891.63,44.76 C891.01,44.76 890.47,45.26 890.47,45.9 C890.47,46.54 891.01,47.06 891.63,47.06 L891.63,47.06 Z M890.75,58 L892.55,58 L892.55,48.34 L890.75,48.34 L890.75,58 Z M894.57,56.74 C895.55,57.74 896.97,58.24 898.59,58.24 C901.13,58.24 902.49,56.94 902.49,55.28 C902.49,53.06 900.49,52.6 898.81,52.22 C897.61,51.94 896.57,51.72 896.57,50.9 C896.57,50.12 897.33,49.56 898.55,49.56 C899.77,49.56 900.85,50.06 901.41,50.74 L902.21,49.48 C901.39,48.7 900.19,48.1 898.53,48.1 C896.17,48.1 894.85,49.42 894.85,50.96 C894.85,53.04 896.77,53.48 898.41,53.86 C899.65,54.14 900.75,54.4 900.75,55.32 C900.75,56.18 900.03,56.8 898.67,56.8 C897.37,56.8 896.09,56.14 895.43,55.42 L894.57,56.74 Z M903.93,56.74 C904.91,57.74 906.33,58.24 907.95,58.24 C910.49,58.24 911.85,56.94 911.85,55.28 C911.85,53.06 909.85,52.6 908.17,52.22 C906.97,51.94 905.93,51.72 905.93,50.9 C905.93,50.12 906.69,49.56 907.91,49.56 C909.13,49.56 910.21,50.06 910.77,50.74 L911.57,49.48 C910.75,48.7 909.55,48.1 907.89,48.1 C905.53,48.1 904.21,49.42 904.21,50.96 C904.21,53.04 906.13,53.48 907.77,53.86 C909.01,54.14 910.11,54.4 910.11,55.32 C910.11,56.18 909.39,56.8 908.03,56.8 C906.73,56.8 905.45,56.14 904.79,55.42 L903.93,56.74 Z M915.01,47.06 C915.65,47.06 916.17,46.54 916.17,45.9 C916.17,45.26 915.65,44.76 915.01,44.76 C914.39,44.76 913.85,45.26 913.85,45.9 C913.85,46.54 914.39,47.06 915.01,47.06 L915.01,47.06 Z M914.13,58 L915.93,58 L915.93,48.34 L914.13,48.34 L914.13,58 Z M923.07,58.24 C926.09,58.24 927.95,55.96 927.95,53.16 C927.95,50.38 926.09,48.1 923.07,48.1 C920.07,48.1 918.19,50.38 918.19,53.16 C918.19,55.96 920.07,58.24 923.07,58.24 L923.07,58.24 Z M923.07,56.64 C921.15,56.64 920.07,55 920.07,53.16 C920.07,51.34 921.15,49.7 923.07,49.7 C925.01,49.7 926.07,51.34 926.07,53.16 C926.07,55 925.01,56.64 923.07,56.64 L923.07,56.64 Z M936.75,58 L938.55,58 L938.55,51.22 C938.55,49.18 937.49,48.1 935.45,48.1 C933.95,48.1 932.67,48.92 932.03,49.7 L932.03,48.34 L930.23,48.34 L930.23,58 L932.03,58 L932.03,51.1 C932.55,50.38 933.57,49.7 934.69,49.7 C935.93,49.7 936.75,50.22 936.75,51.82 L936.75,58 Z" id="Admission" fill="#FFFFFF" sketch:type="MSShapeGroup"></path>
            <path d="M1032.17,58.24 C1034.71,58.24 1036.33,56.98 1037.39,55.42 L1035.69,54.52 C1034.99,55.64 1033.67,56.46 1032.17,56.46 C1029.39,56.46 1027.31,54.32 1027.31,51.34 C1027.31,48.34 1029.39,46.22 1032.17,46.22 C1033.67,46.22 1034.99,47.04 1035.69,48.16 L1037.39,47.26 C1036.35,45.7 1034.71,44.44 1032.17,44.44 C1028.29,44.44 1025.25,47.24 1025.25,51.34 C1025.25,55.44 1028.29,58.24 1032.17,58.24 L1032.17,58.24 Z M1045.31,58 L1047.11,58 L1047.11,51.48 C1047.11,49.02 1045.33,48.1 1043.23,48.1 C1041.67,48.1 1040.35,48.62 1039.27,49.68 L1040.05,50.92 C1040.91,50.06 1041.85,49.64 1042.95,49.64 C1044.33,49.64 1045.31,50.36 1045.31,51.56 L1045.31,53.16 C1044.57,52.3 1043.45,51.88 1042.15,51.88 C1040.53,51.88 1038.79,52.84 1038.79,55.04 C1038.79,57.16 1040.55,58.24 1042.15,58.24 C1043.45,58.24 1044.55,57.78 1045.31,56.94 L1045.31,58 Z M1045.31,55.88 C1044.77,56.6 1043.83,56.98 1042.83,56.98 C1041.53,56.98 1040.61,56.2 1040.61,55.06 C1040.61,53.92 1041.53,53.14 1042.83,53.14 C1043.83,53.14 1044.77,53.52 1045.31,54.24 L1045.31,55.88 Z M1049.99,58 L1051.79,58 L1051.79,51.28 C1052.21,50.56 1053.43,49.88 1054.33,49.88 C1054.57,49.88 1054.77,49.9 1054.95,49.94 L1054.95,48.12 C1053.67,48.12 1052.53,48.86 1051.79,49.82 L1051.79,48.34 L1049.99,48.34 L1049.99,58 Z M1056.15,53.16 C1056.15,56.2 1058.27,58.24 1061.15,58.24 C1062.71,58.24 1064.07,57.74 1065.03,56.8 L1064.19,55.62 C1063.47,56.36 1062.35,56.76 1061.33,56.76 C1059.39,56.76 1058.19,55.4 1058.05,53.76 L1065.69,53.76 L1065.69,53.32 C1065.69,50.36 1063.89,48.1 1060.99,48.1 C1058.17,48.1 1056.15,50.36 1056.15,53.16 L1056.15,53.16 Z M1060.99,49.58 C1063.03,49.58 1063.89,51.18 1063.93,52.46 L1058.03,52.46 C1058.13,51.14 1059.05,49.58 1060.99,49.58 L1060.99,49.58 Z M1067.35,53.16 C1067.35,56.2 1069.47,58.24 1072.35,58.24 C1073.91,58.24 1075.27,57.74 1076.23,56.8 L1075.39,55.62 C1074.67,56.36 1073.55,56.76 1072.53,56.76 C1070.59,56.76 1069.39,55.4 1069.25,53.76 L1076.89,53.76 L1076.89,53.32 C1076.89,50.36 1075.09,48.1 1072.19,48.1 C1069.37,48.1 1067.35,50.36 1067.35,53.16 L1067.35,53.16 Z M1072.19,49.58 C1074.23,49.58 1075.09,51.18 1075.13,52.46 L1069.23,52.46 C1069.33,51.14 1070.25,49.58 1072.19,49.58 L1072.19,49.58 Z M1079.15,58 L1080.95,58 L1080.95,51.28 C1081.37,50.56 1082.59,49.88 1083.49,49.88 C1083.73,49.88 1083.93,49.9 1084.11,49.94 L1084.11,48.12 C1082.83,48.12 1081.69,48.86 1080.95,49.82 L1080.95,48.34 L1079.15,48.34 L1079.15,58 Z M1091.11,58 L1099.17,58 L1099.17,56.24 L1093.11,56.24 L1093.11,44.66 L1091.11,44.66 L1091.11,58 Z M1102.21,47.06 C1102.85,47.06 1103.37,46.54 1103.37,45.9 C1103.37,45.26 1102.85,44.76 1102.21,44.76 C1101.59,44.76 1101.05,45.26 1101.05,45.9 C1101.05,46.54 1101.59,47.06 1102.21,47.06 L1102.21,47.06 Z M1101.33,58 L1103.13,58 L1103.13,48.34 L1101.33,48.34 L1101.33,58 Z M1106.43,58 L1108.23,58 L1108.23,49.92 L1110.19,49.92 L1110.19,48.34 L1108.23,48.34 L1108.23,47.7 C1108.23,46.54 1108.77,45.94 1109.67,45.94 C1109.99,45.94 1110.29,46.02 1110.53,46.16 L1110.95,44.82 C1110.53,44.58 1109.99,44.46 1109.37,44.46 C1107.65,44.46 1106.43,45.62 1106.43,47.7 L1106.43,48.34 L1104.83,48.34 L1104.83,49.92 L1106.43,49.92 L1106.43,58 Z M1111.31,53.16 C1111.31,56.2 1113.43,58.24 1116.31,58.24 C1117.87,58.24 1119.23,57.74 1120.19,56.8 L1119.35,55.62 C1118.63,56.36 1117.51,56.76 1116.49,56.76 C1114.55,56.76 1113.35,55.4 1113.21,53.76 L1120.85,53.76 L1120.85,53.32 C1120.85,50.36 1119.05,48.1 1116.15,48.1 C1113.33,48.1 1111.31,50.36 1111.31,53.16 L1111.31,53.16 Z M1116.15,49.58 C1118.19,49.58 1119.05,51.18 1119.09,52.46 L1113.19,52.46 C1113.29,51.14 1114.21,49.58 1116.15,49.58 L1116.15,49.58 Z" id="Career-Life" fill="#FFFFFF" sketch:type="MSShapeGroup"></path>
            <path d="M1209.52,58 L1217.58,58 L1217.58,56.24 L1211.52,56.24 L1211.52,44.66 L1209.52,44.66 L1209.52,58 Z M1220.62,47.06 C1221.26,47.06 1221.78,46.54 1221.78,45.9 C1221.78,45.26 1221.26,44.76 1220.62,44.76 C1220,44.76 1219.46,45.26 1219.46,45.9 C1219.46,46.54 1220,47.06 1220.62,47.06 L1220.62,47.06 Z M1219.74,58 L1221.54,58 L1221.54,48.34 L1219.74,48.34 L1219.74,58 Z M1224.84,58 L1226.64,58 L1226.64,49.92 L1228.6,49.92 L1228.6,48.34 L1226.64,48.34 L1226.64,47.7 C1226.64,46.54 1227.18,45.94 1228.08,45.94 C1228.4,45.94 1228.7,46.02 1228.94,46.16 L1229.36,44.82 C1228.94,44.58 1228.4,44.46 1227.78,44.46 C1226.06,44.46 1224.84,45.62 1224.84,47.7 L1224.84,48.34 L1223.24,48.34 L1223.24,49.92 L1224.84,49.92 L1224.84,58 Z M1229.72,53.16 C1229.72,56.2 1231.84,58.24 1234.72,58.24 C1236.28,58.24 1237.64,57.74 1238.6,56.8 L1237.76,55.62 C1237.04,56.36 1235.92,56.76 1234.9,56.76 C1232.96,56.76 1231.76,55.4 1231.62,53.76 L1239.26,53.76 L1239.26,53.32 C1239.26,50.36 1237.46,48.1 1234.56,48.1 C1231.74,48.1 1229.72,50.36 1229.72,53.16 L1229.72,53.16 Z M1234.56,49.58 C1236.6,49.58 1237.46,51.18 1237.5,52.46 L1231.6,52.46 C1231.7,51.14 1232.62,49.58 1234.56,49.58 L1234.56,49.58 Z M1252.64,58 L1254.44,58 L1254.44,51.48 C1254.44,49.02 1252.66,48.1 1250.56,48.1 C1249,48.1 1247.68,48.62 1246.6,49.68 L1247.38,50.92 C1248.24,50.06 1249.18,49.64 1250.28,49.64 C1251.66,49.64 1252.64,50.36 1252.64,51.56 L1252.64,53.16 C1251.9,52.3 1250.78,51.88 1249.48,51.88 C1247.86,51.88 1246.12,52.84 1246.12,55.04 C1246.12,57.16 1247.88,58.24 1249.48,58.24 C1250.78,58.24 1251.88,57.78 1252.64,56.94 L1252.64,58 Z M1252.64,55.88 C1252.1,56.6 1251.16,56.98 1250.16,56.98 C1248.86,56.98 1247.94,56.2 1247.94,55.06 C1247.94,53.92 1248.86,53.14 1250.16,53.14 C1251.16,53.14 1252.1,53.52 1252.64,54.24 L1252.64,55.88 Z M1259.98,58.24 C1260.92,58.24 1261.48,57.98 1261.86,57.62 L1261.4,56.26 C1261.22,56.46 1260.84,56.64 1260.42,56.64 C1259.8,56.64 1259.48,56.14 1259.48,55.46 L1259.48,49.92 L1261.44,49.92 L1261.44,48.34 L1259.48,48.34 L1259.48,45.7 L1257.68,45.7 L1257.68,48.34 L1256.08,48.34 L1256.08,49.92 L1257.68,49.92 L1257.68,55.86 C1257.68,57.38 1258.46,58.24 1259.98,58.24 L1259.98,58.24 Z M1267.82,56.12 C1268.96,57.38 1270.7,58.24 1273.08,58.24 C1276.68,58.24 1278.12,56.3 1278.12,54.22 C1278.12,51.38 1275.58,50.7 1273.4,50.12 C1271.74,49.7 1270.3,49.32 1270.3,48.12 C1270.3,47 1271.32,46.24 1272.8,46.24 C1274.24,46.24 1275.64,46.72 1276.66,47.8 L1277.82,46.32 C1276.64,45.12 1275.02,44.46 1272.96,44.46 C1270.18,44.46 1268.24,46.06 1268.24,48.26 C1268.24,50.98 1270.72,51.6 1272.86,52.16 C1274.56,52.6 1276.08,53 1276.08,54.4 C1276.08,55.36 1275.32,56.46 1273.16,56.46 C1271.3,56.46 1269.86,55.58 1268.96,54.58 L1267.82,56.12 Z M1289.88,58 L1292.16,58 L1286.86,44.66 L1284.36,44.66 L1279.06,58 L1281.34,58 L1282.42,55.24 L1288.8,55.24 L1289.88,58 Z M1285.6,46.7 L1288.22,53.46 L1283,53.46 L1285.6,46.7 Z M1300.12,58.24 C1302.66,58.24 1304.28,56.98 1305.34,55.42 L1303.64,54.52 C1302.94,55.64 1301.62,56.46 1300.12,56.46 C1297.34,56.46 1295.26,54.32 1295.26,51.34 C1295.26,48.34 1297.34,46.22 1300.12,46.22 C1301.62,46.22 1302.94,47.04 1303.64,48.16 L1305.34,47.26 C1304.3,45.7 1302.66,44.44 1300.12,44.44 C1296.24,44.44 1293.2,47.24 1293.2,51.34 C1293.2,55.44 1296.24,58.24 1300.12,58.24 L1300.12,58.24 Z M1307.34,58 L1312.1,58 C1316.26,58 1319.02,55.2 1319.02,51.34 C1319.02,47.5 1316.26,44.66 1312.1,44.66 L1307.34,44.66 L1307.34,58 Z M1309.34,56.24 L1309.34,46.42 L1312.1,46.42 C1315.24,46.42 1316.96,48.6 1316.96,51.34 C1316.96,54.04 1315.18,56.24 1312.1,56.24 L1309.34,56.24 Z" id="Life-at-SACD" fill="#FFFFFF" sketch:type="MSShapeGroup"></path>
            <path d="M131.503419,25 C125.596258,25 121.593379,27.9147177 121.593379,32.578266 C121.593379,42.2551288 136.283556,38.8740563 136.283556,44.9366691 C136.283556,47.0352659 134.379274,48.2400159 131.192516,48.2400159 C128.277798,48.2400159 124.780137,46.8409514 121.982008,44.2759998 L120,48.2400159 C122.798129,50.8049675 126.839871,52.5537981 131.11479,52.5537981 C137.099677,52.5537981 141.374597,49.5613546 141.374597,44.7034917 C141.413459,34.9100402 126.723282,38.0967982 126.723282,32.1507741 C126.723282,30.3242177 128.472113,29.3137822 131.153653,29.3137822 C133.213387,29.3137822 136.166968,30.0521774 139.120548,31.8398709 L141.02483,27.798129 C138.498742,26.1270242 135.039943,25 131.503419,25 L131.503419,25 Z M168.889532,29.3137822 L168.889532,25.1943145 L149.45808,25.1943145 L149.45808,52.3983465 L169.355887,52.3983465 L169.355887,48.2788788 L154.043903,48.2788788 L154.043903,40.7783385 L167.335016,40.7783385 L167.335016,36.6588708 L154.043903,36.6588708 L154.043903,29.3137822 L168.889532,29.3137822 Z M201.26233,52.3983465 L201.26233,25.1943145 L196.754233,25.1943145 L196.754233,44.7423546 L182.180644,25.1943145 L177.672548,25.1943145 L177.672548,52.3983465 L182.25837,52.3983465 L182.25837,32.8891693 L196.754233,52.3983465 L201.26233,52.3983465 Z M220.110838,25 C214.203676,25 210.200797,27.9147177 210.200797,32.578266 C210.200797,42.2551288 224.890975,38.8740563 224.890975,44.9366691 C224.890975,47.0352659 222.986692,48.2400159 219.799934,48.2400159 C216.885217,48.2400159 213.387555,46.8409514 210.589426,44.2759998 L208.607418,48.2400159 C211.405547,50.8049675 215.447289,52.5537981 219.722208,52.5537981 C225.707096,52.5537981 229.982015,49.5613546 229.982015,44.7034917 C230.020878,34.9100402 215.3307,38.0967982 215.3307,32.1507741 C215.3307,30.3242177 217.079531,29.3137822 219.761071,29.3137822 C221.820805,29.3137822 224.774386,30.0521774 227.727966,31.8398709 L229.632249,27.798129 C227.10616,26.1270242 223.647362,25 220.110838,25 L220.110838,25 Z M257.49695,29.3137822 L257.49695,25.1943145 L238.065499,25.1943145 L238.065499,52.3983465 L257.963305,52.3983465 L257.963305,48.2788788 L242.651321,48.2788788 L242.651321,40.7783385 L255.942434,40.7783385 L255.942434,36.6588708 L242.651321,36.6588708 L242.651321,29.3137822 L257.49695,29.3137822 Z M269.000369,41.4700982 C265.75143,41.4700982 263.233114,43.8329627 263.233114,46.9575401 C263.233114,50.0665723 265.75143,52.4760723 269.000369,52.4760723 C272.249308,52.4760723 274.767624,50.0665723 274.767624,46.9575401 C274.767624,43.8485079 272.249308,41.4700982 269.000369,41.4700982 L269.000369,41.4700982 Z M269.015914,43.1178853 C271.145601,43.1178853 272.886659,44.7967627 272.886659,46.9575401 C272.886659,49.1183175 271.145601,50.8282852 269.015914,50.8282852 C266.886227,50.8282852 265.098534,49.1183175 265.098534,46.9575401 C265.098534,44.7967627 266.870682,43.1178853 269.015914,43.1178853 L269.015914,43.1178853 Z M284.016995,43.1645208 L284.03254,41.5167337 L276.726314,41.5167337 L276.726314,52.3983465 L278.560643,52.3983465 L278.560643,47.9368852 L283.504004,47.9368852 L283.504004,46.3046433 L278.560643,46.3046433 L278.560643,43.1645208 L284.016995,43.1645208 Z M309.63542,46.2580078 L312.239235,52.3983465 L317.135961,52.3983465 L305.243912,25.1943145 L300.541501,25.1943145 L288.532864,52.3983465 L293.313001,52.3983465 L295.916816,46.2580078 L309.63542,46.2580078 Z M307.88659,42.177403 L297.626783,42.177403 L302.756687,30.0910403 L307.88659,42.177403 Z M340.725743,52.3983465 L345.933372,52.3983465 L339.831896,43.3044272 C343.446146,41.9053627 345.467017,38.8351934 345.467017,34.4825483 C345.467017,28.5753871 341.464138,25.1943145 334.507678,25.1943145 L323.470614,25.1943145 L323.470614,52.3983465 L328.056436,52.3983465 L328.056436,44.198274 L334.507678,44.198274 C334.93517,44.198274 335.362662,44.198274 335.751291,44.1594111 L340.725743,52.3983465 Z M328.056436,40.0788063 L328.056436,29.3137822 L334.507678,29.3137822 C338.704872,29.3137822 341.114372,31.0237499 341.114372,34.599137 C341.114372,38.2911128 338.704872,40.0788063 334.507678,40.0788063 L328.056436,40.0788063 Z M372.865363,29.3137822 L372.865363,25.1943145 L351.063275,25.1943145 L351.063275,29.3137822 L359.651976,29.3137822 L359.651976,52.3983465 L364.237799,52.3983465 L364.237799,29.3137822 L372.865363,29.3137822 Z M388.449387,25 C382.542226,25 378.539347,27.9147177 378.539347,32.578266 C378.539347,42.2551288 393.229524,38.8740563 393.229524,44.9366691 C393.229524,47.0352659 391.325242,48.2400159 388.138484,48.2400159 C385.223766,48.2400159 381.726105,46.8409514 378.927976,44.2759998 L376.945968,48.2400159 C379.744097,50.8049675 383.785839,52.5537981 388.060758,52.5537981 C394.045645,52.5537981 398.320564,49.5613546 398.320564,44.7034917 C398.359427,34.9100402 383.66925,38.0967982 383.66925,32.1507741 C383.66925,30.3242177 385.418081,29.3137822 388.099621,29.3137822 C390.159355,29.3137822 393.112935,30.0521774 396.066516,31.8398709 L397.970798,27.798129 C395.44471,26.1270242 391.985911,25 388.449387,25 L388.449387,25 Z M129.578155,58.7773039 C124.59049,58.7773039 120.711195,62.4638387 120.711195,67.2587435 C120.711195,72.1018383 124.5423,75.8365632 129.481775,75.8365632 C131.86718,75.8365632 134.300775,74.7522882 136.01152,73.0656383 L134.32487,71.1862284 C133.047835,72.4150733 131.312995,73.1861133 129.626345,73.1861133 C126.253045,73.1861133 123.602595,70.5597584 123.602595,67.2346485 C123.602595,63.9095387 126.253045,61.3072788 129.626345,61.3072788 C131.33709,61.3072788 133.096025,62.1265087 134.32487,63.4517337 L135.987425,61.3795638 C134.348965,59.7651988 131.96356,58.7773039 129.578155,58.7773039 L129.578155,58.7773039 Z M147.769879,58.7773039 C142.734024,58.7773039 138.830635,62.4397437 138.830635,67.2828385 C138.830635,72.1018383 142.734024,75.8365632 147.769879,75.8365632 C152.805734,75.8365632 156.709124,72.1018383 156.709124,67.2828385 C156.709124,62.4638387 152.805734,58.7773039 147.769879,58.7773039 L147.769879,58.7773039 Z M147.793974,61.3313738 C151.094989,61.3313738 153.793629,63.9336337 153.793629,67.2828385 C153.793629,70.6320434 151.094989,73.2824933 147.793974,73.2824933 C144.492959,73.2824933 141.722034,70.6320434 141.722034,67.2828385 C141.722034,63.9336337 144.468864,61.3313738 147.793974,61.3313738 L147.793974,61.3313738 Z M164.274953,73.1379233 L164.274953,58.8495889 L161.431744,58.8495889 L161.431744,75.7160882 L171.575738,75.7160882 L171.575738,73.1379233 L164.274953,73.1379233 Z M178.828333,73.1379233 L178.828333,58.8495889 L175.985123,58.8495889 L175.985123,75.7160882 L186.129118,75.7160882 L186.129118,73.1379233 L178.828333,73.1379233 Z M202.586002,61.4036588 L202.586002,58.8495889 L190.538502,58.8495889 L190.538502,75.7160882 L202.875142,75.7160882 L202.875142,73.1620183 L193.381712,73.1620183 L193.381712,68.5116835 L201.622202,68.5116835 L201.622202,65.9576136 L193.381712,65.9576136 L193.381712,61.4036588 L202.586002,61.4036588 Z M219.572976,67.4274085 L219.572976,72.1259333 C218.368226,72.8487833 216.946621,73.2824933 215.693681,73.2824933 C212.248096,73.2824933 209.525362,70.6561384 209.525362,67.2828385 C209.525362,63.9336337 212.224001,61.3072788 215.669586,61.3072788 C217.428521,61.3072788 219.235646,62.0301287 220.536776,63.2348787 L222.151141,61.1386138 C220.488586,59.6929138 218.079086,58.7773039 215.669586,58.7773039 C210.561447,58.7773039 206.633962,62.4638387 206.633962,67.2828385 C206.633962,72.1018383 210.513257,75.8365632 215.500921,75.8365632 C217.814041,75.8365632 220.344016,74.9450482 222.054761,73.6439183 L222.054761,67.4274085 L219.572976,67.4274085 Z M239.812775,61.4036588 L239.812775,58.8495889 L227.765276,58.8495889 L227.765276,75.7160882 L240.101915,75.7160882 L240.101915,73.1620183 L230.608486,73.1620183 L230.608486,68.5116835 L238.848975,68.5116835 L238.848975,65.9576136 L230.608486,65.9576136 L230.608486,61.4036588 L239.812775,61.4036588 Z M260.703139,58.7773039 C255.667285,58.7773039 251.763895,62.4397437 251.763895,67.2828385 C251.763895,72.1018383 255.667285,75.8365632 260.703139,75.8365632 C265.738994,75.8365632 269.642384,72.1018383 269.642384,67.2828385 C269.642384,62.4638387 265.738994,58.7773039 260.703139,58.7773039 L260.703139,58.7773039 Z M260.727234,61.3313738 C264.028249,61.3313738 266.726889,63.9336337 266.726889,67.2828385 C266.726889,70.6320434 264.028249,73.2824933 260.727234,73.2824933 C257.42622,73.2824933 254.655295,70.6320434 254.655295,67.2828385 C254.655295,63.9336337 257.402125,61.3313738 260.727234,61.3313738 L260.727234,61.3313738 Z M285.665558,61.4036588 L285.689653,58.8495889 L274.365004,58.8495889 L274.365004,75.7160882 L277.208214,75.7160882 L277.208214,68.8008235 L284.870423,68.8008235 L284.870423,66.2708486 L277.208214,66.2708486 L277.208214,61.4036588 L285.665558,61.4036588 Z M297.809438,58.8495889 L297.809438,75.7160882 L304.652418,75.7160882 C309.760557,75.7160882 313.447092,72.1500283 313.447092,67.2828385 C313.447092,62.3915537 309.784652,58.8495889 304.724703,58.8495889 L297.809438,58.8495889 Z M300.652648,61.4036588 L304.676513,61.4036588 C308.001622,61.4036588 310.579787,63.8613487 310.579787,67.3069335 C310.579787,70.7284234 308.073907,73.1620183 304.796988,73.1620183 L300.652648,73.1620183 L300.652648,61.4036588 Z M330.217212,61.4036588 L330.217212,58.8495889 L318.169712,58.8495889 L318.169712,75.7160882 L330.506352,75.7160882 L330.506352,73.1620183 L321.012922,73.1620183 L321.012922,68.5116835 L329.253412,68.5116835 L329.253412,65.9576136 L321.012922,65.9576136 L321.012922,61.4036588 L330.217212,61.4036588 Z M341.204531,58.7291139 C337.542091,58.7291139 335.060306,60.5362388 335.060306,63.4276387 C335.060306,69.4272934 344.168216,67.3310285 344.168216,71.0898484 C344.168216,72.3909783 342.987561,73.1379233 341.011771,73.1379233 C339.204646,73.1379233 337.036096,72.2705033 335.301256,70.6802334 L334.072411,73.1379233 C335.807251,74.7281932 338.313131,75.8124682 340.963581,75.8124682 C344.674211,75.8124682 347.324661,73.9571532 347.324661,70.9452784 C347.348756,64.8733386 338.240846,66.8491285 338.240846,63.1625937 C338.240846,62.0301287 339.325121,61.4036588 340.987676,61.4036588 C342.264711,61.4036588 344.095931,61.8614637 345.927151,62.9698337 L347.107806,60.4639538 C345.541631,59.4278688 343.397176,58.7291139 341.204531,58.7291139 L341.204531,58.7291139 Z M355.179631,75.7160882 L355.179631,58.8495889 L352.336421,58.8495889 L352.336421,75.7160882 L355.179631,75.7160882 Z M372.841265,67.4274085 L372.841265,72.1259333 C371.636515,72.8487833 370.21491,73.2824933 368.96197,73.2824933 C365.516385,73.2824933 362.79365,70.6561384 362.79365,67.2828385 C362.79365,63.9336337 365.49229,61.3072788 368.937875,61.3072788 C370.69681,61.3072788 372.503935,62.0301287 373.805065,63.2348787 L375.41943,61.1386138 C373.756875,59.6929138 371.347375,58.7773039 368.937875,58.7773039 C363.829735,58.7773039 359.90225,62.4638387 359.90225,67.2828385 C359.90225,72.1018383 363.781545,75.8365632 368.76921,75.8365632 C371.08233,75.8365632 373.612305,74.9450482 375.32305,73.6439183 L375.32305,67.4274085 L372.841265,67.4274085 Z M395.659229,75.7160882 L395.659229,58.8495889 L392.864209,58.8495889 L392.864209,70.9693734 L383.828584,58.8495889 L381.033564,58.8495889 L381.033564,75.7160882 L383.876774,75.7160882 L383.876774,63.6203987 L392.864209,75.7160882 L395.659229,75.7160882 Z" id="SENSEOF-ARTS--Copy-2" fill="#FFFFFF" sketch:type="MSShapeGroup"></path>
            <g id="image-copy-9" sketch:type="MSLayerGroup" transform="translate(0.000000, 100.000000)">
                <rect id="Rectangle-7" fill="#D8D8D8" sketch:type="MSShapeGroup" x="0" y="0" width="1441" height="709"></rect>
                <path d="M450.78125,402.287225 L450.78125,318.112996 C450.78125,312.178634 445.78125,307.181278 439.84375,307.181278 C433.59375,307.181278 428.59375,312.178634 428.59375,318.112996 L428.59375,402.287225 C428.59375,408.221586 433.59375,413.218943 439.53125,413.218943 C445.78125,413.218943 450.78125,408.221586 450.78125,402.287225 L450.78125,402.287225 Z M615.625,402.131057 L615.625,320.611674 C615.625,310.304626 605.46875,306.556608 595.46875,308.118282 C588.59375,308.118282 582.8125,312.178634 580.3125,318.269163 L559.0625,371.053744 L537.8125,318.269163 C534.0625,309.211454 525.3125,307.02511 515.15625,308.118282 C508.28125,308.118282 502.65625,313.740308 502.65625,320.611674 L502.65625,402.287225 C502.65625,408.221586 507.65625,413.218943 513.59375,413.218943 C519.84375,413.218943 524.84375,408.221586 524.84375,402.287225 L524.84375,339.351762 L552.96875,409.15859 C553.90625,411.501101 556.25,413.218943 558.90625,413.218943 C561.875,413.218943 564.21875,411.501101 565.15625,409.15859 L593.28125,339.351762 L593.28125,402.131057 C593.28125,408.221586 598.28125,413.218943 604.375,413.218943 C610.625,413.218943 615.625,408.221586 615.625,402.131057 L615.625,402.131057 Z M759.6875,401.35022 C759.6875,399.944714 759.375,398.539207 758.90625,397.1337 L728.59375,318.893833 C725.625,311.24163 717.65625,306.556608 709.6875,307.181278 C702.34375,307.181278 695.3125,311.8663 692.65625,318.893833 L662.1875,397.1337 C661.5625,398.539207 661.40625,399.944714 661.40625,401.35022 C661.40625,407.284581 666.09375,413.218943 673.125,413.218943 C677.96875,413.218943 682.34375,410.40793 684.0625,405.879075 L688.28125,394.635022 L732.96875,394.635022 L737.03125,405.879075 C738.75,410.40793 743.125,413.218943 747.8125,413.218943 C755,413.218943 759.6875,407.128414 759.6875,401.35022 L759.6875,401.35022 Z M726.875,375.114097 L694.375,375.114097 L710.625,330.294053 L726.875,375.114097 Z M895.15625,384.796476 L895.15625,367.149559 C895.15625,360.278194 889.53125,354.656167 882.65625,354.656167 L854.0625,354.656167 C848.75,354.656167 844.53125,358.872687 844.53125,364.182379 C844.53125,369.804405 848.75,374.020925 854.0625,374.020925 L872.96875,374.020925 L872.96875,386.514317 C868.75,390.418502 860,394.478855 850.78125,394.478855 C831.875,394.478855 818.125,379.955286 818.125,360.278194 C818.125,340.601101 831.875,326.077533 850.78125,326.077533 C858.75,326.077533 866.5625,329.513216 872.5,335.29141 C874.53125,337.321586 877.34375,338.414758 880,338.414758 C885.46875,338.414758 890.46875,333.885903 890.46875,328.420044 C890.46875,326.077533 889.53125,323.578855 887.8125,321.704846 C879.6875,312.959471 867.65625,306.400441 850.78125,306.400441 C820.3125,306.400441 795.3125,327.326872 795.3125,360.278194 C795.3125,393.073348 820.3125,414.312115 850.78125,414.312115 C871.875,414.312115 895.15625,403.692731 895.15625,384.796476 L895.15625,384.796476 Z M1018.75,402.287225 C1018.75,397.1337 1014.375,392.761013 1009.21875,392.761013 L966.25,392.761013 L966.25,369.179736 L1008.125,369.179736 C1013.28125,369.179736 1017.65625,364.807048 1017.65625,359.497357 C1017.65625,354.031498 1013.28125,349.658811 1008.125,349.658811 L966.25,349.658811 L966.25,327.639207 L1009.21875,327.639207 C1014.375,327.639207 1018.75,323.26652 1018.75,317.956828 C1018.75,312.490969 1014.375,308.118282 1009.21875,308.118282 L956.5625,308.118282 C949.6875,308.118282 944.0625,313.740308 944.0625,320.611674 L944.0625,399.788546 C944.0625,406.659912 949.6875,412.281938 956.5625,412.281938 L1009.21875,412.281938 C1014.375,412.281938 1018.75,407.909251 1018.75,402.287225 L1018.75,402.287225 Z" id="IMAGE" fill="#FFFFFF" sketch:type="MSShapeGroup"></path>
            </g>
            <rect id="Rectangle-8-Copy" fill="url(#linearGradient-1)" sketch:type="MSShapeGroup" x="0" y="606" width="1440" height="203"></rect>
            <rect id="Rectangle-25-Copy" stroke="#979797" stroke-width="0.25" fill="#FFFFFF" sketch:type="MSShapeGroup" x="0" y="1142" width="1440" height="25"></rect>
            <rect id="Rectangle-26-Copy-6" stroke="#979797" stroke-width="0.25" fill="#FFFFFF" sketch:type="MSShapeGroup" x="0" y="1144" width="195" height="25"></rect>
            <rect id="Rectangle-26-Copy-7" stroke="#979797" stroke-width="0.25" fill="#FFFFFF" sketch:type="MSShapeGroup" x="1415" y="1141" width="25" height="25"></rect>
            <rect id="Rectangle-26-Copy-8" stroke="#979797" stroke-width="0.25" fill="#FFFFFF" sketch:type="MSShapeGroup" x="1390" y="1141" width="25" height="25"></rect>
            <rect id="Rectangle-26-Copy-9" stroke="#979797" stroke-width="0.25" fill="#FFFFFF" sketch:type="MSShapeGroup" x="1365" y="1141" width="25" height="25"></rect>
            <rect id="Rectangle-26-Copy-10" stroke="#979797" stroke-width="0.25" fill="#FFFFFF" sketch:type="MSShapeGroup" x="1340" y="1141" width="25" height="25"></rect>
            <rect id="Rectangle-26-Copy-11" stroke="#979797" stroke-width="0.25" fill="#FFFFFF" sketch:type="MSShapeGroup" x="1315" y="1141" width="25" height="25"></rect>
            <path d="M58.1297297,765.448649 L58.1297297,740.551351 L56.5405405,740.551351 L56.5405405,767 L69.8972973,767 L69.8972973,765.448649 L58.1297297,765.448649 Z M82.3837838,747.248649 C76.8216216,747.248649 72.772973,751.372973 72.772973,757.162162 C72.772973,762.951351 76.8216216,767.037838 82.3837838,767.037838 C85.5243243,767.037838 88.2108108,765.864865 90.027027,763.897297 L89.1189189,762.875676 C87.5297297,764.616216 85.1459459,765.6 82.4594595,765.6 C77.8810811,765.6 74.5513514,762.383784 74.3243243,757.578378 L91.5405405,757.578378 C91.6540541,751.486486 88.172973,747.248649 82.3837838,747.248649 L82.3837838,747.248649 Z M74.3621622,756.178378 C74.7405405,751.713514 77.9567568,748.686486 82.3837838,748.686486 C86.8864865,748.686486 89.8,751.713514 90.1027027,756.178378 L74.3621622,756.178378 Z M105.843243,764.351351 C104.821622,765.07027 103.648649,765.486486 102.513514,765.486486 C100.47027,765.524324 99.372973,764.162162 99.372973,761.362162 L99.372973,749.140541 L106.07027,749.140541 L106.07027,747.778378 L99.372973,747.778378 L99.372973,742.897297 L97.8594595,742.897297 L97.8594595,747.778378 L94.9837838,747.778378 L94.9837838,749.140541 L97.8594595,749.140541 L97.8594595,761.551351 C97.8594595,765.259459 99.5243243,767.075676 102.324324,767.037838 C103.8,767.037838 105.2,766.508108 106.448649,765.637838 L105.843243,764.351351 Z M110.8,740.551351 C110.081081,740.551351 109.513514,741.118919 109.513514,741.875676 C109.513514,742.405405 109.740541,742.897297 110.232432,743.086486 L109.172973,745.243243 L110.232432,745.243243 L111.632432,743.124324 C111.897297,742.708108 112.086486,742.367568 112.086486,741.913514 C112.086486,741.118919 111.481081,740.551351 110.8,740.551351 L110.8,740.551351 Z M125.556757,747.248649 C119.994595,747.248649 115.945946,751.372973 115.945946,757.162162 C115.945946,762.951351 119.994595,767.037838 125.556757,767.037838 C128.697297,767.037838 131.383784,765.864865 133.2,763.897297 L132.291892,762.875676 C130.702703,764.616216 128.318919,765.6 125.632432,765.6 C121.054054,765.6 117.724324,762.383784 117.497297,757.578378 L134.713514,757.578378 C134.827027,751.486486 131.345946,747.248649 125.556757,747.248649 L125.556757,747.248649 Z M117.535135,756.178378 C117.913514,751.713514 121.12973,748.686486 125.556757,748.686486 C130.059459,748.686486 132.972973,751.713514 133.275676,756.178378 L117.535135,756.178378 Z M161.237838,747.248649 C157.264865,747.324324 154.464865,749.102703 153.140541,752.432432 L153.140541,738.924324 L151.551351,738.924324 L151.551351,767 L153.140541,767 L153.140541,757.351351 C153.140541,752.205405 155.978378,748.951351 160.859459,748.837838 C164.908108,748.837838 167.291892,751.221622 167.291892,755.27027 L167.291892,767 L168.881081,767 L168.881081,754.967568 C168.881081,750.162162 166.043243,747.248649 161.237838,747.248649 L161.237838,747.248649 Z M183.6,747.248649 C178.037838,747.248649 173.989189,751.372973 173.989189,757.162162 C173.989189,762.951351 178.037838,767.037838 183.6,767.037838 C186.740541,767.037838 189.427027,765.864865 191.243243,763.897297 L190.335135,762.875676 C188.745946,764.616216 186.362162,765.6 183.675676,765.6 C179.097297,765.6 175.767568,762.383784 175.540541,757.578378 L192.756757,757.578378 C192.87027,751.486486 189.389189,747.248649 183.6,747.248649 L183.6,747.248649 Z M175.578378,756.178378 C175.956757,751.713514 179.172973,748.686486 183.6,748.686486 C188.102703,748.686486 191.016216,751.713514 191.318919,756.178378 L175.578378,756.178378 Z M200.172973,767 L200.172973,738.924324 L198.583784,738.924324 L198.583784,767 L200.172973,767 Z M218.372973,747.248649 C214.513514,747.248649 211.486486,749.254054 210.010811,752.47027 L210.010811,747.286486 L208.421622,747.286486 L208.421622,774.340541 L210.010811,774.340541 L210.010811,761.854054 C211.486486,765.032432 214.513514,767.037838 218.372973,767.037838 C223.935135,767.037838 227.87027,762.913514 227.87027,757.162162 C227.87027,751.372973 223.897297,747.248649 218.372973,747.248649 L218.372973,747.248649 Z M218.145946,765.562162 C213.416216,765.562162 210.010811,762.043243 210.010811,757.162162 C210.010811,752.281081 213.416216,748.724324 218.145946,748.724324 C222.913514,748.724324 226.318919,752.281081 226.318919,757.162162 C226.318919,762.043243 222.913514,765.562162 218.145946,765.562162 L218.145946,765.562162 Z M258.632432,747.286486 L256.967568,747.286486 L249.891892,765.145946 L242.627027,747.286486 L240.962162,747.286486 L249.097297,767 L248.189189,769.232432 C247.243243,771.540541 245.72973,772.789189 243.951351,772.789189 C242.854054,772.789189 241.832432,772.486486 240.962162,771.881081 L240.281081,773.243243 C241.302703,774 242.589189,774.378378 244.027027,774.378378 C246.335135,774.378378 248.264865,772.789189 249.475676,769.837838 L258.632432,747.286486 Z M270.135135,747.248649 C264.535135,747.248649 260.410811,751.372973 260.410811,757.124324 C260.410811,762.951351 264.535135,767.037838 270.135135,767.037838 C275.772973,767.037838 279.859459,762.951351 279.859459,757.124324 C279.859459,751.372973 275.772973,747.248649 270.135135,747.248649 L270.135135,747.248649 Z M270.135135,748.762162 C274.902703,748.762162 278.308108,752.205405 278.308108,757.162162 C278.308108,762.118919 274.902703,765.562162 270.135135,765.562162 C265.405405,765.562162 261.962162,762.118919 261.962162,757.162162 C261.962162,752.205405 265.405405,748.762162 270.135135,748.762162 L270.135135,748.762162 Z M301.956757,747.286486 L300.405405,747.286486 L300.405405,756.935135 C300.405405,762.081081 297.605405,765.335135 292.837838,765.448649 C288.864865,765.448649 286.518919,763.064865 286.518919,759.016216 L286.518919,747.286486 L284.967568,747.286486 L284.967568,759.318919 C284.967568,764.162162 287.72973,767.037838 292.497297,767.037838 C296.394595,767 299.156757,765.145946 300.405405,761.740541 L300.405405,767 L301.956757,767 L301.956757,747.286486 Z M331.016216,747.248649 C327.156757,747.248649 324.12973,749.254054 322.654054,752.47027 L322.654054,738.924324 L321.064865,738.924324 L321.064865,767 L322.654054,767 L322.654054,761.854054 C324.12973,765.032432 327.156757,767.037838 331.016216,767.037838 C336.578378,767.037838 340.513514,762.913514 340.513514,757.162162 C340.513514,751.372973 336.540541,747.248649 331.016216,747.248649 L331.016216,747.248649 Z M330.789189,765.562162 C326.059459,765.562162 322.654054,762.043243 322.654054,757.162162 C322.654054,752.281081 326.059459,748.724324 330.789189,748.724324 C335.556757,748.724324 338.962162,752.281081 338.962162,757.162162 C338.962162,762.043243 335.556757,765.562162 330.789189,765.562162 L330.789189,765.562162 Z M353.756757,747.248649 C348.194595,747.248649 344.145946,751.372973 344.145946,757.162162 C344.145946,762.951351 348.194595,767.037838 353.756757,767.037838 C356.897297,767.037838 359.583784,765.864865 361.4,763.897297 L360.491892,762.875676 C358.902703,764.616216 356.518919,765.6 353.832432,765.6 C349.254054,765.6 345.924324,762.383784 345.697297,757.578378 L362.913514,757.578378 C363.027027,751.486486 359.545946,747.248649 353.756757,747.248649 L353.756757,747.248649 Z M345.735135,756.178378 C346.113514,751.713514 349.32973,748.686486 353.756757,748.686486 C358.259459,748.686486 361.172973,751.713514 361.475676,756.178378 L345.735135,756.178378 Z M387.091892,747.248649 C381.52973,747.248649 377.443243,751.372973 377.443243,757.162162 C377.443243,762.951351 381.52973,767.037838 387.091892,767.037838 C390.156757,767.037838 392.767568,765.864865 394.508108,763.821622 L393.562162,762.8 C392.048649,764.578378 389.778378,765.562162 387.12973,765.562162 C382.4,765.562162 378.994595,762.118919 378.994595,757.124324 C378.994595,752.205405 382.4,748.762162 387.12973,748.762162 C389.589189,748.762162 391.632432,749.67027 393.221622,751.145946 L394.12973,750.010811 C392.389189,748.27027 389.92973,747.248649 387.091892,747.248649 L387.091892,747.248649 Z M402.302703,747.286486 L400.713514,747.286486 L400.713514,767 L402.302703,767 L402.302703,756.32973 C402.643243,751.751351 405.291892,748.875676 409.643243,748.875676 L409.643243,747.248649 C406.124324,747.324324 403.551351,749.064865 402.302703,752.243243 L402.302703,747.286486 Z M421.448649,747.248649 C415.886486,747.248649 411.837838,751.372973 411.837838,757.162162 C411.837838,762.951351 415.886486,767.037838 421.448649,767.037838 C424.589189,767.037838 427.275676,765.864865 429.091892,763.897297 L428.183784,762.875676 C426.594595,764.616216 424.210811,765.6 421.524324,765.6 C416.945946,765.6 413.616216,762.383784 413.389189,757.578378 L430.605405,757.578378 C430.718919,751.486486 427.237838,747.248649 421.448649,747.248649 L421.448649,747.248649 Z M413.427027,756.178378 C413.805405,751.713514 417.021622,748.686486 421.448649,748.686486 C425.951351,748.686486 428.864865,751.713514 429.167568,756.178378 L413.427027,756.178378 Z M448.918919,767 L450.47027,767 L450.394595,753.908108 C450.356757,749.821622 447.821622,747.248649 443.167568,747.248649 C440.178378,747.248649 437.908108,748.345946 435.562162,750.048649 L436.318919,751.259459 C438.4,749.67027 440.481081,748.686486 442.940541,748.686486 C446.875676,748.686486 448.805405,750.691892 448.843243,754.021622 L448.843243,755.951351 L441.843243,755.951351 C437.302703,755.951351 434.502703,757.956757 434.502703,761.248649 C434.502703,764.578378 437.113514,767.037838 441.010811,767.037838 C444.416216,767.037838 447.216216,765.827027 448.881081,763.102703 L448.918919,767 Z M441.237838,765.6 C438.021622,765.6 436.016216,763.821622 436.016216,761.210811 C436.016216,758.675676 438.135135,757.351351 441.994595,757.351351 L448.881081,757.351351 L448.881081,760.567568 C447.67027,764.010811 444.908108,765.6 441.237838,765.6 L441.237838,765.6 Z M466.362162,764.351351 C465.340541,765.07027 464.167568,765.486486 463.032432,765.486486 C460.989189,765.524324 459.891892,764.162162 459.891892,761.362162 L459.891892,749.140541 L466.589189,749.140541 L466.589189,747.778378 L459.891892,747.778378 L459.891892,742.897297 L458.378378,742.897297 L458.378378,747.778378 L455.502703,747.778378 L455.502703,749.140541 L458.378378,749.140541 L458.378378,761.551351 C458.378378,765.259459 460.043243,767.075676 462.843243,767.037838 C464.318919,767.037838 465.718919,766.508108 466.967568,765.637838 L466.362162,764.351351 Z M472.567568,740.248649 C471.848649,740.248649 471.243243,740.854054 471.243243,741.610811 C471.243243,742.405405 471.848649,743.010811 472.567568,743.010811 C473.286486,743.010811 473.891892,742.405405 473.891892,741.610811 C473.891892,740.854054 473.286486,740.248649 472.567568,740.248649 L472.567568,740.248649 Z M473.324324,767 L473.324324,747.286486 L471.772973,747.286486 L471.772973,767 L473.324324,767 Z M487.210811,767 L495.156757,747.286486 L493.491892,747.286486 L486.416216,765.297297 L479.302703,747.286486 L477.6,747.286486 L485.583784,767 L487.210811,767 Z M506.545946,747.248649 C500.983784,747.248649 496.935135,751.372973 496.935135,757.162162 C496.935135,762.951351 500.983784,767.037838 506.545946,767.037838 C509.686486,767.037838 512.372973,765.864865 514.189189,763.897297 L513.281081,762.875676 C511.691892,764.616216 509.308108,765.6 506.621622,765.6 C502.043243,765.6 498.713514,762.383784 498.486486,757.578378 L515.702703,757.578378 C515.816216,751.486486 512.335135,747.248649 506.545946,747.248649 L506.545946,747.248649 Z M498.524324,756.178378 C498.902703,751.713514 502.118919,748.686486 506.545946,748.686486 C511.048649,748.686486 513.962162,751.713514 514.264865,756.178378 L498.524324,756.178378 Z M545.027027,767 L546.578378,767 L546.502703,753.908108 C546.464865,749.821622 543.92973,747.248649 539.275676,747.248649 C536.286486,747.248649 534.016216,748.345946 531.67027,750.048649 L532.427027,751.259459 C534.508108,749.67027 536.589189,748.686486 539.048649,748.686486 C542.983784,748.686486 544.913514,750.691892 544.951351,754.021622 L544.951351,755.951351 L537.951351,755.951351 C533.410811,755.951351 530.610811,757.956757 530.610811,761.248649 C530.610811,764.578378 533.221622,767.037838 537.118919,767.037838 C540.524324,767.037838 543.324324,765.827027 544.989189,763.102703 L545.027027,767 Z M537.345946,765.6 C534.12973,765.6 532.124324,763.821622 532.124324,761.210811 C532.124324,758.675676 534.243243,757.351351 538.102703,757.351351 L544.989189,757.351351 L544.989189,760.567568 C543.778378,764.010811 541.016216,765.6 537.345946,765.6 L537.345946,765.6 Z M558.459459,747.248649 C554.978378,747.248649 551.989189,748.762162 551.989189,752.205405 C551.989189,758.978378 563.643243,756.443243 563.491892,762.005405 C563.378378,764.502703 560.994595,765.6 558.232432,765.6 C555.735135,765.6 553.351351,764.691892 551.648649,763.102703 L550.92973,764.313514 C552.745946,766.054054 555.394595,767.037838 558.156757,767.037838 C561.713514,767.037838 565.005405,765.410811 565.005405,761.740541 C565.005405,754.778378 553.502703,757.389189 553.502703,752.091892 C553.502703,749.745946 555.659459,748.686486 558.421622,748.686486 C560.313514,748.686486 562.054054,749.216216 563.416216,750.086486 L564.097297,748.8 C562.545946,747.854054 560.654054,747.248649 558.459459,747.248649 L558.459459,747.248649 Z M591.227027,747.248649 C587.254054,747.324324 584.454054,749.102703 583.12973,752.432432 L583.12973,738.924324 L581.540541,738.924324 L581.540541,767 L583.12973,767 L583.12973,757.351351 C583.12973,752.205405 585.967568,748.951351 590.848649,748.837838 C594.897297,748.837838 597.281081,751.221622 597.281081,755.27027 L597.281081,767 L598.87027,767 L598.87027,754.967568 C598.87027,750.162162 596.032432,747.248649 591.227027,747.248649 L591.227027,747.248649 Z M613.589189,747.248649 C608.027027,747.248649 603.978378,751.372973 603.978378,757.162162 C603.978378,762.951351 608.027027,767.037838 613.589189,767.037838 C616.72973,767.037838 619.416216,765.864865 621.232432,763.897297 L620.324324,762.875676 C618.735135,764.616216 616.351351,765.6 613.664865,765.6 C609.086486,765.6 605.756757,762.383784 605.52973,757.578378 L622.745946,757.578378 C622.859459,751.486486 619.378378,747.248649 613.589189,747.248649 L613.589189,747.248649 Z M605.567568,756.178378 C605.945946,751.713514 609.162162,748.686486 613.589189,748.686486 C618.091892,748.686486 621.005405,751.713514 621.308108,756.178378 L605.567568,756.178378 Z M630.162162,767 L630.162162,738.924324 L628.572973,738.924324 L628.572973,767 L630.162162,767 Z M640,767 L640,738.924324 L638.410811,738.924324 L638.410811,767 L640,767 Z M673.07027,747.286486 L671.405405,747.286486 L664.32973,765.145946 L657.064865,747.286486 L655.4,747.286486 L663.535135,767 L662.627027,769.232432 C661.681081,771.540541 660.167568,772.789189 658.389189,772.789189 C657.291892,772.789189 656.27027,772.486486 655.4,771.881081 L654.718919,773.243243 C655.740541,774 657.027027,774.378378 658.464865,774.378378 C660.772973,774.378378 662.702703,772.789189 663.913514,769.837838 L673.07027,747.286486 Z M684.459459,747.248649 C678.897297,747.248649 674.848649,751.372973 674.848649,757.162162 C674.848649,762.951351 678.897297,767.037838 684.459459,767.037838 C687.6,767.037838 690.286486,765.864865 692.102703,763.897297 L691.194595,762.875676 C689.605405,764.616216 687.221622,765.6 684.535135,765.6 C679.956757,765.6 676.627027,762.383784 676.4,757.578378 L693.616216,757.578378 C693.72973,751.486486 690.248649,747.248649 684.459459,747.248649 L684.459459,747.248649 Z M676.437838,756.178378 C676.816216,751.713514 680.032432,748.686486 684.459459,748.686486 C688.962162,748.686486 691.875676,751.713514 692.178378,756.178378 L676.437838,756.178378 Z M703.908108,747.248649 C700.427027,747.248649 697.437838,748.762162 697.437838,752.205405 C697.437838,758.978378 709.091892,756.443243 708.940541,762.005405 C708.827027,764.502703 706.443243,765.6 703.681081,765.6 C701.183784,765.6 698.8,764.691892 697.097297,763.102703 L696.378378,764.313514 C698.194595,766.054054 700.843243,767.037838 703.605405,767.037838 C707.162162,767.037838 710.454054,765.410811 710.454054,761.740541 C710.454054,754.778378 698.951351,757.389189 698.951351,752.091892 C698.951351,749.745946 701.108108,748.686486 703.87027,748.686486 C705.762162,748.686486 707.502703,749.216216 708.864865,750.086486 L709.545946,748.8 C707.994595,747.854054 706.102703,747.248649 703.908108,747.248649 L703.908108,747.248649 Z M716.432432,747.324324 L716.432432,741.118919 L714.918919,741.118919 L714.918919,747.324324 L715.07027,759.545946 L716.281081,759.545946 L716.432432,747.324324 Z M715.675676,764.578378 C714.956757,764.578378 714.389189,765.145946 714.389189,765.902703 C714.389189,766.697297 714.956757,767.302703 715.675676,767.302703 C716.394595,767.302703 716.962162,766.697297 716.962162,765.902703 C716.962162,765.145946 716.394595,764.578378 715.675676,764.578378 L715.675676,764.578378 Z" id="Lete-help-you-be-cr-Copy" fill="#000000" sketch:type="MSShapeGroup"></path>
            <path d="M96.6,704.043243 L101.67027,716 L111.205405,716 L88.0486486,663.027027 L78.8918919,663.027027 L55.5081081,716 L64.8162162,716 L69.8864865,704.043243 L96.6,704.043243 Z M93.1945946,696.097297 L73.2162162,696.097297 L83.2054054,672.562162 L93.1945946,696.097297 Z M118.243243,663.027027 L118.243243,716 L127.172973,716 L127.172973,700.032432 L139.356757,700.032432 C152.675676,700.032432 160.318919,693.07027 160.318919,681.113514 C160.318919,669.610811 152.675676,663.027027 139.356757,663.027027 L118.243243,663.027027 Z M127.172973,671.048649 L138.978378,671.048649 C147.151351,671.048649 151.767568,674.378378 151.767568,681.340541 C151.767568,688.52973 147.151351,692.010811 138.978378,692.010811 L127.172973,692.010811 L127.172973,671.048649 Z M169.172973,663.027027 L169.172973,716 L178.102703,716 L178.102703,700.032432 L190.286486,700.032432 C203.605405,700.032432 211.248649,693.07027 211.248649,681.113514 C211.248649,669.610811 203.605405,663.027027 190.286486,663.027027 L169.172973,663.027027 Z M178.102703,671.048649 L189.908108,671.048649 C198.081081,671.048649 202.697297,674.378378 202.697297,681.340541 C202.697297,688.52973 198.081081,692.010811 189.908108,692.010811 L178.102703,692.010811 L178.102703,671.048649 Z M229.032432,707.902703 L229.032432,663.027027 L220.102703,663.027027 L220.102703,716 L251.962162,716 L251.962162,707.902703 L229.032432,707.902703 Z M282.232432,698.367568 L301.681081,663.027027 L292.6,663.027027 L277.767568,688.832432 L262.632432,663.027027 L253.627027,663.027027 L273.378378,698.67027 L273.378378,716 L282.232432,716 L282.232432,698.367568 Z M373.27027,663.027027 L364.340541,663.027027 L364.340541,694.054054 C364.340541,703.059459 358.967568,708.356757 350.340541,708.356757 C341.637838,708.356757 336.113514,702.983784 336.113514,694.054054 L336.113514,663.027027 L327.183784,663.027027 L327.183784,694.054054 C327.183784,707.902703 335.962162,716.378378 350.264865,716.378378 C364.567568,716.378378 373.27027,707.902703 373.27027,694.054054 L373.27027,663.027027 Z M403.464865,662.648649 C391.962162,662.648649 384.167568,668.324324 384.167568,677.405405 C384.167568,696.248649 412.772973,689.664865 412.772973,701.47027 C412.772973,705.556757 409.064865,707.902703 402.859459,707.902703 C397.183784,707.902703 390.372973,705.178378 384.924324,700.183784 L381.064865,707.902703 C386.513514,712.897297 394.383784,716.302703 402.708108,716.302703 C414.362162,716.302703 422.686486,710.475676 422.686486,701.016216 C422.762162,681.945946 394.156757,688.151351 394.156757,676.572973 C394.156757,673.016216 397.562162,671.048649 402.783784,671.048649 C406.794595,671.048649 412.545946,672.486486 418.297297,675.967568 L422.005405,668.097297 C417.086486,664.843243 410.351351,662.648649 403.464865,662.648649 L403.464865,662.648649 Z M498.589189,716 L498.589189,663.027027 L489.810811,663.027027 L489.810811,701.091892 L461.432432,663.027027 L452.654054,663.027027 L452.654054,716 L461.583784,716 L461.583784,678.010811 L489.810811,716 L498.589189,716 Z M536.275676,662.8 C520.459459,662.8 508.2,674.302703 508.2,689.513514 C508.2,704.648649 520.459459,716.378378 536.275676,716.378378 C552.091892,716.378378 564.351351,704.648649 564.351351,689.513514 C564.351351,674.378378 552.091892,662.8 536.275676,662.8 L536.275676,662.8 Z M536.351351,670.821622 C546.718919,670.821622 555.194595,678.994595 555.194595,689.513514 C555.194595,700.032432 546.718919,708.356757 536.351351,708.356757 C525.983784,708.356757 517.281081,700.032432 517.281081,689.513514 C517.281081,678.994595 525.908108,670.821622 536.351351,670.821622 L536.351351,670.821622 Z M627.616216,716 L645.324324,663.027027 L636.091892,663.027027 L623.302703,706.086486 L610.437838,663.027027 L601.659459,663.102703 L588.87027,706.086486 L576.005405,663.027027 L566.394595,663.027027 L583.951351,716 L593.183784,716 L605.897297,674.681081 L618.459459,716 L627.616216,716 Z" id="APPLY-US-NOW-Copy" fill="#000000" sketch:type="MSShapeGroup"></path>
            <path d="M235.395973,976 L254.241611,919.624161 L244.416107,919.624161 L230.805369,965.449664 L217.114094,919.624161 L207.771812,919.704698 L194.161074,965.449664 L180.469799,919.624161 L170.241611,919.624161 L188.926174,976 L198.751678,976 L212.281879,932.026846 L225.651007,976 L235.395973,976 Z M309.731544,976 L309.731544,919.624161 L300.228188,919.624161 L300.228188,944.107383 L270.348993,944.107383 L270.348993,919.624161 L260.845638,919.624161 L260.845638,976 L270.348993,976 L270.348993,952.644295 L300.228188,952.644295 L300.228188,976 L309.731544,976 Z M347.66443,957.234899 L368.362416,919.624161 L358.697987,919.624161 L342.912752,947.087248 L326.805369,919.624161 L317.221477,919.624161 L338.241611,957.557047 L338.241611,976 L347.66443,976 L347.66443,957.234899 Z M444.550336,919.624161 L435.04698,919.624161 L435.04698,952.644295 C435.04698,962.228188 429.328859,967.865772 420.147651,967.865772 C410.885906,967.865772 405.006711,962.147651 405.006711,952.644295 L405.006711,919.624161 L395.503356,919.624161 L395.503356,952.644295 C395.503356,967.38255 404.845638,976.402685 420.067114,976.402685 C435.288591,976.402685 444.550336,967.38255 444.550336,952.644295 L444.550336,919.624161 Z M476.684564,919.221477 C464.442953,919.221477 456.147651,925.261745 456.147651,934.926174 C456.147651,954.979866 486.590604,947.973154 486.590604,960.536913 C486.590604,964.885906 482.644295,967.38255 476.040268,967.38255 C470,967.38255 462.751678,964.483221 456.95302,959.167785 L452.845638,967.38255 C458.644295,972.697987 467.020134,976.322148 475.879195,976.322148 C488.281879,976.322148 497.14094,970.120805 497.14094,960.053691 C497.221477,939.758389 466.778523,946.362416 466.778523,934.040268 C466.778523,930.255034 470.402685,928.161074 475.959732,928.161074 C480.228188,928.161074 486.348993,929.691275 492.469799,933.395973 L496.416107,925.020134 C491.181208,921.557047 484.013423,919.221477 476.684564,919.221477 L476.684564,919.221477 Z M529.275168,936.134228 C529.516779,930.657718 532.657718,927.919463 537.892617,927.919463 C542.885906,927.919463 546.187919,930.174497 546.187919,934.845638 C546.187919,944.590604 534.993289,944.671141 534.993289,957.637584 L542.080537,957.637584 C542.080537,946.765101 554.805369,946.201342 554.805369,933.47651 C554.805369,924.697987 548.362416,920.026846 538.697987,920.026846 C528.711409,920.026846 522.348993,925.825503 522.026846,936.053691 L529.275168,936.134228 Z M538.456376,966.09396 C535.557047,966.09396 533.38255,968.268456 533.38255,971.328859 C533.38255,974.469799 535.557047,976.724832 538.456376,976.724832 C541.355705,976.724832 543.530201,974.469799 543.530201,971.328859 C543.530201,968.268456 541.355705,966.09396 538.456376,966.09396 L538.456376,966.09396 Z" id="WHY-US-?-Copy" fill="#000000" sketch:type="MSShapeGroup"></path>
            <rect id="Rectangle-76-Copy-20" fill="#D8D8D8" sketch:type="MSShapeGroup" x="164" y="1031" width="496" height="32"></rect>
            <rect id="Rectangle-76-Copy-21" fill="#D8D8D8" sketch:type="MSShapeGroup" x="164" y="1103" width="566" height="32"></rect>
        </g>
    </g>
</svg>