<?xml version="1.0" encoding="UTF-8" standalone="no"?>
<svg width="1440px" height="1167px" viewBox="0 0 1440 1167" version="1.1" xmlns="http://www.w3.org/2000/svg" xmlns:xlink="http://www.w3.org/1999/xlink" xmlns:sketch="http://www.bohemiancoding.com/sketch/ns">
    <!-- Generator: Sketch 3.4.2 (15857) - http://www.bohemiancoding.com/sketch -->
    <title>HOMEPAGEDS</title>
    <desc>Created with Sketch.</desc>
    <defs>
        <filter x="-50%" y="-50%" width="200%" height="200%" filterUnits="objectBoundingBox" id="filter-1">
            <feOffset dx="0" dy="2" in="SourceAlpha" result="shadowOffsetOuter1"></feOffset>
            <feGaussianBlur stdDeviation="2" in="shadowOffsetOuter1" result="shadowBlurOuter1"></feGaussianBlur>
            <feColorMatrix values="0 0 0 0 0   0 0 0 0 0   0 0 0 0 0  0 0 0 0.35 0" in="shadowBlurOuter1" type="matrix" result="shadowMatrixOuter1"></feColorMatrix>
            <feMerge>
                <feMergeNode in="shadowMatrixOuter1"></feMergeNode>
                <feMergeNode in="SourceGraphic"></feMergeNode>
            </feMerge>
        </filter>
        <linearGradient x1="0%" y1="56.3891113%" x2="100%" y2="56.3891113%" id="linearGradient-2">
            <stop stop-color="#FFFFFF" offset="0%"></stop>
            <stop stop-color="#FFFFFF" stop-opacity="0" offset="100%"></stop>
        </linearGradient>
    </defs>
    <g id="Page-1" stroke="none" stroke-width="1" fill="none" fill-rule="evenodd" sketch:type="MSPage">
        <g id="HOMEPAGEDS" sketch:type="MSArtboardGroup">
            <rect id="Rectangle-17" fill="#FFFFFF" filter="url(#filter-1)" sketch:type="MSShapeGroup" x="120" y="0" width="1200" height="1025"></rect>
            <path d="M28.8520001,434.95 C27.3320001,434.95 26.3020001,435.7 26.3020001,436.9 C26.3020001,439.39 30.0820001,438.52 30.0820001,440.08 C30.0820001,440.62 29.5920001,440.93 28.7720001,440.93 C28.0220001,440.93 27.1220001,440.57 26.4020001,439.91 L25.8920001,440.93 C26.6120001,441.59 27.6520001,442.04 28.7520001,442.04 C30.2920001,442.04 31.3920001,441.27 31.3920001,440.02 C31.4020001,437.5 27.6220001,438.32 27.6220001,436.79 C27.6220001,436.32 28.0720001,436.06 28.7620001,436.06 C29.2920001,436.06 30.0520001,436.25 30.8120001,436.71 L31.3020001,435.67 C30.6520001,435.24 29.7620001,434.95 28.8520001,434.95 L28.8520001,434.95 Z M38.472,436.06 L38.472,435 L33.472,435 L33.472,442 L38.592,442 L38.592,440.94 L34.652,440.94 L34.652,439.01 L38.072,439.01 L38.072,437.95 L34.652,437.95 L34.652,436.06 L38.472,436.06 Z M46.802,442 L46.802,435 L45.642,435 L45.642,440.03 L41.892,435 L40.732,435 L40.732,442 L41.912,442 L41.912,436.98 L45.642,442 L46.802,442 Z M51.652,434.95 C50.132,434.95 49.102,435.7 49.102,436.9 C49.102,439.39 52.882,438.52 52.882,440.08 C52.882,440.62 52.392,440.93 51.572,440.93 C50.822,440.93 49.922,440.57 49.202,439.91 L48.692,440.93 C49.412,441.59 50.452,442.04 51.552,442.04 C53.092,442.04 54.192,441.27 54.192,440.02 C54.202,437.5 50.422,438.32 50.422,436.79 C50.422,436.32 50.872,436.06 51.562,436.06 C52.092,436.06 52.852,436.25 53.612,436.71 L54.102,435.67 C53.452,435.24 52.562,434.95 51.652,434.95 L51.652,434.95 Z M61.272,436.06 L61.272,435 L56.272,435 L56.272,442 L61.392,442 L61.392,440.94 L57.452,440.94 L57.452,439.01 L60.872,439.01 L60.872,437.95 L57.452,437.95 L57.452,436.06 L61.272,436.06 Z M64.232,439.188 C63.396,439.188 62.748,439.796 62.748,440.6 C62.748,441.4 63.396,442.02 64.232,442.02 C65.068,442.02 65.716,441.4 65.716,440.6 C65.716,439.8 65.068,439.188 64.232,439.188 L64.232,439.188 Z M64.236,439.612 C64.784,439.612 65.232,440.044 65.232,440.6 C65.232,441.156 64.784,441.596 64.236,441.596 C63.688,441.596 63.228,441.156 63.228,440.6 C63.228,440.044 63.684,439.612 64.236,439.612 L64.236,439.612 Z M68.096,439.624 L68.1,439.2 L66.22,439.2 L66.22,442 L66.692,442 L66.692,440.852 L67.964,440.852 L67.964,440.432 L66.692,440.432 L66.692,439.624 L68.096,439.624 Z M74.688,440.42 L75.358,442 L76.618,442 L73.558,435 L72.348,435 L69.258,442 L70.488,442 L71.158,440.42 L74.688,440.42 Z M74.238,439.37 L71.598,439.37 L72.918,436.26 L74.238,439.37 Z M82.688,442 L84.028,442 L82.458,439.66 C83.388,439.3 83.908,438.51 83.908,437.39 C83.908,435.87 82.878,435 81.088,435 L78.248,435 L78.248,442 L79.428,442 L79.428,439.89 L81.088,439.89 C81.198,439.89 81.308,439.89 81.408,439.88 L82.688,442 Z M79.428,438.83 L79.428,436.06 L81.088,436.06 C82.168,436.06 82.788,436.5 82.788,437.42 C82.788,438.37 82.168,438.83 81.088,438.83 L79.428,438.83 Z M90.958,436.06 L90.958,435 L85.348,435 L85.348,436.06 L87.558,436.06 L87.558,442 L88.738,442 L88.738,436.06 L90.958,436.06 Z M94.968,434.95 C93.448,434.95 92.418,435.7 92.418,436.9 C92.418,439.39 96.198,438.52 96.198,440.08 C96.198,440.62 95.708,440.93 94.888,440.93 C94.138,440.93 93.238,440.57 92.518,439.91 L92.008,440.93 C92.728,441.59 93.768,442.04 94.868,442.04 C96.408,442.04 97.508,441.27 97.508,440.02 C97.518,437.5 93.738,438.32 93.738,436.79 C93.738,436.32 94.188,436.06 94.878,436.06 C95.408,436.06 96.168,436.25 96.928,436.71 L97.418,435.67 C96.768,435.24 95.878,434.95 94.968,434.95 L94.968,434.95 Z M28.3566011,443.6414 C27.0732011,443.6414 26.0750011,444.59 26.0750011,445.8238 C26.0750011,447.07 27.0608011,448.031 28.3318011,448.031 C28.945601,448.031 29.571801,447.752 30.012001,447.318 L29.578001,446.8344 C29.249401,447.1506 28.803001,447.349 28.3690011,447.349 C27.5010011,447.349 26.8190011,446.6732 26.8190011,445.8176 C26.8190011,444.962 27.5010011,444.2924 28.3690011,444.2924 C28.809201,444.2924 29.261801,444.5032 29.578001,444.8442 L30.005801,444.311 C29.584201,443.8956 28.970401,443.6414 28.3566011,443.6414 L28.3566011,443.6414 Z M33.0376009,443.6414 C31.741801,443.6414 30.737401,444.5838 30.737401,445.83 C30.737401,447.07 31.741801,448.031 33.0376009,448.031 C34.3334009,448.031 35.3378008,447.07 35.3378008,445.83 C35.3378008,444.59 34.3334009,443.6414 33.0376009,443.6414 L33.0376009,443.6414 Z M33.0438009,444.2986 C33.8932009,444.2986 34.5876009,444.9682 34.5876009,445.83 C34.5876009,446.6918 33.8932009,447.3738 33.0438009,447.3738 C32.1944009,447.3738 31.481401,446.6918 31.481401,445.83 C31.481401,444.9682 32.1882009,444.2986 33.0438009,444.2986 L33.0438009,444.2986 Z M37.2846008,447.3366 L37.2846008,443.66 L36.5530008,443.66 L36.5530008,448 L39.1632007,448 L39.1632007,447.3366 L37.2846008,447.3366 Z M41.0294007,447.3366 L41.0294007,443.66 L40.2978007,443.66 L40.2978007,448 L42.9080006,448 L42.9080006,447.3366 L41.0294007,447.3366 Z M47.1426005,444.3172 L47.1426005,443.66 L44.0426006,443.66 L44.0426006,448 L47.2170005,448 L47.2170005,447.3428 L44.7742006,447.3428 L44.7742006,446.1462 L46.8946005,446.1462 L46.8946005,445.489 L44.7742006,445.489 L44.7742006,444.3172 L47.1426005,444.3172 Z M51.5136003,445.8672 L51.5136003,447.0762 C51.2036004,447.2622 50.8378004,447.3738 50.5154004,447.3738 C49.6288004,447.3738 48.9282004,446.698 48.9282004,445.83 C48.9282004,444.9682 49.6226004,444.2924 50.5092004,444.2924 C50.9618004,444.2924 51.4268003,444.4784 51.7616003,444.7884 L52.1770003,444.249 C51.7492003,443.877 51.1292004,443.6414 50.5092004,443.6414 C49.1948004,443.6414 48.1842004,444.59 48.1842004,445.83 C48.1842004,447.07 49.1824004,448.031 50.4658004,448.031 C51.0610004,448.031 51.7120003,447.8016 52.1522003,447.4668 L52.1522003,445.8672 L51.5136003,445.8672 Z M56.7216002,444.3172 L56.7216002,443.66 L53.6216003,443.66 L53.6216003,448 L56.7960002,448 L56.7960002,447.3428 L54.3532003,447.3428 L54.3532003,446.1462 L56.4736002,446.1462 L56.4736002,445.489 L54.3532003,445.489 L54.3532003,444.3172 L56.7216002,444.3172 Z M62.097,443.6414 C60.8012001,443.6414 59.7968001,444.5838 59.7968001,445.83 C59.7968001,447.07 60.8012001,448.031 62.097,448.031 C63.3928,448.031 64.3971999,447.07 64.3971999,445.83 C64.3971999,444.59 63.3928,443.6414 62.097,443.6414 L62.097,443.6414 Z M62.1032,444.2986 C62.9526,444.2986 63.647,444.9682 63.647,445.83 C63.647,446.6918 62.9526,447.3738 62.1032,447.3738 C61.2538,447.3738 60.5408001,446.6918 60.5408001,445.83 C60.5408001,444.9682 61.2476,444.2986 62.1032,444.2986 L62.1032,444.2986 Z M68.5201998,444.3172 L68.5263998,443.66 L65.6123999,443.66 L65.6123999,448 L66.3439999,448 L66.3439999,446.2206 L68.3155998,446.2206 L68.3155998,445.5696 L66.3439999,445.5696 L66.3439999,444.3172 L68.5201998,444.3172 Z M71.6449997,443.66 L71.6449997,448 L73.4057997,448 C74.7201996,448 75.6687996,447.0824 75.6687996,445.83 C75.6687996,444.5714 74.7263996,443.66 73.4243997,443.66 L71.6449997,443.66 Z M72.3765997,444.3172 L73.4119997,444.3172 C74.2675996,444.3172 74.9309996,444.9496 74.9309996,445.8362 C74.9309996,446.7166 74.2861996,447.3428 73.4429997,447.3428 L72.3765997,447.3428 L72.3765997,444.3172 Z M79.9839995,444.3172 L79.9839995,443.66 L76.8839996,443.66 L76.8839996,448 L80.0583995,448 L80.0583995,447.3428 L77.6155995,447.3428 L77.6155995,446.1462 L79.7359995,446.1462 L79.7359995,445.489 L77.6155995,445.489 L77.6155995,444.3172 L79.9839995,444.3172 Z M82.8111994,443.629 C81.8687994,443.629 81.2301994,444.094 81.2301994,444.838 C81.2301994,446.3818 83.5737993,445.8424 83.5737993,446.8096 C83.5737993,447.1444 83.2699994,447.3366 82.7615994,447.3366 C82.2965994,447.3366 81.7385994,447.1134 81.2921994,446.7042 L80.9759994,447.3366 C81.4223994,447.7458 82.0671994,448.0248 82.7491994,448.0248 C83.7039993,448.0248 84.3859993,447.5474 84.3859993,446.7724 C84.3921993,445.21 82.0485994,445.7184 82.0485994,444.7698 C82.0485994,444.4784 82.3275994,444.3172 82.7553994,444.3172 C83.0839994,444.3172 83.5551993,444.435 84.0263993,444.7202 L84.3301993,444.0754 C83.9271993,443.8088 83.3753994,443.629 82.8111994,443.629 L82.8111994,443.629 Z M86.4071993,448 L86.4071993,443.66 L85.6755993,443.66 L85.6755993,448 L86.4071993,448 Z M90.9517991,445.8672 L90.9517991,447.0762 C90.6417991,447.2622 90.2759991,447.3738 89.9535991,447.3738 C89.0669992,447.3738 88.3663992,446.698 88.3663992,445.83 C88.3663992,444.9682 89.0607992,444.2924 89.9473991,444.2924 C90.3999991,444.2924 90.8649991,444.4784 91.1997991,444.7884 L91.6151991,444.249 C91.1873991,443.877 90.5673991,443.6414 89.9473991,443.6414 C88.6329992,443.6414 87.6223992,444.59 87.6223992,445.83 C87.6223992,447.07 88.6205992,448.031 89.9039992,448.031 C90.4991991,448.031 91.1501991,447.8016 91.5903991,447.4668 L91.5903991,445.8672 L90.9517991,445.8672 Z M96.8231989,448 L96.8231989,443.66 L96.103999,443.66 L96.103999,446.7786 L93.778999,443.66 L93.0597991,443.66 L93.0597991,448 L93.791399,448 L93.791399,444.8876 L96.103999,448 L96.8231989,448 Z" id="SENSEOF-ARTS--Copy" fill="#000000" sketch:type="MSShapeGroup"></path>
            <rect id="Rectangle-18" fill-opacity="0.8" fill="#000000" sketch:type="MSShapeGroup" x="0" y="0" width="1440" height="100"></rect>
            <path d="M687.39,58 L689.67,58 L684.37,44.66 L681.87,44.66 L676.57,58 L678.85,58 L679.93,55.24 L686.31,55.24 L687.39,58 Z M683.11,46.7 L685.73,53.46 L680.51,53.46 L683.11,46.7 Z M690.63,53.16 C690.63,56.06 692.63,58.24 695.55,58.24 C697.37,58.24 698.47,57.48 699.17,56.54 L697.97,55.44 C697.39,56.24 696.61,56.64 695.63,56.64 C693.73,56.64 692.51,55.16 692.51,53.16 C692.51,51.16 693.73,49.7 695.63,49.7 C696.61,49.7 697.39,50.08 697.97,50.9 L699.17,49.8 C698.47,48.86 697.37,48.1 695.55,48.1 C692.63,48.1 690.63,50.26 690.63,53.16 L690.63,53.16 Z M707.11,58 L708.91,58 L708.91,51.48 C708.91,49.02 707.13,48.1 705.03,48.1 C703.47,48.1 702.15,48.62 701.07,49.68 L701.85,50.92 C702.71,50.06 703.65,49.64 704.75,49.64 C706.13,49.64 707.11,50.36 707.11,51.56 L707.11,53.16 C706.37,52.3 705.25,51.88 703.95,51.88 C702.33,51.88 700.59,52.84 700.59,55.04 C700.59,57.16 702.35,58.24 703.95,58.24 C705.25,58.24 706.35,57.78 707.11,56.94 L707.11,58 Z M707.11,55.88 C706.57,56.6 705.63,56.98 704.63,56.98 C703.33,56.98 702.41,56.2 702.41,55.06 C702.41,53.92 703.33,53.14 704.63,53.14 C705.63,53.14 706.57,53.52 707.11,54.24 L707.11,55.88 Z M718.67,58 L720.47,58 L720.47,44.66 L718.67,44.66 L718.67,49.74 C717.89,48.7 716.75,48.1 715.51,48.1 C712.99,48.1 711.19,50.08 711.19,53.18 C711.19,56.34 712.99,58.24 715.51,58.24 C716.79,58.24 717.95,57.58 718.67,56.62 L718.67,58 Z M718.67,55.24 C718.17,56.02 717.09,56.64 715.99,56.64 C714.19,56.64 713.07,55.18 713.07,53.18 C713.07,51.16 714.19,49.7 715.99,49.7 C717.09,49.7 718.17,50.34 718.67,51.12 L718.67,55.24 Z M729.31,58 L731.11,58 L731.11,51.48 C731.11,49.02 729.33,48.1 727.23,48.1 C725.67,48.1 724.35,48.62 723.27,49.68 L724.05,50.92 C724.91,50.06 725.85,49.64 726.95,49.64 C728.33,49.64 729.31,50.36 729.31,51.56 L729.31,53.16 C728.57,52.3 727.45,51.88 726.15,51.88 C724.53,51.88 722.79,52.84 722.79,55.04 C722.79,57.16 724.55,58.24 726.15,58.24 C727.45,58.24 728.55,57.78 729.31,56.94 L729.31,58 Z M729.31,55.88 C728.77,56.6 727.83,56.98 726.83,56.98 C725.53,56.98 724.61,56.2 724.61,55.06 C724.61,53.92 725.53,53.14 726.83,53.14 C727.83,53.14 728.77,53.52 729.31,54.24 L729.31,55.88 Z M745.73,58 L747.53,58 L747.53,51.02 C747.53,49.08 746.57,48.1 744.79,48.1 C743.37,48.1 742.09,49 741.53,49.9 C741.23,48.86 740.37,48.1 738.91,48.1 C737.47,48.1 736.19,49.1 735.79,49.7 L735.79,48.34 L733.99,48.34 L733.99,58 L735.79,58 L735.79,51.1 C736.27,50.4 737.21,49.7 738.15,49.7 C739.37,49.7 739.85,50.44 739.85,51.56 L739.85,58 L741.65,58 L741.65,51.08 C742.11,50.38 743.07,49.7 744.05,49.7 C745.23,49.7 745.73,50.44 745.73,51.56 L745.73,58 Z M751.27,47.06 C751.91,47.06 752.43,46.54 752.43,45.9 C752.43,45.26 751.91,44.76 751.27,44.76 C750.65,44.76 750.11,45.26 750.11,45.9 C750.11,46.54 750.65,47.06 751.27,47.06 L751.27,47.06 Z M750.39,58 L752.19,58 L752.19,48.34 L750.39,48.34 L750.39,58 Z M754.45,53.16 C754.45,56.06 756.45,58.24 759.37,58.24 C761.19,58.24 762.29,57.48 762.99,56.54 L761.79,55.44 C761.21,56.24 760.43,56.64 759.45,56.64 C757.55,56.64 756.33,55.16 756.33,53.16 C756.33,51.16 757.55,49.7 759.45,49.7 C760.43,49.7 761.21,50.08 761.79,50.9 L762.99,49.8 C762.29,48.86 761.19,48.1 759.37,48.1 C756.45,48.1 754.45,50.26 754.45,53.16 L754.45,53.16 Z" id="Acadamic" fill="#FFFFFF" sketch:type="MSShapeGroup"></path>
            <path d="M858.95,58 L861.23,58 L855.93,44.66 L853.43,44.66 L848.13,58 L850.41,58 L851.49,55.24 L857.87,55.24 L858.95,58 Z M854.67,46.7 L857.29,53.46 L852.07,53.46 L854.67,46.7 Z M869.67,58 L871.47,58 L871.47,44.66 L869.67,44.66 L869.67,49.74 C868.89,48.7 867.75,48.1 866.51,48.1 C863.99,48.1 862.19,50.08 862.19,53.18 C862.19,56.34 863.99,58.24 866.51,58.24 C867.79,58.24 868.95,57.58 869.67,56.62 L869.67,58 Z M869.67,55.24 C869.17,56.02 868.09,56.64 866.99,56.64 C865.19,56.64 864.07,55.18 864.07,53.18 C864.07,51.16 865.19,49.7 866.99,49.7 C868.09,49.7 869.17,50.34 869.67,51.12 L869.67,55.24 Z M886.09,58 L887.89,58 L887.89,51.02 C887.89,49.08 886.93,48.1 885.15,48.1 C883.73,48.1 882.45,49 881.89,49.9 C881.59,48.86 880.73,48.1 879.27,48.1 C877.83,48.1 876.55,49.1 876.15,49.7 L876.15,48.34 L874.35,48.34 L874.35,58 L876.15,58 L876.15,51.1 C876.63,50.4 877.57,49.7 878.51,49.7 C879.73,49.7 880.21,50.44 880.21,51.56 L880.21,58 L882.01,58 L882.01,51.08 C882.47,50.38 883.43,49.7 884.41,49.7 C885.59,49.7 886.09,50.44 886.09,51.56 L886.09,58 Z M891.63,47.06 C892.27,47.06 892.79,46.54 892.79,45.9 C892.79,45.26 892.27,44.76 891.63,44.76 C891.01,44.76 890.47,45.26 890.47,45.9 C890.47,46.54 891.01,47.06 891.63,47.06 L891.63,47.06 Z M890.75,58 L892.55,58 L892.55,48.34 L890.75,48.34 L890.75,58 Z M894.57,56.74 C895.55,57.74 896.97,58.24 898.59,58.24 C901.13,58.24 902.49,56.94 902.49,55.28 C902.49,53.06 900.49,52.6 898.81,52.22 C897.61,51.94 896.57,51.72 896.57,50.9 C896.57,50.12 897.33,49.56 898.55,49.56 C899.77,49.56 900.85,50.06 901.41,50.74 L902.21,49.48 C901.39,48.7 900.19,48.1 898.53,48.1 C896.17,48.1 894.85,49.42 894.85,50.96 C894.85,53.04 896.77,53.48 898.41,53.86 C899.65,54.14 900.75,54.4 900.75,55.32 C900.75,56.18 900.03,56.8 898.67,56.8 C897.37,56.8 896.09,56.14 895.43,55.42 L894.57,56.74 Z M903.93,56.74 C904.91,57.74 906.33,58.24 907.95,58.24 C910.49,58.24 911.85,56.94 911.85,55.28 C911.85,53.06 909.85,52.6 908.17,52.22 C906.97,51.94 905.93,51.72 905.93,50.9 C905.93,50.12 906.69,49.56 907.91,49.56 C909.13,49.56 910.21,50.06 910.77,50.74 L911.57,49.48 C910.75,48.7 909.55,48.1 907.89,48.1 C905.53,48.1 904.21,49.42 904.21,50.96 C904.21,53.04 906.13,53.48 907.77,53.86 C909.01,54.14 910.11,54.4 910.11,55.32 C910.11,56.18 909.39,56.8 908.03,56.8 C906.73,56.8 905.45,56.14 904.79,55.42 L903.93,56.74 Z M915.01,47.06 C915.65,47.06 916.17,46.54 916.17,45.9 C916.17,45.26 915.65,44.76 915.01,44.76 C914.39,44.76 913.85,45.26 913.85,45.9 C913.85,46.54 914.39,47.06 915.01,47.06 L915.01,47.06 Z M914.13,58 L915.93,58 L915.93,48.34 L914.13,48.34 L914.13,58 Z M923.07,58.24 C926.09,58.24 927.95,55.96 927.95,53.16 C927.95,50.38 926.09,48.1 923.07,48.1 C920.07,48.1 918.19,50.38 918.19,53.16 C918.19,55.96 920.07,58.24 923.07,58.24 L923.07,58.24 Z M923.07,56.64 C921.15,56.64 920.07,55 920.07,53.16 C920.07,51.34 921.15,49.7 923.07,49.7 C925.01,49.7 926.07,51.34 926.07,53.16 C926.07,55 925.01,56.64 923.07,56.64 L923.07,56.64 Z M936.75,58 L938.55,58 L938.55,51.22 C938.55,49.18 937.49,48.1 935.45,48.1 C933.95,48.1 932.67,48.92 932.03,49.7 L932.03,48.34 L930.23,48.34 L930.23,58 L932.03,58 L932.03,51.1 C932.55,50.38 933.57,49.7 934.69,49.7 C935.93,49.7 936.75,50.22 936.75,51.82 L936.75,58 Z" id="Admission" fill="#FFFFFF" sketch:type="MSShapeGroup"></path>
            <path d="M1032.17,58.24 C1034.71,58.24 1036.33,56.98 1037.39,55.42 L1035.69,54.52 C1034.99,55.64 1033.67,56.46 1032.17,56.46 C1029.39,56.46 1027.31,54.32 1027.31,51.34 C1027.31,48.34 1029.39,46.22 1032.17,46.22 C1033.67,46.22 1034.99,47.04 1035.69,48.16 L1037.39,47.26 C1036.35,45.7 1034.71,44.44 1032.17,44.44 C1028.29,44.44 1025.25,47.24 1025.25,51.34 C1025.25,55.44 1028.29,58.24 1032.17,58.24 L1032.17,58.24 Z M1045.31,58 L1047.11,58 L1047.11,51.48 C1047.11,49.02 1045.33,48.1 1043.23,48.1 C1041.67,48.1 1040.35,48.62 1039.27,49.68 L1040.05,50.92 C1040.91,50.06 1041.85,49.64 1042.95,49.64 C1044.33,49.64 1045.31,50.36 1045.31,51.56 L1045.31,53.16 C1044.57,52.3 1043.45,51.88 1042.15,51.88 C1040.53,51.88 1038.79,52.84 1038.79,55.04 C1038.79,57.16 1040.55,58.24 1042.15,58.24 C1043.45,58.24 1044.55,57.78 1045.31,56.94 L1045.31,58 Z M1045.31,55.88 C1044.77,56.6 1043.83,56.98 1042.83,56.98 C1041.53,56.98 1040.61,56.2 1040.61,55.06 C1040.61,53.92 1041.53,53.14 1042.83,53.14 C1043.83,53.14 1044.77,53.52 1045.31,54.24 L1045.31,55.88 Z M1049.99,58 L1051.79,58 L1051.79,51.28 C1052.21,50.56 1053.43,49.88 1054.33,49.88 C1054.57,49.88 1054.77,49.9 1054.95,49.94 L1054.95,48.12 C1053.67,48.12 1052.53,48.86 1051.79,49.82 L1051.79,48.34 L1049.99,48.34 L1049.99,58 Z M1056.15,53.16 C1056.15,56.2 1058.27,58.24 1061.15,58.24 C1062.71,58.24 1064.07,57.74 1065.03,56.8 L1064.19,55.62 C1063.47,56.36 1062.35,56.76 1061.33,56.76 C1059.39,56.76 1058.19,55.4 1058.05,53.76 L1065.69,53.76 L1065.69,53.32 C1065.69,50.36 1063.89,48.1 1060.99,48.1 C1058.17,48.1 1056.15,50.36 1056.15,53.16 L1056.15,53.16 Z M1060.99,49.58 C1063.03,49.58 1063.89,51.18 1063.93,52.46 L1058.03,52.46 C1058.13,51.14 1059.05,49.58 1060.99,49.58 L1060.99,49.58 Z M1067.35,53.16 C1067.35,56.2 1069.47,58.24 1072.35,58.24 C1073.91,58.24 1075.27,57.74 1076.23,56.8 L1075.39,55.62 C1074.67,56.36 1073.55,56.76 1072.53,56.76 C1070.59,56.76 1069.39,55.4 1069.25,53.76 L1076.89,53.76 L1076.89,53.32 C1076.89,50.36 1075.09,48.1 1072.19,48.1 C1069.37,48.1 1067.35,50.36 1067.35,53.16 L1067.35,53.16 Z M1072.19,49.58 C1074.23,49.58 1075.09,51.18 1075.13,52.46 L1069.23,52.46 C1069.33,51.14 1070.25,49.58 1072.19,49.58 L1072.19,49.58 Z M1079.15,58 L1080.95,58 L1080.95,51.28 C1081.37,50.56 1082.59,49.88 1083.49,49.88 C1083.73,49.88 1083.93,49.9 1084.11,49.94 L1084.11,48.12 C1082.83,48.12 1081.69,48.86 1080.95,49.82 L1080.95,48.34 L1079.15,48.34 L1079.15,58 Z M1091.11,58 L1099.17,58 L1099.17,56.24 L1093.11,56.24 L1093.11,44.66 L1091.11,44.66 L1091.11,58 Z M1102.21,47.06 C1102.85,47.06 1103.37,46.54 1103.37,45.9 C1103.37,45.26 1102.85,44.76 1102.21,44.76 C1101.59,44.76 1101.05,45.26 1101.05,45.9 C1101.05,46.54 1101.59,47.06 1102.21,47.06 L1102.21,47.06 Z M1101.33,58 L1103.13,58 L1103.13,48.34 L1101.33,48.34 L1101.33,58 Z M1106.43,58 L1108.23,58 L1108.23,49.92 L1110.19,49.92 L1110.19,48.34 L1108.23,48.34 L1108.23,47.7 C1108.23,46.54 1108.77,45.94 1109.67,45.94 C1109.99,45.94 1110.29,46.02 1110.53,46.16 L1110.95,44.82 C1110.53,44.58 1109.99,44.46 1109.37,44.46 C1107.65,44.46 1106.43,45.62 1106.43,47.7 L1106.43,48.34 L1104.83,48.34 L1104.83,49.92 L1106.43,49.92 L1106.43,58 Z M1111.31,53.16 C1111.31,56.2 1113.43,58.24 1116.31,58.24 C1117.87,58.24 1119.23,57.74 1120.19,56.8 L1119.35,55.62 C1118.63,56.36 1117.51,56.76 1116.49,56.76 C1114.55,56.76 1113.35,55.4 1113.21,53.76 L1120.85,53.76 L1120.85,53.32 C1120.85,50.36 1119.05,48.1 1116.15,48.1 C1113.33,48.1 1111.31,50.36 1111.31,53.16 L1111.31,53.16 Z M1116.15,49.58 C1118.19,49.58 1119.05,51.18 1119.09,52.46 L1113.19,52.46 C1113.29,51.14 1114.21,49.58 1116.15,49.58 L1116.15,49.58 Z" id="Career-Life" fill="#FFFFFF" sketch:type="MSShapeGroup"></path>
            <path d="M1209.52,58 L1217.58,58 L1217.58,56.24 L1211.52,56.24 L1211.52,44.66 L1209.52,44.66 L1209.52,58 Z M1220.62,47.06 C1221.26,47.06 1221.78,46.54 1221.78,45.9 C1221.78,45.26 1221.26,44.76 1220.62,44.76 C1220,44.76 1219.46,45.26 1219.46,45.9 C1219.46,46.54 1220,47.06 1220.62,47.06 L1220.62,47.06 Z M1219.74,58 L1221.54,58 L1221.54,48.34 L1219.74,48.34 L1219.74,58 Z M1224.84,58 L1226.64,58 L1226.64,49.92 L1228.6,49.92 L1228.6,48.34 L1226.64,48.34 L1226.64,47.7 C1226.64,46.54 1227.18,45.94 1228.08,45.94 C1228.4,45.94 1228.7,46.02 1228.94,46.16 L1229.36,44.82 C1228.94,44.58 1228.4,44.46 1227.78,44.46 C1226.06,44.46 1224.84,45.62 1224.84,47.7 L1224.84,48.34 L1223.24,48.34 L1223.24,49.92 L1224.84,49.92 L1224.84,58 Z M1229.72,53.16 C1229.72,56.2 1231.84,58.24 1234.72,58.24 C1236.28,58.24 1237.64,57.74 1238.6,56.8 L1237.76,55.62 C1237.04,56.36 1235.92,56.76 1234.9,56.76 C1232.96,56.76 1231.76,55.4 1231.62,53.76 L1239.26,53.76 L1239.26,53.32 C1239.26,50.36 1237.46,48.1 1234.56,48.1 C1231.74,48.1 1229.72,50.36 1229.72,53.16 L1229.72,53.16 Z M1234.56,49.58 C1236.6,49.58 1237.46,51.18 1237.5,52.46 L1231.6,52.46 C1231.7,51.14 1232.62,49.58 1234.56,49.58 L1234.56,49.58 Z M1252.64,58 L1254.44,58 L1254.44,51.48 C1254.44,49.02 1252.66,48.1 1250.56,48.1 C1249,48.1 1247.68,48.62 1246.6,49.68 L1247.38,50.92 C1248.24,50.06 1249.18,49.64 1250.28,49.64 C1251.66,49.64 1252.64,50.36 1252.64,51.56 L1252.64,53.16 C1251.9,52.3 1250.78,51.88 1249.48,51.88 C1247.86,51.88 1246.12,52.84 1246.12,55.04 C1246.12,57.16 1247.88,58.24 1249.48,58.24 C1250.78,58.24 1251.88,57.78 1252.64,56.94 L1252.64,58 Z M1252.64,55.88 C1252.1,56.6 1251.16,56.98 1250.16,56.98 C1248.86,56.98 1247.94,56.2 1247.94,55.06 C1247.94,53.92 1248.86,53.14 1250.16,53.14 C1251.16,53.14 1252.1,53.52 1252.64,54.24 L1252.64,55.88 Z M1259.98,58.24 C1260.92,58.24 1261.48,57.98 1261.86,57.62 L1261.4,56.26 C1261.22,56.46 1260.84,56.64 1260.42,56.64 C1259.8,56.64 1259.48,56.14 1259.48,55.46 L1259.48,49.92 L1261.44,49.92 L1261.44,48.34 L1259.48,48.34 L1259.48,45.7 L1257.68,45.7 L1257.68,48.34 L1256.08,48.34 L1256.08,49.92 L1257.68,49.92 L1257.68,55.86 C1257.68,57.38 1258.46,58.24 1259.98,58.24 L1259.98,58.24 Z M1267.82,56.12 C1268.96,57.38 1270.7,58.24 1273.08,58.24 C1276.68,58.24 1278.12,56.3 1278.12,54.22 C1278.12,51.38 1275.58,50.7 1273.4,50.12 C1271.74,49.7 1270.3,49.32 1270.3,48.12 C1270.3,47 1271.32,46.24 1272.8,46.24 C1274.24,46.24 1275.64,46.72 1276.66,47.8 L1277.82,46.32 C1276.64,45.12 1275.02,44.46 1272.96,44.46 C1270.18,44.46 1268.24,46.06 1268.24,48.26 C1268.24,50.98 1270.72,51.6 1272.86,52.16 C1274.56,52.6 1276.08,53 1276.08,54.4 C1276.08,55.36 1275.32,56.46 1273.16,56.46 C1271.3,56.46 1269.86,55.58 1268.96,54.58 L1267.82,56.12 Z M1289.88,58 L1292.16,58 L1286.86,44.66 L1284.36,44.66 L1279.06,58 L1281.34,58 L1282.42,55.24 L1288.8,55.24 L1289.88,58 Z M1285.6,46.7 L1288.22,53.46 L1283,53.46 L1285.6,46.7 Z M1300.12,58.24 C1302.66,58.24 1304.28,56.98 1305.34,55.42 L1303.64,54.52 C1302.94,55.64 1301.62,56.46 1300.12,56.46 C1297.34,56.46 1295.26,54.32 1295.26,51.34 C1295.26,48.34 1297.34,46.22 1300.12,46.22 C1301.62,46.22 1302.94,47.04 1303.64,48.16 L1305.34,47.26 C1304.3,45.7 1302.66,44.44 1300.12,44.44 C1296.24,44.44 1293.2,47.24 1293.2,51.34 C1293.2,55.44 1296.24,58.24 1300.12,58.24 L1300.12,58.24 Z M1307.34,58 L1312.1,58 C1316.26,58 1319.02,55.2 1319.02,51.34 C1319.02,47.5 1316.26,44.66 1312.1,44.66 L1307.34,44.66 L1307.34,58 Z M1309.34,56.24 L1309.34,46.42 L1312.1,46.42 C1315.24,46.42 1316.96,48.6 1316.96,51.34 C1316.96,54.04 1315.18,56.24 1312.1,56.24 L1309.34,56.24 Z" id="Life-at-SACD" fill="#FFFFFF" sketch:type="MSShapeGroup"></path>
            <path d="M131.503419,25 C125.596258,25 121.593379,27.9147177 121.593379,32.578266 C121.593379,42.2551288 136.283556,38.8740563 136.283556,44.9366691 C136.283556,47.0352659 134.379274,48.2400159 131.192516,48.2400159 C128.277798,48.2400159 124.780137,46.8409514 121.982008,44.2759998 L120,48.2400159 C122.798129,50.8049675 126.839871,52.5537981 131.11479,52.5537981 C137.099677,52.5537981 141.374597,49.5613546 141.374597,44.7034917 C141.413459,34.9100402 126.723282,38.0967982 126.723282,32.1507741 C126.723282,30.3242177 128.472113,29.3137822 131.153653,29.3137822 C133.213387,29.3137822 136.166968,30.0521774 139.120548,31.8398709 L141.02483,27.798129 C138.498742,26.1270242 135.039943,25 131.503419,25 L131.503419,25 Z M168.889532,29.3137822 L168.889532,25.1943145 L149.45808,25.1943145 L149.45808,52.3983465 L169.355887,52.3983465 L169.355887,48.2788788 L154.043903,48.2788788 L154.043903,40.7783385 L167.335016,40.7783385 L167.335016,36.6588708 L154.043903,36.6588708 L154.043903,29.3137822 L168.889532,29.3137822 Z M201.26233,52.3983465 L201.26233,25.1943145 L196.754233,25.1943145 L196.754233,44.7423546 L182.180644,25.1943145 L177.672548,25.1943145 L177.672548,52.3983465 L182.25837,52.3983465 L182.25837,32.8891693 L196.754233,52.3983465 L201.26233,52.3983465 Z M220.110838,25 C214.203676,25 210.200797,27.9147177 210.200797,32.578266 C210.200797,42.2551288 224.890975,38.8740563 224.890975,44.9366691 C224.890975,47.0352659 222.986692,48.2400159 219.799934,48.2400159 C216.885217,48.2400159 213.387555,46.8409514 210.589426,44.2759998 L208.607418,48.2400159 C211.405547,50.8049675 215.447289,52.5537981 219.722208,52.5537981 C225.707096,52.5537981 229.982015,49.5613546 229.982015,44.7034917 C230.020878,34.9100402 215.3307,38.0967982 215.3307,32.1507741 C215.3307,30.3242177 217.079531,29.3137822 219.761071,29.3137822 C221.820805,29.3137822 224.774386,30.0521774 227.727966,31.8398709 L229.632249,27.798129 C227.10616,26.1270242 223.647362,25 220.110838,25 L220.110838,25 Z M257.49695,29.3137822 L257.49695,25.1943145 L238.065499,25.1943145 L238.065499,52.3983465 L257.963305,52.3983465 L257.963305,48.2788788 L242.651321,48.2788788 L242.651321,40.7783385 L255.942434,40.7783385 L255.942434,36.6588708 L242.651321,36.6588708 L242.651321,29.3137822 L257.49695,29.3137822 Z M269.000369,41.4700982 C265.75143,41.4700982 263.233114,43.8329627 263.233114,46.9575401 C263.233114,50.0665723 265.75143,52.4760723 269.000369,52.4760723 C272.249308,52.4760723 274.767624,50.0665723 274.767624,46.9575401 C274.767624,43.8485079 272.249308,41.4700982 269.000369,41.4700982 L269.000369,41.4700982 Z M269.015914,43.1178853 C271.145601,43.1178853 272.886659,44.7967627 272.886659,46.9575401 C272.886659,49.1183175 271.145601,50.8282852 269.015914,50.8282852 C266.886227,50.8282852 265.098534,49.1183175 265.098534,46.9575401 C265.098534,44.7967627 266.870682,43.1178853 269.015914,43.1178853 L269.015914,43.1178853 Z M284.016995,43.1645208 L284.03254,41.5167337 L276.726314,41.5167337 L276.726314,52.3983465 L278.560643,52.3983465 L278.560643,47.9368852 L283.504004,47.9368852 L283.504004,46.3046433 L278.560643,46.3046433 L278.560643,43.1645208 L284.016995,43.1645208 Z M309.63542,46.2580078 L312.239235,52.3983465 L317.135961,52.3983465 L305.243912,25.1943145 L300.541501,25.1943145 L288.532864,52.3983465 L293.313001,52.3983465 L295.916816,46.2580078 L309.63542,46.2580078 Z M307.88659,42.177403 L297.626783,42.177403 L302.756687,30.0910403 L307.88659,42.177403 Z M340.725743,52.3983465 L345.933372,52.3983465 L339.831896,43.3044272 C343.446146,41.9053627 345.467017,38.8351934 345.467017,34.4825483 C345.467017,28.5753871 341.464138,25.1943145 334.507678,25.1943145 L323.470614,25.1943145 L323.470614,52.3983465 L328.056436,52.3983465 L328.056436,44.198274 L334.507678,44.198274 C334.93517,44.198274 335.362662,44.198274 335.751291,44.1594111 L340.725743,52.3983465 Z M328.056436,40.0788063 L328.056436,29.3137822 L334.507678,29.3137822 C338.704872,29.3137822 341.114372,31.0237499 341.114372,34.599137 C341.114372,38.2911128 338.704872,40.0788063 334.507678,40.0788063 L328.056436,40.0788063 Z M372.865363,29.3137822 L372.865363,25.1943145 L351.063275,25.1943145 L351.063275,29.3137822 L359.651976,29.3137822 L359.651976,52.3983465 L364.237799,52.3983465 L364.237799,29.3137822 L372.865363,29.3137822 Z M388.449387,25 C382.542226,25 378.539347,27.9147177 378.539347,32.578266 C378.539347,42.2551288 393.229524,38.8740563 393.229524,44.9366691 C393.229524,47.0352659 391.325242,48.2400159 388.138484,48.2400159 C385.223766,48.2400159 381.726105,46.8409514 378.927976,44.2759998 L376.945968,48.2400159 C379.744097,50.8049675 383.785839,52.5537981 388.060758,52.5537981 C394.045645,52.5537981 398.320564,49.5613546 398.320564,44.7034917 C398.359427,34.9100402 383.66925,38.0967982 383.66925,32.1507741 C383.66925,30.3242177 385.418081,29.3137822 388.099621,29.3137822 C390.159355,29.3137822 393.112935,30.0521774 396.066516,31.8398709 L397.970798,27.798129 C395.44471,26.1270242 391.985911,25 388.449387,25 L388.449387,25 Z M129.578155,58.7773039 C124.59049,58.7773039 120.711195,62.4638387 120.711195,67.2587435 C120.711195,72.1018383 124.5423,75.8365632 129.481775,75.8365632 C131.86718,75.8365632 134.300775,74.7522882 136.01152,73.0656383 L134.32487,71.1862284 C133.047835,72.4150733 131.312995,73.1861133 129.626345,73.1861133 C126.253045,73.1861133 123.602595,70.5597584 123.602595,67.2346485 C123.602595,63.9095387 126.253045,61.3072788 129.626345,61.3072788 C131.33709,61.3072788 133.096025,62.1265087 134.32487,63.4517337 L135.987425,61.3795638 C134.348965,59.7651988 131.96356,58.7773039 129.578155,58.7773039 L129.578155,58.7773039 Z M147.769879,58.7773039 C142.734024,58.7773039 138.830635,62.4397437 138.830635,67.2828385 C138.830635,72.1018383 142.734024,75.8365632 147.769879,75.8365632 C152.805734,75.8365632 156.709124,72.1018383 156.709124,67.2828385 C156.709124,62.4638387 152.805734,58.7773039 147.769879,58.7773039 L147.769879,58.7773039 Z M147.793974,61.3313738 C151.094989,61.3313738 153.793629,63.9336337 153.793629,67.2828385 C153.793629,70.6320434 151.094989,73.2824933 147.793974,73.2824933 C144.492959,73.2824933 141.722034,70.6320434 141.722034,67.2828385 C141.722034,63.9336337 144.468864,61.3313738 147.793974,61.3313738 L147.793974,61.3313738 Z M164.274953,73.1379233 L164.274953,58.8495889 L161.431744,58.8495889 L161.431744,75.7160882 L171.575738,75.7160882 L171.575738,73.1379233 L164.274953,73.1379233 Z M178.828333,73.1379233 L178.828333,58.8495889 L175.985123,58.8495889 L175.985123,75.7160882 L186.129118,75.7160882 L186.129118,73.1379233 L178.828333,73.1379233 Z M202.586002,61.4036588 L202.586002,58.8495889 L190.538502,58.8495889 L190.538502,75.7160882 L202.875142,75.7160882 L202.875142,73.1620183 L193.381712,73.1620183 L193.381712,68.5116835 L201.622202,68.5116835 L201.622202,65.9576136 L193.381712,65.9576136 L193.381712,61.4036588 L202.586002,61.4036588 Z M219.572976,67.4274085 L219.572976,72.1259333 C218.368226,72.8487833 216.946621,73.2824933 215.693681,73.2824933 C212.248096,73.2824933 209.525362,70.6561384 209.525362,67.2828385 C209.525362,63.9336337 212.224001,61.3072788 215.669586,61.3072788 C217.428521,61.3072788 219.235646,62.0301287 220.536776,63.2348787 L222.151141,61.1386138 C220.488586,59.6929138 218.079086,58.7773039 215.669586,58.7773039 C210.561447,58.7773039 206.633962,62.4638387 206.633962,67.2828385 C206.633962,72.1018383 210.513257,75.8365632 215.500921,75.8365632 C217.814041,75.8365632 220.344016,74.9450482 222.054761,73.6439183 L222.054761,67.4274085 L219.572976,67.4274085 Z M239.812775,61.4036588 L239.812775,58.8495889 L227.765276,58.8495889 L227.765276,75.7160882 L240.101915,75.7160882 L240.101915,73.1620183 L230.608486,73.1620183 L230.608486,68.5116835 L238.848975,68.5116835 L238.848975,65.9576136 L230.608486,65.9576136 L230.608486,61.4036588 L239.812775,61.4036588 Z M260.703139,58.7773039 C255.667285,58.7773039 251.763895,62.4397437 251.763895,67.2828385 C251.763895,72.1018383 255.667285,75.8365632 260.703139,75.8365632 C265.738994,75.8365632 269.642384,72.1018383 269.642384,67.2828385 C269.642384,62.4638387 265.738994,58.7773039 260.703139,58.7773039 L260.703139,58.7773039 Z M260.727234,61.3313738 C264.028249,61.3313738 266.726889,63.9336337 266.726889,67.2828385 C266.726889,70.6320434 264.028249,73.2824933 260.727234,73.2824933 C257.42622,73.2824933 254.655295,70.6320434 254.655295,67.2828385 C254.655295,63.9336337 257.402125,61.3313738 260.727234,61.3313738 L260.727234,61.3313738 Z M285.665558,61.4036588 L285.689653,58.8495889 L274.365004,58.8495889 L274.365004,75.7160882 L277.208214,75.7160882 L277.208214,68.8008235 L284.870423,68.8008235 L284.870423,66.2708486 L277.208214,66.2708486 L277.208214,61.4036588 L285.665558,61.4036588 Z M297.809438,58.8495889 L297.809438,75.7160882 L304.652418,75.7160882 C309.760557,75.7160882 313.447092,72.1500283 313.447092,67.2828385 C313.447092,62.3915537 309.784652,58.8495889 304.724703,58.8495889 L297.809438,58.8495889 Z M300.652648,61.4036588 L304.676513,61.4036588 C308.001622,61.4036588 310.579787,63.8613487 310.579787,67.3069335 C310.579787,70.7284234 308.073907,73.1620183 304.796988,73.1620183 L300.652648,73.1620183 L300.652648,61.4036588 Z M330.217212,61.4036588 L330.217212,58.8495889 L318.169712,58.8495889 L318.169712,75.7160882 L330.506352,75.7160882 L330.506352,73.1620183 L321.012922,73.1620183 L321.012922,68.5116835 L329.253412,68.5116835 L329.253412,65.9576136 L321.012922,65.9576136 L321.012922,61.4036588 L330.217212,61.4036588 Z M341.204531,58.7291139 C337.542091,58.7291139 335.060306,60.5362388 335.060306,63.4276387 C335.060306,69.4272934 344.168216,67.3310285 344.168216,71.0898484 C344.168216,72.3909783 342.987561,73.1379233 341.011771,73.1379233 C339.204646,73.1379233 337.036096,72.2705033 335.301256,70.6802334 L334.072411,73.1379233 C335.807251,74.7281932 338.313131,75.8124682 340.963581,75.8124682 C344.674211,75.8124682 347.324661,73.9571532 347.324661,70.9452784 C347.348756,64.8733386 338.240846,66.8491285 338.240846,63.1625937 C338.240846,62.0301287 339.325121,61.4036588 340.987676,61.4036588 C342.264711,61.4036588 344.095931,61.8614637 345.927151,62.9698337 L347.107806,60.4639538 C345.541631,59.4278688 343.397176,58.7291139 341.204531,58.7291139 L341.204531,58.7291139 Z M355.179631,75.7160882 L355.179631,58.8495889 L352.336421,58.8495889 L352.336421,75.7160882 L355.179631,75.7160882 Z M372.841265,67.4274085 L372.841265,72.1259333 C371.636515,72.8487833 370.21491,73.2824933 368.96197,73.2824933 C365.516385,73.2824933 362.79365,70.6561384 362.79365,67.2828385 C362.79365,63.9336337 365.49229,61.3072788 368.937875,61.3072788 C370.69681,61.3072788 372.503935,62.0301287 373.805065,63.2348787 L375.41943,61.1386138 C373.756875,59.6929138 371.347375,58.7773039 368.937875,58.7773039 C363.829735,58.7773039 359.90225,62.4638387 359.90225,67.2828385 C359.90225,72.1018383 363.781545,75.8365632 368.76921,75.8365632 C371.08233,75.8365632 373.612305,74.9450482 375.32305,73.6439183 L375.32305,67.4274085 L372.841265,67.4274085 Z M395.659229,75.7160882 L395.659229,58.8495889 L392.864209,58.8495889 L392.864209,70.9693734 L383.828584,58.8495889 L381.033564,58.8495889 L381.033564,75.7160882 L383.876774,75.7160882 L383.876774,63.6203987 L392.864209,75.7160882 L395.659229,75.7160882 Z" id="SENSEOF-ARTS--Copy-2" fill="#FFFFFF" sketch:type="MSShapeGroup"></path>
            <g id="image-copy-9" sketch:type="MSLayerGroup" transform="translate(0.000000, 100.000000)">
                <rect id="Rectangle-7" fill="#D8D8D8" sketch:type="MSShapeGroup" x="0" y="0" width="1441" height="709"></rect>
                <path d="M450.78125,402.287225 L450.78125,318.112996 C450.78125,312.178634 445.78125,307.181278 439.84375,307.181278 C433.59375,307.181278 428.59375,312.178634 428.59375,318.112996 L428.59375,402.287225 C428.59375,408.221586 433.59375,413.218943 439.53125,413.218943 C445.78125,413.218943 450.78125,408.221586 450.78125,402.287225 L450.78125,402.287225 Z M615.625,402.131057 L615.625,320.611674 C615.625,310.304626 605.46875,306.556608 595.46875,308.118282 C588.59375,308.118282 582.8125,312.178634 580.3125,318.269163 L559.0625,371.053744 L537.8125,318.269163 C534.0625,309.211454 525.3125,307.02511 515.15625,308.118282 C508.28125,308.118282 502.65625,313.740308 502.65625,320.611674 L502.65625,402.287225 C502.65625,408.221586 507.65625,413.218943 513.59375,413.218943 C519.84375,413.218943 524.84375,408.221586 524.84375,402.287225 L524.84375,339.351762 L552.96875,409.15859 C553.90625,411.501101 556.25,413.218943 558.90625,413.218943 C561.875,413.218943 564.21875,411.501101 565.15625,409.15859 L593.28125,339.351762 L593.28125,402.131057 C593.28125,408.221586 598.28125,413.218943 604.375,413.218943 C610.625,413.218943 615.625,408.221586 615.625,402.131057 L615.625,402.131057 Z M759.6875,401.35022 C759.6875,399.944714 759.375,398.539207 758.90625,397.1337 L728.59375,318.893833 C725.625,311.24163 717.65625,306.556608 709.6875,307.181278 C702.34375,307.181278 695.3125,311.8663 692.65625,318.893833 L662.1875,397.1337 C661.5625,398.539207 661.40625,399.944714 661.40625,401.35022 C661.40625,407.284581 666.09375,413.218943 673.125,413.218943 C677.96875,413.218943 682.34375,410.40793 684.0625,405.879075 L688.28125,394.635022 L732.96875,394.635022 L737.03125,405.879075 C738.75,410.40793 743.125,413.218943 747.8125,413.218943 C755,413.218943 759.6875,407.128414 759.6875,401.35022 L759.6875,401.35022 Z M726.875,375.114097 L694.375,375.114097 L710.625,330.294053 L726.875,375.114097 Z M895.15625,384.796476 L895.15625,367.149559 C895.15625,360.278194 889.53125,354.656167 882.65625,354.656167 L854.0625,354.656167 C848.75,354.656167 844.53125,358.872687 844.53125,364.182379 C844.53125,369.804405 848.75,374.020925 854.0625,374.020925 L872.96875,374.020925 L872.96875,386.514317 C868.75,390.418502 860,394.478855 850.78125,394.478855 C831.875,394.478855 818.125,379.955286 818.125,360.278194 C818.125,340.601101 831.875,326.077533 850.78125,326.077533 C858.75,326.077533 866.5625,329.513216 872.5,335.29141 C874.53125,337.321586 877.34375,338.414758 880,338.414758 C885.46875,338.414758 890.46875,333.885903 890.46875,328.420044 C890.46875,326.077533 889.53125,323.578855 887.8125,321.704846 C879.6875,312.959471 867.65625,306.400441 850.78125,306.400441 C820.3125,306.400441 795.3125,327.326872 795.3125,360.278194 C795.3125,393.073348 820.3125,414.312115 850.78125,414.312115 C871.875,414.312115 895.15625,403.692731 895.15625,384.796476 L895.15625,384.796476 Z M1018.75,402.287225 C1018.75,397.1337 1014.375,392.761013 1009.21875,392.761013 L966.25,392.761013 L966.25,369.179736 L1008.125,369.179736 C1013.28125,369.179736 1017.65625,364.807048 1017.65625,359.497357 C1017.65625,354.031498 1013.28125,349.658811 1008.125,349.658811 L966.25,349.658811 L966.25,327.639207 L1009.21875,327.639207 C1014.375,327.639207 1018.75,323.26652 1018.75,317.956828 C1018.75,312.490969 1014.375,308.118282 1009.21875,308.118282 L956.5625,308.118282 C949.6875,308.118282 944.0625,313.740308 944.0625,320.611674 L944.0625,399.788546 C944.0625,406.659912 949.6875,412.281938 956.5625,412.281938 L1009.21875,412.281938 C1014.375,412.281938 1018.75,407.909251 1018.75,402.287225 L1018.75,402.287225 Z" id="IMAGE" fill="#FFFFFF" sketch:type="MSShapeGroup"></path>
            </g>
            <rect id="Rectangle-8-Copy" fill="url(#linearGradient-2)" sketch:type="MSShapeGroup" x="0" y="606" width="1440" height="203"></rect>
            <path d="M79.703125,765 L87.078125,743.15625 L85.671875,743.15625 L79.078125,763.4375 L72.421875,743.15625 L71.046875,743.15625 L64.421875,763.4375 L57.796875,743.15625 L56.328125,743.15625 L63.703125,765 L65.078125,765 L71.734375,745 L78.359375,765 L79.703125,765 Z M98.671875,748.6875 C95.390625,748.75 93.078125,750.21875 91.984375,752.96875 L91.984375,741.8125 L90.671875,741.8125 L90.671875,765 L91.984375,765 L91.984375,757.03125 C91.984375,752.78125 94.328125,750.09375 98.359375,750 C101.703125,750 103.671875,751.96875 103.671875,755.3125 L103.671875,765 L104.984375,765 L104.984375,755.0625 C104.984375,751.09375 102.640625,748.6875 98.671875,748.6875 L98.671875,748.6875 Z M117.140625,748.6875 C112.546875,748.6875 109.203125,752.09375 109.203125,756.875 C109.203125,761.65625 112.546875,765.03125 117.140625,765.03125 C119.734375,765.03125 121.953125,764.0625 123.453125,762.4375 L122.703125,761.59375 C121.390625,763.03125 119.421875,763.84375 117.203125,763.84375 C113.421875,763.84375 110.671875,761.1875 110.484375,757.21875 L124.703125,757.21875 C124.796875,752.1875 121.921875,748.6875 117.140625,748.6875 L117.140625,748.6875 Z M110.515625,756.0625 C110.828125,752.375 113.484375,749.875 117.140625,749.875 C120.859375,749.875 123.265625,752.375 123.515625,756.0625 L110.515625,756.0625 Z M137.328125,748.6875 C134.078125,748.75 131.765625,750.1875 130.671875,752.875 L130.671875,748.71875 L129.359375,748.71875 L129.359375,765 L130.671875,765 L130.671875,756.1875 C130.953125,752.4375 133.265625,750.09375 137.015625,750 C140.359375,750 142.328125,751.96875 142.328125,755.3125 L142.328125,765 L143.640625,765 L143.640625,755.0625 C143.640625,751.09375 141.296875,748.6875 137.328125,748.6875 L137.328125,748.6875 Z M170.265625,748.71875 L168.890625,748.71875 L163.046875,763.46875 L157.046875,748.71875 L155.671875,748.71875 L162.390625,765 L161.640625,766.84375 C160.859375,768.75 159.609375,769.78125 158.140625,769.78125 C157.234375,769.78125 156.390625,769.53125 155.671875,769.03125 L155.109375,770.15625 C155.953125,770.78125 157.015625,771.09375 158.203125,771.09375 C160.109375,771.09375 161.703125,769.78125 162.703125,767.34375 L170.265625,748.71875 Z M179.765625,748.6875 C175.140625,748.6875 171.734375,752.09375 171.734375,756.84375 C171.734375,761.65625 175.140625,765.03125 179.765625,765.03125 C184.421875,765.03125 187.796875,761.65625 187.796875,756.84375 C187.796875,752.09375 184.421875,748.6875 179.765625,748.6875 L179.765625,748.6875 Z M179.765625,749.9375 C183.703125,749.9375 186.515625,752.78125 186.515625,756.875 C186.515625,760.96875 183.703125,763.8125 179.765625,763.8125 C175.859375,763.8125 173.015625,760.96875 173.015625,756.875 C173.015625,752.78125 175.859375,749.9375 179.765625,749.9375 L179.765625,749.9375 Z M206.046875,748.71875 L204.765625,748.71875 L204.765625,756.6875 C204.765625,760.9375 202.453125,763.625 198.515625,763.71875 C195.234375,763.71875 193.296875,761.75 193.296875,758.40625 L193.296875,748.71875 L192.015625,748.71875 L192.015625,758.65625 C192.015625,762.65625 194.296875,765.03125 198.234375,765.03125 C201.453125,765 203.734375,763.46875 204.765625,760.65625 L204.765625,765 L206.046875,765 L206.046875,748.71875 Z M213.890625,748.71875 L212.578125,748.71875 L212.578125,765 L213.890625,765 L213.890625,756.1875 C214.171875,752.40625 216.359375,750.03125 219.953125,750.03125 L219.953125,748.6875 C217.046875,748.75 214.921875,750.1875 213.890625,752.8125 L213.890625,748.71875 Z M232.953125,748.875 L230.890625,748.875 L230.890625,750.03125 L232.953125,750.03125 L232.953125,765 L234.234375,765 L234.234375,750.03125 L239.265625,750.03125 L239.265625,748.875 L234.234375,748.875 L234.234375,746.65625 C234.234375,744.34375 235.765625,742.78125 237.796875,742.8125 C238.765625,742.8125 239.765625,743.1875 240.609375,743.75 L240.640625,742.40625 C239.828125,741.90625 238.796875,741.5625 237.765625,741.53125 C235.171875,741.53125 232.953125,743.59375 232.953125,746.78125 L232.953125,748.875 Z M242.828125,742.90625 C242.203125,742.90625 241.734375,743.40625 241.734375,744.03125 C241.734375,744.6875 242.203125,745.1875 242.828125,745.1875 C243.421875,745.1875 243.921875,744.6875 243.921875,744.03125 C243.921875,743.40625 243.421875,742.90625 242.828125,742.90625 L242.828125,742.90625 Z M242.171875,748.71875 L242.171875,765 L243.453125,765 L243.453125,748.71875 L242.171875,748.71875 Z M254.890625,765 L261.453125,748.71875 L260.078125,748.71875 L254.234375,763.59375 L248.359375,748.71875 L246.953125,748.71875 L253.546875,765 L254.890625,765 Z M270.859375,748.6875 C266.265625,748.6875 262.921875,752.09375 262.921875,756.875 C262.921875,761.65625 266.265625,765.03125 270.859375,765.03125 C273.453125,765.03125 275.671875,764.0625 277.171875,762.4375 L276.421875,761.59375 C275.109375,763.03125 273.140625,763.84375 270.921875,763.84375 C267.140625,763.84375 264.390625,761.1875 264.203125,757.21875 L278.421875,757.21875 C278.515625,752.1875 275.640625,748.6875 270.859375,748.6875 L270.859375,748.6875 Z M264.234375,756.0625 C264.546875,752.375 267.203125,749.875 270.859375,749.875 C274.578125,749.875 276.984375,752.375 277.234375,756.0625 L264.234375,756.0625 Z M296.015625,748.6875 C293.140625,748.6875 290.671875,749.9375 290.671875,752.78125 C290.671875,758.375 300.296875,756.28125 300.171875,760.875 C300.078125,762.9375 298.109375,763.84375 295.828125,763.84375 C293.765625,763.84375 291.796875,763.09375 290.390625,761.78125 L289.796875,762.78125 C291.296875,764.21875 293.484375,765.03125 295.765625,765.03125 C298.703125,765.03125 301.421875,763.6875 301.421875,760.65625 C301.421875,754.90625 291.921875,757.0625 291.921875,752.6875 C291.921875,750.75 293.703125,749.875 295.984375,749.875 C297.546875,749.875 298.984375,750.3125 300.109375,751.03125 L300.671875,749.96875 C299.390625,749.1875 297.828125,748.6875 296.015625,748.6875 L296.015625,748.6875 Z M312.015625,748.6875 C307.421875,748.6875 304.078125,752.09375 304.078125,756.875 C304.078125,761.65625 307.421875,765.03125 312.015625,765.03125 C314.609375,765.03125 316.828125,764.0625 318.328125,762.4375 L317.578125,761.59375 C316.265625,763.03125 314.296875,763.84375 312.078125,763.84375 C308.296875,763.84375 305.546875,761.1875 305.359375,757.21875 L319.578125,757.21875 C319.671875,752.1875 316.796875,748.6875 312.015625,748.6875 L312.015625,748.6875 Z M305.390625,756.0625 C305.703125,752.375 308.359375,749.875 312.015625,749.875 C315.734375,749.875 318.140625,752.375 318.390625,756.0625 L305.390625,756.0625 Z M332.203125,748.6875 C328.953125,748.75 326.640625,750.1875 325.546875,752.875 L325.546875,748.71875 L324.234375,748.71875 L324.234375,765 L325.546875,765 L325.546875,756.1875 C325.828125,752.4375 328.140625,750.09375 331.890625,750 C335.234375,750 337.203125,751.96875 337.203125,755.3125 L337.203125,765 L338.515625,765 L338.515625,755.0625 C338.515625,751.09375 336.171875,748.6875 332.203125,748.6875 L332.203125,748.6875 Z M348.328125,748.6875 C345.453125,748.6875 342.984375,749.9375 342.984375,752.78125 C342.984375,758.375 352.609375,756.28125 352.484375,760.875 C352.390625,762.9375 350.421875,763.84375 348.140625,763.84375 C346.078125,763.84375 344.109375,763.09375 342.703125,761.78125 L342.109375,762.78125 C343.609375,764.21875 345.796875,765.03125 348.078125,765.03125 C351.015625,765.03125 353.734375,763.6875 353.734375,760.65625 C353.734375,754.90625 344.234375,757.0625 344.234375,752.6875 C344.234375,750.75 346.015625,749.875 348.296875,749.875 C349.859375,749.875 351.296875,750.3125 352.421875,751.03125 L352.984375,749.96875 C351.703125,749.1875 350.140625,748.6875 348.328125,748.6875 L348.328125,748.6875 Z M364.328125,748.6875 C359.734375,748.6875 356.390625,752.09375 356.390625,756.875 C356.390625,761.65625 359.734375,765.03125 364.328125,765.03125 C366.921875,765.03125 369.140625,764.0625 370.640625,762.4375 L369.890625,761.59375 C368.578125,763.03125 366.609375,763.84375 364.390625,763.84375 C360.609375,763.84375 357.859375,761.1875 357.671875,757.21875 L371.890625,757.21875 C371.984375,752.1875 369.109375,748.6875 364.328125,748.6875 L364.328125,748.6875 Z M357.703125,756.0625 C358.015625,752.375 360.671875,749.875 364.328125,749.875 C368.046875,749.875 370.453125,752.375 370.703125,756.0625 L357.703125,756.0625 Z M380.390625,748.6875 C377.515625,748.6875 375.046875,749.9375 375.046875,752.78125 C375.046875,758.375 384.671875,756.28125 384.546875,760.875 C384.453125,762.9375 382.484375,763.84375 380.203125,763.84375 C378.140625,763.84375 376.171875,763.09375 374.765625,761.78125 L374.171875,762.78125 C375.671875,764.21875 377.859375,765.03125 380.140625,765.03125 C383.078125,765.03125 385.796875,763.6875 385.796875,760.65625 C385.796875,754.90625 376.296875,757.0625 376.296875,752.6875 C376.296875,750.75 378.078125,749.875 380.359375,749.875 C381.921875,749.875 383.359375,750.3125 384.484375,751.03125 L385.046875,749.96875 C383.765625,749.1875 382.203125,748.6875 380.390625,748.6875 L380.390625,748.6875 Z M416.015625,765 L422.171875,748.71875 L420.796875,748.71875 L415.390625,763.59375 L409.953125,748.71875 L408.546875,748.71875 L403.140625,763.59375 L397.703125,748.71875 L396.296875,748.71875 L402.453125,765 L403.796875,765 L409.265625,750.4375 L414.671875,765 L416.015625,765 Z M435.859375,765 L437.140625,765 L437.078125,754.1875 C437.046875,750.8125 434.953125,748.6875 431.109375,748.6875 C428.640625,748.6875 426.765625,749.59375 424.828125,751 L425.453125,752 C427.171875,750.6875 428.890625,749.875 430.921875,749.875 C434.171875,749.875 435.765625,751.53125 435.796875,754.28125 L435.796875,755.875 L430.015625,755.875 C426.265625,755.875 423.953125,757.53125 423.953125,760.25 C423.953125,763 426.109375,765.03125 429.328125,765.03125 C432.140625,765.03125 434.453125,764.03125 435.828125,761.78125 L435.859375,765 Z M429.515625,763.84375 C426.859375,763.84375 425.203125,762.375 425.203125,760.21875 C425.203125,758.125 426.953125,757.03125 430.140625,757.03125 L435.828125,757.03125 L435.828125,759.6875 C434.828125,762.53125 432.546875,763.84375 429.515625,763.84375 L429.515625,763.84375 Z M448.703125,755.96875 L455.109375,765 L456.609375,765 L449.640625,755.03125 L455.796875,748.71875 L454.203125,748.71875 L444.578125,758.34375 L444.578125,741.8125 L443.265625,741.8125 L443.265625,765 L444.578125,765 L444.578125,760.21875 L448.703125,755.96875 Z M466.515625,748.6875 C461.921875,748.6875 458.578125,752.09375 458.578125,756.875 C458.578125,761.65625 461.921875,765.03125 466.515625,765.03125 C469.109375,765.03125 471.328125,764.0625 472.828125,762.4375 L472.078125,761.59375 C470.765625,763.03125 468.796875,763.84375 466.578125,763.84375 C462.796875,763.84375 460.046875,761.1875 459.859375,757.21875 L474.078125,757.21875 C474.171875,752.1875 471.296875,748.6875 466.515625,748.6875 L466.515625,748.6875 Z M459.890625,756.0625 C460.203125,752.375 462.859375,749.875 466.515625,749.875 C470.234375,749.875 472.640625,752.375 472.890625,756.0625 L459.890625,756.0625 Z M501.328125,748.71875 L500.046875,748.71875 L500.046875,756.6875 C500.046875,760.9375 497.734375,763.625 493.796875,763.71875 C490.515625,763.71875 488.578125,761.75 488.578125,758.40625 L488.578125,748.71875 L487.296875,748.71875 L487.296875,758.65625 C487.296875,762.65625 489.578125,765.03125 493.515625,765.03125 C496.734375,765 499.015625,763.46875 500.046875,760.65625 L500.046875,765 L501.328125,765 L501.328125,748.71875 Z M516.234375,748.6875 C513.046875,748.6875 510.546875,750.34375 509.328125,753 L509.328125,748.71875 L508.015625,748.71875 L508.015625,771.0625 L509.328125,771.0625 L509.328125,760.75 C510.546875,763.375 513.046875,765.03125 516.234375,765.03125 C520.828125,765.03125 524.078125,761.625 524.078125,756.875 C524.078125,752.09375 520.796875,748.6875 516.234375,748.6875 L516.234375,748.6875 Z M516.046875,763.8125 C512.140625,763.8125 509.328125,760.90625 509.328125,756.875 C509.328125,752.84375 512.140625,749.90625 516.046875,749.90625 C519.984375,749.90625 522.796875,752.84375 522.796875,756.875 C522.796875,760.90625 519.984375,763.8125 516.046875,763.8125 L516.046875,763.8125 Z M528.390625,763 C527.796875,763 527.328125,763.46875 527.328125,764.09375 C527.328125,764.75 527.796875,765.25 528.390625,765.25 C528.984375,765.25 529.484375,764.75 529.484375,764.09375 C529.484375,763.46875 528.984375,763 528.390625,763 L528.390625,763 Z M545.046875,765 L545.046875,741.8125 L543.734375,741.8125 L543.734375,765 L545.046875,765 Z M557.890625,748.6875 C553.296875,748.6875 549.953125,752.09375 549.953125,756.875 C549.953125,761.65625 553.296875,765.03125 557.890625,765.03125 C560.484375,765.03125 562.703125,764.0625 564.203125,762.4375 L563.453125,761.59375 C562.140625,763.03125 560.171875,763.84375 557.953125,763.84375 C554.171875,763.84375 551.421875,761.1875 551.234375,757.21875 L565.453125,757.21875 C565.546875,752.1875 562.671875,748.6875 557.890625,748.6875 L557.890625,748.6875 Z M551.265625,756.0625 C551.578125,752.375 554.234375,749.875 557.890625,749.875 C561.609375,749.875 564.015625,752.375 564.265625,756.0625 L551.265625,756.0625 Z M580.578125,765 L581.859375,765 L581.796875,754.1875 C581.765625,750.8125 579.671875,748.6875 575.828125,748.6875 C573.359375,748.6875 571.484375,749.59375 569.546875,751 L570.171875,752 C571.890625,750.6875 573.609375,749.875 575.640625,749.875 C578.890625,749.875 580.484375,751.53125 580.515625,754.28125 L580.515625,755.875 L574.734375,755.875 C570.984375,755.875 568.671875,757.53125 568.671875,760.25 C568.671875,763 570.828125,765.03125 574.046875,765.03125 C576.859375,765.03125 579.171875,764.03125 580.546875,761.78125 L580.578125,765 Z M574.234375,763.84375 C571.578125,763.84375 569.921875,762.375 569.921875,760.21875 C569.921875,758.125 571.671875,757.03125 574.859375,757.03125 L580.546875,757.03125 L580.546875,759.6875 C579.546875,762.53125 577.265625,763.84375 574.234375,763.84375 L574.234375,763.84375 Z M589.140625,748.71875 L587.828125,748.71875 L587.828125,765 L589.140625,765 L589.140625,756.1875 C589.421875,752.40625 591.609375,750.03125 595.203125,750.03125 L595.203125,748.6875 C592.296875,748.75 590.171875,750.1875 589.140625,752.8125 L589.140625,748.71875 Z M606.734375,748.6875 C603.484375,748.75 601.171875,750.1875 600.078125,752.875 L600.078125,748.71875 L598.765625,748.71875 L598.765625,765 L600.078125,765 L600.078125,756.1875 C600.359375,752.4375 602.671875,750.09375 606.421875,750 C609.765625,750 611.734375,751.96875 611.734375,755.3125 L611.734375,765 L613.046875,765 L613.046875,755.0625 C613.046875,751.09375 610.703125,748.6875 606.734375,748.6875 L606.734375,748.6875 Z M648.609375,748.6875 C645.265625,748.75 642.953125,750.375 641.953125,753.40625 C641.390625,750.4375 639.234375,748.6875 635.953125,748.6875 C632.734375,748.75 630.453125,750.21875 629.390625,753 L629.390625,748.71875 L628.109375,748.71875 L628.109375,765 L629.390625,765 L629.390625,757.03125 C629.390625,752.78125 631.703125,750.09375 635.609375,750 C638.859375,750 640.828125,751.96875 640.828125,755.3125 L640.828125,765 L642.109375,765 L642.109375,757.03125 C642.109375,752.78125 644.390625,750.09375 648.296875,750 C651.578125,750 653.515625,751.96875 653.515625,755.3125 L653.515625,765 L654.796875,765 L654.796875,755.0625 C654.796875,751.09375 652.515625,748.6875 648.609375,748.6875 L648.609375,748.6875 Z M667.046875,748.6875 C662.421875,748.6875 659.015625,752.09375 659.015625,756.84375 C659.015625,761.65625 662.421875,765.03125 667.046875,765.03125 C671.703125,765.03125 675.078125,761.65625 675.078125,756.84375 C675.078125,752.09375 671.703125,748.6875 667.046875,748.6875 L667.046875,748.6875 Z M667.046875,749.9375 C670.984375,749.9375 673.796875,752.78125 673.796875,756.875 C673.796875,760.96875 670.984375,763.8125 667.046875,763.8125 C663.140625,763.8125 660.296875,760.96875 660.296875,756.875 C660.296875,752.78125 663.140625,749.9375 667.046875,749.9375 L667.046875,749.9375 Z M681.140625,748.71875 L679.828125,748.71875 L679.828125,765 L681.140625,765 L681.140625,756.1875 C681.421875,752.40625 683.609375,750.03125 687.203125,750.03125 L687.203125,748.6875 C684.296875,748.75 682.171875,750.1875 681.140625,752.8125 L681.140625,748.71875 Z M696.953125,748.6875 C692.359375,748.6875 689.015625,752.09375 689.015625,756.875 C689.015625,761.65625 692.359375,765.03125 696.953125,765.03125 C699.546875,765.03125 701.765625,764.0625 703.265625,762.4375 L702.515625,761.59375 C701.203125,763.03125 699.234375,763.84375 697.015625,763.84375 C693.234375,763.84375 690.484375,761.1875 690.296875,757.21875 L704.515625,757.21875 C704.609375,752.1875 701.734375,748.6875 696.953125,748.6875 L696.953125,748.6875 Z M690.328125,756.0625 C690.640625,752.375 693.296875,749.875 696.953125,749.875 C700.671875,749.875 703.078125,752.375 703.328125,756.0625 L690.328125,756.0625 Z" id="When-your-five-sense-Copy" fill="#7A787B" sketch:type="MSShapeGroup"></path>
            <path d="M71.4352372,667 C63.5090343,667 58.1379889,670.898784 58.1379889,677.13684 C58.1379889,690.080804 77.849204,685.558214 77.849204,693.667686 C77.849204,696.474811 75.2940465,698.086308 71.0180686,698.086308 C67.1071133,698.086308 62.4139668,696.214892 58.6594497,692.783961 L56,698.086308 C59.7545172,701.517239 65.1777086,703.856509 70.9137765,703.856509 C78.9442715,703.856509 84.6803394,699.853757 84.6803394,693.355783 C84.7324855,680.255867 65.0212704,684.518538 65.0212704,676.565018 C65.0212704,674.12178 67.3678436,672.770201 70.9659226,672.770201 C73.7296644,672.770201 77.6927658,673.757893 81.6558673,676.149148 L84.2110248,670.742833 C80.8215301,668.50753 76.1805297,667 71.4352372,667 L71.4352372,667 Z M121.599758,672.770201 L121.599758,667.259919 L95.5267222,667.259919 L95.5267222,703.648574 L122.225511,703.648574 L122.225511,698.138292 L101.679959,698.138292 L101.679959,688.10542 L119.513915,688.10542 L119.513915,682.595138 L101.679959,682.595138 L101.679959,672.770201 L121.599758,672.770201 Z M165.037436,703.648574 L165.037436,667.259919 L158.988491,667.259919 L158.988491,693.407767 L139.433715,667.259919 L133.38477,667.259919 L133.38477,703.648574 L139.538007,703.648574 L139.538007,677.55271 L158.988491,703.648574 L165.037436,703.648574 Z M190.32828,667 C182.402077,667 177.031032,670.898784 177.031032,677.13684 C177.031032,690.080804 196.742247,685.558214 196.742247,693.667686 C196.742247,696.474811 194.18709,698.086308 189.911112,698.086308 C186.000156,698.086308 181.30701,696.214892 177.552493,692.783961 L174.893043,698.086308 C178.64756,701.517239 184.070752,703.856509 189.80682,703.856509 C197.837315,703.856509 203.573383,699.853757 203.573383,693.355783 C203.625529,680.255867 183.914314,684.518538 183.914314,676.565018 C183.914314,674.12178 186.260887,672.770201 189.858966,672.770201 C192.622708,672.770201 196.585809,673.757893 200.54891,676.149148 L203.104068,670.742833 C199.714573,668.50753 195.073573,667 190.32828,667 L190.32828,667 Z M240.492801,672.770201 L240.492801,667.259919 L214.419765,667.259919 L214.419765,703.648574 L241.118554,703.648574 L241.118554,698.138292 L220.573002,698.138292 L220.573002,688.10542 L238.406958,688.10542 L238.406958,682.595138 L220.573002,682.595138 L220.573002,672.770201 L240.492801,672.770201 Z M255.928038,689.030732 C251.568627,689.030732 248.189561,692.191346 248.189561,696.370843 C248.189561,700.529547 251.568627,703.752542 255.928038,703.752542 C260.28745,703.752542 263.666515,700.529547 263.666515,696.370843 C263.666515,692.21214 260.28745,689.030732 255.928038,689.030732 L255.928038,689.030732 Z M255.948897,691.234844 C258.806502,691.234844 261.142646,693.480544 261.142646,696.370843 C261.142646,699.261142 258.806502,701.548429 255.948897,701.548429 C253.091292,701.548429 250.692573,699.261142 250.692573,696.370843 C250.692573,693.480544 253.070434,691.234844 255.948897,691.234844 L255.948897,691.234844 Z M276.07728,691.297225 L276.098139,689.093112 L266.294677,689.093112 L266.294677,703.648574 L268.755972,703.648574 L268.755972,697.680835 L275.388952,697.680835 L275.388952,695.497515 L268.755972,695.497515 L268.755972,691.297225 L276.07728,691.297225 Z M310.451971,695.435135 L313.945758,703.648574 L320.516163,703.648574 L304.559465,667.259919 L298.24979,667.259919 L282.136654,703.648574 L288.550621,703.648574 L292.044408,695.435135 L310.451971,695.435135 Z M308.105398,689.976837 L294.338835,689.976837 L301.222116,673.809877 L308.105398,689.976837 Z M352.168828,703.648574 L359.156402,703.648574 L350.969469,691.484367 C355.819053,689.61295 358.530649,685.50623 358.530649,679.684046 C358.530649,671.782509 353.159604,667.259919 343.825457,667.259919 L329.015972,667.259919 L329.015972,703.648574 L335.169209,703.648574 L335.169209,692.679994 L343.825457,692.679994 C344.399063,692.679994 344.97267,692.679994 345.494131,692.62801 L352.168828,703.648574 Z M335.169209,687.169712 L335.169209,672.770201 L343.825457,672.770201 C349.457232,672.770201 352.690289,675.057488 352.690289,679.839997 C352.690289,684.778457 349.457232,687.169712 343.825457,687.169712 L335.169209,687.169712 Z M395.293629,672.770201 L395.293629,667.259919 L366.039683,667.259919 L366.039683,672.770201 L377.563965,672.770201 L377.563965,703.648574 L383.717201,703.648574 L383.717201,672.770201 L395.293629,672.770201 Z M416.204204,667 C408.278001,667 402.906956,670.898784 402.906956,677.13684 C402.906956,690.080804 422.618171,685.558214 422.618171,693.667686 C422.618171,696.474811 420.063013,698.086308 415.787035,698.086308 C411.87608,698.086308 407.182934,696.214892 403.428416,692.783961 L400.768967,698.086308 C404.523484,701.517239 409.946675,703.856509 415.682743,703.856509 C423.713238,703.856509 429.449306,699.853757 429.449306,693.355783 C429.501452,680.255867 409.790237,684.518538 409.790237,676.565018 C409.790237,674.12178 412.13681,672.770201 415.734889,672.770201 C418.498631,672.770201 422.461733,673.757893 426.424834,676.149148 L428.979992,670.742833 C425.590497,668.50753 420.949497,667 416.204204,667 L416.204204,667 Z M68.851926,712.181195 C62.1594994,712.181195 56.9542787,717.112377 56.9542787,723.526137 C56.9542787,730.004358 62.0948383,735 68.7226038,735 C71.9233296,735 75.1887165,733.549652 77.4841865,731.293556 L75.221047,728.779619 C73.5075272,730.423347 71.1797266,731.454705 68.9165872,731.454705 C64.3903083,731.454705 60.8339463,727.941641 60.8339463,723.493908 C60.8339463,719.046174 64.3903083,715.56534 68.9165872,715.56534 C71.2120572,715.56534 73.5721883,716.661158 75.221047,718.433805 L77.4518559,715.662029 C75.2533776,713.502623 72.0526518,712.181195 68.851926,712.181195 L68.851926,712.181195 Z M93.2615014,712.181195 C86.5044137,712.181195 81.2668624,717.080147 81.2668624,723.558367 C81.2668624,730.004358 86.5044137,735 93.2615014,735 C100.018589,735 105.25614,730.004358 105.25614,723.558367 C105.25614,717.112377 100.018589,712.181195 93.2615014,712.181195 L93.2615014,712.181195 Z M93.293832,715.59757 C97.7231192,715.59757 101.344142,719.078404 101.344142,723.558367 C101.344142,728.038331 97.7231192,731.583625 93.293832,731.583625 C88.8645448,731.583625 85.14653,728.038331 85.14653,723.558367 C85.14653,719.078404 88.8322142,715.59757 93.293832,715.59757 L93.293832,715.59757 Z M115.407937,731.390246 L115.407937,712.277885 L111.592931,712.277885 L111.592931,734.83885 L125.204098,734.83885 L125.204098,731.390246 L115.407937,731.390246 Z M134.935598,731.390246 L134.935598,712.277885 L131.120591,712.277885 L131.120591,734.83885 L144.731758,734.83885 L144.731758,731.390246 L134.935598,731.390246 Z M166.813533,715.694259 L166.813533,712.277885 L150.648251,712.277885 L150.648251,734.83885 L167.2015,734.83885 L167.2015,731.422475 L154.463258,731.422475 L154.463258,725.202095 L165.520311,725.202095 L165.520311,721.78572 L154.463258,721.78572 L154.463258,715.694259 L166.813533,715.694259 Z M189.60658,723.751747 L189.60658,730.036588 C187.990052,731.003486 186.082549,731.583625 184.40136,731.583625 C179.778089,731.583625 176.124735,728.070561 176.124735,723.558367 C176.124735,719.078404 179.745759,715.56534 184.369029,715.56534 C186.72916,715.56534 189.153953,716.532238 190.899803,718.143736 L193.065951,715.33973 C190.835142,713.405933 187.602085,712.181195 184.369029,712.181195 C177.51495,712.181195 172.245068,717.112377 172.245068,723.558367 C172.245068,730.004358 177.450289,735 184.142715,735 C187.246449,735 190.641158,733.807492 192.936628,732.067074 L192.936628,723.751747 L189.60658,723.751747 Z M216.764254,715.694259 L216.764254,712.277885 L200.598972,712.277885 L200.598972,734.83885 L217.15222,734.83885 L217.15222,731.422475 L204.413978,731.422475 L204.413978,725.202095 L215.471031,725.202095 L215.471031,721.78572 L204.413978,721.78572 L204.413978,715.694259 L216.764254,715.694259 Z M244.794852,712.181195 C238.037764,712.181195 232.800213,717.080147 232.800213,723.558367 C232.800213,730.004358 238.037764,735 244.794852,735 C251.55194,735 256.789491,730.004358 256.789491,723.558367 C256.789491,717.112377 251.55194,712.181195 244.794852,712.181195 L244.794852,712.181195 Z M244.827183,715.59757 C249.25647,715.59757 252.877493,719.078404 252.877493,723.558367 C252.877493,728.038331 249.25647,731.583625 244.827183,731.583625 C240.397896,731.583625 236.679881,728.038331 236.679881,723.558367 C236.679881,719.078404 240.365565,715.59757 244.827183,715.59757 L244.827183,715.59757 Z M278.289316,715.694259 L278.321646,712.277885 L263.126282,712.277885 L263.126282,734.83885 L266.941288,734.83885 L266.941288,725.588854 L277.222407,725.588854 L277.222407,722.20471 L266.941288,722.20471 L266.941288,715.694259 L278.289316,715.694259 Z M294.58392,712.277885 L294.58392,734.83885 L303.7658,734.83885 C310.619879,734.83885 315.566455,730.068818 315.566455,723.558367 C315.566455,717.015687 310.65221,712.277885 303.862792,712.277885 L294.58392,712.277885 Z M298.398926,715.694259 L303.79813,715.694259 C308.259748,715.694259 311.719118,718.981714 311.719118,723.590597 C311.719118,728.16725 308.35674,731.422475 303.959783,731.422475 L298.398926,731.422475 L298.398926,715.694259 Z M338.068528,715.694259 L338.068528,712.277885 L321.903246,712.277885 L321.903246,734.83885 L338.456494,734.83885 L338.456494,731.422475 L325.718252,731.422475 L325.718252,725.202095 L336.775305,725.202095 L336.775305,721.78572 L325.718252,721.78572 L325.718252,715.694259 L338.068528,715.694259 Z M352.811265,712.116735 C347.897019,712.116735 344.566971,714.533981 344.566971,718.401575 C344.566971,726.426833 356.787924,723.622827 356.787924,728.6507 C356.787924,730.391117 355.203726,731.390246 352.55262,731.390246 C350.127828,731.390246 347.218077,730.229967 344.890277,728.102791 L343.241418,731.390246 C345.569218,733.517422 348.931597,734.96777 352.487959,734.96777 C357.466866,734.96777 361.023228,732.486064 361.023228,728.45732 C361.055558,720.335372 348.834605,722.978228 348.834605,718.047046 C348.834605,716.532238 350.289481,715.694259 352.520289,715.694259 C354.233809,715.694259 356.690932,716.306629 359.148055,717.789206 L360.732253,714.437291 C358.630766,713.051403 355.753346,712.116735 352.811265,712.116735 L352.811265,712.116735 Z M371.562991,734.83885 L371.562991,712.277885 L367.747985,712.277885 L367.747985,734.83885 L371.562991,734.83885 Z M395.261294,723.751747 L395.261294,730.036588 C393.644766,731.003486 391.737263,731.583625 390.056074,731.583625 C385.432803,731.583625 381.779449,728.070561 381.779449,723.558367 C381.779449,719.078404 385.400472,715.56534 390.023743,715.56534 C392.383874,715.56534 394.808666,716.532238 396.554517,718.143736 L398.720665,715.33973 C396.489856,713.405933 393.256799,712.181195 390.023743,712.181195 C383.169664,712.181195 377.899782,717.112377 377.899782,723.558367 C377.899782,730.004358 383.105002,735 389.797429,735 C392.901163,735 396.295872,733.807492 398.591342,732.067074 L398.591342,723.751747 L395.261294,723.751747 Z M425.878338,734.83885 L425.878338,712.277885 L422.127993,712.277885 L422.127993,728.48955 L410.004031,712.277885 L406.253686,712.277885 L406.253686,734.83885 L410.068692,734.83885 L410.068692,718.659415 L422.127993,734.83885 L425.878338,734.83885 Z" id="SENSEOF-ARTS--Copy-3" fill="#000000" sketch:type="MSShapeGroup"></path>
            <g id="image-copy-9" sketch:type="MSLayerGroup" transform="translate(0.000000, 809.000000)">
                <rect id="Rectangle-7" fill="#D8D8D8" sketch:type="MSShapeGroup" x="0" y="0" width="360.120235" height="357.011035"></rect>
                <path d="M82.2649661,194.937658 L82.2649661,162.883827 C82.2649661,160.624002 80.464365,158.720992 78.3261511,158.720992 C76.0753996,158.720992 74.2747984,160.624002 74.2747984,162.883827 L74.2747984,194.937658 C74.2747984,197.197483 76.0753996,199.100493 78.2136135,199.100493 C80.464365,199.100493 82.2649661,197.197483 82.2649661,194.937658 L82.2649661,194.937658 Z M141.628536,194.878189 L141.628536,163.835332 C141.628536,159.910374 137.971065,158.483116 134.369863,159.077806 C131.894036,159.077806 129.812091,160.624002 128.91179,162.943296 L121.259235,183.043843 L113.60668,162.943296 C112.256229,159.49409 109.105177,158.661523 105.447706,159.077806 C102.97188,159.077806 100.946203,161.218693 100.946203,163.835332 L100.946203,194.937658 C100.946203,197.197483 102.746804,199.100493 104.885018,199.100493 C107.13577,199.100493 108.936371,197.197483 108.936371,194.937658 L108.936371,170.971621 L119.064753,197.554297 C119.402365,198.446333 120.246397,199.100493 121.202967,199.100493 C122.272073,199.100493 123.116105,198.446333 123.453718,197.554297 L133.5821,170.971621 L133.5821,194.878189 C133.5821,197.197483 135.382701,199.100493 137.577183,199.100493 C139.827935,199.100493 141.628536,197.197483 141.628536,194.878189 L141.628536,194.878189 Z M193.508357,194.580844 C193.508357,194.045622 193.39582,193.5104 193.227013,192.975179 L182.310869,163.181173 C181.241762,160.267188 178.372054,158.483116 175.502346,158.720992 C172.857713,158.720992 170.325617,160.505064 169.369048,163.181173 L158.396635,192.975179 C158.171559,193.5104 158.115291,194.045622 158.115291,194.580844 C158.115291,196.840668 159.803354,199.100493 162.33545,199.100493 C164.079782,199.100493 165.655308,198.03005 166.274265,196.305447 L167.793522,192.023673 L183.886395,192.023673 L185.349383,196.305447 C185.96834,198.03005 187.543866,199.100493 189.23193,199.100493 C191.820294,199.100493 193.508357,196.781199 193.508357,194.580844 L193.508357,194.580844 Z M181.691912,184.590039 L169.988005,184.590039 L175.839958,167.522415 L181.691912,184.590039 Z M242.293395,188.277122 L242.293395,181.557116 C242.293395,178.940477 240.267719,176.79959 237.791893,176.79959 L227.494705,176.79959 C225.581566,176.79959 224.062309,178.405255 224.062309,180.427204 C224.062309,182.568091 225.581566,184.173756 227.494705,184.173756 L234.303228,184.173756 L234.303228,188.931282 C232.78397,190.418008 229.632918,191.964204 226.31306,191.964204 C219.504537,191.964204 214.552884,186.43358 214.552884,178.940477 C214.552884,171.447374 219.504537,165.91675 226.31306,165.91675 C229.182768,165.91675 231.996207,167.22507 234.134421,169.425425 C234.865916,170.198523 235.878754,170.614807 236.835323,170.614807 C238.804731,170.614807 240.605332,168.890204 240.605332,166.808786 C240.605332,165.91675 240.267719,164.965245 239.648762,164.251616 C236.722786,160.921348 232.390089,158.423647 226.31306,158.423647 C215.340647,158.423647 206.337641,166.392503 206.337641,178.940477 C206.337641,191.428983 215.340647,199.516777 226.31306,199.516777 C233.909346,199.516777 242.293395,195.47288 242.293395,188.277122 L242.293395,188.277122 Z M286.802006,194.937658 C286.802006,192.975179 285.22648,191.310044 283.36961,191.310044 L267.895693,191.310044 L267.895693,182.330214 L282.975728,182.330214 C284.832598,182.330214 286.408124,180.66508 286.408124,178.643132 C286.408124,176.561714 284.832598,174.89658 282.975728,174.89658 L267.895693,174.89658 L267.895693,166.511441 L283.36961,166.511441 C285.22648,166.511441 286.802006,164.846307 286.802006,162.824358 C286.802006,160.742941 285.22648,159.077806 283.36961,159.077806 L264.407029,159.077806 C261.931202,159.077806 259.905526,161.218693 259.905526,163.835332 L259.905526,193.986153 C259.905526,196.602792 261.931202,198.743679 264.407029,198.743679 L283.36961,198.743679 C285.22648,198.743679 286.802006,197.078545 286.802006,194.937658 L286.802006,194.937658 Z" id="IMAGE" fill="#FFFFFF" sketch:type="MSShapeGroup"></path>
            </g>
            <g id="image-copy-10" sketch:type="MSLayerGroup" transform="translate(720.000000, 809.000000)">
                <rect id="Rectangle-7" fill="#D8D8D8" sketch:type="MSShapeGroup" x="0" y="0" width="360.120235" height="357.011035"></rect>
                <path d="M82.2649661,194.937658 L82.2649661,162.883827 C82.2649661,160.624002 80.464365,158.720992 78.3261511,158.720992 C76.0753996,158.720992 74.2747984,160.624002 74.2747984,162.883827 L74.2747984,194.937658 C74.2747984,197.197483 76.0753996,199.100493 78.2136135,199.100493 C80.464365,199.100493 82.2649661,197.197483 82.2649661,194.937658 L82.2649661,194.937658 Z M141.628536,194.878189 L141.628536,163.835332 C141.628536,159.910374 137.971065,158.483116 134.369863,159.077806 C131.894036,159.077806 129.812091,160.624002 128.91179,162.943296 L121.259235,183.043843 L113.60668,162.943296 C112.256229,159.49409 109.105177,158.661523 105.447706,159.077806 C102.97188,159.077806 100.946203,161.218693 100.946203,163.835332 L100.946203,194.937658 C100.946203,197.197483 102.746804,199.100493 104.885018,199.100493 C107.13577,199.100493 108.936371,197.197483 108.936371,194.937658 L108.936371,170.971621 L119.064753,197.554297 C119.402365,198.446333 120.246397,199.100493 121.202967,199.100493 C122.272073,199.100493 123.116105,198.446333 123.453718,197.554297 L133.5821,170.971621 L133.5821,194.878189 C133.5821,197.197483 135.382701,199.100493 137.577183,199.100493 C139.827935,199.100493 141.628536,197.197483 141.628536,194.878189 L141.628536,194.878189 Z M193.508357,194.580844 C193.508357,194.045622 193.39582,193.5104 193.227013,192.975179 L182.310869,163.181173 C181.241762,160.267188 178.372054,158.483116 175.502346,158.720992 C172.857713,158.720992 170.325617,160.505064 169.369048,163.181173 L158.396635,192.975179 C158.171559,193.5104 158.115291,194.045622 158.115291,194.580844 C158.115291,196.840668 159.803354,199.100493 162.33545,199.100493 C164.079782,199.100493 165.655308,198.03005 166.274265,196.305447 L167.793522,192.023673 L183.886395,192.023673 L185.349383,196.305447 C185.96834,198.03005 187.543866,199.100493 189.23193,199.100493 C191.820294,199.100493 193.508357,196.781199 193.508357,194.580844 L193.508357,194.580844 Z M181.691912,184.590039 L169.988005,184.590039 L175.839958,167.522415 L181.691912,184.590039 Z M242.293395,188.277122 L242.293395,181.557116 C242.293395,178.940477 240.267719,176.79959 237.791893,176.79959 L227.494705,176.79959 C225.581566,176.79959 224.062309,178.405255 224.062309,180.427204 C224.062309,182.568091 225.581566,184.173756 227.494705,184.173756 L234.303228,184.173756 L234.303228,188.931282 C232.78397,190.418008 229.632918,191.964204 226.31306,191.964204 C219.504537,191.964204 214.552884,186.43358 214.552884,178.940477 C214.552884,171.447374 219.504537,165.91675 226.31306,165.91675 C229.182768,165.91675 231.996207,167.22507 234.134421,169.425425 C234.865916,170.198523 235.878754,170.614807 236.835323,170.614807 C238.804731,170.614807 240.605332,168.890204 240.605332,166.808786 C240.605332,165.91675 240.267719,164.965245 239.648762,164.251616 C236.722786,160.921348 232.390089,158.423647 226.31306,158.423647 C215.340647,158.423647 206.337641,166.392503 206.337641,178.940477 C206.337641,191.428983 215.340647,199.516777 226.31306,199.516777 C233.909346,199.516777 242.293395,195.47288 242.293395,188.277122 L242.293395,188.277122 Z M286.802006,194.937658 C286.802006,192.975179 285.22648,191.310044 283.36961,191.310044 L267.895693,191.310044 L267.895693,182.330214 L282.975728,182.330214 C284.832598,182.330214 286.408124,180.66508 286.408124,178.643132 C286.408124,176.561714 284.832598,174.89658 282.975728,174.89658 L267.895693,174.89658 L267.895693,166.511441 L283.36961,166.511441 C285.22648,166.511441 286.802006,164.846307 286.802006,162.824358 C286.802006,160.742941 285.22648,159.077806 283.36961,159.077806 L264.407029,159.077806 C261.931202,159.077806 259.905526,161.218693 259.905526,163.835332 L259.905526,193.986153 C259.905526,196.602792 261.931202,198.743679 264.407029,198.743679 L283.36961,198.743679 C285.22648,198.743679 286.802006,197.078545 286.802006,194.937658 L286.802006,194.937658 Z" id="IMAGE" fill="#FFFFFF" sketch:type="MSShapeGroup"></path>
            </g>
            <g id="image-copy-11" sketch:type="MSLayerGroup" transform="translate(360.000000, 809.000000)">
                <rect id="Rectangle-7" fill="#D8D8D8" sketch:type="MSShapeGroup" x="0" y="0" width="360.120235" height="357.011035"></rect>
                <path d="M82.2649661,194.937658 L82.2649661,162.883827 C82.2649661,160.624002 80.464365,158.720992 78.3261511,158.720992 C76.0753996,158.720992 74.2747984,160.624002 74.2747984,162.883827 L74.2747984,194.937658 C74.2747984,197.197483 76.0753996,199.100493 78.2136135,199.100493 C80.464365,199.100493 82.2649661,197.197483 82.2649661,194.937658 L82.2649661,194.937658 Z M141.628536,194.878189 L141.628536,163.835332 C141.628536,159.910374 137.971065,158.483116 134.369863,159.077806 C131.894036,159.077806 129.812091,160.624002 128.91179,162.943296 L121.259235,183.043843 L113.60668,162.943296 C112.256229,159.49409 109.105177,158.661523 105.447706,159.077806 C102.97188,159.077806 100.946203,161.218693 100.946203,163.835332 L100.946203,194.937658 C100.946203,197.197483 102.746804,199.100493 104.885018,199.100493 C107.13577,199.100493 108.936371,197.197483 108.936371,194.937658 L108.936371,170.971621 L119.064753,197.554297 C119.402365,198.446333 120.246397,199.100493 121.202967,199.100493 C122.272073,199.100493 123.116105,198.446333 123.453718,197.554297 L133.5821,170.971621 L133.5821,194.878189 C133.5821,197.197483 135.382701,199.100493 137.577183,199.100493 C139.827935,199.100493 141.628536,197.197483 141.628536,194.878189 L141.628536,194.878189 Z M193.508357,194.580844 C193.508357,194.045622 193.39582,193.5104 193.227013,192.975179 L182.310869,163.181173 C181.241762,160.267188 178.372054,158.483116 175.502346,158.720992 C172.857713,158.720992 170.325617,160.505064 169.369048,163.181173 L158.396635,192.975179 C158.171559,193.5104 158.115291,194.045622 158.115291,194.580844 C158.115291,196.840668 159.803354,199.100493 162.33545,199.100493 C164.079782,199.100493 165.655308,198.03005 166.274265,196.305447 L167.793522,192.023673 L183.886395,192.023673 L185.349383,196.305447 C185.96834,198.03005 187.543866,199.100493 189.23193,199.100493 C191.820294,199.100493 193.508357,196.781199 193.508357,194.580844 L193.508357,194.580844 Z M181.691912,184.590039 L169.988005,184.590039 L175.839958,167.522415 L181.691912,184.590039 Z M242.293395,188.277122 L242.293395,181.557116 C242.293395,178.940477 240.267719,176.79959 237.791893,176.79959 L227.494705,176.79959 C225.581566,176.79959 224.062309,178.405255 224.062309,180.427204 C224.062309,182.568091 225.581566,184.173756 227.494705,184.173756 L234.303228,184.173756 L234.303228,188.931282 C232.78397,190.418008 229.632918,191.964204 226.31306,191.964204 C219.504537,191.964204 214.552884,186.43358 214.552884,178.940477 C214.552884,171.447374 219.504537,165.91675 226.31306,165.91675 C229.182768,165.91675 231.996207,167.22507 234.134421,169.425425 C234.865916,170.198523 235.878754,170.614807 236.835323,170.614807 C238.804731,170.614807 240.605332,168.890204 240.605332,166.808786 C240.605332,165.91675 240.267719,164.965245 239.648762,164.251616 C236.722786,160.921348 232.390089,158.423647 226.31306,158.423647 C215.340647,158.423647 206.337641,166.392503 206.337641,178.940477 C206.337641,191.428983 215.340647,199.516777 226.31306,199.516777 C233.909346,199.516777 242.293395,195.47288 242.293395,188.277122 L242.293395,188.277122 Z M286.802006,194.937658 C286.802006,192.975179 285.22648,191.310044 283.36961,191.310044 L267.895693,191.310044 L267.895693,182.330214 L282.975728,182.330214 C284.832598,182.330214 286.408124,180.66508 286.408124,178.643132 C286.408124,176.561714 284.832598,174.89658 282.975728,174.89658 L267.895693,174.89658 L267.895693,166.511441 L283.36961,166.511441 C285.22648,166.511441 286.802006,164.846307 286.802006,162.824358 C286.802006,160.742941 285.22648,159.077806 283.36961,159.077806 L264.407029,159.077806 C261.931202,159.077806 259.905526,161.218693 259.905526,163.835332 L259.905526,193.986153 C259.905526,196.602792 261.931202,198.743679 264.407029,198.743679 L283.36961,198.743679 C285.22648,198.743679 286.802006,197.078545 286.802006,194.937658 L286.802006,194.937658 Z" id="IMAGE" fill="#FFFFFF" sketch:type="MSShapeGroup"></path>
            </g>
            <g id="image-copy-12" sketch:type="MSLayerGroup" transform="translate(1080.000000, 809.000000)">
                <rect id="Rectangle-7" fill="#D8D8D8" sketch:type="MSShapeGroup" x="0" y="0" width="360.120235" height="357.011035"></rect>
                <path d="M82.2649661,194.937658 L82.2649661,162.883827 C82.2649661,160.624002 80.464365,158.720992 78.3261511,158.720992 C76.0753996,158.720992 74.2747984,160.624002 74.2747984,162.883827 L74.2747984,194.937658 C74.2747984,197.197483 76.0753996,199.100493 78.2136135,199.100493 C80.464365,199.100493 82.2649661,197.197483 82.2649661,194.937658 L82.2649661,194.937658 Z M141.628536,194.878189 L141.628536,163.835332 C141.628536,159.910374 137.971065,158.483116 134.369863,159.077806 C131.894036,159.077806 129.812091,160.624002 128.91179,162.943296 L121.259235,183.043843 L113.60668,162.943296 C112.256229,159.49409 109.105177,158.661523 105.447706,159.077806 C102.97188,159.077806 100.946203,161.218693 100.946203,163.835332 L100.946203,194.937658 C100.946203,197.197483 102.746804,199.100493 104.885018,199.100493 C107.13577,199.100493 108.936371,197.197483 108.936371,194.937658 L108.936371,170.971621 L119.064753,197.554297 C119.402365,198.446333 120.246397,199.100493 121.202967,199.100493 C122.272073,199.100493 123.116105,198.446333 123.453718,197.554297 L133.5821,170.971621 L133.5821,194.878189 C133.5821,197.197483 135.382701,199.100493 137.577183,199.100493 C139.827935,199.100493 141.628536,197.197483 141.628536,194.878189 L141.628536,194.878189 Z M193.508357,194.580844 C193.508357,194.045622 193.39582,193.5104 193.227013,192.975179 L182.310869,163.181173 C181.241762,160.267188 178.372054,158.483116 175.502346,158.720992 C172.857713,158.720992 170.325617,160.505064 169.369048,163.181173 L158.396635,192.975179 C158.171559,193.5104 158.115291,194.045622 158.115291,194.580844 C158.115291,196.840668 159.803354,199.100493 162.33545,199.100493 C164.079782,199.100493 165.655308,198.03005 166.274265,196.305447 L167.793522,192.023673 L183.886395,192.023673 L185.349383,196.305447 C185.96834,198.03005 187.543866,199.100493 189.23193,199.100493 C191.820294,199.100493 193.508357,196.781199 193.508357,194.580844 L193.508357,194.580844 Z M181.691912,184.590039 L169.988005,184.590039 L175.839958,167.522415 L181.691912,184.590039 Z M242.293395,188.277122 L242.293395,181.557116 C242.293395,178.940477 240.267719,176.79959 237.791893,176.79959 L227.494705,176.79959 C225.581566,176.79959 224.062309,178.405255 224.062309,180.427204 C224.062309,182.568091 225.581566,184.173756 227.494705,184.173756 L234.303228,184.173756 L234.303228,188.931282 C232.78397,190.418008 229.632918,191.964204 226.31306,191.964204 C219.504537,191.964204 214.552884,186.43358 214.552884,178.940477 C214.552884,171.447374 219.504537,165.91675 226.31306,165.91675 C229.182768,165.91675 231.996207,167.22507 234.134421,169.425425 C234.865916,170.198523 235.878754,170.614807 236.835323,170.614807 C238.804731,170.614807 240.605332,168.890204 240.605332,166.808786 C240.605332,165.91675 240.267719,164.965245 239.648762,164.251616 C236.722786,160.921348 232.390089,158.423647 226.31306,158.423647 C215.340647,158.423647 206.337641,166.392503 206.337641,178.940477 C206.337641,191.428983 215.340647,199.516777 226.31306,199.516777 C233.909346,199.516777 242.293395,195.47288 242.293395,188.277122 L242.293395,188.277122 Z M286.802006,194.937658 C286.802006,192.975179 285.22648,191.310044 283.36961,191.310044 L267.895693,191.310044 L267.895693,182.330214 L282.975728,182.330214 C284.832598,182.330214 286.408124,180.66508 286.408124,178.643132 C286.408124,176.561714 284.832598,174.89658 282.975728,174.89658 L267.895693,174.89658 L267.895693,166.511441 L283.36961,166.511441 C285.22648,166.511441 286.802006,164.846307 286.802006,162.824358 C286.802006,160.742941 285.22648,159.077806 283.36961,159.077806 L264.407029,159.077806 C261.931202,159.077806 259.905526,161.218693 259.905526,163.835332 L259.905526,193.986153 C259.905526,196.602792 261.931202,198.743679 264.407029,198.743679 L283.36961,198.743679 C285.22648,198.743679 286.802006,197.078545 286.802006,194.937658 L286.802006,194.937658 Z" id="IMAGE" fill="#FFFFFF" sketch:type="MSShapeGroup"></path>
            </g>
            <rect id="Rectangle-25-Copy" stroke="#979797" stroke-width="0.25" fill="#FFFFFF" sketch:type="MSShapeGroup" x="0" y="1142" width="1440" height="25"></rect>
            <rect id="Rectangle-26-Copy-6" stroke="#979797" stroke-width="0.25" fill="#FFFFFF" sketch:type="MSShapeGroup" x="0" y="1144" width="195" height="25"></rect>
            <rect id="Rectangle-26-Copy-7" stroke="#979797" stroke-width="0.25" fill="#FFFFFF" sketch:type="MSShapeGroup" x="1415" y="1141" width="25" height="25"></rect>
            <rect id="Rectangle-26-Copy-8" stroke="#979797" stroke-width="0.25" fill="#FFFFFF" sketch:type="MSShapeGroup" x="1390" y="1141" width="25" height="25"></rect>
            <rect id="Rectangle-26-Copy-9" stroke="#979797" stroke-width="0.25" fill="#FFFFFF" sketch:type="MSShapeGroup" x="1365" y="1141" width="25" height="25"></rect>
            <rect id="Rectangle-26-Copy-10" stroke="#979797" stroke-width="0.25" fill="#FFFFFF" sketch:type="MSShapeGroup" x="1340" y="1141" width="25" height="25"></rect>
            <rect id="Rectangle-26-Copy-11" stroke="#979797" stroke-width="0.25" fill="#FFFFFF" sketch:type="MSShapeGroup" x="1315" y="1141" width="25" height="25"></rect>
        </g>
    </g>
</svg>