<?xml version="1.0" encoding="utf-8"?>
<!-- Generator: Adobe Illustrator 19.1.0, SVG Export Plug-In . SVG Version: 6.00 Build 0)  -->
<svg version="1.1" id="Layer_1" xmlns="http://www.w3.org/2000/svg" xmlns:xlink="http://www.w3.org/1999/xlink" x="0px" y="0px"
	 viewBox="0 0 1224 792" style="enable-background:new 0 0 1224 792;" xml:space="preserve">
<style type="text/css">
	.st0{fill:#3E4951;}
	.st1{fill:#E32628;}
	.st2{enable-background:new    ;}
</style>
<g>
	<g>
		<path class="st0" d="M143.9,610.3c-55.2,0-98.1-41.9-98.1-96.6c0-55,43.4-97.4,98.1-97.4c20.6,0,37,4.5,54,15.6v35.7
			c-19.2-17-34.3-23.6-54.9-23.6c-38.8,0-66,28.9-66,69.9c0,41.1,26.7,68.2,66,68.2c21.4,0,35.6-5.8,55.3-23.1v35.1
			C179.6,605.8,164.5,610.3,143.9,610.3"/>
		<path class="st0" d="M333.8,610.3c-55.3,0-98.1-41.9-98.1-96.6c0-55,43.3-97.4,98.1-97.4c20.5,0,37,4.5,54,15.6v35.7
			c-19.3-17-34.4-23.6-54.9-23.6c-38.9,0-66,28.9-66,69.9c0,41.1,26.7,68.2,66,68.2c21.4,0,35.6-5.8,55.2-23.1v35.1
			C369.4,605.8,354.3,610.3,333.8,610.3"/>
		<path class="st1" d="M489.4,482.4c-36.1,0-63.8,27.6-63.8,63.7s28.1,64.6,63.8,64.6c34.8,0,62.4-28,62.4-63.8
			C551.8,511,524.2,482.4,489.4,482.4 M489.4,584c-20.1,0-35.7-16.5-35.7-37.9c0-21.2,15.6-37.9,36.1-37.9
			c20.2,0,35.7,16.6,35.7,37.9C525.5,567,510,584,489.4,584z"/>
		<polyline class="st1" points="467,420.9 451.2,448.1 567,448.1 567,604.9 596.4,604.9 596.4,420.9 467,420.9 		"/>
	</g>
</g>
<g class="st2">
	<path class="st0" d="M136.2,366.4h-23.8v-48.6H67.8v48.6H43.9V253.9h23.9V298h44.6v-44.1h23.8V366.4z"/>
	<path class="st0" d="M201.6,368c-13.9,0-24.7-3.8-32.5-11.5c-7.8-7.6-11.7-18.5-11.7-32.5c0-14.4,3.6-25.6,10.8-33.4
		c7.2-7.9,17.2-11.8,29.9-11.8c12.2,0,21.6,3.5,28.4,10.4s10.2,16.5,10.2,28.7v11.4h-55.5c0.3,6.7,2.2,11.9,5.9,15.6
		c3.7,3.7,8.9,5.6,15.5,5.6c5.2,0,10.1-0.5,14.7-1.6s9.4-2.8,14.5-5.2v18.2c-4.1,2.1-8.5,3.6-13.2,4.6
		C214.1,367.5,208.4,368,201.6,368z M198.3,295.5c-5,0-8.9,1.6-11.7,4.7c-2.8,3.2-4.4,7.6-4.8,13.4h32.9c-0.1-5.8-1.6-10.3-4.5-13.4
		S203.3,295.5,198.3,295.5z"/>
	<path class="st0" d="M279.3,366.4h-23.5V246.7h23.5V366.4z"/>
	<path class="st0" d="M327.4,366.4h-23.5V246.7h23.5V366.4z"/>
	<path class="st0" d="M430.2,323.3c0,14-3.7,25-11.1,32.9c-7.4,7.9-17.7,11.9-30.9,11.9c-8.3,0-15.5-1.8-21.9-5.4
		c-6.3-3.6-11.2-8.8-14.5-15.6c-3.4-6.8-5.1-14.7-5.1-23.7c0-14.1,3.7-25,11-32.8s17.6-11.7,30.9-11.7c8.3,0,15.5,1.8,21.9,5.4
		c6.3,3.6,11.2,8.7,14.5,15.5C428.5,306.4,430.2,314.2,430.2,323.3z M370.7,323.3c0,8.5,1.4,15,4.2,19.3c2.8,4.4,7.3,6.5,13.7,6.5
		c6.3,0,10.8-2.2,13.5-6.5s4.1-10.8,4.1-19.4c0-8.5-1.4-14.9-4.2-19.2c-2.8-4.3-7.3-6.4-13.6-6.4s-10.8,2.1-13.5,6.3
		S370.7,314.7,370.7,323.3z"/>
	<path class="st0" d="M472.6,349.9c-2.7,10.4-7.2,22.7-13.5,36.9h-17c3.3-13.6,5.9-26.5,7.8-38.6h21.5L472.6,349.9z"/>
</g>
</svg>
