<?xml version="1.0" encoding="utf-8"?>
<!-- Generator: Adobe Illustrator 19.1.0, SVG Export Plug-In . SVG Version: 6.00 Build 0)  -->
<svg version="1.1" id="svg2" xmlns:svg="http://www.w3.org/2000/svg"
	 xmlns="http://www.w3.org/2000/svg" xmlns:xlink="http://www.w3.org/1999/xlink" x="0px" y="0px" viewBox="-389.2 321.4 152 152"
	 style="enable-background:new -389.2 321.4 152 152;" xml:space="preserve">
<style type="text/css">
	.st0{fill:#EC4223;}
	.st1{fill:#F9F206;}
	.st2{fill:#FF0000;}
	.st3{fill:#4E5A62;}
</style>
<rect x="-389.2" y="321.4" class="st0" width="152" height="152"/>
<g>
	<g id="layer1" transform="translate(-243.92718,-24.305148)">
		<g id="g2396" transform="translate(4.0406102,-207.08127)">
			<path id="path2404" class="st1" d="M-42.3,678.3c-0.2-0.2-0.4-19.5-0.4-42.8v-28.2v-14.1h-31c-17.1,0-31-0.2-31-0.4
				c0-0.2,1.9-3.4,4.1-7l4.1-6.6h34.4h34.4v49.4V678l-7.1,0.3C-38.7,678.5-42,678.5-42.3,678.3z"/>
		</g>
	</g>
	<polygon class="st1" points="-329,375.5 -317.9,397.9 -293.2,401.5 -311.1,418.9 -306.9,443.5 -329,431.9 -351.1,443.5 
		-346.9,418.9 -364.7,401.5 -340,397.9 	"/>
</g>
<text transform="matrix(1 0 0 1 -131.5954 347.7974)"><tspan x="0" y="0" style="font-family:'OpenSans-Light'; font-size:40.5143px;">Welcome to </tspan><tspan x="0" y="48.6" class="st2" style="font-family:'OpenSans-Bold'; font-size:40.5143px;">My China</tspan></text>
<g id="layer1_1_" transform="translate(-243.92718,-24.305148)">
	<g id="g2396_1_" transform="translate(4.0406102,-207.08127)">
		<path id="path2404_1_" class="st0" d="M383.7,825.3c-1.8-0.4-3.3-1.6-4.1-3.3c-0.3-0.7-0.5-1.3-0.5-2.5c-0.1-1.4,0-1.6,0.5-2.6
			c0.6-1.3,1.6-2.4,2.7-2.9c0.7-0.3,1.1-0.6,2.6-0.6c1.5,0,1.8,0.3,2.5,0.6c1.1,0.5,2.1,1.6,2.7,2.8c0.4,0.8,0.5,1.1,0.5,2.6
			c0,1.4-0.1,1.8-0.5,2.6C388.8,824.5,386.3,825.8,383.7,825.3z M385.9,822.9c1.5-0.4,2.7-2.4,2.4-4.1c-0.3-1.6-1.7-3-3.3-3
			c-2.7,0-4.3,2.8-3.1,5.3c0.5,1,0.9,1.3,1.8,1.7C384.5,823.1,385,823.1,385.9,822.9z M392.2,824.8c0,0-0.1-3.4-0.1-7.4v-4.9v-2.4
			h-5.3c-2.9,0-5.3,0-5.3-0.1c0,0,0.3-0.6,0.7-1.2l0.7-1.1h5.9h5.9v8.5v8.5l-1.2,0.1C392.8,824.9,392.3,824.8,392.2,824.8z"/>
		<path id="path2400" class="st3" d="M351.2,825.3c-5-0.7-8.4-5.3-7.6-10.3c0.4-2.6,2.1-5.2,4.3-6.5c2.7-1.5,6.5-1.7,9-0.3l0.6,0.4
			v1.6v1.6l-0.8-0.6c-1.5-1.1-2.3-1.4-4.2-1.4c-1.8,0-2.7,0.3-4,1.3c-2.7,2.1-3,7.1-0.6,9.8c2.1,2.4,6.2,2.5,8.9,0.4
			c0.3-0.3,0.7-0.5,0.7-0.5c0.1,0,0.1,0.7,0.1,1.5v1.5l-1,0.5C355,825.3,353.1,825.6,351.2,825.3z M369,825.3
			c-4.1-0.6-7.1-3.5-7.7-7.6c-0.4-3.1,0.7-6.1,2.9-8.1c1.7-1.5,3.6-2.2,6.1-2.2c1.7,0,3.1,0.3,4.3,1l0.6,0.4v1.6v1.6l-0.8-0.6
			c-1.3-0.9-2.3-1.3-3.7-1.4c-3-0.2-5.4,1.4-6.3,4.3c-0.8,2.6-0.1,5.6,1.7,7.2c1.2,1,2.4,1.5,4.3,1.5c1.3,0,1.7-0.1,2.6-0.5
			c0.5-0.3,1.3-0.7,1.7-1s0.7-0.5,0.7-0.5c0,0,0,0.7,0,1.6l-0.1,1.6l-1.2,0.5C372.4,825.3,370.7,825.5,369,825.3z"/>
	</g>
</g>
</svg>
