<?xml version="1.0" encoding="UTF-8" standalone="no"?>
<!-- Created with Inkscape (http://www.inkscape.org/) -->
<svg
   xmlns:svg="http://www.w3.org/2000/svg"
   xmlns="http://www.w3.org/2000/svg"
   version="1.0"
   width="297.68488"
   height="105.12199"
   id="svg2">
  <defs
     id="defs4" />
  <g
     transform="translate(-243.92718,-24.305148)"
     id="layer1">
    <g
       transform="translate(4.0406102,-207.08127)"
       id="g2396">
      <path
         d="M 473.57143,335.84663 C 463.40848,333.773 454.14211,326.38596 449.66757,316.79076 C 447.68624,312.54199 447.01977,309.30253 446.73798,302.55113 C 446.40306,294.52682 446.61878,293.28674 449.37357,287.39988 C 452.9248,279.81109 458.64887,273.75899 465.27552,270.58667 C 469.28987,268.66491 471.70108,267.0854 480.07143,267.0854 C 488.64882,267.0854 490.73762,268.63129 494.75426,270.68447 C 500.86055,273.8058 506.75018,279.93388 510.23387,286.79076 C 512.70375,291.65219 513.03069,293.39375 513.0498,301.79076 C 513.06885,310.15625 512.74301,311.95913 510.32133,316.88746 C 503.25928,331.25937 488.47362,338.88725 473.57143,335.84663 z M 486.07143,321.68072 C 494.91888,319.25012 501.74215,307.67967 500.09109,297.9071 C 498.4798,288.37001 489.95148,280.79076 480.83142,280.79076 C 465.18073,280.79076 455.66569,297.18333 462.96334,311.574 C 465.8722,317.31014 468.00364,319.32859 473.13774,321.20905 C 477.99553,322.9883 480.92314,323.09507 486.07143,321.68072 z M 522.98385,332.87409 C 522.75702,332.64493 522.57143,313.40743 522.57143,290.12409 L 522.57143,261.91781 L 522.57143,247.79076 L 491.57143,247.79076 C 474.52143,247.79076 460.57143,247.59175 460.57143,247.34851 C 460.57143,247.10528 462.42169,243.95528 464.68313,240.34851 L 468.79482,233.79076 L 503.18313,233.79076 L 537.57143,233.79076 L 537.57143,283.2087 L 537.57143,332.62664 L 530.48385,332.9587 C 526.58569,333.14133 523.21069,333.10326 522.98385,332.87409 z"
         id="path2404"
         style="fill:#ec4223" />
      <path
         d="M 284.72225,335.6545 C 255.91714,331.44345 236.05101,304.6326 240.51268,275.99032 C 242.90516,260.63156 252.69891,245.9971 265.57143,238.54594 C 281.03432,229.59537 303.3168,228.96365 317.82143,237.06463 L 321.57143,239.15904 L 321.57143,248.47324 L 321.57143,257.78743 L 316.70753,254.29307 C 307.73666,247.84814 303.15877,246.33961 292.57143,246.33961 C 282.07119,246.33961 276.84439,248.03047 269.59426,253.77268 C 253.91386,266.19178 252.03076,295.11774 265.90304,310.47269 C 278.24984,324.13913 301.85692,325.13467 317.71533,312.65769 C 319.71948,311.08088 321.63198,309.79076 321.96533,309.79076 C 322.29869,309.79076 322.57143,313.83428 322.57143,318.77636 L 322.57143,327.76197 L 316.6378,330.75725 C 307.22637,335.50813 295.75819,337.26785 284.72225,335.6545 z M 388.11867,335.67945 C 364.17492,332.19042 346.88779,315.10513 343.54342,291.62464 C 341.01378,273.86429 347.34216,256.35891 360.5962,244.45377 C 370.46582,235.58861 381.56564,231.5302 396.05133,231.49037 C 405.68563,231.46388 414.24036,233.38903 420.82143,237.06463 L 424.57143,239.15904 L 424.57143,248.47324 L 424.57143,257.78743 L 419.70753,254.29307 C 412.40657,249.04785 406.21839,246.68546 398.18906,246.0782 C 380.66949,244.7532 366.66769,254.30729 361.43789,271.15525 C 356.7787,286.16498 360.88293,303.61356 371.21108,312.70477 C 378.10322,318.77147 385.18718,321.17304 396.11493,321.14755 C 403.74872,321.12974 406.06137,320.71307 410.95083,318.4746 C 414.13664,317.01609 418.45682,314.46556 420.55123,312.80676 C 422.64563,311.14796 424.51948,309.78975 424.71533,309.78852 C 424.91119,309.78728 424.92929,314.00933 424.75557,319.17084 L 424.43971,328.55539 L 417.75557,331.60848 C 408.11255,335.47065 398.26744,337.1381 388.11867,335.67945 z"
         id="path2400"
         style="fill:#4e5a62" />
    </g>
  </g>
</svg>
