<?xml version="1.0" encoding="utf-8"?>
<!-- Generator: Adobe Illustrator 19.1.0, SVG Export Plug-In . SVG Version: 6.00 Build 0)  -->
<svg version="1.1" id="Layer_1" xmlns="http://www.w3.org/2000/svg" xmlns:xlink="http://www.w3.org/1999/xlink" x="0px" y="0px"
	 viewBox="0 0 1224 792" style="enable-background:new 0 0 1224 792;" xml:space="preserve">
<style type="text/css">
	.st0{fill:#3E4951;}
	.st1{fill:#E32628;}
</style>
<g>
	<g>
		<path class="st0" d="M142,610.4c-55.2,0-98.1-41.9-98.1-96.6c0-55,43.4-97.4,98.1-97.4c20.6,0,37,4.5,54,15.6v35.7
			c-19.2-17-34.3-23.6-54.9-23.6c-38.8,0-66,28.9-66,69.9c0,41.1,26.7,68.2,66,68.2c21.4,0,35.6-5.8,55.3-23.1v35.1
			C177.7,605.9,162.6,610.4,142,610.4"/>
		<path class="st0" d="M331.9,610.4c-55.3,0-98.1-41.9-98.1-96.6c0-55,43.3-97.4,98.1-97.4c20.5,0,37,4.5,54,15.6v35.7
			c-19.3-17-34.4-23.6-54.9-23.6c-38.9,0-66,28.9-66,69.9c0,41.1,26.7,68.2,66,68.2c21.4,0,35.6-5.8,55.2-23.1v35.1
			C367.5,605.9,352.4,610.4,331.9,610.4"/>
		<path class="st1" d="M487.5,482.5c-36.1,0-63.8,27.6-63.8,63.7s28.1,64.6,63.8,64.6c34.8,0,62.4-28,62.4-63.8
			C549.9,511.1,522.3,482.5,487.5,482.5 M487.5,584.1c-20.1,0-35.7-16.5-35.7-37.9c0-21.2,15.6-37.9,36.1-37.9
			c20.2,0,35.7,16.6,35.7,37.9C523.6,567.1,508.1,584.1,487.5,584.1z"/>
		<polyline class="st1" points="465.1,421 449.3,448.2 565.1,448.2 565.1,605 594.5,605 594.5,421 465.1,421 		"/>
	</g>
	<g>
		<path class="st0" d="M50.9,284.3l-7-22.3c20.5-22.5,35.6-48.9,45.5-79.3l19.3,9.1c-5.2,15.5-11.9,30.2-20.3,44.1v131.9H67.7V265.4
			C62.4,271.8,56.9,278.1,50.9,284.3z M112.7,265.8l-17.9-11.1c14.7-22.1,25-45.5,31-70.3l19.5,4.2c-1.6,6-3.4,11.9-5.2,17.7H223
			v13.5c-3,11.9-6.8,23.6-11.3,35.4l-19.9-5.8c4-6.8,7.2-14.5,9.9-23.2h-68.8C127,240.6,120.3,253.9,112.7,265.8z M141.3,270.6
			c-7,27.2-15.9,51.1-26.6,71.5l-19.5-7c10.3-18.3,19.5-41.5,27.4-69.7L141.3,270.6z M129.8,366.6l-4.6-19.5
			c7.9,0.8,15.7,1.4,22.9,1.4c4.8,0,7.2-2.6,7.2-7.6V239.8h20.1v106.1c0,13.7-6.8,20.7-20.3,20.7H129.8z M228.2,337.3l-18.3,8.1
			c-7.2-28.6-15.3-54.1-24.2-76.1l18.3-6.2C213.3,286.3,221.4,311.1,228.2,337.3z"/>
		<path class="st0" d="M296.5,184.3c-2.2,12.7-4.4,24.4-6.4,35.4h32.6V231c-1.2,31-7.2,57.8-17.7,80.7c10.5,8.3,19.3,15.7,26,22.5
			l-14.1,16.3c-6.2-6.4-13.5-13.1-21.9-20.3c-9.5,15.1-21.3,28-35.6,39.1l-14.2-17.6c13.5-9.9,24.8-21.5,33.6-35
			c-8.9-7.4-18.7-14.9-29.2-22.7c5.8-16.7,10.9-34.8,15.7-54.2H247v-20.1h22.7c2.4-12.1,4.6-24.6,6.6-37.4L296.5,184.3z
			 M302.5,239.8H286c-4.4,19.1-8.9,35-13.7,47.9c5.8,4,11.1,7.8,16.1,11.5C296.1,281.7,300.9,261.8,302.5,239.8z M369,265.2v-21.9
			c9.5-8.7,18.9-19.1,28-31h-64.8V192h88.6v20.3c-9.1,13.1-19.5,25.6-31,37.4v15.5h38v20.3h-38v57c0,15.5-6,23.2-17.5,23.2h-29.8
			l-5.4-19.7c7.9,0.2,16.9,0.4,26.6,0.4c3.4,0,5.2-3.4,5.2-10.1v-50.9h-42.3v-20.3L369,265.2L369,265.2L369,265.2z"/>
		<path class="st0" d="M480.1,341.9c0,19.5-9.1,34.2-27.2,43.9l-7-11.3c11.9-7.4,18.3-16.5,19.5-27.6c-1.2,0.2-2.4,0.4-3.8,0.4
			c-4.4,0-7.9-1.4-10.9-4.2c-3-2.8-4.4-6.4-4.4-10.5c0-4.6,1.4-8.1,4.4-10.9s6.6-4.2,10.9-4.2C474,317.5,480.1,325.6,480.1,341.9z"
			/>
	</g>
</g>
</svg>
