<?xml version="1.0" encoding="utf-8"?>
<!-- Generator: Adobe Illustrator 19.1.0, SVG Export Plug-In . SVG Version: 6.00 Build 0)  -->
<svg version="1.1" id="Layer_1" xmlns="http://www.w3.org/2000/svg" xmlns:xlink="http://www.w3.org/1999/xlink" x="0px" y="0px"
	 viewBox="0 0 400 666.2" style="enable-background:new 0 0 400 666.2;" xml:space="preserve">
<style type="text/css">
	.st0{font-family:'OpenSans-Bold';}
	.st1{font-size:16px;}
	.st2{fill:none;}
	.st3{font-family:'PingFangSC-Regular-GBpc-EUC-H';}
	.st4{font-size:10px;}
	.st5{font-family:'PingFangSC-Semibold-GBpc-EUC-H';}
	.st6{font-size:16px;glyph-orientation-vertical:0;writing-mode:tb;}
	.st7{writing-mode:tb;}
	.st8{font-size:10px;glyph-orientation-vertical:0;}
	.st9{letter-spacing:3;}
</style>
<text transform="matrix(1 0 0 1 -647.2258 76.8557)" class="st0" style="font-size:38.9152px;">WHO ARE WE ?</text>
<text transform="matrix(1 0 0 1 -709.8815 50.5945)" class="st5" style="font-size:38.9152px;glyph-orientation-vertical:0;writing-mode:tb;">我们是谁？</text>
<rect x="-872.8" y="50.2" class="st2" width="130.2" height="159.2"/>
<text transform="matrix(1 0 0 1 -747.7448 50.2214)" class="st7"><tspan x="0" y="0" class="st3" style="font-size:14.0527px;glyph-orientation-vertical:0; letter-spacing:2;">我们是中国学生会！</tspan><tspan x="-16.9" y="0" class="st3" style="font-size:14.0527px;glyph-orientation-vertical:0; letter-spacing:2;">当我们孤独地为每一</tspan><tspan x="-33.7" y="0" class="st3" style="font-size:14.0527px;glyph-orientation-vertical:0; letter-spacing:2;">作业奋斗的时候，何</tspan><tspan x="-50.6" y="0" class="st3" style="font-size:14.0527px;glyph-orientation-vertical:0; letter-spacing:2;">不联合起来、互相支</tspan><tspan x="-67.5" y="0" class="st3" style="font-size:14.0527px;glyph-orientation-vertical:0; letter-spacing:2;">持？术业有专攻，一</tspan><tspan x="-84.3" y="0" class="st3" style="font-size:14.0527px;glyph-orientation-vertical:0; letter-spacing:2;">个人的专业知识是有</tspan><tspan x="-101.2" y="0" class="st3" style="font-size:14.0527px;glyph-orientation-vertical:0; letter-spacing:2;">限的。</tspan></text>
<rect x="-895.5" y="570.8" class="st2" width="153" height="190.8"/>
<text transform="matrix(1 0 0 1 -747.7448 570.8381)" class="st7"><tspan x="0" y="0" class="st3" style="font-size:14.0527px;glyph-orientation-vertical:0; letter-spacing:2;">这不是个问题！无论你来</tspan><tspan x="-16.9" y="0" class="st3" style="font-size:14.0527px;glyph-orientation-vertical:0; letter-spacing:2;">自哪里，CCA中国学生</tspan><tspan x="-33.7" y="0" class="st3" style="font-size:14.0527px;glyph-orientation-vertical:0; letter-spacing:2;">会都欢迎和期待你的加入</tspan><tspan x="-50.6" y="0" class="st3" style="font-size:14.0527px;glyph-orientation-vertical:0; letter-spacing:2;">，我们会有丰富多彩的活</tspan><tspan x="-67.5" y="0" class="st3" style="font-size:14.0527px;glyph-orientation-vertical:0; letter-spacing:2;">动高效而有针对性的交流</tspan><tspan x="-84.3" y="0" class="st3" style="font-size:14.0527px;glyph-orientation-vertical:0; letter-spacing:2;">互助机会，你所要做的就</tspan><tspan x="-101.2" y="0" class="st3" style="font-size:14.0527px;glyph-orientation-vertical:0; letter-spacing:2;">是加入我们，享受每个人</tspan><tspan x="-118" y="0" class="st3" style="font-size:14.0527px;glyph-orientation-vertical:0; letter-spacing:2;">能带给你的一切！</tspan></text>
<text transform="matrix(1 0 0 1 -709.8815 266.9256)" class="st5" style="font-size:38.9152px;glyph-orientation-vertical:0;writing-mode:tb;">我们所相信的？</text>
<rect x="-872.8" y="266.9" class="st2" width="130.2" height="249.8"/>
<text transform="matrix(1 0 0 1 -747.7448 266.925)" class="st7"><tspan x="0" y="0" class="st3" style="font-size:14.0527px;glyph-orientation-vertical:0; letter-spacing:2;">你，我们相信你。你是富有才华</tspan><tspan x="-16.9" y="0" class="st3" style="font-size:14.0527px;glyph-orientation-vertical:0; letter-spacing:2;">而独一无二的，有你在我们会变</tspan><tspan x="-33.7" y="0" class="st3" style="font-size:14.0527px;glyph-orientation-vertical:0; letter-spacing:2;">得更好，我们需要你，你的同辈</tspan><tspan x="-50.6" y="0" class="st3" style="font-size:14.0527px;glyph-orientation-vertical:0; letter-spacing:2;">人也需要你！而在满满人群中，</tspan><tspan x="-67.5" y="0" class="st3" style="font-size:14.0527px;glyph-orientation-vertical:0; letter-spacing:2;">有一些同样或拥有一技之长、或</tspan><tspan x="-84.3" y="0" class="st3" style="font-size:14.0527px;glyph-orientation-vertical:0; letter-spacing:2;">出类拔萃的同辈，他们同样可以</tspan><tspan x="-101.2" y="0" class="st3" style="font-size:14.0527px;glyph-orientation-vertical:0; letter-spacing:2;">帮助你变得更好。</tspan></text>
<rect x="-647.2" y="100.9" class="st2" width="287.1" height="109.5"/>
<text transform="matrix(1 0 0 1 -647.2258 111.137)"><tspan x="0" y="0" class="st3" style="font-size:14.0527px;">We are the Chinese Student Association on </tspan><tspan x="0" y="16.9" class="st3" style="font-size:14.0527px;">campus to support CcA&apos;s Chinese Student </tspan><tspan x="0" y="33.7" class="st3" style="font-size:14.0527px;">Body. We believe we should all be devoted </tspan><tspan x="0" y="50.6" class="st3" style="font-size:14.0527px;">to school and we are here to support each </tspan><tspan x="0" y="67.5" class="st3" style="font-size:14.0527px;">other in doing a wonderful job. </tspan></text>
<text transform="matrix(1 0 0 1 -647.2258 302.8518)"><tspan x="0" y="0" class="st0" style="font-size:38.9152px;">WHAT DO </tspan><tspan x="0" y="46.7" class="st0" style="font-size:38.9152px;">WE BELIEVE ?</tspan></text>
<rect x="-647.2" y="361.1" class="st2" width="287.1" height="109.5"/>
<text transform="matrix(1 0 0 1 -647.2258 371.3377)"><tspan x="0" y="0" class="st3" style="font-size:14.0527px;">We are the Chinese Student Association on </tspan><tspan x="0" y="16.9" class="st3" style="font-size:14.0527px;">campus to support CcA&apos;s Chinese Student </tspan><tspan x="0" y="33.7" class="st3" style="font-size:14.0527px;">Body. We believe we should all be devoted </tspan><tspan x="0" y="50.6" class="st3" style="font-size:14.0527px;">to school and we are here to support each </tspan><tspan x="0" y="67.5" class="st3" style="font-size:14.0527px;">other in doing a wonderful job. </tspan></text>
<text transform="matrix(1 0 0 1 -647.2253 599.7297)" class="st0" style="font-size:38.9152px;">JOIN US ?</text>
<rect x="-647.2" y="620.4" class="st2" width="270.8" height="76.7"/>
<text transform="matrix(1 0 0 1 -647.2253 630.6399)"><tspan x="0" y="0" class="st3" style="font-size:14.0527px;">We are a Chinese Student based </tspan><tspan x="0" y="16.9" class="st3" style="font-size:14.0527px;">organization, welcome to anybody </tspan><tspan x="0" y="33.7" class="st3" style="font-size:14.0527px;">interested in joining. We hold events and </tspan><tspan x="0" y="50.6" class="st3" style="font-size:14.0527px;">all you need to do is come and have fun!</tspan></text>
<text transform="matrix(1 0 0 1 232.4423 41.0038)" class="st0 st1">WHO ARE WE ?</text>
<rect x="232.4" y="59.2" class="st2" width="137.8" height="76.1"/>
<text transform="matrix(1 0 0 1 232.4424 66.471)"><tspan x="0" y="0" class="st3 st4">We are the Chinese Student </tspan><tspan x="0" y="12" class="st3 st4">Association. We believe we </tspan><tspan x="0" y="24" class="st3 st4">should all be devoted to </tspan><tspan x="0" y="36" class="st3 st4">school and we are here to </tspan><tspan x="0" y="48" class="st3 st4">support each other in doing </tspan><tspan x="0" y="60" class="st3 st4">a wonderful job. </tspan></text>
<text transform="matrix(1 0 0 1 232.442 190.4802)"><tspan x="0" y="0" class="st0 st1">WHAT DO </tspan><tspan x="0" y="19.2" class="st0 st1">WE BELIEVE ?</tspan></text>
<rect x="232.4" y="226.7" class="st2" width="149.2" height="109.5"/>
<text transform="matrix(1 0 0 1 232.4421 234.0139)"><tspan x="0" y="0" class="st3 st4">We are the Chinese Student </tspan><tspan x="0" y="12" class="st3 st4">Association on campus to </tspan><tspan x="0" y="24" class="st3 st4">support CcA&apos;s Chinese Student </tspan><tspan x="0" y="36" class="st3 st4">Body. We believe we should all </tspan><tspan x="0" y="48" class="st3 st4">be devoted to school and we </tspan><tspan x="0" y="60" class="st3 st4">are here to support each other </tspan><tspan x="0" y="72" class="st3 st4">in doing a wonderful job. </tspan></text>
<text transform="matrix(1 0 0 1 226.4034 375.4589)" class="st0 st1">JOIN US ?</text>
<rect x="226.4" y="393.2" class="st2" width="161.3" height="76.7"/>
<text transform="matrix(1 0 0 1 226.4037 400.5143)"><tspan x="0" y="0" class="st3 st4">We are a Chinese Student based </tspan><tspan x="0" y="12" class="st3 st4">organization, welcome to anybody </tspan><tspan x="0" y="24" class="st3 st4">interested in joining. We hold </tspan><tspan x="0" y="36" class="st3 st4">events and all you need to do is </tspan><tspan x="0" y="48" class="st3 st4">come and have fun!</tspan></text>
<text transform="matrix(1 0 0 1 -701.5949 570.8391)" class="st5" style="font-size:38.9152px;glyph-orientation-vertical:0;writing-mode:tb;">加入我们？</text>
<text transform="matrix(1 0 0 1 196.1724 77.6654)" class="st5 st6">我们是谁？</text>
<rect x="88.3" y="77.3" class="st2" width="83.1" height="167.6"/>
<text transform="matrix(1 0 0 1 167.6601 77.2935)" class="st7"><tspan x="0" y="0" class="st3 st8 st9">我们是中国学生会！当我们</tspan><tspan x="-12" y="0" class="st3 st8 st9">孤独地为每一作业奋斗的时</tspan><tspan x="-24" y="0" class="st3 st8 st9">候，何不联合起来、互相支</tspan><tspan x="-36" y="0" class="st3 st8 st9">持？术业有专攻，一个人的</tspan><tspan x="-48" y="0" class="st3 st8 st9">专业知识是有限的。</tspan></text>
<rect x="70.4" y="481.2" class="st2" width="103.8" height="159.7"/>
<text transform="matrix(1 0 0 1 170.578 481.1747)" class="st7"><tspan x="0" y="0" class="st3 st8 st9">这不是个问题！无论你来</tspan><tspan x="-12" y="0" class="st3 st8 st9">自哪里，CCA中国学生</tspan><tspan x="-24" y="0" class="st3 st8 st9">会都欢迎和期待你的加入</tspan><tspan x="-36" y="0" class="st3 st8 st9">，我们会有丰富多彩的活</tspan><tspan x="-48" y="0" class="st3 st8 st9">动高效而有针对性的交流</tspan><tspan x="-60" y="0" class="st3 st8 st9">互助机会，你所要做的就</tspan><tspan x="-72" y="0" class="st3 st8 st9">是加入我们，享受每个人</tspan><tspan x="-84" y="0" class="st3 st8 st9">能带给你的一切！</tspan></text>
<text transform="matrix(1 0 0 1 196.172 274.2333)" class="st5 st6">我们所相信的？</text>
<rect x="41.1" y="274.2" class="st2" width="130.2" height="166.4"/>
<text transform="matrix(1 0 0 1 167.6601 274.2328)" class="st7"><tspan x="0" y="0" class="st3 st8 st9">你，我们相信你。你是富有</tspan><tspan x="-12" y="0" class="st3 st8 st9">才华而独一无二的，有你在</tspan><tspan x="-24" y="0" class="st3 st8 st9">我们会变得更好，我们需要</tspan><tspan x="-36" y="0" class="st3 st8 st9">你，你的同辈人也需要你！</tspan><tspan x="-48" y="0" class="st3 st8 st9">而在满满人群中，有一些同</tspan><tspan x="-60" y="0" class="st3 st8 st9">样或拥有一技之长、或出类</tspan><tspan x="-72" y="0" class="st3 st8 st9">拔萃的同辈，他们同样可以</tspan><tspan x="-84" y="0" class="st3 st8 st9">帮助你变得更好。</tspan></text>
<text transform="matrix(1 0 0 1 196.1728 481.1747)" class="st5 st6">加入我们？</text>
</svg>
