<?xml version="1.0" encoding="UTF-8" standalone="no"?>
<svg width="1440px" height="2098px" viewBox="0 0 1440 2098" version="1.1" xmlns="http://www.w3.org/2000/svg" xmlns:xlink="http://www.w3.org/1999/xlink" xmlns:sketch="http://www.bohemiancoding.com/sketch/ns">
    <!-- Generator: Sketch 3.4 (15588) - http://www.bohemiancoding.com/sketch -->
    <title>Desktop HD</title>
    <desc>Created with Sketch.</desc>
    <defs>
        <linearGradient x1="79.0396981%" y1="86.16491%" x2="19.508528%" y2="8.69499544%" id="linearGradient-1">
            <stop stop-color="#0070B6" offset="0%"></stop>
            <stop stop-color="#1D2C5E" offset="100%"></stop>
        </linearGradient>
        <linearGradient x1="38.8569566%" y1="65.3383439%" x2="94.123658%" y2="7.48713376%" id="linearGradient-2">
            <stop stop-color="#0070B6" offset="0%"></stop>
            <stop stop-color="#1D2C5E" offset="100%"></stop>
        </linearGradient>
        <linearGradient x1="54.1879975%" y1="89.4943124%" x2="30.0509392%" y2="8.08876534%" id="linearGradient-3">
            <stop stop-color="#0070B6" offset="0%"></stop>
            <stop stop-color="#1D2C5E" offset="100%"></stop>
        </linearGradient>
        <linearGradient x1="52.5988646%" y1="81.3150565%" x2="42.7768045%" y2="9.51102229%" id="linearGradient-4">
            <stop stop-color="#125D9E" offset="0%"></stop>
            <stop stop-color="#1D2C5E" offset="100%"></stop>
        </linearGradient>
        <linearGradient x1="188.443051%" y1="-3.40768095%" x2="81.8660543%" y2="37.8502488%" id="linearGradient-5">
            <stop stop-color="#125D9E" offset="0%"></stop>
            <stop stop-color="#1D2C5E" offset="100%"></stop>
        </linearGradient>
        <linearGradient x1="18.9578272%" y1="-35.6591446%" x2="45.9781711%" y2="41.2563299%" id="linearGradient-6">
            <stop stop-color="#105FA1" offset="0%"></stop>
            <stop stop-color="#1D2C5E" offset="100%"></stop>
        </linearGradient>
        <linearGradient x1="25.6959944%" y1="-5.95869899%" x2="48.2146752%" y2="43.973632%" id="linearGradient-7">
            <stop stop-color="#105FA1" offset="0%"></stop>
            <stop stop-color="#1D2C5E" offset="100%"></stop>
        </linearGradient>
        <linearGradient x1="0.00075334296%" y1="49.996416%" x2="99.9989328%" y2="49.996416%" id="linearGradient-8">
            <stop stop-color="#3C5AA6" offset="0%"></stop>
            <stop stop-color="#2B73B9" offset="93.31%"></stop>
            <stop stop-color="#2A75BB" offset="100%"></stop>
        </linearGradient>
        <linearGradient x1="0.000252123292%" y1="49.9998016%" x2="100.000339%" y2="49.9998016%" id="linearGradient-9">
            <stop stop-color="#3C5AA6" offset="0%"></stop>
            <stop stop-color="#2B73B9" offset="93.31%"></stop>
            <stop stop-color="#2A75BB" offset="100%"></stop>
        </linearGradient>
        <path id="path-10" d="M0,0 L123.617512,0 L123.617512,185 L0,185 L0,0 Z"></path>
    </defs>
    <g id="PokemonColor" stroke="none" stroke-width="1" fill="none" fill-rule="evenodd" sketch:type="MSPage">
        <g id="Desktop-HD" sketch:type="MSArtboardGroup">
            <rect id="Rectangle-2-Copy" fill="#F0EFEF" sketch:type="MSShapeGroup" x="345" y="988" width="750" height="995"></rect>
            <g id="English_PokeÌmon_logo-Copy" sketch:type="MSLayerGroup" transform="translate(477.000000, 0.000000)">
                <g id="Layer_1" sketch:type="MSShapeGroup">
                    <path d="M1.77635684e-15,67.22703 L21.6022593,103.56582 L30.2262778,95.36941 L6.71455556,60.4304 L1.77635684e-15,67.22703 Z" id="polygon16" fill="url(#linearGradient-1)"></path>
                    <path d="M320.743074,38.66758 L319.907796,43.45762 L330.240093,40.13538 L328.952148,34.26776 L320.743074,38.66758 Z" id="polygon18" fill="#0071B9"></path>
                    <path d="M260.542,5.95354 L227.296148,43.9445 L236.971,41.17179 L268.623537,1.79 L260.542,5.95354 Z" id="polygon25" fill="url(#linearGradient-2)"></path>
                    <path d="M438.396889,57.89755 L446.557463,53.56396 L444.22587,73.927 L438.396889,57.89755 Z" id="polygon27" fill="#1D2C5E"></path>
                    <path d="M387.676667,70.9556 L394.930111,72.43593 L404.188222,67.95735 L396.153389,64.96984 L387.676667,70.9556 Z" id="polygon29" fill="#1D2C5E"></path>
                    <path d="M137.592704,49.33419 L138.753111,72.93176 L148.877037,68.85593 L145.846685,44.92184 L137.592704,49.33419 Z" id="polygon36" fill="url(#linearGradient-3)"></path>
                    <path d="M395.526481,42.29233 L387.378481,46.67425 L387.676667,70.9556 L395.878556,66.767 L398.452648,55.01386 L395.526481,42.29233 Z" id="polygon43" fill="url(#linearGradient-4)"></path>
                    <path d="M394.407389,72.50395 L385.434889,151.92625 L399.778315,149.107 L402.587722,68.22048 L394.407389,72.50395 Z" id="polygon45" fill="#312370"></path>
                    <path d="M411.971574,155.73358 L412.226648,166.50401 L439.760278,175.24816 L447.954981,170.91994 L420.938685,150.06286 L393.572111,147.66784 L385.434889,151.92625 L411.971574,155.73358 Z" id="polygon47" fill="#21386E"></path>
                    <path d="M309.830574,136.79001 L316.597222,133.1581 L320.91013,141.09854 L327.286981,137.60625 L328.556963,148.07417 L368.58563,155.14825 L376.584537,150.76454 L321.387944,117.25037 L282.232278,123.93781 L274.594426,131.1712 L309.830574,136.79001 Z" id="polygon49" fill="#21386E"></path>
                    <path d="M297.084056,39.07212 L289.070778,43.46657 L274.594426,131.1712 L282.702907,126.97365 L296.599056,77.72896 L297.084056,39.07212 Z" id="polygon56" fill="url(#linearGradient-5)"></path>
                    <path d="M233.1395,50.82705 L226.755463,54.21552 L227.292556,56.33667 L242.48563,46.719 L235.846519,39.61986 L227.296148,43.9445 L233.1395,50.82705 Z" id="polygon58" fill="#1D2C5E"></path>
                    <path d="M250.594111,154.42688 L185.316704,122.20509 L193.511407,116.03138 L258.716963,150.0557 L250.594111,154.42688 Z" id="polygon60" fill="#21386E"></path>
                    <path d="M191.451056,34.50583 L181.558852,53.1988 L192.0115,50.04482 L199.554148,30.1257 L191.451056,34.50583 Z" id="polygon62" fill="#1D2C5E"></path>
                    <path d="M101.729648,111.73001 L93.3840556,117.43832 C93.3840556,117.43832 95.1552037,126.71768 97.4382963,133.17242 C99.733963,139.65043 105.198296,144.85396 105.198296,144.85396 C108.708259,148.27286 113.010389,150.76096 117.810093,152.15716 C127.041259,154.80457 137.459778,153.07901 146.403537,147.39576 C148.742315,145.9208 151.91637,143.55979 153.867148,141.6964 C145.076074,147.0127 101.729648,111.73001 101.729648,111.73001 L101.729648,111.73001 Z" id="path69" fill="url(#linearGradient-6)"></path>
                    <path d="M146.390963,71.00751 L154.007259,154.73655 L185.126296,150.14878 L193.45213,145.80087 L154.833556,65.98835 L146.888537,68.65545 L138.753111,72.93176 L146.390963,71.00751 Z" id="polygon71" fill="#1D2C5E"></path>
                    <path d="M29.7287037,100.08964 L64.4978148,178.66706 L97.5299074,168.04878 L105.595278,162.64656 L37.0342407,91.16291 L28.4551296,96.28589 L21.6022593,103.56582 L29.7287037,100.08964 Z" id="polygon78" fill="url(#linearGradient-7)"></path>
                    <path d="M374.314019,137.16233 L374.781056,141.01978 C377.626389,140.70116 380.615426,140.33421 383.173352,139.42668 C386.155204,138.40996 392.632648,135.53522 395.09537,133.41765 C394.172074,133.75238 378.995167,137.67248 374.314019,137.16233" id="path80" fill="#1D2C5E"></path>
                    <path d="M257.448778,117.09822 L258.688222,123.30952 C265.374037,122.31786 271.113204,119.85303 276.75537,116.47351 C280.29587,114.37205 284.183056,111.20196 285.409926,110.35708 C284.544111,110.9084 257.448778,117.09822 257.448778,117.09822 L257.448778,117.09822 Z" id="path82" fill="#1D2C5E"></path>
                    <g id="g84" transform="translate(8.171352, 4.142060)" fill="#FFCB05">
                        <path d="M65.3654259,167.07502 L62.7841481,161.35955 L29.8185185,88.04294 L29.1413148,86.53934 L27.6432037,87.22849 L26.6426667,87.68673 L20.7741667,90.55789 C19.9083519,89.11157 18.4713148,86.68791 17.4725741,85.0071 L4.20333333,62.66074 L0.732888889,56.82713 L6.47385185,53.20238 C11.9040556,49.75126 18.0366111,46.56327 24.7080556,43.72433 C37.9916667,38.08583 51.5501111,35.10369 63.9140185,35.10369 C67.9808333,35.10369 71.9165185,35.43126 75.6132963,36.07208 C81.7763889,36.77197 87.476037,38.78751 92.1841296,41.91285 C99.200463,45.82221 104.724074,51.88673 107.844241,59.06105 C110.405759,64.95731 110.90513,71.86313 109.277685,79.02671 L108.322056,83.235 L111.830222,80.70036 C114.194148,78.99091 116.762852,77.53027 119.464481,76.35782 C124.134852,74.39061 128.966889,73.38642 133.807907,73.38642 C138.390259,73.38642 142.722926,74.29037 146.687352,76.06784 L149.243481,77.20986 L148.986611,74.42999 L147.874704,62.4173 L147.695074,60.51274 L145.834111,60.99425 L140.249426,62.43699 L139.270444,41.98266 L180.179296,28.95862 L179.848778,44.85561 L182.929426,45.64321 L191.864204,28.58093 L218.62363,52.23041 L219.73913,53.22028 L220.827685,52.19998 C224.493926,48.76676 228.839167,46.01195 233.741259,44.01252 L235.789037,43.17838 L234.38613,41.47251 L229.561278,35.61205 L260.283333,0.32399 L276.372759,24.24734 L251.743741,37.43964 L246.274019,40.37166 L252.483815,40.50233 C264.159741,40.74756 274.499222,45.67006 281.592796,54.36051 L284.157907,57.5127 L285.8105,59.53719 L283.065759,62.44057 L281.235333,64.37735 L275.081222,70.91801 L273.936981,72.13342 L275.17463,73.2468 L280.942537,78.42169 L283.173537,80.42112 L283.651352,77.4712 L285.864389,63.81887 L286.430222,60.31405 L286.448185,60.33374 L287.030185,56.75374 L290.333574,36.59834 L319.825167,36.59834 L321.208315,36.59834 L321.441833,35.23973 L322.018444,31.78861 L348.576685,31.78861 L355.011019,72.2802 L355.429556,74.90255 L357.585111,73.34346 C360.191537,71.4568 363.071,69.90487 366.146259,68.73242 C370.240019,67.19302 374.45413,66.40721 378.661056,66.40721 C383.66913,66.40721 388.531704,67.55997 392.736833,69.7384 C392.848204,69.81895 393.006278,69.92277 393.221833,70.00869 L395.217519,70.80703 L395.452833,68.67335 L395.934241,64.261 L396.092315,62.81468 L394.664259,62.49785 L389.278963,61.29855 L389.016704,40.19087 L430.074648,49.19636 L433.158889,64.38451 L436.347315,64.44716 L439.528556,51.37658 L473.765963,59.67323 L438.777704,164.7516 L413.740926,156.91677 L413.563093,147.23824 L413.537944,145.85099 L412.156593,145.65767 L387.173704,142.1439 L388.587389,129.49039 L388.923296,126.47961 L386.21987,127.8597 C384.939111,128.50947 383.699667,129.05542 382.528481,129.48502 C378.443704,131.02442 374.26013,131.80307 370.094519,131.80307 C368.889204,131.80307 367.6785,131.73684 366.50013,131.60438 L364.36613,131.36631 L364.700241,133.47851 L366.458815,144.60694 L330.010167,138.20053 L328.100704,121.68599 L327.48637,116.39296 L325.030833,121.12393 L320.834685,129.18788 L313.108815,114.97528 L310.786204,110.70613 L310.053315,115.50333 L308.370185,126.50467 L276.424852,121.49446 L278.901944,106.39581 L279.467778,102.93395 L276.448204,104.7329 C271.219185,107.85645 265.214167,110.20672 258.095444,111.91975 C255.607574,112.52477 253.008333,112.94363 250.362389,113.16201 L248.864278,113.28731 L248.864278,114.78554 L248.864278,143.27876 L185.952593,112.29565 L183.588667,111.13394 L183.590463,113.75987 L183.633574,140.25903 L155.50537,144.38856 L154.323407,131.66345 L154.003667,128.25887 L151.551722,130.65389 C147.835185,134.27864 143.648019,137.08894 139.108778,139.00782 C134.465352,140.97503 129.67463,141.97027 124.87313,141.97027 C120.078815,141.97027 115.573704,140.97145 111.481741,139.01856 C103.90137,135.38486 98.4334444,128.79229 96.0874815,120.47416 C94.9701852,116.56659 94.6666111,112.44064 95.1857407,108.2055 L95.7407963,103.6947 L92.4392037,106.8272 C90.1112037,109.0289 87.6035741,111.13215 84.9809815,113.06356 L84.0918148,113.71691 L84.372037,114.78196 L93.8475,151.02588 L95.5216481,157.45735 L89.1771296,159.46752 L71.3363148,165.15972 L65.3654259,167.07502 L65.3654259,167.07502 L65.3654259,167.07502 Z M73.3733148,69.77778 C72.4536111,69.77778 71.5033704,69.86191 70.5459444,70.03375 L69.3316481,70.26645 L67.5389444,70.61013 L68.0796296,72.35001 L68.4317037,73.48129 L73.5331852,90.11576 L74.0433333,91.71423 L74.8013704,94.11283 L76.6874815,92.44097 L77.9395,91.32938 C82.8847037,86.90092 84.6181296,82.40444 83.5744815,76.73372 C82.917037,73.33093 80.2728889,71.6358 78.7532222,70.92696 C77.1652963,70.16442 75.3474444,69.77778 73.3733148,69.77778 L73.3733148,69.77778 L73.3733148,69.77778 Z M210.134333,70.32373 L206.945907,73.41685 L198.548222,81.54882 L196.719593,83.31913 L199.099685,84.23561 L208.106315,87.69926 L210.872611,88.76073 L210.301389,85.86451 C209.557722,82.12341 209.363722,78.37873 209.712204,74.73608 L210.134333,70.32373 L210.134333,70.32373 L210.134333,70.32373 Z M246.807519,61.0748 C243.3245,61.0748 239.954648,62.56766 237.560185,65.16674 C233.928074,69.11906 233.22213,74.94909 235.805204,79.67111 L236.489593,80.95096 L237.590722,82.99693 L239.140926,81.26779 L240.13787,80.16694 L252.45687,66.15124 L253.425074,65.04144 L254.97887,63.26218 L252.762241,62.44415 L251.380889,61.93579 C249.931278,61.37015 248.379278,61.0748 246.807519,61.0748 L246.807519,61.0748 L246.807519,61.0748 Z" id="path86"></path>
                    </g>
                    <path id="path88" fill="#7D7F68" d="M273.823815,85.97728 C273.705259,86.0811 273.595685,86.21356 273.502278,86.3496 C273.626222,86.23683 273.746574,86.13838 273.874111,86.03456 L273.823815,85.97728 L273.823815,85.97728 Z"></path>
                    <path d="M284.445315,76.17345 L290.59763,69.63279 L288.49237,71.85955 L288.553444,71.57852 L286.692481,73.53499 L280.545556,80.05596 L286.304481,85.21832 L287.34813,78.78864 L290.215019,81.34655 L284.445315,76.17345 Z" id="polygon90" fill="#7D7F68"></path>
                    <path d="M284.445315,76.17345 L290.215019,81.34655 L292.424463,67.69601 L290.59763,69.63279 L284.445315,76.17345 Z" id="polygon92" fill="#7D7F68"></path>
                    <path id="path94" fill="#7D7F68" d="M207.858426,86.85438 L208.004206,86.9159112 L207.858426,86.85438 L207.858426,86.85438 Z"></path>
                    <path d="M241.919796,92.53226 C242.411981,93.02809 241.957519,92.67188 242.508981,93.04778 L246.272222,90.40395 C245.713574,90.01015 245.160315,89.58771 244.651963,89.11515 C239.191222,84.15685 240.610296,73.00515 244.152593,66.90125 C234.828019,74.39777 235.313019,85.9379 241.919796,92.53226" id="path96" fill="#C7A008"></path>
                    <path d="M287.34813,98.77578 C281.132944,103.89876 274.048352,107.2389 264.687852,109.49251 C262.64187,109.9597 260.637204,110.2998 258.675648,110.47164 C243.818481,111.92691 231.353981,105.12849 226.624333,94.10209 C226.035148,92.76675 225.580685,91.4153 225.237593,89.97256 C223.049704,80.68604 224.917852,72.3876 229.521759,65.88274 C229.978019,65.25266 230.45763,64.64943 230.960593,64.03546 C230.725278,64.23594 230.484574,64.40778 230.288778,64.59573 C228.519426,66.16556 226.953056,67.88575 225.622,69.76525 C221.012704,76.27011 219.144556,84.57392 221.352204,93.84612 C221.689907,95.28886 222.137185,96.66 222.713796,97.96491 C227.445241,109.01637 239.913333,115.81121 254.757926,114.36668 C256.735648,114.17694 258.73313,113.85116 260.780907,113.35891 C270.152185,111.1053 277.231389,107.77948 283.446574,102.6565 C284.964444,101.41245 286.428426,100.05563 287.849296,98.57172 L287.718167,98.44642 C287.576259,98.56814 287.470278,98.67375 287.34813,98.77578" id="path98" fill="#C7A008"></path>
                    <path d="M182.643815,70.70321 L199.243389,47.45827 L198.569778,46.83893 L182.554,69.25689 L182.643815,70.70321 Z" id="polygon100" fill="#C7A008"></path>
                    <path d="M292.424463,67.69601 L290.215019,81.34655 L287.34813,78.78864 L286.304481,85.21832 L280.545556,80.05596 L286.692481,73.53499 L288.553444,71.57852 L288.49237,71.85955 L290.59763,69.63279 L292.424463,67.69601 Z" id="polygon102" fill="#C7A008"></path>
                    <path d="M271.912556,29.40791 L277.72537,26.92339 L267.100278,13.3355 L263.619056,18.18103 L271.912556,29.40791 Z" id="polygon104" fill="#C7A008"></path>
                    <path d="M110.984167,63.07065 C84.1546852,30.5016 35.810963,48.0078 18.4353889,63.24249 L19.1143889,64.41136 C23.1093519,62.12732 27.3216667,60.06166 31.7531296,58.20901 C49.0119444,50.86285 65.4660185,48.70948 78.6580185,51.00963 C83.3212037,51.54305 88.2610185,52.92135 92.5595556,55.78893 C98.5106852,59.10938 103.021185,63.83319 105.658148,69.88697 C110.3375,80.60907 106.215,94.86642 95.1947222,106.80214 C109.017222,94.16295 118.474722,82.06971 110.984167,63.07065 L110.984167,63.07065 Z" id="path106" fill="#C7A008"></path>
                    <path d="M165.720907,101.01507 C165.595167,100.42437 165.469426,99.82472 165.277222,99.24655 C163.766537,93.8318 160.52063,89.50895 156.265204,86.63242 C149.378204,81.97126 139.764426,81.01361 130.182981,85.04469 C125.142574,87.21596 120.759611,90.55789 117.294556,94.54959 C119.958463,92.26555 123.003185,90.36278 126.292204,88.9451 C135.852093,84.90149 145.46587,85.85735 152.376222,90.51314 C156.631648,93.39325 159.850611,97.71431 161.39363,103.1219 C161.564278,103.70186 161.697204,104.31046 161.83013,104.92085 C162.239685,106.97935 162.430093,109.06112 162.351056,111.19301 C162.151667,117.42579 159.832648,123.70153 155.976,129.06079 C155.354481,129.90925 154.70063,130.70043 154.023426,131.48445 C156.2185,129.596 158.178259,127.50707 159.852407,125.16754 C163.725222,119.84229 166.038852,113.55402 166.24363,107.28365 C166.329852,105.19114 166.155611,103.07536 165.720907,101.01507" id="path108" fill="#C7A008"></path>
                    <path d="M139.302778,93.06568 C139.265056,93.12475 143.195352,89.18496 143.150444,89.18496 C138.233981,88.9988 136.155667,93.61879 135.985019,93.98216 C136.994537,93.49528 138.108241,93.17845 139.302778,93.06568" id="path110" fill="#C7A008"></path>
                    <path d="M148.562685,98.71313 C148.762074,99.37722 148.866259,100.03773 148.866259,100.76089 C148.866259,101.78119 148.63813,102.76032 148.223185,103.66248 C149.009963,103.25257 154.695241,100.50492 152.491185,94.68384 C152.609741,94.86284 148.420778,98.69523 148.562685,98.71313" id="path112" fill="#C7A008"></path>
                    <path d="M126.198796,101.95303 C126.198796,99.55801 130.314111,93.74767 131.596667,91.8091 C125.097667,95.9261 122.299037,101.48226 122.299037,105.85881 C122.299037,113.35712 128.911204,119.38763 136.816704,119.38763 C140.556593,119.38763 147.40587,117.41684 151.885833,110.1924 C149.538074,111.7318 143.570778,115.41562 140.439833,115.41562 C132.53613,115.41383 126.198796,109.49251 126.198796,101.95303" id="path114" fill="#C7A008"></path>
                    <path d="M181.833685,108.81589 L181.936074,139.16534 L186.769907,139.441 L185.814278,104.84388 L181.833685,108.81589 Z" id="polygon116" fill="#C7A008"></path>
                    <path d="M154.088093,51.03469 L154.186889,53.73043 L177.095056,46.9338 L178.792556,76.0034 L182.615074,70.66562 L181.799556,41.49399 L154.088093,51.03469 Z" id="polygon118" fill="#C7A008"></path>
                    <path d="M223.337111,61.44354 L201.819278,41.76428 L199.243389,47.45827 L218.181741,65.18822 L223.337111,61.44354 Z" id="polygon120" fill="#C7A008"></path>
                    <path d="M220.066056,98.11706 L194.802944,89.79356 L191.122333,93.66712 L216.290241,103.70365 C219.144556,109.06291 223.470037,113.65426 228.916407,117.01051 C234.188537,120.22356 240.213315,122.14781 246.593759,122.7582 L246.593759,135.145 L250.495315,137.08536 L251.72937,118.47652 L220.066056,98.11706 L220.066056,98.11706 Z" id="path122" fill="#C7A008"></path>
                    <path d="M260.633611,94.61582 C266.838019,93.12475 270.416241,89.89917 273.496889,86.3496 C271.185056,88.23984 259.595352,90.75658 257.648167,91.41351 L253.831037,95.46428 C255.575241,95.61822 258.492426,95.14924 260.633611,94.61582" id="path124" fill="#C7A008"></path>
                    <path d="M249.349278,51.80797 C237.908667,53.30083 231.946759,62.87196 230.960593,64.03725 C235.185481,60.48052 240.480963,57.84027 246.444667,56.43333 C260.601278,53.02159 273.083741,57.32296 280.798833,66.82786 L285.573389,62.80036 C277.931944,53.46014 263.502296,48.40697 249.349278,51.80797" id="path126" fill="#C7A008"></path>
                    <path d="M287.719963,98.44642 C289.099519,97.29008 291.551463,96.12121 292.855574,94.75902 L277.536759,81.11922 C276.363778,82.51721 275.30037,84.82094 273.868722,86.03277 L287.719963,98.44642 L287.719963,98.44642 Z" id="path128" fill="#C7A008"></path>
                    <path d="M366.333074,134.99822 C350.261611,121.83456 351.22263,93.60805 359.111963,84.65268 L352.030963,40.41283 L336.543296,42.4051 L335.853519,46.30193 L347.572556,46.30193 L353.778759,86.44089 C345.882241,95.4249 342.066907,107.46086 344.705667,118.4801 C346.748056,126.99513 351.996833,133.88663 359.552056,137.87296 C360.311889,138.28824 361.09687,138.64982 361.899815,138.99171 L362.000407,139.58062 L366.607907,140.30557 C366.607907,140.30378 367.087519,135.38128 366.333074,134.99822 L366.333074,134.99822 Z" id="path130" fill="#C7A008"></path>
                    <path d="M304.562037,46.92306 L303.895611,50.82168 L321.560389,50.82168 L326.764259,79.24867 L330.683778,75.30351 L326.563074,45.29416 L304.562037,46.92306 Z" id="polygon132" fill="#C7A008"></path>
                    <path d="M334.802685,102.10876 L329.099444,116.79034 L330.511333,120.6102 L338.668315,98.25131 L334.802685,102.10876 Z" id="polygon134" fill="#C7A008"></path>
                    <path d="M317.865407,92.86162 L313.938704,96.76919 L309.729981,123.28625 L313.76087,124.82028 L317.865407,92.86162 Z" id="polygon136" fill="#C7A008"></path>
                    <path d="M397.202426,84.39134 C399.514259,86.03635 401.486593,88.11812 402.970333,90.59369 C404.141519,92.49288 405.027093,94.6194 405.592926,96.95356 C407.516759,104.92443 405.215704,113.54507 400.130389,120.46163 C399.618444,121.16331 399.054407,121.84172 398.515519,122.5076 C400.581259,120.73729 425.671926,102.29492 401.15787,78.07264 C374.195463,69.21572 363.988907,86.74519 363.035074,87.85678 C365.884,85.44386 369.171222,83.44801 372.731481,82.09119 C381.856667,78.64723 390.834556,79.84116 397.202426,84.39134" id="path138" fill="#C7A008"></path>
                    <path d="M383.609852,86.13838 C383.685296,86.30843 387.48087,82.1968 387.558111,82.1968 C382.760204,82.3937 380.455556,84.70101 380.692667,85.76606 C380.405259,86.17955 380.171741,86.58946 379.988519,87.04233 C381.012407,86.53397 382.905704,86.14375 383.609852,86.13838" id="path140" fill="#C7A008"></path>
                    <path d="M392.630852,92.14741 C392.803296,92.78823 392.885926,93.45948 392.871556,94.18085 C392.828444,95.10449 392.587741,95.95116 392.235667,96.74055 C392.964963,96.41298 398.779574,94.61403 396.559352,88.23805 C396.616833,88.41884 392.567981,92.15099 392.630852,92.14741" id="path142" fill="#C7A008"></path>
                    <path d="M379.893315,112.39231 C385.319926,112.62322 391.321352,109.30098 395.625278,103.42978 C384.581648,105.68697 372.972185,87.36095 374.136185,85.56737 C369.963389,88.58173 366.270204,94.39565 366.101352,98.45895 C365.813944,105.99306 371.969852,112.07727 379.893315,112.39231" id="path144" fill="#C7A008"></path>
                    <path d="M440.412333,160.14056 L443.000796,161.86612 L474.594056,67.38097 L450.949407,61.93579 L450.653019,67.47047 L469.726093,71.68771 L440.412333,160.14056 Z" id="polygon146" fill="#C7A008"></path>
                    <path d="M402.893093,51.80797 L403.099667,57.08489 L428.238833,62.11658 L437.917278,107.85645 L441.835,103.92203 L432.614611,57.71139 L402.893093,51.80797 Z" id="polygon148" fill="#C7A008"></path>
                    <path d="M422.239204,103.93098 L415.318074,142.93866 L419.304056,144.22567 L426.174889,100.08964 L422.239204,103.93098 Z" id="polygon150" fill="#C7A008"></path>
                    <path d="M96.0030556,157.2515 L84.2445,114.76943 L79.9405741,117.76947 L90.8387037,158.4687 L96.0030556,157.2515 Z" id="polygon152" fill="#C7A008"></path>
                    <path d="M92.9511481,93.36998 C90.2387407,96.23756 84.226537,101.80983 80.801,104.00795 L78.7208889,97.35273 L74.1654815,82.76065 L71.2698519,72.88164 L68.4442778,76.49565 L71.3291296,86.38898 L75.884537,100.97032 L77.9556667,107.64523 C82.6457963,104.63445 89.4681296,98.98342 92.9511481,93.36998" id="path154" fill="#C7A008"></path>
                    <path d="M259.561222,68.25091 C255.850074,66.82786 250.594111,67.25567 247.755963,70.35058 C247.096722,71.06837 245.814167,72.89954 245.408204,73.71757 C248.154741,71.54093 253.046056,71.07016 256.252444,72.22292 L259.561222,68.25091 L259.561222,68.25091 Z" id="path156" fill="#7D7F68"></path>
                    <path d="M89.5579444,81.43247 C89.1412037,79.24867 86.9946296,77.51416 85.942,77.03265 C84.0594815,76.12691 80.8027963,75.9855 78.4245,76.41689 C78.8520185,77.88827 79.3424074,79.61383 79.5507778,80.32088 C80.5153889,80.45513 82.0997222,80.74153 82.9314074,81.11922 C83.9750556,81.62042 85.8000926,82.80182 86.2240185,84.99994 C86.7916481,87.93375 86.6425556,90.67603 85.4156852,92.90279 C88.7801481,89.61277 90.4129815,86.03456 89.5579444,81.43247" id="path158" fill="#7D7F68"></path>
                    <g id="g160" transform="translate(71.041722, 70.372060)" fill="#3C5AA6">
                        <g id="g162">
                            <path d="M24.4080741,10.99955 C22.7932037,2.36459 11.4621667,-2.39502 0.22812963,3.71067 L3.12375926,13.59326 L7.67916667,28.19787 L9.75748148,34.84951 C18.1857037,29.44908 26.657037,22.96033 24.4080741,10.99955 L24.4080741,10.99955 Z M13.2494815,24.27777 C12.0226111,20.28786 9.33175926,11.67259 9.33175926,11.67259 C9.34433333,11.71197 8.80185185,9.82889 8.15877778,7.67373 C10.5406667,7.2495 12.8291481,7.42134 14.7116667,8.3235 C15.7642963,8.82291 17.6144815,9.9882 18.0186481,12.19706 C18.9491296,17.16252 17.2695926,20.70672 13.2494815,24.27777 L13.2494815,24.27777 Z" id="path164"></path>
                        </g>
                    </g>
                    <g id="g166" transform="translate(238.097278, 63.212060)" fill="#3567B0">
                        <g id="g168">
                            <path d="M27.3450185,4.45889 C21.0651667,-1.28164 11.3040926,-0.83593 5.5757037,5.41654 C-0.186814815,11.65827 0.265851852,21.3905 6.55468519,27.10776 C7.06662963,27.60001 7.61988889,28.00276 8.17674074,28.39835 L28.4335741,5.53826 C28.0761111,5.16594 27.7168519,4.79541 27.3450185,4.45889 L27.3450185,4.45889 Z M8.21805556,20.53846 C6.23674074,16.91371 6.63731481,12.31162 9.59940741,9.08604 C12.4483333,5.99292 16.8133333,5.11224 20.5352593,6.54245 L8.21805556,20.53846 L8.21805556,20.53846 Z" id="path170"></path>
                        </g>
                    </g>
                    <path d="M292.508889,65.16137 L281.291019,75.9318 L291.948444,85.46892 L292.508889,65.16137 Z" id="polygon172" fill="#1E2D5F"></path>
                    <path d="M396.528815,88.23805 C396.699463,88.91646 396.787481,89.58771 396.765926,90.30192 C396.579111,94.57286 392.550019,97.87004 387.746722,97.64629 C382.947019,97.48161 379.176593,93.85149 379.365204,89.59129 C379.52687,85.5978 383.097907,82.43666 387.507815,82.23439 C386.670741,82.04644 385.795944,81.94799 384.883426,81.91577 C376.848593,81.5703 370.281333,87.24102 370.004704,94.30078 C369.695741,101.851 375.769019,108.00681 383.676315,108.3487 C391.721926,108.66911 398.285593,102.9787 398.605333,95.46428 C398.698741,92.85983 397.926333,90.36278 396.528815,88.23805" id="path174" fill="#3466AF"></path>
                    <path d="M152.780389,96.86048 C152.780389,101.14932 148.866259,104.58612 144.071944,104.58612 C139.265056,104.58612 135.365296,101.14753 135.365296,96.86048 C135.365296,92.86341 138.796222,89.56802 143.193556,89.18496 C142.351093,89.03281 141.4745,88.9451 140.569167,88.9451 C132.53613,88.9451 126.198796,94.88253 126.198796,101.95303 C126.198796,109.49788 132.537926,115.41562 140.439833,115.41562 C148.480056,115.41562 154.812,109.4943 154.812,101.95303 C154.812,99.34142 153.946185,96.88017 152.457056,94.85389 C152.658241,95.46428 152.780389,96.1409 152.780389,96.86048" id="path183" fill="url(#linearGradient-8)"></path>
                    <g id="g185" transform="translate(6.375056, 0.562060)" fill="url(#linearGradient-9)">
                        <g id="g187">
                            <path d="M440.128519,52.98042 L436.561074,67.63157 L433.266667,51.4088 L389.151426,41.73206 L389.460389,66.1763 L396.108481,67.662 L395.62887,72.07077 C395.542648,72.03676 395.488759,71.98485 395.442056,71.94726 C387.200648,67.61367 376.983315,67.16975 367.367741,70.78913 C364.141593,72.01886 361.147167,73.63523 358.431167,75.60065 L351.775889,33.73613 L322.436981,33.73613 L321.628648,38.54944 L290.748519,38.54944 L287.222389,60.07061 L284.66087,56.91842 C277.1775,47.7572 266.329667,42.71119 254.312444,42.46059 L280.531185,28.41804 L262.248481,1.22973 L229.216389,39.15804 L234.917833,46.08534 C229.753481,48.18859 225.241185,51.08839 221.503093,54.59142 L193.180889,29.55111 L183.277907,48.46425 L183.658722,30.28859 L139.378222,44.38484 L140.513481,68.0916 L148.047148,66.14408 L149.160852,78.15856 C140.553,74.30648 130.206333,74.40135 120.610519,78.44138 C117.766981,79.67648 115.115648,81.1944 112.672685,82.95934 C114.332463,75.64003 113.939074,68.42454 111.140444,61.98949 C107.835259,54.38557 102.018852,48.10088 94.8875556,44.13603 C89.888463,40.81737 83.9301481,38.74992 77.6952037,38.04645 C62.3727963,35.37756 43.9733333,38.11805 25.8648704,45.8061 C19.2077963,48.63609 12.998,51.84735 7.39714815,55.40229 L0.317944444,59.8755 L4.59312963,67.06951 L17.8605741,89.41408 C17.8605741,89.41408 21.9202037,96.26083 21.9471481,96.25725 L29.1215556,92.74348 L30.1220926,92.28524 L63.0895185,165.60543 L66.268963,172.65266 L73.6301852,170.28986 L91.4674074,164.59587 L99.2848889,162.1203 L97.2227407,154.1906 L87.7490741,117.95205 C90.4740556,115.94188 93.0176111,113.80999 95.3653704,111.57786 C94.835463,115.90787 95.1138889,120.29158 96.3102222,124.48734 C98.7873148,133.27266 104.560611,140.21249 112.572093,144.05741 C121.224852,148.20126 131.781685,148.212 141.548148,144.08426 C146.446648,142.01323 150.802667,138.99171 154.494056,135.3956 L155.839481,149.82837 L187.077074,145.24418 L187.028574,117.33271 L252.300593,149.47932 L252.300593,118.35301 C254.919593,118.13463 257.592481,117.72293 260.279741,117.066 C267.468519,115.33507 273.620833,112.96153 279.086963,109.69836 L276.345815,126.41517 L311.538852,131.93374 L313.46987,119.31424 L322.661519,136.23511 L328.280333,125.44678 L330.3335,143.16062 L370.23463,150.17026 L368.118593,136.79359 C373.58113,137.40935 379.338259,136.67903 384.899593,134.58831 C386.216278,134.10322 387.516796,133.51252 388.76163,132.87886 L387.171907,147.11115 L413.728352,150.84509 L413.925944,161.69786 L441.617648,170.35967 L477.671111,62.07362 L440.128519,52.98042 L440.128519,52.98042 Z M284.222574,69.07252 L286.053,67.13395 L283.841759,80.78628 L278.073852,75.6096 L284.222574,69.07252 L284.222574,69.07252 Z M260.838389,13.30328 L270.506056,26.38997 L242.866444,40.04409 L240.956981,37.15324 L260.838389,13.30328 L260.838389,13.30328 Z M77.8155556,114.21811 L88.8430185,156.38156 L70.9950185,162.06302 L34.3703333,80.55716 C32.3782407,81.60073 28.6994259,83.35135 25.3205926,85.00173 L12.058537,62.67685 C17.332463,59.3206 23.116537,56.34562 29.2688519,53.75549 C46.5348519,46.43797 63.0086852,44.25417 76.1845185,46.57401 C80.8459074,47.09669 85.7803333,48.46604 90.1022222,51.32467 C96.0317963,54.65228 100.567444,59.38862 103.182852,65.42092 C109.5615,80.10966 98.9058704,101.24777 77.8155556,114.21811 L77.8155556,114.21811 Z M159.872167,106.71443 C159.667389,112.99196 157.353759,119.28202 153.480944,124.60369 C149.796741,129.74994 144.650352,133.99761 138.595037,136.5949 C123.110963,143.13198 107.626889,136.5949 103.490019,121.94554 C99.4824815,107.78127 108.807056,90.91947 123.809722,84.47905 C133.391167,80.44797 143.004944,81.40383 149.891944,86.06678 C154.145574,88.94152 157.389685,93.26437 158.903963,98.68091 C159.09437,99.2555 159.220111,99.85873 159.347648,100.44943 C159.780556,102.5133 159.954796,104.62908 159.872167,106.71443 L159.872167,106.71443 Z M244.120259,136.5233 L179.354796,104.24423 L179.469759,138.06449 L162.715704,140.34137 L161.548111,126.40085 C166.721444,117.56183 168.612944,107.14582 165.913111,97.59438 C164.431167,92.34431 161.693611,87.78697 157.973481,84.13537 L155.570037,55.71196 L148.047148,57.6559 L147.714833,50.46905 L174.619759,42.48565 L176.268759,70.13757 L196.089093,42.3872 L215.465741,60.77587 L188.368611,89.22255 L213.825722,99.25729 C216.669259,104.62729 221.007315,109.19 226.450093,112.55162 C231.711444,115.78794 237.739815,117.70145 244.116667,118.32974 L244.120259,136.5233 L244.120259,136.5233 L244.120259,136.5233 Z M210.491796,89.75776 L201.48337,86.29411 L209.881056,78.16035 C209.521796,81.89429 209.706815,85.79828 210.491796,89.75776 L210.491796,89.75776 Z M280.973074,98.21372 C274.757889,103.3367 267.673296,106.67684 258.312796,108.93045 C256.266815,109.39764 254.262148,109.73774 252.300593,109.90958 C237.443426,111.36485 224.978926,104.56643 220.249278,93.54003 C219.660093,92.20469 219.20563,90.85324 218.862537,89.4105 C216.674648,80.12398 218.542796,71.82375 223.146704,65.32068 C224.47237,63.42328 226.045926,61.69414 227.813481,60.13684 C232.149741,56.28118 237.685926,53.47804 243.980148,51.97086 C258.133167,48.56986 270.597667,52.87481 278.239111,62.21861 L251.269519,90.8246 C253.098148,91.16828 256.006352,90.69035 258.152926,90.17841 C264.576481,88.61753 268.17087,85.22011 271.337741,81.51839 L282.115519,91.18081 L285.381185,94.11999 C283.965704,95.57884 282.47837,96.95535 280.973074,98.21372 L280.973074,98.21372 Z M338.1905,136.38905 L332.323796,97.6624 L324.026704,119.02605 L311.603519,92.32462 L311.463407,92.32462 L306.55413,123.24687 L285.848222,119.65613 L288.760019,102.40053 C289.541407,101.66842 290.310222,100.93452 291.066463,100.15945 L297.777426,93.27332 L291.255074,87.45224 L298.185185,46.35921 L319.076111,46.35921 L324.30513,74.80589 L330.164648,41.83946 L345.108037,41.83946 L351.308852,82.00348 C343.417722,90.96064 339.584426,103.00197 342.221389,114.01763 C344.260185,122.55772 349.526926,129.4349 357.076759,133.45166 C357.836593,133.83293 358.62337,134.21062 359.435296,134.5364 L360.225667,139.74351 L338.1905,136.38905 L338.1905,136.38905 Z M389.789111,123.77134 C387.506019,125.39129 384.993,126.7678 382.29137,127.76125 C376.958167,129.78574 371.653704,130.20639 366.927648,129.27022 C363.633241,128.62224 360.629833,127.34239 358.016222,125.48974 C353.859593,122.49328 350.798704,118.0684 349.449685,112.51224 C347.87613,105.83733 349.325741,98.70955 352.929111,92.46603 C354.725407,89.41408 357.030056,86.5465 359.756833,84.07451 C362.797963,81.35729 366.324093,79.13232 370.247204,77.62872 C379.377778,74.23488 388.382611,75.40554 394.721741,79.94677 C397.053333,81.59357 398.987944,83.68966 400.513,86.12585 C401.669815,88.0501 402.567963,90.17125 403.112241,92.48751 C405.054037,100.50313 402.742204,109.08797 397.667667,116.00453 C395.494148,118.95266 392.844611,121.60186 389.789111,123.77134 L389.789111,123.77134 Z M436.411981,160.27302 L421.100352,155.72821 L419.765704,99.47567 L412.064981,142.87064 L395.361222,140.21428 L396.557556,127.72008 C407.464667,118.53559 413.246944,104.04733 410.078278,90.91768 C408.686148,85.10376 405.686333,80.04164 401.457852,76.19314 L402.867944,61.45786 L396.552167,59.78242 L396.974296,51.91537 L425.752759,57.67917 L435.429407,103.40651 L445.353944,62.41014 L467.247204,67.23061 L436.411981,160.27302 L436.411981,160.27302 Z" id="path196"></path>
                        </g>
                    </g>
                    <g id="flowRoot3115" transform="translate(453.513799, 161.281645)" fill="#000000">
                        <path d="M1.85560491,4.88469249 L1.85560491,0.638002896 L0.263673728,0.638002896 L0.263673728,0.0698081307 L4.09353251,0.0698081307 L4.09353251,0.638002896 L2.49502003,0.638002896 L2.49502003,4.88469249 L1.85560491,4.88469249 Z" id="path3084"></path>
                        <path d="M4.73294763,4.88469249 L4.73294763,0.0698081307 L5.69535251,0.0698081307 L6.83902992,3.47898177 C6.94449942,3.7964723 7.02141621,4.03404158 7.06974655,4.19169128 C7.12459068,4.01652438 7.21031628,3.75925015 7.32683898,3.41986355 L8.48369585,0.0698081307 L9.34393877,0.0698081307 L9.34393877,4.88469249 L8.72759194,4.88469249 L8.72759194,0.854772503 L7.32353145,4.88469249 L6.74675678,4.88469249 L5.34927758,0.785800126 L5.34927758,4.88469249 L4.73294763,4.88469249 Z" id="path3086"></path>
                    </g>
                </g>
            </g>
            <rect id="Rectangle-1-Copy" fill="#F0F0F0" sketch:type="MSShapeGroup" x="-1" y="211" width="1440" height="75"></rect>
            <text id="ABcdefghijklmnopqrst-Copy" sketch:type="MSTextLayer" font-family="annone" font-size="56.0747664" font-weight="normal" sketch:alignment="middle" letter-spacing="20.1000004" fill="#000000">
                <tspan x="41.8037335" y="270">ABcdefghijklmnopqrstuvwxy</tspan>
                <tspan x="1368.33996" y="270">z</tspan>
            </text>
            <g id="Oval-1-Copy-+-Oval-1-Copy-2-+-Oval-1-Copy-3" sketch:type="MSLayerGroup" transform="translate(263.000000, 370.000000)">
                <circle id="Oval-1-Copy" fill="#FFCB05" sketch:type="MSShapeGroup" cx="783.5" cy="131.5" r="131.5"></circle>
                <circle id="Oval-1-Copy-2" fill="#FFCB05" sketch:type="MSShapeGroup" cx="457.5" cy="131.5" r="131.5"></circle>
                <circle id="Oval-1-Copy-3" fill="#FFCB05" sketch:type="MSShapeGroup" cx="131.5" cy="134.5" r="131.5"></circle>
                <g id="H-Copy" transform="translate(691.000000, 39.000000)" sketch:type="MSShapeGroup">
                    <path d="M92.417423,88.6067056 C90.1891836,88.6067056 88.382572,90.4254303 88.382572,92.6686098 C88.382572,94.9117893 90.1891836,96.730514 92.417423,96.730514 C94.6456624,96.730514 96.452274,94.9117893 96.452274,92.6686098 C96.452274,90.4254303 94.6456624,88.6067056 92.417423,88.6067056" id="Fill-1" fill="#3367B0"></path>
                    <path d="M92.417423,115.730485 C79.6544491,115.730485 69.3071048,105.31462 69.3071048,92.4652145 C69.3071048,79.6166664 79.6544491,69.1999444 92.417423,69.1999444 C105.180397,69.1999444 115.527741,79.6166664 115.527741,92.4652145 C115.527741,105.31462 105.180397,115.730485 92.417423,115.730485 M100.083384,0.179300014 L100.083384,7.89065834 C141.973604,11.6901723 175.030081,46.3111099 176.707223,89.057571 L122.891323,89.057571 C121.205663,73.6134172 108.208452,61.5957716 92.417423,61.5957716 C76.6263944,61.5957716 63.6291828,73.6134172 61.9435231,89.057571 L8.12762258,89.057571 C9.80476457,46.3111099 42.8612417,11.6901723 84.7514616,7.89065834 L84.7514616,0.179300014 C37.5333986,4.10229171 0.425886742,43.9187281 0.425886742,92.4652145 C0.425886742,141.012558 37.5333986,180.828995 84.7514616,184.751129 L84.7514616,177.039771 C42.9941184,173.252261 10.0117455,138.838835 8.14295451,96.2793056 L61.9946295,96.2793056 C63.8625687,111.527095 76.7660852,123.334657 92.417423,123.334657 C108.068761,123.334657 120.972277,111.527095 122.840217,96.2793056 L176.691891,96.2793056 C174.8231,138.838835 141.840728,173.252261 100.083384,177.039771 L100.083384,184.751129 C147.301447,180.828995 184.408959,141.012558 184.408959,92.4652145 C184.408959,43.9187281 147.301447,4.10229171 100.083384,0.179300014" id="Fill-5" fill="#3A5DA8"></path>
                </g>
                <g id="D" transform="translate(94.000000, 42.000000)">
                    <path d="M31.1175115,0.426267281 L31.1175115,8.08032258 C77.7460369,8.08032258 115.545714,45.88 115.545714,92.5085253 C115.545714,139.137051 77.7460369,176.936728 31.1175115,176.936728 L31.1175115,184.573733 C81.9686406,184.573733 123.191244,143.351129 123.191244,92.5 C123.191244,41.648871 81.9686406,0.426267281 31.1175115,0.426267281" id="Fill-1" fill="#385EA9" sketch:type="MSShapeGroup"></path>
                    <path d="M31.1175115,0.426267281 L31.1175115,8.08032258 C77.7460369,8.08032258 115.545714,45.88 115.545714,92.5085253 C115.545714,139.137051 77.7460369,176.936728 31.1175115,176.936728 L31.1175115,184.573733 C81.9686406,184.573733 123.191244,143.351129 123.191244,92.5 C123.191244,41.648871 81.9686406,0.426267281 31.1175115,0.426267281 L31.1175115,0.426267281 Z" id="Stroke-3" stroke="#385FAA" sketch:type="MSShapeGroup"></path>
                    <path d="M31.1175115,115.630797 C18.3431336,115.630797 7.98654378,105.27506 7.98654378,92.4998295 C7.98654378,79.7254516 18.3431336,69.3688618 31.1175115,69.3688618 C43.8918894,69.3688618 54.2484793,79.7254516 54.2484793,92.4998295 C54.2484793,105.27506 43.8918894,115.630797 31.1175115,115.630797 M31.1175115,61.8085853 C14.1674194,61.8085853 0.426267281,75.5497373 0.426267281,92.4998295 C0.426267281,109.449922 14.1674194,123.191074 31.1175115,123.191074 C48.0676037,123.191074 61.8087558,109.449922 61.8087558,92.4998295 C61.8087558,75.5497373 48.0676037,61.8085853 31.1175115,61.8085853" id="Fill-5" fill="#385EA9" sketch:type="MSShapeGroup"></path>
                    <path d="M31.1175115,115.630797 C18.3431336,115.630797 7.98654378,105.27506 7.98654378,92.4998295 C7.98654378,79.7254516 18.3431336,69.3688618 31.1175115,69.3688618 C43.8918894,69.3688618 54.2484793,79.7254516 54.2484793,92.4998295 C54.2484793,105.27506 43.8918894,115.630797 31.1175115,115.630797 L31.1175115,115.630797 Z M31.1175115,61.8085853 C14.1674194,61.8085853 0.426267281,75.5497373 0.426267281,92.4998295 C0.426267281,109.449922 14.1674194,123.191074 31.1175115,123.191074 C48.0676037,123.191074 61.8087558,109.449922 61.8087558,92.4998295 C61.8087558,75.5497373 48.0676037,61.8085853 31.1175115,61.8085853 L31.1175115,61.8085853 Z" id="Stroke-7" stroke="#385FAA" sketch:type="MSShapeGroup"></path>
                    <path d="M34.9539171,92.4547304 C34.9539171,94.5732788 33.2360599,96.2911359 31.1175115,96.2911359 C28.9989631,96.2911359 27.281106,94.5732788 27.281106,92.4547304 C27.281106,90.336182 28.9989631,88.6183249 31.1175115,88.6183249 C33.2360599,88.6183249 34.9539171,90.336182 34.9539171,92.4547304" id="Fill-9" fill="#385EA9" sketch:type="MSShapeGroup"></path>
                    <path d="M34.9539171,92.4547304 C34.9539171,94.5732788 33.2360599,96.2911359 31.1175115,96.2911359 C28.9989631,96.2911359 27.281106,94.5732788 27.281106,92.4547304 C27.281106,90.336182 28.9989631,88.6183249 31.1175115,88.6183249 C33.2360599,88.6183249 34.9539171,90.336182 34.9539171,92.4547304 L34.9539171,92.4547304 Z" id="Stroke-11" stroke="#385FAA" sketch:type="MSShapeGroup"></path>
                    <mask id="mask-11" sketch:name="Clip 14" fill="white">
                        <use xlink:href="#path-10"></use>
                    </mask>
                    <g id="Clip-14"></g>
                    <path d="M34.9539171,0.426267281 L27.281106,0.426267281 L27.281106,61.8087558 L34.9539171,61.8087558 L34.9539171,0.426267281 Z" id="Fill-13" fill="#385EA9" sketch:type="MSShapeGroup" mask="url(#mask-11)"></path>
                    <path d="M34.9539171,0.426267281 L27.281106,0.426267281 L27.281106,61.8087558 L34.9539171,61.8087558 L34.9539171,0.426267281 Z" id="Stroke-15" stroke="#385FAA" sketch:type="MSShapeGroup" mask="url(#mask-11)"></path>
                </g>
                <g id="O" transform="translate(365.000000, 39.000000)" sketch:type="MSShapeGroup">
                    <path d="M92.5,88.4617143 C90.2697696,88.4617143 88.4615438,90.2699401 88.4615438,92.5001705 C88.4615438,94.7304009 90.2697696,96.5386267 92.5,96.5386267 C94.7302304,96.5386267 96.5384562,94.7304009 96.5384562,92.5001705 C96.5384562,90.2699401 94.7302304,88.4617143 92.5,88.4617143" id="Fill-1" fill="#385FAA"></path>
                    <path d="M92.5,88.4617143 C90.2697696,88.4617143 88.4615438,90.2699401 88.4615438,92.5001705 C88.4615438,94.7304009 90.2697696,96.5386267 92.5,96.5386267 C94.7302304,96.5386267 96.5384562,94.7304009 96.5384562,92.5001705 C96.5384562,90.2699401 94.7302304,88.4617143 92.5,88.4617143 L92.5,88.4617143 Z" id="Stroke-3" stroke="#385FAA"></path>
                    <path d="M96.3364055,176.84653 L96.3364055,122.94418 C111.474862,121.054963 123.191244,108.150147 123.191244,92.5001705 C123.191244,75.5500783 109.450092,61.8089263 92.5,61.8089263 C75.5499078,61.8089263 61.8087558,75.5500783 61.8087558,92.5001705 C61.8087558,108.150147 73.5251382,121.054963 88.6635945,122.94418 L88.6635945,176.84653 C43.8117512,174.840516 8.06327189,137.847336 8.06327189,92.5001705 C8.06327189,45.86653 45.8663594,8.06258986 92.5,8.06258986 C139.133641,8.06258986 176.936728,45.86653 176.936728,92.5001705 C176.936728,137.847336 141.188249,174.840516 96.3364055,176.84653 M69.3690323,92.5001705 C69.3690323,79.7249401 79.7256221,69.3692028 92.5,69.3692028 C105.274378,69.3692028 115.630968,79.7249401 115.630968,92.5001705 C115.630968,105.274548 105.274378,115.631138 92.5,115.631138 C79.7256221,115.631138 69.3690323,105.274548 69.3690323,92.5001705 M92.5,0.426437788 C41.648871,0.426437788 0.426267281,41.6490415 0.426267281,92.5001705 C0.426267281,143.3513 41.648871,184.573903 92.5,184.573903 C143.351129,184.573903 184.573733,143.3513 184.573733,92.5001705 C184.573733,41.6490415 143.351129,0.426437788 92.5,0.426437788" id="Fill-5" fill="#395DA8"></path>
                    <path d="M96.3364055,176.84653 L96.3364055,122.94418 C111.474862,121.054963 123.191244,108.150147 123.191244,92.5001705 C123.191244,75.5500783 109.450092,61.8089263 92.5,61.8089263 C75.5499078,61.8089263 61.8087558,75.5500783 61.8087558,92.5001705 C61.8087558,108.150147 73.5251382,121.054963 88.6635945,122.94418 L88.6635945,176.84653 C43.8117512,174.840516 8.06327189,137.847336 8.06327189,92.5001705 C8.06327189,45.86653 45.8663594,8.06258986 92.5,8.06258986 C139.133641,8.06258986 176.936728,45.86653 176.936728,92.5001705 C176.936728,137.847336 141.188249,174.840516 96.3364055,176.84653 L96.3364055,176.84653 Z M69.3690323,92.5001705 C69.3690323,79.7249401 79.7256221,69.3692028 92.5,69.3692028 C105.274378,69.3692028 115.630968,79.7249401 115.630968,92.5001705 C115.630968,105.274548 105.274378,115.631138 92.5,115.631138 C79.7256221,115.631138 69.3690323,105.274548 69.3690323,92.5001705 L69.3690323,92.5001705 Z M92.5,0.426437788 C41.648871,0.426437788 0.426267281,41.6490415 0.426267281,92.5001705 C0.426267281,143.3513 41.648871,184.573903 92.5,184.573903 C143.351129,184.573903 184.573733,143.3513 184.573733,92.5001705 C184.573733,41.6490415 143.351129,0.426437788 92.5,0.426437788 L92.5,0.426437788 Z" id="Stroke-7" stroke="#385EA9"></path>
                </g>
            </g>
            <g id="Oval-1-Copy-+-Oval-1-Copy-2-+-Oval-1-Copy-3-Copy" sketch:type="MSLayerGroup" transform="translate(263.000000, 679.000000)">
                <circle id="Oval-1-Copy" fill="#FFCB05" sketch:type="MSShapeGroup" cx="783.5" cy="131.5" r="131.5"></circle>
                <circle id="Oval-1-Copy-2" fill="#FFCB05" sketch:type="MSShapeGroup" cx="457.5" cy="131.5" r="131.5"></circle>
                <circle id="Oval-1-Copy-3" fill="#FFCB05" sketch:type="MSShapeGroup" cx="131.5" cy="134.5" r="131.5"></circle>
                <g id="H-Copy" transform="translate(365.000000, 39.000000)" sketch:type="MSShapeGroup">
                    <path d="M92.417423,88.6067056 C90.1891836,88.6067056 88.382572,90.4254303 88.382572,92.6686098 C88.382572,94.9117893 90.1891836,96.730514 92.417423,96.730514 C94.6456624,96.730514 96.452274,94.9117893 96.452274,92.6686098 C96.452274,90.4254303 94.6456624,88.6067056 92.417423,88.6067056" id="Fill-1" fill="#3367B0"></path>
                    <path d="M92.417423,88.6067056 C90.1891836,88.6067056 88.382572,90.4254303 88.382572,92.6686098 C88.382572,94.9117893 90.1891836,96.730514 92.417423,96.730514 C94.6456624,96.730514 96.452274,94.9117893 96.452274,92.6686098 C96.452274,90.4254303 94.6456624,88.6067056 92.417423,88.6067056 L92.417423,88.6067056 Z" id="Stroke-3" stroke="#3169B1" stroke-width="5.4182673"></path>
                    <path d="M92.417423,115.730485 C79.6544491,115.730485 69.3071048,105.31462 69.3071048,92.4652145 C69.3071048,79.6166664 79.6544491,69.1999444 92.417423,69.1999444 C105.180397,69.1999444 115.527741,79.6166664 115.527741,92.4652145 C115.527741,105.31462 105.180397,115.730485 92.417423,115.730485 M100.083384,0.179300014 L100.083384,7.89065834 C141.973604,11.6901723 175.030081,46.3111099 176.707223,89.057571 L122.891323,89.057571 C121.205663,73.6134172 108.208452,61.5957716 92.417423,61.5957716 C76.6263944,61.5957716 63.6291828,73.6134172 61.9435231,89.057571 L8.12762258,89.057571 C9.80476457,46.3111099 42.8612417,11.6901723 84.7514616,7.89065834 L84.7514616,0.179300014 C37.5333986,4.10229171 0.425886742,43.9187281 0.425886742,92.4652145 C0.425886742,141.012558 37.5333986,180.828995 84.7514616,184.751129 L84.7514616,177.039771 C42.9941184,173.252261 10.0117455,138.838835 8.14295451,96.2793056 L61.9946295,96.2793056 C63.8625687,111.527095 76.7660852,123.334657 92.417423,123.334657 C108.068761,123.334657 120.972277,111.527095 122.840217,96.2793056 L176.691891,96.2793056 C174.8231,138.838835 141.840728,173.252261 100.083384,177.039771 L100.083384,184.751129 C147.301447,180.828995 184.408959,141.012558 184.408959,92.4652145 C184.408959,43.9187281 147.301447,4.10229171 100.083384,0.179300014" id="Fill-5" fill="#3A5DA8"></path>
                    <path d="M92.417423,115.730485 C79.6544491,115.730485 69.3071048,105.31462 69.3071048,92.4652145 C69.3071048,79.6166664 79.6544491,69.1999444 92.417423,69.1999444 C105.180397,69.1999444 115.527741,79.6166664 115.527741,92.4652145 C115.527741,105.31462 105.180397,115.730485 92.417423,115.730485 L92.417423,115.730485 Z M100.083384,0.179300014 L100.083384,7.89065834 C141.973604,11.6901723 175.030081,46.3111099 176.707223,89.057571 L122.891323,89.057571 C121.205663,73.6134172 108.208452,61.5957716 92.417423,61.5957716 C76.6263944,61.5957716 63.6291828,73.6134172 61.9435231,89.057571 L8.12762258,89.057571 C9.80476457,46.3111099 42.8612417,11.6901723 84.7514616,7.89065834 L84.7514616,0.179300014 C37.5333986,4.10229171 0.425886742,43.9187281 0.425886742,92.4652145 C0.425886742,141.012558 37.5333986,180.828995 84.7514616,184.751129 L84.7514616,177.039771 C42.9941184,173.252261 10.0117455,138.838835 8.14295451,96.2793056 L61.9946295,96.2793056 C63.8625687,111.527095 76.7660852,123.334657 92.417423,123.334657 C108.068761,123.334657 120.972277,111.527095 122.840217,96.2793056 L176.691891,96.2793056 C174.8231,138.838835 141.840728,173.252261 100.083384,177.039771 L100.083384,184.751129 C147.301447,180.828995 184.408959,141.012558 184.408959,92.4652145 C184.408959,43.9187281 147.301447,4.10229171 100.083384,0.179300014 L100.083384,0.179300014 Z" id="Stroke-7" stroke="#385FAA" stroke-width="5.4182673"></path>
                </g>
                <g id="N" transform="translate(39.000000, 42.000000)" sketch:type="MSShapeGroup">
                    <path d="M107.50188,119.776076 C105.390152,120.86732 103.137756,121.72156 100.776235,122.301283 L124.128009,184.573818 L131.80082,184.573818 L107.50188,119.776076 Z" id="Fill-1" fill="#3A5DA8"></path>
                    <path d="M107.50188,119.776076 C105.390152,120.86732 103.137756,121.72156 100.776235,122.301283 L124.128009,184.573818 L131.80082,184.573818 L107.50188,119.776076 L107.50188,119.776076 Z" id="Stroke-3" stroke="#395DA8"></path>
                    <path d="M86.0978917,62.6985461 L62.7461175,0.426011521 L55.0733065,0.426011521 L79.3722465,65.2237535 C81.4839747,64.1325092 83.736371,63.2782696 86.0978917,62.6985461" id="Fill-5" fill="#3A5DA8"></path>
                    <path d="M86.0978917,62.6985461 L62.7461175,0.426011521 L55.0733065,0.426011521 L79.3722465,65.2237535 C81.4839747,64.1325092 83.736371,63.2782696 86.0978917,62.6985461 L86.0978917,62.6985461 Z" id="Stroke-7" stroke="#395DA8"></path>
                    <path d="M93.4370207,115.630797 C80.6626429,115.630797 70.306053,105.27506 70.306053,92.4998295 C70.306053,79.7254516 80.6626429,69.3688618 93.4370207,69.3688618 C106.211399,69.3688618 116.567988,79.7254516 116.567988,92.4998295 C116.567988,105.27506 106.211399,115.630797 93.4370207,115.630797 M93.4370207,61.8085853 C76.4869286,61.8085853 62.7457765,75.5497373 62.7457765,92.4998295 C62.7457765,109.449922 76.4869286,123.191074 93.4370207,123.191074 C110.387113,123.191074 124.128265,109.449922 124.128265,92.4998295 C124.128265,75.5497373 110.387113,61.8085853 93.4370207,61.8085853" id="Fill-9" fill="#3A5DA8"></path>
                    <path d="M93.4370207,115.630797 C80.6626429,115.630797 70.306053,105.27506 70.306053,92.4998295 C70.306053,79.7254516 80.6626429,69.3688618 93.4370207,69.3688618 C106.211399,69.3688618 116.567988,79.7254516 116.567988,92.4998295 C116.567988,105.27506 106.211399,115.630797 93.4370207,115.630797 L93.4370207,115.630797 Z M93.4370207,61.8085853 C76.4869286,61.8085853 62.7457765,75.5497373 62.7457765,92.4998295 C62.7457765,109.449922 76.4869286,123.191074 93.4370207,123.191074 C110.387113,123.191074 124.128265,109.449922 124.128265,92.4998295 C124.128265,75.5497373 110.387113,61.8085853 93.4370207,61.8085853 L93.4370207,61.8085853 Z" id="Stroke-11" stroke="#395DA8"></path>
                    <path d="M93.4370207,88.6184101 C91.3184724,88.6184101 89.6006152,90.3362673 89.6006152,92.4548157 C89.6006152,94.5733641 91.3184724,96.2912212 93.4370207,96.2912212 C95.5555691,96.2912212 97.2734263,94.5733641 97.2734263,92.4548157 C97.2734263,90.3362673 95.5555691,88.6184101 93.4370207,88.6184101" id="Fill-13" fill="#3A5DA8"></path>
                    <path d="M93.4370207,88.6184101 C91.3184724,88.6184101 89.6006152,90.3362673 89.6006152,92.4548157 C89.6006152,94.5733641 91.3184724,96.2912212 93.4370207,96.2912212 C95.5555691,96.2912212 97.2734263,94.5733641 97.2734263,92.4548157 C97.2734263,90.3362673 95.5555691,88.6184101 93.4370207,88.6184101 L93.4370207,88.6184101 Z" id="Stroke-15" stroke="#395DA8"></path>
                    <path d="M8.2434977,184.573733 L0.570686636,184.573733 L55.0732212,0.426267281 L62.7460323,0.426267281 L8.2434977,184.573733 Z" id="Fill-17" fill="#3A5DA8"></path>
                    <path d="M8.2434977,184.573733 L0.570686636,184.573733 L55.0732212,0.426267281 L62.7460323,0.426267281 L8.2434977,184.573733 L8.2434977,184.573733 Z" id="Stroke-19" stroke="#395DA8"></path>
                    <path d="M131.800991,184.573733 L124.12818,184.573733 L177.045,0.426267281 L184.717811,0.426267281 L131.800991,184.573733 Z" id="Fill-21" fill="#3A5DA8"></path>
                    <path d="M131.800991,184.573733 L124.12818,184.573733 L177.045,0.426267281 L184.717811,0.426267281 L131.800991,184.573733 L131.800991,184.573733 Z" id="Stroke-23" stroke="#395DA8"></path>
                </g>
                <g id="P" transform="translate(721.000000, 39.000000)" sketch:type="MSShapeGroup">
                    <path d="M66.6857876,118.21942 C38.2318053,118.21942 15.1649248,95.1533584 15.1649248,66.6985575 C15.1649248,38.2445752 38.2318053,15.1768761 66.6857876,15.1768761 C95.1397699,15.1768761 118.20665,38.2445752 118.20665,66.6985575 C118.20665,95.1533584 95.1397699,118.21942 66.6857876,118.21942 M66.6857876,8.53734071 C34.3451681,8.53734071 8.12837611,34.7541327 8.12837611,67.0947522 C8.12837611,99.4353717 34.3451681,125.652982 66.6857876,125.652982 C99.0264071,125.652982 125.243199,99.4353717 125.243199,67.0947522 C125.243199,34.7541327 99.0264071,8.53734071 66.6857876,8.53734071" id="Fill-1" fill="#385FAA"></path>
                    <path d="M66.6857876,118.21942 C38.2318053,118.21942 15.1649248,95.1533584 15.1649248,66.6985575 C15.1649248,38.2445752 38.2318053,15.1768761 66.6857876,15.1768761 C95.1397699,15.1768761 118.20665,38.2445752 118.20665,66.6985575 C118.20665,95.1533584 95.1397699,118.21942 66.6857876,118.21942 L66.6857876,118.21942 Z M66.6857876,8.53734071 C34.3451681,8.53734071 8.12837611,34.7541327 8.12837611,67.0947522 C8.12837611,99.4353717 34.3451681,125.652982 66.6857876,125.652982 C99.0264071,125.652982 125.243199,99.4353717 125.243199,67.0947522 C125.243199,34.7541327 99.0264071,8.53734071 66.6857876,8.53734071 L66.6857876,8.53734071 Z" id="Stroke-3" stroke="#385FAA"></path>
                    <path d="M66.6857876,63.2640243 C64.5697478,63.2640243 62.8548142,64.978958 62.8548142,67.0949978 C62.8548142,69.2110376 64.5697478,70.9259712 66.6857876,70.9259712 C68.8018274,70.9259712 70.5167611,69.2110376 70.5167611,67.0949978 C70.5167611,64.978958 68.8018274,63.2640243 66.6857876,63.2640243" id="Fill-5" fill="#385FAA"></path>
                    <path d="M66.6857876,63.2640243 C64.5697478,63.2640243 62.8548142,64.978958 62.8548142,67.0949978 C62.8548142,69.2110376 64.5697478,70.9259712 66.6857876,70.9259712 C68.8018274,70.9259712 70.5167611,69.2110376 70.5167611,67.0949978 C70.5167611,64.978958 68.8018274,63.2640243 66.6857876,63.2640243 L66.6857876,63.2640243 Z" id="Stroke-7" stroke="#385FAA"></path>
                    <path d="M15.1646792,66.6983938 L8.12813053,67.0954071 L8.12813053,184.590872 L15.4953872,184.590872 L15.1646792,66.6983938 Z" id="Fill-9" fill="#385FAA"></path>
                    <path d="M15.1646792,66.6983938 L8.12813053,67.0954071 L8.12813053,184.590872 L15.4953872,184.590872 L15.1646792,66.6983938 L15.1646792,66.6983938 Z" id="Stroke-11" stroke="#385FAA"></path>
                    <path d="M7.36725664,0.409292035 L0,0.409292035 L22.1017699,29.8783186 L29.4690265,29.8783186 L7.36725664,0.409292035 Z" id="Fill-13" fill="#385FAA"></path>
                    <path d="M7.36725664,0.409292035 L0,0.409292035 L22.1017699,29.8783186 L29.4690265,29.8783186 L7.36725664,0.409292035 L7.36725664,0.409292035 Z" id="Stroke-15" stroke="#385FAA"></path>
                </g>
            </g>
            <text id=".H-{-Copy" sketch:type="MSTextLayer" font-family="Monaco" font-size="28.0373832" font-weight="normal" fill="#21386E">
                <tspan x="438" y="1110">.H {</tspan>
                <tspan x="438" y="1147.34101">	position: relative;</tspan>
                <tspan x="438" y="1184.68202">	height: 150px;</tspan>
                <tspan x="438" y="1222.02304">	width: 150px;</tspan>
                <tspan x="438" y="1259.36405">	border:5px solid black;</tspan>
                <tspan x="438" y="1296.70506">	border-radius: 50%;}</tspan>
                <tspan x="438" y="1334.04607"></tspan>
                <tspan x="438" y="1371.04607">.H:before {</tspan>
                <tspan x="438" y="1408.38708">	position: absolute;</tspan>
                <tspan x="438" y="1445.7281">	content: '';</tspan>
                <tspan x="438" y="1483.06911">	height: 75px;</tspan>
                <tspan x="438" y="1520.41012">	width: 150px;</tspan>
                <tspan x="438" y="1557.75113">	border-bottom:5px solid black;}</tspan>
                <tspan x="438" y="1595.09214"></tspan>
                <tspan x="438" y="1632.09214">.H:after{</tspan>
                <tspan x="438" y="1669.43316">	position: absolute;</tspan>
                <tspan x="438" y="1706.77417">	content: '';</tspan>
                <tspan x="438" y="1744.11518">	height: 160px;</tspan>
                <tspan x="438" y="1781.45619">	width: 10px;</tspan>
                <tspan x="438" y="1818.7972">	left: 70px;</tspan>
                <tspan x="438" y="1856.13822">	top: -5px;</tspan>
                <tspan x="438" y="1893.47923">	background: white;}</tspan>
            </text>
            <polygon id="Triangle-1" fill="#F0EFEF" sketch:type="MSShapeGroup" points="720.5 945 751 1006 690 1006 "></polygon>
            <g id="Page-1" sketch:type="MSLayerGroup" transform="translate(828.825784, 934.400347) rotate(-37.000000) translate(-828.825784, -934.400347) translate(803.825784, 901.400347)" fill="#4990E2">
                <path d="M42.1666667,37.02875 L41.7972222,37.02875 C41.2861111,37.02875 40.7888889,37.103 40.3222222,37.24325 C39.6694444,35.13675 37.6833333,33.60225 35.3527778,33.60225 L34.9944444,33.60225 C34.4944444,33.60225 34.0055556,33.6765 33.55,33.82775 C32.9305556,31.669 30.925,30.0795 28.5472222,30.0795 L28.1888889,30.0795 C27.7555556,30.0795 27.3444444,30.13175 26.9305556,30.228 L26.9305556,21.62325 C26.9305556,18.788 24.5972222,16.478 21.7333333,16.478 L21.375,16.478 C18.5111111,16.478 16.1777778,18.788 16.1777778,21.62325 L16.1777778,44.61325 L14.0194444,43.24925 C12.0444444,41.4645 8.74444444,41.5195 6.84722222,43.40875 L6.58611111,43.66725 C4.56944444,45.67475 4.56944444,48.93075 6.46666667,50.81175 L15.8972222,62.00425 C16.7527778,63.0135 18.0222222,63.59375 19.3583333,63.59375 L38.2388889,63.59375 C40.5694444,63.59375 42.4916667,61.831 42.7305556,59.532 L47.3305556,42.68 C47.375,42.51775 47.3944444,42.3445 47.3944444,42.174 C47.3638889,39.33875 45.0305556,37.02875 42.1666667,37.02875 L42.1666667,37.02875 Z M38.9638889,58.35225 C38.8666667,58.58875 38.8138889,58.8555 38.8138889,59.125 C38.8138889,59.45775 38.5416667,59.72725 38.2055556,59.72725 L19.325,59.72725 C19.075,59.72725 18.9222222,59.587 18.8583333,59.51275 L9.31944444,48.19925 C8.82222222,47.707 8.82222222,46.89025 9.31944444,46.38425 L9.58055556,46.13675 C9.81944444,45.90025 10.1444444,45.76275 10.4916667,45.76275 C10.8388889,45.76275 11.1666667,45.892 11.4027778,46.13675 C11.5027778,46.233 11.6222222,46.332 11.7416667,46.40625 L17.0694444,49.7585 C17.6638889,50.1325 18.425,50.1545 19.0527778,49.82175 C19.6833333,49.478 20.0638889,48.8345 20.0638889,48.125 L20.0638889,21.61225 C20.0638889,20.9055 20.65,20.33625 21.3555556,20.33625 L21.7111111,20.33625 C22.4277778,20.33625 23.0027778,20.9055 23.0027778,21.61225 L23.0027778,34.71875 C23.0027778,35.728 23.7833333,36.56675 24.8055556,36.652 C25.8583333,36.73725 26.725,36.0195 26.8888889,35.0185 C26.9861111,34.408 27.5277778,33.946 28.1694444,33.946 L28.5277778,33.946 C29.2416667,33.946 29.8166667,34.52625 29.8166667,35.22475 L29.8166667,38.467 C29.8166667,39.47625 30.6111111,40.315 31.6194444,40.40025 C32.6611111,40.48825 33.5388889,39.76775 33.6916667,38.7695 C33.8,38.093 34.3972222,37.49075 34.9722222,37.49075 L35.3305556,37.49075 C36.0472222,37.49075 36.6222222,38.06 36.6222222,38.7695 L36.6222222,41.701 C36.6222222,42.71025 37.4027778,43.549 38.4222222,43.63425 C39.4861111,43.71125 40.3416667,43.00175 40.5055556,42.00075 C40.6027778,41.39025 41.1555556,40.92825 41.7861111,40.92825 L42.1555556,40.92825 C42.7944444,40.92825 43.3277778,41.40125 43.4361111,42.00075 L38.9638889,58.35225 Z" id="Fill-1" sketch:type="MSShapeGroup"></path>
                <path d="M11.9888889,19.61575 C11.9888889,18.5515 11.1222222,17.6825 10.0361111,17.6825 L3.68888889,17.6825 C2.61388889,17.6825 1.73611111,18.5405 1.73611111,19.61575 C1.73611111,20.68 2.61388889,21.549 3.68888889,21.549 L10.0361111,21.549 C11.1111111,21.549 11.9888889,20.68 11.9888889,19.61575 L11.9888889,19.61575 Z" id="Fill-2" sketch:type="MSShapeGroup"></path>
                <path d="M21.6027778,11.869 C22.6777778,11.869 23.5555556,11 23.5555556,9.93575 L23.5555556,3.652 C23.5555556,2.58775 22.6777778,1.71875 21.6027778,1.71875 C20.5194444,1.71875 19.65,2.58775 19.65,3.652 L19.65,9.93575 C19.65,11 20.5305556,11.869 21.6027778,11.869 L21.6027778,11.869 Z" id="Fill-3" sketch:type="MSShapeGroup"></path>
                <path d="M13.15,14.59975 C13.5305556,14.97375 14.0305556,15.169 14.5277778,15.169 C15.0277778,15.169 15.5277778,14.97375 15.9083333,14.59975 C16.2861111,14.223 16.4833333,13.728 16.4833333,13.233 C16.4833333,12.74075 16.2861111,12.24575 15.9083333,11.869 L11.425,7.43325 C10.6666667,6.6825 9.43055556,6.6825 8.66944444,7.43325 C8.28888889,7.81 8.09444444,8.305 8.09444444,8.79725 C8.09444444,9.29225 8.28888889,9.78725 8.66944444,10.16125 L13.15,14.59975 Z" id="Fill-4" sketch:type="MSShapeGroup"></path>
                <path d="M31.0555556,19.61575 C31.0555556,20.68 31.9222222,21.549 33.0083333,21.549 L39.3555556,21.549 C40.4416667,21.549 41.3083333,20.68 41.3083333,19.61575 C41.3083333,18.5515 40.4416667,17.6825 39.3555556,17.6825 L33.0083333,17.6825 C31.9333333,17.6825 31.0555556,18.5405 31.0555556,19.61575 L31.0555556,19.61575 Z" id="Fill-5" sketch:type="MSShapeGroup"></path>
                <path d="M28.5166667,15.169 C29.0138889,15.169 29.5138889,14.98475 29.8944444,14.59975 L34.3861111,10.15025 C35.1444444,9.3995 35.1444444,8.17575 34.3861111,7.41125 C33.625,6.6605 32.3888889,6.6605 31.6305556,7.41125 L27.1388889,11.84975 C26.3777778,12.6005 26.3777778,13.82425 27.1388889,14.58875 C27.5055556,14.97375 28.0166667,15.169 28.5166667,15.169 L28.5166667,15.169 Z" id="Fill-6" sketch:type="MSShapeGroup"></path>
            </g>
        </g>
    </g>
</svg>