<?xml version="1.0" encoding="UTF-8" standalone="no"?>
<svg width="1440px" height="1390px" viewBox="0 0 1440 1390" version="1.1" xmlns="http://www.w3.org/2000/svg" xmlns:xlink="http://www.w3.org/1999/xlink" xmlns:sketch="http://www.bohemiancoding.com/sketch/ns">
    <!-- Generator: Sketch 3.4 (15588) - http://www.bohemiancoding.com/sketch -->
    <title>Desktop HD</title>
    <desc>Created with Sketch.</desc>
    <defs></defs>
    <g id="Black-and-White-" stroke="none" stroke-width="1" fill="none" fill-rule="evenodd" sketch:type="MSPage">
        <g id="Desktop-HD" sketch:type="MSArtboardGroup">
            <g id="Menu" sketch:type="MSLayerGroup" transform="translate(0.000000, 58.000000)">
                <path d="M0,54.9999999 L1440,54.9999999" id="Line" stroke="#D8D8D8" stroke-width="2.7607362" stroke-linecap="square" sketch:type="MSShapeGroup"></path>
                <g id="Pokeball" transform="translate(664.785276, 0.000000)" sketch:type="MSShapeGroup">
                    <ellipse id="Oval-1" fill="#D8D8D8" cx="55.2147239" cy="55" rx="55.2147239" ry="55"></ellipse>
                    <path d="M0.756366081,55 L109.673082,55" id="Line" stroke="#FFFFFF" stroke-width="2.7607362" stroke-linecap="square"></path>
                    <ellipse id="Oval-1-Copy" stroke="#FFFFFF" stroke-width="2.7607362" fill="#D8D8D8" cx="55.2147239" cy="55" rx="15.8836877" ry="15.8219178"></ellipse>
                </g>
                <path d="M348.382822,8.99233129 L344.556442,8.99233129 L344.556442,34.7831288 C344.556442,37.4665644 343.661963,39.7027607 341.873006,41.541411 C340.133742,43.3800613 337.947239,44.2745399 335.412883,44.2745399 C332.779141,44.2745399 330.592638,43.2806748 328.853374,41.342638 C327.11411,39.354908 326.269325,36.9199387 326.269325,34.0377301 L326.269325,8.99233129 L322.492638,8.99233129 L322.492638,34.7334356 C322.492638,38.4604294 323.734969,41.6407975 326.169939,44.1751534 C328.604908,46.7095092 331.636196,47.9518405 335.21411,48.0015337 C338.841718,48.051227 341.972393,46.858589 344.506748,44.3242331 C347.090798,41.7898773 348.382822,38.6095092 348.382822,34.8825153 L348.382822,8.99233129 Z M377.453374,31.1555215 C377.453374,27.4782209 376.260736,24.4469325 373.87546,22.0119632 C371.490184,19.5769939 368.508589,18.3346626 364.930675,18.3346626 C361.303067,18.3346626 358.321472,19.5769939 355.936196,22.0119632 C353.55092,24.4469325 352.358282,27.4782209 352.358282,31.1555215 L352.358282,47.3058282 L356.184663,47.3058282 L356.184663,30.7579755 C356.184663,28.3726994 357.029448,26.3352761 358.768712,24.5960123 C360.507975,22.8567485 362.595092,22.0119632 364.930675,22.0119632 C367.266258,22.0119632 369.253988,22.8567485 370.993252,24.5960123 C372.732515,26.3352761 373.626994,28.3726994 373.626994,30.7579755 L373.626994,47.3058282 L377.453374,47.3058282 L377.453374,31.1555215 Z M410.54908,33.1432515 C410.54908,29.1677914 409.157669,25.7389571 406.42454,22.8567485 C403.691411,19.9248466 400.31227,18.4340491 396.386503,18.2849693 C392.311656,18.1358896 388.783436,19.5769939 385.851534,22.558589 C382.919632,25.4904908 381.428834,29.0684049 381.428834,33.1929448 C381.428834,37.1684049 382.770552,40.5972393 385.503681,43.4794479 C388.23681,46.3616564 391.615951,47.852454 395.541718,47.9518405 C399.616564,48.1009202 403.144785,46.659816 406.076687,43.7279141 C409.058282,40.746319 410.54908,37.2180982 410.54908,33.1432515 L410.54908,33.1432515 Z M388.187117,40.746319 C386.149693,38.5101227 385.205521,35.8763804 385.255215,32.8947853 C385.304908,29.8634969 386.348466,27.3291411 388.485276,25.1923313 C390.622086,23.0555215 393.156442,21.9622699 396.18773,22.0119632 C399.069939,22.0119632 401.504908,23.0555215 403.542331,25.1923313 C405.579755,27.3291411 406.673006,29.8634969 406.772393,32.845092 C406.822086,35.9757669 405.778528,38.6592025 403.542331,40.9947853 C401.355828,43.3303681 398.722086,44.3739264 395.591411,44.2248466 C392.659509,44.1254601 390.22454,42.9825153 388.187117,40.746319 L388.187117,40.746319 Z M456.465644,18.9806748 L452.390798,18.9806748 L443.446012,42.4358896 L436.98589,22.4095092 L433.755828,22.4095092 L427.196319,42.5849693 L418.400613,18.9806748 L414.37546,18.9806748 L425.109202,47.3058282 L429.432515,47.3058282 L435.246626,28.5714724 L441.408589,47.3058282 L445.831288,47.3058282 L456.465644,18.9806748 Z M484.790798,31.1555215 C484.790798,27.4782209 483.59816,24.4469325 481.212883,22.0119632 C478.827607,19.5769939 475.846012,18.3346626 472.268098,18.3346626 C468.640491,18.3346626 465.658896,19.5769939 463.27362,22.0119632 C460.888344,24.4469325 459.695706,27.4782209 459.695706,31.1555215 L459.695706,47.3058282 L463.522086,47.3058282 L463.522086,30.7579755 C463.522086,28.3726994 464.366871,26.3352761 466.106135,24.5960123 C467.845399,22.8567485 469.932515,22.0119632 472.268098,22.0119632 C474.603681,22.0119632 476.591411,22.8567485 478.330675,24.5960123 C480.069939,26.3352761 480.964417,28.3726994 480.964417,30.7579755 L480.964417,47.3058282 L484.790798,47.3058282 L484.790798,31.1555215 Z M513.612883,36.5223926 C513.662577,39.8021472 514.755828,42.5352761 516.992025,44.7217791 C519.228221,46.9082822 521.911656,48.0015337 525.092025,48.0015337 C528.272393,48.0015337 530.955828,46.9082822 533.192025,44.7217791 C535.428221,42.4855828 536.571166,39.8518405 536.521472,36.7211656 C536.471779,31.4039877 533.490184,27.8260736 527.576687,25.9874233 L522.955215,24.546319 C520.073006,23.6518405 518.582209,21.7138037 518.532515,18.7322086 C518.482822,16.8935583 519.128834,15.3530675 520.520245,14.0610429 C521.96135,12.7193252 523.601227,12.1230061 525.439877,12.2223926 C527.179141,12.3217791 528.669939,13.0174847 529.862577,14.3095092 C531.104908,15.6015337 531.701227,17.1420245 531.651534,18.9309816 L535.676687,18.9309816 C535.676687,16.0984663 534.682822,13.6634969 532.695092,11.6260736 C530.707362,9.58865031 528.272393,8.54509202 525.439877,8.49539877 C522.557669,8.44570552 520.073006,9.43957055 517.936196,11.4273006 C515.799387,13.3653374 514.755828,15.7506135 514.805521,18.5831288 C514.855215,23.154908 517.339877,26.5837423 521.66319,27.9254601 L525.738037,29.1677914 C530.359509,30.6088957 532.695092,33.0935583 532.794479,36.6217791 C532.844172,38.758589 532.098773,40.5972393 530.558282,42.0880368 C529.017791,43.5788344 527.179141,44.3242331 525.042331,44.2745399 C523.004908,44.2248466 521.215951,43.4794479 519.774847,41.9389571 C518.333742,40.3984663 517.588344,38.6095092 517.638037,36.5223926 L513.612883,36.5223926 Z M568.772393,33.2923313 L568.772393,33.0935583 C568.921472,29.1677914 567.579755,25.7389571 564.796933,22.8567485 C562.01411,19.9248466 558.634969,18.4340491 554.659509,18.2849693 C550.534969,18.1358896 547.006748,19.5273006 544.074847,22.5088957 C541.142945,25.4407975 539.652147,29.0187117 539.652147,33.1432515 C539.652147,37.1187117 541.043558,40.547546 543.776687,43.4297546 C546.509816,46.3119632 549.839264,47.8027607 553.765031,47.9518405 C558.237423,48.1009202 562.01411,46.4113497 565.095092,42.8831288 L565.095092,47.3058282 L568.772393,47.3058282 L568.772393,33.2923313 Z M546.708589,25.142638 C548.845399,23.0058282 551.379755,21.9622699 554.411043,21.9622699 C557.293252,21.9622699 559.777914,23.0058282 561.815337,25.142638 C563.852761,27.2794479 564.946012,29.8138037 564.995706,32.7953988 C565.045399,35.9260736 564.00184,38.6592025 561.765644,40.9947853 C559.579141,43.2806748 556.945399,44.3739264 553.814724,44.2248466 C550.932515,44.0757669 548.447853,42.9328221 546.410429,40.6966258 C544.373006,38.4604294 543.428834,35.8266871 543.478528,32.845092 C543.528221,29.8138037 544.571779,27.2794479 546.708589,25.142638 L546.708589,25.142638 Z M597.743558,31.1555215 C597.743558,27.4782209 596.55092,24.4469325 594.165644,22.0119632 C591.780368,19.5769939 588.798773,18.3346626 585.220859,18.3346626 C581.593252,18.3346626 578.611656,19.5769939 576.22638,22.0119632 C573.841104,24.4469325 572.648466,27.4782209 572.648466,31.1555215 L572.648466,47.3058282 L576.474847,47.3058282 L576.474847,30.7579755 C576.474847,28.3726994 577.319632,26.3352761 579.058896,24.5960123 C580.79816,22.8567485 582.885276,22.0119632 585.220859,22.0119632 C587.556442,22.0119632 589.544172,22.8567485 591.283436,24.5960123 C593.022699,26.3352761 593.917178,28.3726994 593.917178,30.7579755 L593.917178,47.3058282 L597.743558,47.3058282 L597.743558,31.1555215 Z M605.644785,38.9076687 L601.719018,38.9076687 C601.719018,41.342638 602.51411,43.4297546 604.104294,45.1690184 C605.744172,46.9082822 607.731902,47.9021472 610.117178,48.051227 C612.701227,48.2003067 614.987117,47.3555215 616.974847,45.5168712 C618.962577,43.6285276 619.857055,41.3923313 619.658282,38.8579755 C619.409816,35.1309816 617.372393,32.5966258 613.595706,31.3046012 L610.315951,30.2113497 C607.781595,29.3665644 606.539264,27.9254601 606.688344,25.8880368 C606.738037,23.7015337 608.526994,22.0616564 610.663804,22.0119632 C612.850307,22.0119632 614.838037,23.353681 614.838037,25.341411 L614.838037,25.9874233 L618.813497,25.9874233 L618.763804,25.142638 C618.614724,23.154908 617.720245,21.5150307 616.030675,20.1733129 C614.390798,18.8315951 612.60184,18.1855828 610.663804,18.2849693 C608.427607,18.3843558 606.539264,19.2291411 604.94908,20.7696319 C603.408589,22.3101227 602.66319,24.1984663 602.762577,26.3849693 C602.911656,30.0125767 604.750307,32.3978528 608.228834,33.4911043 L611.558282,34.5346626 C614.341104,35.4291411 615.732515,37.0690184 615.682822,39.5039877 C615.633129,40.8953988 615.235583,42.0383436 614.390798,42.8831288 C613.446626,43.8273006 612.204294,44.2745399 610.61411,44.3242331 C609.421472,44.3739264 608.278528,43.8769939 607.234969,42.8334356 C606.191411,41.7898773 605.644785,40.7960123 605.644785,39.8518405 L605.644785,38.9076687 Z" id="Unown-Sans" fill="#000000" sketch:type="MSShapeGroup"></path>
                <path d="M816.592638,39.3929448 L825.106748,39.3929448 L825.106748,36.9745399 L816.592638,36.9745399 L816.592638,31.4751534 C816.592638,30.5806748 817.023313,29.7193252 817.851534,28.8248466 C818.381595,28.2947853 819.309202,28.0297546 820.634356,28.0297546 L827.955828,28.0297546 L827.955828,25.6444785 L820.634356,25.6444785 C816.791411,25.6444785 814.041718,27.8972393 814.041718,31.9058282 L814.041718,51.1205521 L816.592638,51.1205521 L816.592638,39.3929448 Z M848.36319,41.6788344 C848.36319,39.0285276 847.435583,36.742638 845.613497,34.8211656 C843.791411,32.8665644 841.53865,31.8726994 838.921472,31.7733129 C836.204908,31.6739264 833.852761,32.6346626 831.89816,34.6223926 C829.943558,36.5769939 828.949693,38.9622699 828.949693,41.7119632 C828.949693,44.3622699 829.844172,46.6481595 831.666258,48.5696319 C833.488344,50.4911043 835.741104,51.4849693 838.358282,51.551227 C841.074847,51.6506135 843.426994,50.6898773 845.381595,48.7352761 C847.369325,46.747546 848.36319,44.3953988 848.36319,41.6788344 L848.36319,41.6788344 Z M833.455215,46.747546 C832.096933,45.2567485 831.467485,43.5009202 831.500613,41.5131902 C831.533742,39.4923313 832.229448,37.8027607 833.653988,36.3782209 C835.078528,34.953681 836.768098,34.2248466 838.788957,34.2579755 C840.710429,34.2579755 842.333742,34.953681 843.692025,36.3782209 C845.050307,37.8027607 845.779141,39.4923313 845.845399,41.4800613 C845.878528,43.5671779 845.182822,45.356135 843.692025,46.9131902 C842.234356,48.4702454 840.478528,49.1659509 838.391411,49.0665644 C836.43681,49.0003067 834.813497,48.2383436 833.455215,46.747546 L833.455215,46.747546 Z M867.577914,40.353681 C867.577914,37.9021472 866.782822,35.8812883 865.192638,34.2579755 C863.602454,32.6346626 861.614724,31.8064417 859.229448,31.8064417 C856.811043,31.8064417 854.823313,32.6346626 853.233129,34.2579755 C851.642945,35.8812883 850.847853,37.9021472 850.847853,40.353681 L850.847853,51.1205521 L853.398773,51.1205521 L853.398773,40.0886503 C853.398773,38.4984663 853.961963,37.140184 855.121472,35.9806748 C856.280982,34.8211656 857.672393,34.2579755 859.229448,34.2579755 C860.786503,34.2579755 862.111656,34.8211656 863.271166,35.9806748 C864.430675,37.140184 865.026994,38.4984663 865.026994,40.0886503 L865.026994,51.1205521 L867.577914,51.1205521 L867.577914,40.353681 Z M877.119018,49.4309816 C874.23681,49.4309816 872.779141,48.0395706 872.779141,45.2236196 L872.779141,34.556135 L877.119018,34.556135 L877.119018,32.2039877 L872.779141,32.2039877 L872.779141,25.6113497 L870.228221,25.6113497 L870.228221,45.6542945 C870.228221,49.5634969 872.51411,51.5180982 877.119018,51.5180982 L877.119018,49.4309816 Z M881.955828,45.5217791 L879.33865,45.5217791 C879.33865,47.145092 879.868712,48.5365031 880.928834,49.6960123 C882.022086,50.8555215 883.347239,51.5180982 884.937423,51.6174847 C886.660123,51.7168712 888.184049,51.153681 889.509202,49.9279141 C890.834356,48.6690184 891.430675,47.1782209 891.29816,45.4886503 C891.132515,43.0039877 889.774233,41.3144172 887.256442,40.4530675 L885.069939,39.7242331 C883.380368,39.1610429 882.552147,38.2003067 882.651534,36.8420245 C882.684663,35.3843558 883.877301,34.2911043 885.30184,34.2579755 C886.759509,34.2579755 888.084663,35.152454 888.084663,36.4776074 L888.084663,36.9082822 L890.734969,36.9082822 L890.70184,36.345092 C890.602454,35.0199387 890.006135,33.9266871 888.879755,33.0322086 C887.786503,32.1377301 886.593865,31.7070552 885.30184,31.7733129 C883.811043,31.8395706 882.552147,32.4027607 881.492025,33.4297546 C880.465031,34.4567485 879.968098,35.7156442 880.034356,37.1733129 C880.133742,39.5917178 881.359509,41.1819018 883.678528,41.9107362 L885.89816,42.6064417 C887.753374,43.2027607 888.680982,44.2960123 888.647853,45.9193252 C888.614724,46.8469325 888.349693,47.6088957 887.786503,48.1720859 C887.157055,48.8015337 886.328834,49.0996933 885.268712,49.1328221 C884.47362,49.1659509 883.711656,48.8346626 883.015951,48.1389571 C882.320245,47.4432515 881.955828,46.7806748 881.955828,46.151227 L881.955828,45.5217791 Z" id="Fonts" fill="#000000" sketch:type="MSShapeGroup"></path>
                <path d="M941.604294,51.1205521 C945.082822,51.1205521 948.064417,49.8616564 950.54908,47.3769939 C953.066871,44.8923313 954.325767,41.8776074 954.325767,38.3990798 C954.325767,34.754908 953.000613,31.7070552 950.383436,29.2886503 C947.766258,26.8702454 944.420245,25.6444785 940.345399,25.6444785 L932.957669,25.6444785 L932.957669,51.1205521 L941.604294,51.1205521 Z M935.409202,48.7352761 L935.409202,28.0297546 L940.742945,28.0297546 C943.691411,28.0297546 946.242331,28.9904908 948.395706,30.9119632 C950.54908,32.8334356 951.67546,35.2187117 951.741718,38.0346626 C951.841104,40.9168712 950.847239,43.4346626 948.82638,45.554908 C946.805521,47.6751534 944.353988,48.7352761 941.471779,48.7352761 L935.409202,48.7352761 Z M976.025153,41.6788344 C976.025153,39.0285276 975.097546,36.742638 973.27546,34.8211656 C971.453374,32.8665644 969.200613,31.8726994 966.583436,31.7733129 C963.866871,31.6739264 961.514724,32.6346626 959.560123,34.6223926 C957.605521,36.5769939 956.611656,38.9622699 956.611656,41.7119632 C956.611656,44.3622699 957.506135,46.6481595 959.328221,48.5696319 C961.150307,50.4911043 963.403067,51.4849693 966.020245,51.551227 C968.73681,51.6506135 971.088957,50.6898773 973.043558,48.7352761 C975.031288,46.747546 976.025153,44.3953988 976.025153,41.6788344 L976.025153,41.6788344 Z M961.117178,46.747546 C959.758896,45.2567485 959.129448,43.5009202 959.162577,41.5131902 C959.195706,39.4923313 959.891411,37.8027607 961.315951,36.3782209 C962.740491,34.953681 964.430061,34.2248466 966.45092,34.2579755 C968.372393,34.2579755 969.995706,34.953681 971.353988,36.3782209 C972.71227,37.8027607 973.441104,39.4923313 973.507362,41.4800613 C973.540491,43.5671779 972.844785,45.356135 971.353988,46.9131902 C969.896319,48.4702454 968.140491,49.1659509 966.053374,49.0665644 C964.098773,49.0003067 962.47546,48.2383436 961.117178,46.747546 L961.117178,46.747546 Z M1006.6362,32.2371166 L1003.91963,32.2371166 L997.956442,47.8739264 L993.649693,34.5230061 L991.496319,34.5230061 L987.123313,47.9733129 L981.259509,32.2371166 L978.576074,32.2371166 L985.731902,51.1205521 L988.61411,51.1205521 L992.490184,38.6309816 L996.59816,51.1205521 L999.546626,51.1205521 L1006.6362,32.2371166 Z M1025.51963,40.353681 C1025.51963,37.9021472 1024.72454,35.8812883 1023.13436,34.2579755 C1021.54417,32.6346626 1019.55644,31.8064417 1017.17117,31.8064417 C1014.75276,31.8064417 1012.76503,32.6346626 1011.17485,34.2579755 C1009.58466,35.8812883 1008.78957,37.9021472 1008.78957,40.353681 L1008.78957,51.1205521 L1011.34049,51.1205521 L1011.34049,40.0886503 C1011.34049,38.4984663 1011.90368,37.140184 1013.06319,35.9806748 C1014.2227,34.8211656 1015.61411,34.2579755 1017.17117,34.2579755 C1018.72822,34.2579755 1020.05337,34.8211656 1021.21288,35.9806748 C1022.37239,37.140184 1022.96871,38.4984663 1022.96871,40.0886503 L1022.96871,51.1205521 L1025.51963,51.1205521 L1025.51963,40.353681 Z M1030.68773,25.5782209 L1028.16994,25.5782209 L1028.16994,51.1205521 L1030.68773,51.1205521 L1030.68773,25.5782209 Z M1052.95031,41.6788344 C1052.95031,39.0285276 1052.0227,36.742638 1050.20061,34.8211656 C1048.37853,32.8665644 1046.12577,31.8726994 1043.50859,31.7733129 C1040.79202,31.6739264 1038.43988,32.6346626 1036.48528,34.6223926 C1034.53067,36.5769939 1033.53681,38.9622699 1033.53681,41.7119632 C1033.53681,44.3622699 1034.43129,46.6481595 1036.25337,48.5696319 C1038.07546,50.4911043 1040.32822,51.4849693 1042.9454,51.551227 C1045.66196,51.6506135 1048.01411,50.6898773 1049.96871,48.7352761 C1051.95644,46.747546 1052.95031,44.3953988 1052.95031,41.6788344 L1052.95031,41.6788344 Z M1038.04233,46.747546 C1036.68405,45.2567485 1036.0546,43.5009202 1036.08773,41.5131902 C1036.12086,39.4923313 1036.81656,37.8027607 1038.2411,36.3782209 C1039.66564,34.953681 1041.35521,34.2248466 1043.37607,34.2579755 C1045.29755,34.2579755 1046.92086,34.953681 1048.27914,36.3782209 C1049.63742,37.8027607 1050.36626,39.4923313 1050.43252,41.4800613 C1050.46564,43.5671779 1049.76994,45.356135 1048.27914,46.9131902 C1046.82147,48.4702454 1045.06564,49.1659509 1042.97853,49.0665644 C1041.02393,49.0003067 1039.40061,48.2383436 1038.04233,46.747546 L1038.04233,46.747546 Z M1074.8816,41.7782209 L1074.8816,41.6457055 C1074.98098,39.0285276 1074.0865,36.742638 1072.23129,34.8211656 C1070.37607,32.8665644 1068.12331,31.8726994 1065.47301,31.7733129 C1062.72331,31.6739264 1060.37117,32.6015337 1058.41656,34.5892638 C1056.46196,36.543865 1055.4681,38.9291411 1055.4681,41.6788344 C1055.4681,44.3291411 1056.39571,46.6150307 1058.21779,48.5365031 C1060.03988,50.4579755 1062.25951,51.4518405 1064.87669,51.551227 C1067.85828,51.6506135 1070.37607,50.5242331 1072.43006,48.1720859 L1072.43006,51.1205521 L1074.8816,51.1205521 L1074.8816,41.7782209 Z M1060.17239,36.345092 C1061.59693,34.9205521 1063.2865,34.2248466 1065.30736,34.2248466 C1067.22883,34.2248466 1068.88528,34.9205521 1070.24356,36.345092 C1071.60184,37.7696319 1072.33067,39.4592025 1072.3638,41.4469325 C1072.39693,43.5340491 1071.70123,45.356135 1070.21043,46.9131902 C1068.75276,48.4371166 1066.99693,49.1659509 1064.90982,49.0665644 C1062.98834,48.9671779 1061.3319,48.2052147 1059.97362,46.7144172 C1058.61534,45.2236196 1057.98589,43.4677914 1058.01902,41.4800613 C1058.05215,39.4592025 1058.74785,37.7696319 1060.17239,36.345092 L1060.17239,36.345092 Z M1097.30982,25.7107362 L1094.82515,25.7107362 L1094.82515,35.2187117 C1092.96994,33.0984663 1090.65092,31.9720859 1087.8681,31.8726994 C1085.15153,31.7733129 1082.79939,32.7340491 1080.84479,34.7217791 C1078.89018,36.6763804 1077.89632,39.0616564 1077.89632,41.8113497 C1077.89632,44.4616564 1078.7908,46.747546 1080.61288,48.6690184 C1082.43497,50.5904908 1084.68773,51.5843558 1087.30491,51.6506135 C1090.02147,51.75 1092.37362,50.7892638 1094.39448,48.8346626 C1096.41534,46.8469325 1097.37607,44.4947853 1097.30982,41.7782209 L1097.30982,25.7107362 Z M1082.40184,46.8469325 C1081.04356,45.356135 1080.38098,43.6003067 1080.41411,41.6125767 C1080.44724,39.5917178 1081.14294,37.9021472 1082.56748,36.4776074 C1083.99202,35.0530675 1085.71472,34.3242331 1087.70245,34.357362 C1089.65706,34.357362 1091.28037,35.0530675 1092.63865,36.4776074 C1093.99693,37.9021472 1094.72577,39.5917178 1094.7589,41.5794479 C1094.82515,43.6665644 1094.12945,45.4555215 1092.63865,47.0125767 C1091.18098,48.5696319 1089.42515,49.2653374 1087.33804,49.1659509 C1085.38344,49.0996933 1083.76012,48.3377301 1082.40184,46.8469325 L1082.40184,46.8469325 Z M1102.61043,45.5217791 L1099.99325,45.5217791 C1099.99325,47.145092 1100.52331,48.5365031 1101.58344,49.6960123 C1102.67669,50.8555215 1104.00184,51.5180982 1105.59202,51.6174847 C1107.31472,51.7168712 1108.83865,51.153681 1110.1638,49.9279141 C1111.48896,48.6690184 1112.08528,47.1782209 1111.95276,45.4886503 C1111.78712,43.0039877 1110.42883,41.3144172 1107.91104,40.4530675 L1105.72454,39.7242331 C1104.03497,39.1610429 1103.20675,38.2003067 1103.30613,36.8420245 C1103.33926,35.3843558 1104.5319,34.2911043 1105.95644,34.2579755 C1107.41411,34.2579755 1108.73926,35.152454 1108.73926,36.4776074 L1108.73926,36.9082822 L1111.38957,36.9082822 L1111.35644,36.345092 C1111.25706,35.0199387 1110.66074,33.9266871 1109.53436,33.0322086 C1108.4411,32.1377301 1107.24847,31.7070552 1105.95644,31.7733129 C1104.46564,31.8395706 1103.20675,32.4027607 1102.14663,33.4297546 C1101.11963,34.4567485 1100.6227,35.7156442 1100.68896,37.1733129 C1100.78834,39.5917178 1102.01411,41.1819018 1104.33313,41.9107362 L1106.55276,42.6064417 C1108.40798,43.2027607 1109.33558,44.2960123 1109.30245,45.9193252 C1109.26933,46.8469325 1109.00429,47.6088957 1108.4411,48.1720859 C1107.81166,48.8015337 1106.98344,49.0996933 1105.92331,49.1328221 C1105.12822,49.1659509 1104.36626,48.8346626 1103.67055,48.1389571 C1102.97485,47.4432515 1102.61043,46.7806748 1102.61043,46.151227 L1102.61043,45.5217791 Z" id="Downloads" fill="#000000" sketch:type="MSShapeGroup"></path>
            </g>
            <g id="Letter-O" sketch:type="MSLayerGroup" transform="translate(419.000000, 850.000000)">
                <g id="Pokeball-Copy" transform="translate(0.000000, 157.428571)" sketch:type="MSShapeGroup">
                    <ellipse id="Oval-1" fill="#D8D8D8" cx="55.1968504" cy="55.2380952" rx="55.1968504" ry="55.2380952"></ellipse>
                    <path d="M0.756121238,55.2380952 L109.63758,55.2380952" id="Line" stroke="#FFFFFF" stroke-width="2.7607362" stroke-linecap="square"></path>
                    <ellipse id="Oval-1-Copy" stroke="#FFFFFF" stroke-width="2.7607362" fill="#D8D8D8" cx="55.1968504" cy="55.2380952" rx="15.878546" ry="15.890411"></ellipse>
                </g>
                <text id=".O-{" sketch:type="MSTextLayer" font-family="Courier New" font-size="15.1840491" font-weight="normal" fill="#000000">
                    <tspan x="358.779528" y="13">.O {</tspan>
                    <tspan x="358.779528" y="31">	position: relative;</tspan>
                    <tspan x="358.779528" y="49">	height: 150px;</tspan>
                    <tspan x="358.779528" y="67">	width: 150px;</tspan>
                    <tspan x="358.779528" y="85">	border:5px solid black;</tspan>
                    <tspan x="358.779528" y="103">	border-radius: 50%;</tspan>
                    <tspan x="358.779528" y="121">}</tspan>
                    <tspan x="358.779528" y="139"></tspan>
                    <tspan x="358.779528" y="157">.O:before {</tspan>
                    <tspan x="358.779528" y="175">	position: absolute;</tspan>
                    <tspan x="358.779528" y="193">	content: '';</tspan>
                    <tspan x="358.779528" y="211">	top: 75px;</tspan>
                    <tspan x="358.779528" y="229">	left: -77px;</tspan>
                    <tspan x="358.779528" y="247">	height: 75px;</tspan>
                    <tspan x="358.779528" y="265">	width: 150px;</tspan>
                    <tspan x="358.779528" y="283">	border-right:5px solid black;</tspan>
                    <tspan x="358.779528" y="301">}</tspan>
                    <tspan x="358.779528" y="319"></tspan>
                    <tspan x="358.779528" y="337">.O .eye{</tspan>
                    <tspan x="358.779528" y="355">	position: absolute;</tspan>
                    <tspan x="358.779528" y="373">	top:47px;</tspan>
                    <tspan x="358.779528" y="391">	left:45px;</tspan>
                    <tspan x="358.779528" y="409">	z-index: 1;</tspan>
                    <tspan x="358.779528" y="427">}</tspan>
                </text>
            </g>
            <g id="Letter-H" sketch:type="MSLayerGroup" transform="translate(342.000000, 254.000000)">
                <path d="M189.935697,51.0872488 C189.977134,50.2813405 189.998096,49.470276 189.998096,48.6545227 C189.998096,21.7833718 167.252709,-2.27373675e-13 139.194852,-2.27373675e-13 C111.136995,-2.27373675e-13 88.3916084,21.7833718 88.3916084,48.6545227 C88.3916084,49.470276 88.4125707,50.2813405 88.4540075,51.0872488 L189.935697,51.0872488 Z" id="Oval-1-Copy-2" fill="#D8D8D8" sketch:type="MSShapeGroup"></path>
                <path d="M190.53164,503.413251 C190.57332,502.567633 190.594406,501.716604 190.594406,500.860656 C190.594406,472.665463 167.71553,449.808743 139.493007,449.808743 C111.270484,449.808743 88.3916084,472.665463 88.3916084,500.860656 C88.3916084,501.716604 88.4126937,502.567633 88.4543737,503.413251 L190.53164,503.413251 Z" id="Oval-1-Copy-3" fill="#D8D8D8" sketch:type="MSShapeGroup" transform="translate(139.493007, 476.610997) rotate(-180.000000) translate(-139.493007, -476.610997) "></path>
                <path d="M89.0875432,51.0519126 L189.302162,51.0519126" id="Line" stroke="#FFFFFF" stroke-width="2.7607362" fill="#D8D8D8" sketch:type="MSShapeGroup"></path>
                <ellipse id="Oval-1-Copy" stroke="#FFFFFF" stroke-width="2.7607362" fill="#D8D8D8" sketch:type="MSShapeGroup" cx="138.915331" cy="49.8708235" rx="14.6146318" ry="13.9965065"></ellipse>
                <g id="H" transform="translate(0.000000, 113.142077)" sketch:type="MSShapeGroup">
                    <path d="M140.874126,133.628491 C137.477566,133.628491 134.723704,136.371325 134.723704,139.754282 C134.723704,143.137239 137.477566,145.880072 140.874126,145.880072 C144.270685,145.880072 147.024547,143.137239 147.024547,139.754282 C147.024547,136.371325 144.270685,133.628491 140.874126,133.628491" id="Fill-1" fill="#221F20"></path>
                    <path d="M140.874126,133.628491 C137.477566,133.628491 134.723704,136.371325 134.723704,139.754282 C134.723704,143.137239 137.477566,145.880072 140.874126,145.880072 C144.270685,145.880072 147.024547,143.137239 147.024547,139.754282 C147.024547,136.371325 144.270685,133.628491 140.874126,133.628491 L140.874126,133.628491 Z" id="Stroke-3" stroke="#221F20" stroke-width="2.7607362"></path>
                    <path d="M140.874126,174.534082 C121.419214,174.534082 105.646506,158.825832 105.646506,139.44754 C105.646506,120.07054 121.419214,104.360997 140.874126,104.360997 C160.329037,104.360997 176.101746,120.07054 176.101746,139.44754 C176.101746,158.825832 160.329037,174.534082 140.874126,174.534082 M152.559537,0.270403805 L152.559537,11.8999658 C216.413818,17.6300436 266.802611,69.8421604 269.359119,134.308445 L187.326233,134.308445 C184.756741,111.016991 164.944775,92.8930826 140.874126,92.8930826 C116.803477,92.8930826 96.9915111,111.016991 94.4220189,134.308445 L12.3891328,134.308445 C14.9456411,69.8421604 65.3344333,17.6300436 129.188715,11.8999658 L129.188715,0.270403805 C57.2130724,6.18669939 0.64918952,66.23419 0.64918952,139.44754 C0.64918952,212.662183 57.2130724,272.709673 129.188715,278.624676 L129.188715,266.995113 C65.5369804,261.28314 15.2611472,209.383973 12.4125036,145.199601 L94.4999217,145.199601 C97.3472669,168.194917 117.016411,186.001997 140.874126,186.001997 C164.731841,186.001997 184.400985,168.194917 187.24833,145.199601 L269.335748,145.199601 C266.487105,209.383973 216.211271,261.28314 152.559537,266.995113 L152.559537,278.624676 C224.535179,272.709673 281.099062,212.662183 281.099062,139.44754 C281.099062,66.23419 224.535179,6.18669939 152.559537,0.270403805" id="Fill-5" fill="#221F20"></path>
                    <path d="M140.874126,174.534082 C121.419214,174.534082 105.646506,158.825832 105.646506,139.44754 C105.646506,120.07054 121.419214,104.360997 140.874126,104.360997 C160.329037,104.360997 176.101746,120.07054 176.101746,139.44754 C176.101746,158.825832 160.329037,174.534082 140.874126,174.534082 L140.874126,174.534082 Z M152.559537,0.270403805 L152.559537,11.8999658 C216.413818,17.6300436 266.802611,69.8421604 269.359119,134.308445 L187.326233,134.308445 C184.756741,111.016991 164.944775,92.8930826 140.874126,92.8930826 C116.803477,92.8930826 96.9915111,111.016991 94.4220189,134.308445 L12.3891328,134.308445 C14.9456411,69.8421604 65.3344333,17.6300436 129.188715,11.8999658 L129.188715,0.270403805 C57.2130724,6.18669939 0.64918952,66.23419 0.64918952,139.44754 C0.64918952,212.662183 57.2130724,272.709673 129.188715,278.624676 L129.188715,266.995113 C65.5369804,261.28314 15.2611472,209.383973 12.4125036,145.199601 L94.4999217,145.199601 C97.3472669,168.194917 117.016411,186.001997 140.874126,186.001997 C164.731841,186.001997 184.400985,168.194917 187.24833,145.199601 L269.335748,145.199601 C266.487105,209.383973 216.211271,261.28314 152.559537,266.995113 L152.559537,278.624676 C224.535179,272.709673 281.099062,212.662183 281.099062,139.44754 C281.099062,66.23419 224.535179,6.18669939 152.559537,0.270403805 L152.559537,0.270403805 Z" id="Stroke-7" stroke="#221F20" stroke-width="2.7607362"></path>
                </g>
                <text id=".H-{" sketch:type="MSTextLayer" font-family="Courier New" font-size="15.1840491" font-weight="normal" fill="#000000">
                    <tspan x="436.433566" y="13">.H {</tspan>
                    <tspan x="436.433566" y="31">	position: relative;</tspan>
                    <tspan x="436.433566" y="49">	height: 150px;</tspan>
                    <tspan x="436.433566" y="67">	width: 150px;</tspan>
                    <tspan x="436.433566" y="85">	border:5px solid black;</tspan>
                    <tspan x="436.433566" y="103">	border-radius: 50%;</tspan>
                    <tspan x="436.433566" y="121">}</tspan>
                    <tspan x="436.433566" y="139"></tspan>
                    <tspan x="436.433566" y="157">.H:before {</tspan>
                    <tspan x="436.433566" y="175">	position: absolute;</tspan>
                    <tspan x="436.433566" y="193">	content: '';</tspan>
                    <tspan x="436.433566" y="211">	height: 75px;</tspan>
                    <tspan x="436.433566" y="229">	width: 150px;</tspan>
                    <tspan x="436.433566" y="247">	border-bottom:5px solid black;</tspan>
                    <tspan x="436.433566" y="265">	</tspan>
                    <tspan x="436.433566" y="283">}</tspan>
                    <tspan x="436.433566" y="301"></tspan>
                    <tspan x="436.433566" y="319">.H:after{</tspan>
                    <tspan x="436.433566" y="337">	position: absolute;</tspan>
                    <tspan x="436.433566" y="355">	content: '';</tspan>
                    <tspan x="436.433566" y="373">	height: 160px;</tspan>
                    <tspan x="436.433566" y="391">	width: 10px;</tspan>
                    <tspan x="436.433566" y="409">	left: 70px;</tspan>
                    <tspan x="436.433566" y="427">	top: -5px;</tspan>
                    <tspan x="436.433566" y="445">	background: white;</tspan>
                    <tspan x="436.433566" y="463">}</tspan>
                </text>
            </g>
            <g id="Page-1" sketch:type="MSLayerGroup" transform="translate(621.825784, 670.400347) rotate(-37.000000) translate(-621.825784, -670.400347) translate(596.825784, 637.400347)" fill="#4990E2">
                <path d="M42.1666667,37.02875 L41.7972222,37.02875 C41.2861111,37.02875 40.7888889,37.103 40.3222222,37.24325 C39.6694444,35.13675 37.6833333,33.60225 35.3527778,33.60225 L34.9944444,33.60225 C34.4944444,33.60225 34.0055556,33.6765 33.55,33.82775 C32.9305556,31.669 30.925,30.0795 28.5472222,30.0795 L28.1888889,30.0795 C27.7555556,30.0795 27.3444444,30.13175 26.9305556,30.228 L26.9305556,21.62325 C26.9305556,18.788 24.5972222,16.478 21.7333333,16.478 L21.375,16.478 C18.5111111,16.478 16.1777778,18.788 16.1777778,21.62325 L16.1777778,44.61325 L14.0194444,43.24925 C12.0444444,41.4645 8.74444444,41.5195 6.84722222,43.40875 L6.58611111,43.66725 C4.56944444,45.67475 4.56944444,48.93075 6.46666667,50.81175 L15.8972222,62.00425 C16.7527778,63.0135 18.0222222,63.59375 19.3583333,63.59375 L38.2388889,63.59375 C40.5694444,63.59375 42.4916667,61.831 42.7305556,59.532 L47.3305556,42.68 C47.375,42.51775 47.3944444,42.3445 47.3944444,42.174 C47.3638889,39.33875 45.0305556,37.02875 42.1666667,37.02875 L42.1666667,37.02875 Z M38.9638889,58.35225 C38.8666667,58.58875 38.8138889,58.8555 38.8138889,59.125 C38.8138889,59.45775 38.5416667,59.72725 38.2055556,59.72725 L19.325,59.72725 C19.075,59.72725 18.9222222,59.587 18.8583333,59.51275 L9.31944444,48.19925 C8.82222222,47.707 8.82222222,46.89025 9.31944444,46.38425 L9.58055556,46.13675 C9.81944444,45.90025 10.1444444,45.76275 10.4916667,45.76275 C10.8388889,45.76275 11.1666667,45.892 11.4027778,46.13675 C11.5027778,46.233 11.6222222,46.332 11.7416667,46.40625 L17.0694444,49.7585 C17.6638889,50.1325 18.425,50.1545 19.0527778,49.82175 C19.6833333,49.478 20.0638889,48.8345 20.0638889,48.125 L20.0638889,21.61225 C20.0638889,20.9055 20.65,20.33625 21.3555556,20.33625 L21.7111111,20.33625 C22.4277778,20.33625 23.0027778,20.9055 23.0027778,21.61225 L23.0027778,34.71875 C23.0027778,35.728 23.7833333,36.56675 24.8055556,36.652 C25.8583333,36.73725 26.725,36.0195 26.8888889,35.0185 C26.9861111,34.408 27.5277778,33.946 28.1694444,33.946 L28.5277778,33.946 C29.2416667,33.946 29.8166667,34.52625 29.8166667,35.22475 L29.8166667,38.467 C29.8166667,39.47625 30.6111111,40.315 31.6194444,40.40025 C32.6611111,40.48825 33.5388889,39.76775 33.6916667,38.7695 C33.8,38.093 34.3972222,37.49075 34.9722222,37.49075 L35.3305556,37.49075 C36.0472222,37.49075 36.6222222,38.06 36.6222222,38.7695 L36.6222222,41.701 C36.6222222,42.71025 37.4027778,43.549 38.4222222,43.63425 C39.4861111,43.71125 40.3416667,43.00175 40.5055556,42.00075 C40.6027778,41.39025 41.1555556,40.92825 41.7861111,40.92825 L42.1555556,40.92825 C42.7944444,40.92825 43.3277778,41.40125 43.4361111,42.00075 L38.9638889,58.35225 Z" id="Fill-1" sketch:type="MSShapeGroup"></path>
                <path d="M11.9888889,19.61575 C11.9888889,18.5515 11.1222222,17.6825 10.0361111,17.6825 L3.68888889,17.6825 C2.61388889,17.6825 1.73611111,18.5405 1.73611111,19.61575 C1.73611111,20.68 2.61388889,21.549 3.68888889,21.549 L10.0361111,21.549 C11.1111111,21.549 11.9888889,20.68 11.9888889,19.61575 L11.9888889,19.61575 Z" id="Fill-2" sketch:type="MSShapeGroup"></path>
                <path d="M21.6027778,11.869 C22.6777778,11.869 23.5555556,11 23.5555556,9.93575 L23.5555556,3.652 C23.5555556,2.58775 22.6777778,1.71875 21.6027778,1.71875 C20.5194444,1.71875 19.65,2.58775 19.65,3.652 L19.65,9.93575 C19.65,11 20.5305556,11.869 21.6027778,11.869 L21.6027778,11.869 Z" id="Fill-3" sketch:type="MSShapeGroup"></path>
                <path d="M13.15,14.59975 C13.5305556,14.97375 14.0305556,15.169 14.5277778,15.169 C15.0277778,15.169 15.5277778,14.97375 15.9083333,14.59975 C16.2861111,14.223 16.4833333,13.728 16.4833333,13.233 C16.4833333,12.74075 16.2861111,12.24575 15.9083333,11.869 L11.425,7.43325 C10.6666667,6.6825 9.43055556,6.6825 8.66944444,7.43325 C8.28888889,7.81 8.09444444,8.305 8.09444444,8.79725 C8.09444444,9.29225 8.28888889,9.78725 8.66944444,10.16125 L13.15,14.59975 Z" id="Fill-4" sketch:type="MSShapeGroup"></path>
                <path d="M31.0555556,19.61575 C31.0555556,20.68 31.9222222,21.549 33.0083333,21.549 L39.3555556,21.549 C40.4416667,21.549 41.3083333,20.68 41.3083333,19.61575 C41.3083333,18.5515 40.4416667,17.6825 39.3555556,17.6825 L33.0083333,17.6825 C31.9333333,17.6825 31.0555556,18.5405 31.0555556,19.61575 L31.0555556,19.61575 Z" id="Fill-5" sketch:type="MSShapeGroup"></path>
                <path d="M28.5166667,15.169 C29.0138889,15.169 29.5138889,14.98475 29.8944444,14.59975 L34.3861111,10.15025 C35.1444444,9.3995 35.1444444,8.17575 34.3861111,7.41125 C33.625,6.6605 32.3888889,6.6605 31.6305556,7.41125 L27.1388889,11.84975 C26.3777778,12.6005 26.3777778,13.82425 27.1388889,14.58875 C27.5055556,14.97375 28.0166667,15.169 28.5166667,15.169 L28.5166667,15.169 Z" id="Fill-6" sketch:type="MSShapeGroup"></path>
            </g>
        </g>
    </g>
</svg>