<?xml version="1.0" encoding="UTF-8" standalone="no"?>
<svg width="320px" height="855px" viewBox="0 0 320 855" version="1.1" xmlns="http://www.w3.org/2000/svg" xmlns:xlink="http://www.w3.org/1999/xlink" xmlns:sketch="http://www.bohemiancoding.com/sketch/ns">
    <!-- Generator: Sketch 3.4 (15588) - http://www.bohemiancoding.com/sketch -->
    <title>Mobile Portrait</title>
    <desc>Created with Sketch.</desc>
    <defs>
        <linearGradient x1="79.0396981%" y1="86.16491%" x2="19.508528%" y2="8.69499544%" id="linearGradient-1">
            <stop stop-color="#0070B6" offset="0%"></stop>
            <stop stop-color="#1D2C5E" offset="100%"></stop>
        </linearGradient>
        <linearGradient x1="38.8569566%" y1="65.3383439%" x2="94.123658%" y2="7.48713376%" id="linearGradient-2">
            <stop stop-color="#0070B6" offset="0%"></stop>
            <stop stop-color="#1D2C5E" offset="100%"></stop>
        </linearGradient>
        <linearGradient x1="54.1879975%" y1="89.4943124%" x2="30.0509392%" y2="8.08876534%" id="linearGradient-3">
            <stop stop-color="#0070B6" offset="0%"></stop>
            <stop stop-color="#1D2C5E" offset="100%"></stop>
        </linearGradient>
        <linearGradient x1="52.5988646%" y1="81.3150565%" x2="42.7768045%" y2="9.51102229%" id="linearGradient-4">
            <stop stop-color="#125D9E" offset="0%"></stop>
            <stop stop-color="#1D2C5E" offset="100%"></stop>
        </linearGradient>
        <linearGradient x1="188.443051%" y1="-3.40768095%" x2="81.8660543%" y2="37.8502488%" id="linearGradient-5">
            <stop stop-color="#125D9E" offset="0%"></stop>
            <stop stop-color="#1D2C5E" offset="100%"></stop>
        </linearGradient>
        <linearGradient x1="18.9578272%" y1="-35.6591446%" x2="45.9781711%" y2="41.2563299%" id="linearGradient-6">
            <stop stop-color="#105FA1" offset="0%"></stop>
            <stop stop-color="#1D2C5E" offset="100%"></stop>
        </linearGradient>
        <linearGradient x1="25.6959944%" y1="-5.95869899%" x2="48.2146752%" y2="43.973632%" id="linearGradient-7">
            <stop stop-color="#105FA1" offset="0%"></stop>
            <stop stop-color="#1D2C5E" offset="100%"></stop>
        </linearGradient>
        <linearGradient x1="0.00075334296%" y1="49.996416%" x2="99.9989328%" y2="49.996416%" id="linearGradient-8">
            <stop stop-color="#3C5AA6" offset="0%"></stop>
            <stop stop-color="#2B73B9" offset="93.31%"></stop>
            <stop stop-color="#2A75BB" offset="100%"></stop>
        </linearGradient>
        <linearGradient x1="0.000252123292%" y1="49.9998016%" x2="100.000339%" y2="49.9998016%" id="linearGradient-9">
            <stop stop-color="#3C5AA6" offset="0%"></stop>
            <stop stop-color="#2B73B9" offset="93.31%"></stop>
            <stop stop-color="#2A75BB" offset="100%"></stop>
        </linearGradient>
        <path id="path-10" d="M0,0 L62.9838272,0 L62.9838272,94.2585551 L0,94.2585551 L0,0 Z"></path>
    </defs>
    <g id="PokemonColor" stroke="none" stroke-width="1" fill="none" fill-rule="evenodd" sketch:type="MSPage">
        <g id="Mobile-Portrait" sketch:type="MSArtboardGroup">
            <rect id="Rectangle-2" fill="#F0EFEF" sketch:type="MSShapeGroup" x="0" y="205" width="320" height="425"></rect>
            <g id="English_PokeÌmon_logo" sketch:type="MSLayerGroup" transform="translate(74.000000, 13.000000)">
                <g id="Layer_1" sketch:type="MSShapeGroup">
                    <path d="M8.8817842e-16,24.03648 L7.70554815,37.02912 L10.7817444,34.09856 L2.39508889,21.6064 L8.8817842e-16,24.03648 Z" id="polygon16" fill="url(#linearGradient-1)"></path>
                    <path d="M114.409385,13.82528 L114.111441,15.53792 L117.796981,14.35008 L117.33757,12.25216 L114.409385,13.82528 Z" id="polygon18" fill="#0071B9"></path>
                    <path d="M92.9356,2.12864 L81.0767704,15.712 L84.5278,14.72064 L95.8182926,0.64 L92.9356,2.12864 Z" id="polygon25" fill="url(#linearGradient-2)"></path>
                    <path d="M156.376622,20.7008 L159.287507,19.15136 L158.455826,26.432 L156.376622,20.7008 Z" id="polygon27" fill="#1D2C5E"></path>
                    <path d="M138.284667,25.3696 L140.871978,25.89888 L144.174356,24.2976 L141.308322,23.22944 L138.284667,25.3696 Z" id="polygon29" fill="#1D2C5E"></path>
                    <path d="M49.0794593,17.63904 L49.4933778,26.07616 L53.1045926,24.61888 L52.023663,16.06144 L49.0794593,17.63904 Z" id="polygon36" fill="url(#linearGradient-3)"></path>
                    <path d="M141.084704,15.12128 L138.178304,16.688 L138.284667,25.3696 L141.210289,23.872 L142.12847,19.66976 L141.084704,15.12128 Z" id="polygon43" fill="url(#linearGradient-4)"></path>
                    <path d="M140.685522,25.9232 L137.485022,54.32 L142.601337,53.312 L143.603456,24.39168 L140.685522,25.9232 Z" id="polygon45" fill="#312370"></path>
                    <path d="M146.950685,55.68128 L147.04167,59.53216 L156.862944,62.65856 L159.786004,61.11104 L150.149263,53.65376 L140.387578,52.79744 L137.485022,54.32 L146.950685,55.68128 Z" id="polygon47" fill="#21386E"></path>
                    <path d="M110.516885,48.90816 L112.930556,47.6096 L114.468974,50.44864 L116.743604,49.2 L117.196607,52.94272 L131.474874,55.472 L134.328093,53.90464 L114.639411,41.92192 L100.672544,44.31296 L97.9481148,46.8992 L110.516885,48.90816 Z" id="polygon49" fill="#21386E"></path>
                    <path d="M105.970189,13.96992 L103.111844,15.54112 L97.9481148,46.8992 L100.840419,45.3984 L105.797189,27.79136 L105.970189,13.96992 Z" id="polygon56" fill="url(#linearGradient-5)"></path>
                    <path d="M83.1611,18.1728 L80.8839074,19.38432 L81.0754889,20.14272 L86.4948741,16.704 L84.1266963,14.16576 L81.0767704,15.712 L83.1611,18.1728 Z" id="polygon58" fill="#1D2C5E"></path>
                    <path d="M89.3871778,55.21408 L66.1026593,43.69344 L69.0257185,41.48608 L92.2846074,53.6512 L89.3871778,55.21408 Z" id="polygon60" fill="#21386E"></path>
                    <path d="M68.2907889,12.33728 L64.7622296,19.0208 L68.4907,17.89312 L71.1811704,10.7712 L68.2907889,12.33728 Z" id="polygon62" fill="#1D2C5E"></path>
                    <path d="M36.2870704,39.94816 L33.3101889,41.98912 C33.3101889,41.98912 33.9419593,45.30688 34.7563407,47.61472 C35.5752074,49.93088 37.5243407,51.79136 37.5243407,51.79136 C38.7763481,53.01376 40.3109222,53.90336 42.0229815,54.40256 C45.3157481,55.34912 49.0320444,54.73216 52.2222926,52.70016 C53.056537,52.1728 54.1887259,51.32864 54.8845704,50.6624 C51.7487852,52.5632 36.2870704,39.94816 36.2870704,39.94816 L36.2870704,39.94816 Z" id="path69" fill="url(#linearGradient-6)"></path>
                    <path d="M52.2178074,25.38816 L54.9345481,55.3248 L66.0347407,53.68448 L69.0045741,52.12992 L55.2292889,23.5936 L52.3952926,24.5472 L49.4933778,26.07616 L52.2178074,25.38816 Z" id="polygon71" fill="#1D2C5E"></path>
                    <path d="M10.6042593,35.78624 L23.006437,63.88096 L34.7890185,60.08448 L37.6659444,58.15296 L13.2101519,32.59456 L10.1499741,34.42624 L7.70554815,37.02912 L10.6042593,35.78624 Z" id="polygon78" fill="url(#linearGradient-7)"></path>
                    <path d="M133.518196,49.04128 L133.684789,50.42048 C134.699722,50.30656 135.765915,50.17536 136.67833,49.85088 C137.741959,49.48736 140.05247,48.45952 140.930926,47.7024 C140.601585,47.82208 135.187967,49.22368 133.518196,49.04128" id="path80" fill="#1D2C5E"></path>
                    <path d="M91.8322444,41.86752 L92.2743556,44.08832 C94.6591926,43.73376 96.7063593,42.85248 98.7189259,41.64416 C99.9818259,40.8928 101.368389,39.75936 101.806015,39.45728 C101.497178,39.6544 91.8322444,41.86752 91.8322444,41.86752 L91.8322444,41.86752 Z" id="path82" fill="#1D2C5E"></path>
                    <g id="g84" transform="translate(2.914730, 1.480960)" fill="#FFCB05">
                        <path d="M23.3159148,59.73632 L22.3951704,57.6928 L10.6362963,31.47904 L10.394737,30.94144 L9.86035926,31.18784 L9.50346667,31.35168 L7.41016667,32.37824 C7.10132963,31.86112 6.58873704,30.99456 6.23248519,30.3936 L1.49933333,22.40384 L0.261422222,20.31808 L2.30922963,19.02208 C4.24618889,17.78816 6.43367778,16.64832 8.81338889,15.63328 C13.5516667,13.61728 18.3879778,12.55104 22.7981963,12.55104 C24.2488333,12.55104 25.6526963,12.66816 26.9713407,12.89728 C29.1697222,13.14752 31.2027926,13.86816 32.8821741,14.9856 C35.3849074,16.38336 37.3551852,18.55168 38.4681519,21.1168 C39.3818481,23.22496 39.5599741,25.69408 38.979463,28.25536 L38.6385889,29.76 L39.8899556,28.85376 C40.7331704,28.24256 41.6494296,27.72032 42.6131037,27.30112 C44.2790296,26.59776 46.0026222,26.23872 47.7294185,26.23872 C49.3639481,26.23872 50.9094148,26.56192 52.3235296,27.19744 L53.2353037,27.60576 L53.1436778,26.61184 L52.7470593,22.3168 L52.6829852,21.63584 L52.0191778,21.808 L50.0271148,22.32384 L49.6779111,15.01056 L64.2701407,10.35392 L64.1522444,16.03776 L65.2511148,16.31936 L68.4381593,10.21888 L77.9832741,18.67456 L78.3811741,19.02848 L78.769463,18.66368 C80.0772148,17.43616 81.6271667,16.4512 83.3757481,15.73632 L84.1061926,15.43808 L83.6057741,14.82816 L81.8847444,12.7328 L92.8433333,0.11584 L98.5824481,8.66944 L89.7972519,13.38624 L87.8461963,14.43456 L90.061237,14.48128 C94.2260519,14.56896 97.9141556,16.32896 100.444441,19.43616 L101.359419,20.5632 L101.9489,21.28704 L100.969848,22.32512 L100.316933,23.0176 L98.1217556,25.35616 L97.7136037,25.79072 L98.1550741,26.1888 L100.212493,28.03904 L101.008293,28.75392 L101.17873,27.6992 L101.968122,22.81792 L102.169956,21.5648 L102.176363,21.57184 L102.383963,20.29184 L103.562285,13.08544 L114.081967,13.08544 L114.575337,13.08544 L114.658633,12.59968 L114.864311,11.36576 L124.337663,11.36576 L126.632796,25.8432 L126.782089,26.7808 L127.550978,26.22336 C128.480693,25.5488 129.5078,24.99392 130.604748,24.57472 C132.064996,24.02432 133.568174,23.74336 135.068789,23.74336 C136.855174,23.74336 138.589659,24.15552 140.089633,24.9344 C140.129359,24.9632 140.185744,25.00032 140.262633,25.03104 L140.974496,25.31648 L141.058433,24.5536 L141.230152,22.976 L141.286537,22.45888 L140.777148,22.3456 L138.856207,21.9168 L138.762659,14.36992 L153.40807,17.58976 L154.508222,23.02016 L155.645537,23.04256 L156.780289,18.36928 L168.992807,21.33568 L156.512459,58.9056 L147.581815,56.10432 L147.518381,52.64384 L147.509411,52.14784 L147.016681,52.07872 L138.105259,50.8224 L138.609522,46.29824 L138.729341,45.22176 L137.765026,45.7152 C137.308178,45.94752 136.866067,46.14272 136.448304,46.29632 C134.991259,46.84672 133.498974,47.12512 132.013096,47.12512 C131.583159,47.12512 131.1513,47.10144 130.730974,47.05408 L129.969774,46.96896 L130.088952,47.72416 L130.716237,51.70304 L117.714967,49.41248 L117.033859,43.50784 L116.814726,41.61536 L115.938833,43.30688 L114.442063,46.19008 L111.686237,41.10848 L110.857759,39.58208 L110.596337,41.29728 L109.995963,45.23072 L98.6010296,43.43936 L99.4846111,38.04096 L99.6864444,36.8032 L98.6093593,37.4464 C96.744163,38.5632 94.6021667,39.40352 92.0629111,40.016 C91.1754852,40.23232 90.2483333,40.38208 89.3045222,40.46016 L88.7701444,40.50496 L88.7701444,41.04064 L88.7701444,51.22816 L66.3294815,40.1504 L65.4862667,39.73504 L65.4869074,40.67392 L65.5022852,50.14848 L55.4689259,51.62496 L55.0473185,47.0752 L54.9332667,45.85792 L54.0586556,46.71424 C52.732963,48.01024 51.2393963,49.01504 49.6202444,49.70112 C47.9639296,50.40448 46.2550741,50.76032 44.5423741,50.76032 C42.832237,50.76032 41.2252593,50.4032 39.7656519,49.70496 C37.0617259,48.40576 35.1113111,46.04864 34.2745037,43.07456 C33.875963,41.67744 33.7676778,40.20224 33.9528519,38.688 L34.1508407,37.0752 L32.9731593,38.1952 C32.1427593,38.9824 31.2482852,39.7344 30.3128037,40.42496 L29.995637,40.65856 L30.0955926,41.03936 L33.4755,53.99808 L34.0726704,56.2976 L31.8095741,57.01632 L25.445737,59.05152 L23.3159148,59.73632 L23.3159148,59.73632 L23.3159148,59.73632 Z M26.172337,24.94848 C25.8442778,24.94848 25.5053259,24.97856 25.1638111,25.04 L24.7306704,25.1232 L24.0912111,25.24608 L24.2840741,25.86816 L24.4096593,26.27264 L26.229363,32.22016 L26.4113333,32.79168 L26.6817259,33.64928 L27.3545037,33.05152 L27.8011,32.65408 C29.5650593,31.07072 30.1833741,29.46304 29.8111037,27.43552 C29.5765926,26.21888 28.6334222,25.6128 28.0913556,25.35936 C27.5249407,25.08672 26.8765111,24.94848 26.172337,24.94848 L26.172337,24.94848 L26.172337,24.94848 Z M74.9551333,25.14368 L73.8178185,26.2496 L70.8223556,29.15712 L70.1700815,29.79008 L71.019063,30.11776 L74.231737,31.35616 L75.2184778,31.73568 L75.0147222,30.70016 C74.7494556,29.36256 74.6802556,28.02368 74.8045593,26.72128 L74.9551333,25.14368 L74.9551333,25.14368 L74.9551333,25.14368 Z M88.0364963,21.8368 C86.7941,21.8368 85.5920704,22.37056 84.737963,23.29984 C83.4423852,24.71296 83.1905741,26.79744 84.1119593,28.48576 L84.3560815,28.94336 L84.7488556,29.67488 L85.3018148,29.05664 L85.6574259,28.66304 L90.0516259,23.65184 L90.3969852,23.25504 L90.9512259,22.61888 L90.1605519,22.3264 L89.6678222,22.14464 C89.1507444,21.9424 88.5971444,21.8368 88.0364963,21.8368 L88.0364963,21.8368 L88.0364963,21.8368 Z" id="path86"></path>
                    </g>
                    <path id="path88" fill="#7D7F68" d="M97.673237,30.74048 C97.6309481,30.7776 97.591863,30.82496 97.5585444,30.8736 C97.6027556,30.83328 97.6456852,30.79808 97.6911778,30.76096 L97.673237,30.74048 L97.673237,30.74048 Z"></path>
                    <path d="M101.461937,27.2352 L103.656474,24.89664 L102.905526,25.6928 L102.927311,25.59232 L102.263504,26.29184 L100.070889,28.62336 L102.125104,30.46912 L102.497374,28.17024 L103.519996,29.0848 L101.461937,27.2352 Z" id="polygon90" fill="#7D7F68"></path>
                    <path d="M101.461937,27.2352 L103.519996,29.0848 L104.308107,24.20416 L103.656474,24.89664 L101.461937,27.2352 Z" id="polygon92" fill="#7D7F68"></path>
                    <path id="path94" fill="#7D7F68" d="M74.1433148,31.05408 L74.1953148,31.07608 L74.1433148,31.05408 L74.1433148,31.05408 Z"></path>
                    <path d="M86.2930407,33.08416 C86.4686037,33.26144 86.3064963,33.13408 86.5032037,33.26848 L87.8455556,32.3232 C87.6462852,32.1824 87.448937,32.03136 87.2676074,31.8624 C85.3197556,30.0896 85.8259407,26.1024 87.0894815,23.92 C83.7633963,26.60032 83.9363963,30.7264 86.2930407,33.08416" id="path96" fill="#C7A008"></path>
                    <path d="M102.497374,35.31648 C100.280411,37.14816 97.7533296,38.3424 94.4144296,39.14816 C93.6846259,39.3152 92.9695593,39.4368 92.2698704,39.49824 C86.9703037,40.01856 82.5242037,37.58784 80.8371333,33.64544 C80.6269704,33.168 80.464863,32.6848 80.3424815,32.16896 C79.5620593,28.84864 80.2284296,25.8816 81.8706481,23.55584 C82.0333963,23.33056 82.2044741,23.11488 82.3838815,22.89536 C82.2999444,22.96704 82.2140852,23.02848 82.1442444,23.09568 C81.5131148,23.65696 80.9543889,24.272 80.4796,24.944 C78.8354593,27.26976 78.1690889,30.23872 78.9565593,33.55392 C79.0770185,34.06976 79.236563,34.56 79.4422407,35.02656 C81.1299519,38.97792 85.5773333,41.40736 90.8724148,40.89088 C91.5778704,40.82304 92.2903741,40.70656 93.0208185,40.53056 C96.363563,39.7248 98.8887222,38.53568 101.105685,36.704 C101.647111,36.2592 102.169315,35.77408 102.676141,35.24352 L102.629367,35.19872 C102.578748,35.24224 102.540944,35.28 102.497374,35.31648" id="path98" fill="#C7A008"></path>
                    <path d="M65.149237,25.27936 L71.0703222,16.96832 L70.8300444,16.74688 L65.1172,24.76224 L65.149237,25.27936 Z" id="polygon100" fill="#C7A008"></path>
                    <path d="M104.308107,24.20416 L103.519996,29.0848 L102.497374,28.17024 L102.125104,30.46912 L100.070889,28.62336 L102.263504,26.29184 L102.927311,25.59232 L102.905526,25.6928 L103.656474,24.89664 L104.308107,24.20416 Z" id="polygon102" fill="#C7A008"></path>
                    <path d="M96.9914889,10.51456 L99.0649259,9.62624 L95.2749444,4.768 L94.0331889,6.50048 L96.9914889,10.51456 Z" id="polygon104" fill="#C7A008"></path>
                    <path d="M39.5881667,22.5504 C30.018063,10.9056 12.7738074,17.1648 6.57592222,22.61184 L6.81812222,23.02976 C8.24312963,22.21312 9.74566667,21.47456 11.3263741,20.81216 C17.4826111,18.1856 23.3517963,17.41568 28.0573963,18.23808 C29.7207593,18.4288 31.4827963,18.9216 33.0160889,19.94688 C35.138863,21.13408 36.747763,22.82304 37.6883704,24.98752 C39.3575,28.82112 37.887,33.91872 33.9560556,38.18624 C38.8865556,33.6672 42.2600556,29.34336 39.5881667,22.5504 L39.5881667,22.5504 Z" id="path106" fill="#C7A008"></path>
                    <path d="M59.1128185,36.11712 C59.0679667,35.90592 59.0231148,35.69152 58.9545556,35.4848 C58.4156926,33.5488 57.2578741,32.0032 55.7399593,30.97472 C53.2833593,29.30816 49.8541148,28.96576 46.4364037,30.40704 C44.6384852,31.18336 43.0750778,32.37824 41.8390889,33.80544 C42.7893074,32.9888 43.875363,32.30848 45.0485593,31.8016 C48.4585815,30.35584 51.8878259,30.6976 54.3527556,32.36224 C55.8706704,33.392 57.0188778,34.93696 57.5692741,36.8704 C57.6301444,37.07776 57.6775593,37.29536 57.7249741,37.5136 C57.871063,38.2496 57.9389815,38.99392 57.9107889,39.75616 C57.8396667,41.98464 57.0124704,44.22848 55.6368,46.14464 C55.4151037,46.448 55.1818741,46.73088 54.9403148,47.0112 C55.7233,46.336 56.4223481,45.58912 57.0195185,44.75264 C58.4009556,42.84864 59.2262296,40.60032 59.2992741,38.3584 C59.3300296,37.61024 59.2678778,36.85376 59.1128185,36.11712" id="path108" fill="#C7A008"></path>
                    <path d="M49.6894444,33.27488 C49.6759889,33.296 51.0779296,31.88736 51.0619111,31.88736 C49.3082037,31.8208 48.5668667,33.47264 48.5059963,33.60256 C48.8660926,33.42848 49.2633519,33.3152 49.6894444,33.27488" id="path110" fill="#C7A008"></path>
                    <path d="M52.992463,35.29408 C53.0635852,35.53152 53.1007481,35.76768 53.1007481,36.02624 C53.1007481,36.39104 53.0193741,36.74112 52.871363,37.06368 C53.1520074,36.91712 55.1799519,35.93472 54.393763,33.85344 C54.4360519,33.91744 52.9418444,35.28768 52.992463,35.29408" id="path112" fill="#C7A008"></path>
                    <path d="M45.0152407,36.45248 C45.0152407,35.59616 46.4831778,33.51872 46.9406667,32.8256 C44.6224667,34.2976 43.6241926,36.28416 43.6241926,37.84896 C43.6241926,40.52992 45.9827593,42.68608 48.8026593,42.68608 C50.1366815,42.68608 52.5798259,41.98144 54.1778333,39.3984 C53.3403852,39.9488 51.2118444,41.26592 50.0950333,41.26592 C47.2757741,41.26528 45.0152407,39.14816 45.0152407,36.45248" id="path114" fill="#C7A008"></path>
                    <path d="M64.860263,38.90624 L64.8967852,49.75744 L66.6210185,49.856 L66.2801444,37.48608 L64.860263,38.90624 Z" id="polygon116" fill="#C7A008"></path>
                    <path d="M54.9633815,18.24704 L54.9986222,19.21088 L63.1699889,16.7808 L63.7754889,27.1744 L65.1389852,25.26592 L64.8480889,14.83584 L54.9633815,18.24704 Z" id="polygon118" fill="#C7A008"></path>
                    <path d="M79.6645778,21.96864 L71.9891444,14.93248 L71.0703222,16.96832 L77.8256519,23.30752 L79.6645778,21.96864 Z" id="polygon120" fill="#C7A008"></path>
                    <path d="M78.4977889,35.08096 L69.4864111,32.10496 L68.1735333,33.48992 L77.1509519,37.0784 C78.1690889,38.99456 79.7119926,40.63616 81.6547185,41.83616 C83.5352926,42.98496 85.684337,43.67296 87.9602481,43.8912 L87.9602481,48.32 L89.351937,49.01376 L89.7921259,42.36032 L78.4977889,35.08096 L78.4977889,35.08096 Z" id="path122" fill="#C7A008"></path>
                    <path d="M92.9682778,33.82912 C95.1813963,33.296 96.4577519,32.14272 97.5566222,30.8736 C96.7319889,31.54944 92.5979296,32.44928 91.9033667,32.68416 L90.5417926,34.13248 C91.1639519,34.18752 92.2045148,34.01984 92.9682778,33.82912" id="path124" fill="#C7A008"></path>
                    <path d="M88.9431444,18.52352 C84.8622667,19.05728 82.7356481,22.47936 82.3838815,22.896 C83.8909037,21.62432 85.7798074,20.68032 87.9070667,20.17728 C92.9567444,18.95744 97.4092519,20.49536 100.161233,23.89376 L101.864322,22.45376 C99.1386111,19.11424 93.9915407,17.30752 88.9431444,18.52352" id="path126" fill="#C7A008"></path>
                    <path d="M102.630007,35.19872 C103.122096,34.78528 103.996707,34.36736 104.461885,33.88032 L98.9976481,29.00352 C98.5792444,29.50336 98.1999259,30.32704 97.6892556,30.76032 L102.630007,35.19872 L102.630007,35.19872 Z" id="path128" fill="#C7A008"></path>
                    <path d="M130.671385,48.26752 C124.938678,43.56096 125.281474,33.4688 128.095607,30.26688 L125.569807,14.44928 L120.045341,15.1616 L119.799296,16.55488 L123.979489,16.55488 L126.193248,30.90624 C123.376552,34.1184 122.015619,38.42176 122.956867,42.3616 C123.685389,45.40608 125.557633,47.87008 128.252589,49.29536 C128.523622,49.44384 128.803626,49.57312 129.090037,49.69536 L129.125919,49.90592 L130.769419,50.16512 C130.769419,50.16448 130.940496,48.40448 130.671385,48.26752 L130.671385,48.26752 Z" id="path130" fill="#C7A008"></path>
                    <path d="M108.637593,16.77696 L108.399878,18.17088 L114.700922,18.17088 L116.557148,28.33472 L117.955244,26.92416 L116.485385,16.19456 L108.637593,16.77696 Z" id="polygon132" fill="#C7A008"></path>
                    <path d="M119.424463,36.50816 L117.390111,41.75744 L117.893733,43.1232 L120.803337,35.12896 L119.424463,36.50816 Z" id="polygon134" fill="#C7A008"></path>
                    <path d="M113.382919,33.20192 L111.982259,34.59904 L110.481004,44.08 L111.918826,44.62848 L113.382919,33.20192 Z" id="polygon136" fill="#C7A008"></path>
                    <path d="M141.682515,30.17344 C142.507148,30.7616 143.210681,31.50592 143.739933,32.39104 C144.157696,33.07008 144.473581,33.8304 144.675415,34.66496 C145.361648,37.51488 144.540859,40.59712 142.726922,43.07008 C142.544311,43.32096 142.343119,43.56352 142.150896,43.8016 C142.887748,43.16864 151.837615,36.57472 143.093426,27.91424 C133.475907,24.74752 129.835219,31.01504 129.494985,31.41248 C130.5112,30.54976 131.683756,29.83616 132.953704,29.35104 C136.208667,28.11968 139.411089,28.54656 141.682515,30.17344" id="path138" fill="#C7A008"></path>
                    <path d="M136.83403,30.79808 C136.860941,30.85888 138.214826,29.3888 138.242378,29.3888 C136.530959,29.4592 135.708889,30.28416 135.793467,30.66496 C135.690948,30.8128 135.607652,30.95936 135.542296,31.12128 C135.907519,30.93952 136.582859,30.8 136.83403,30.79808" id="path140" fill="#C7A008"></path>
                    <path d="M140.05183,32.94656 C140.113341,33.17568 140.142815,33.41568 140.137689,33.6736 C140.122311,34.00384 140.036452,34.30656 139.910867,34.5888 C140.171007,34.47168 142.245085,33.82848 141.45313,31.5488 C141.473633,31.61344 140.029404,32.94784 140.05183,32.94656" id="path142" fill="#C7A008"></path>
                    <path d="M135.508337,40.18496 C137.444015,40.26752 139.58473,39.07968 141.119944,36.98048 C137.18067,37.78752 133.039563,31.2352 133.454763,30.59392 C131.966322,31.67168 130.648959,33.7504 130.58873,35.2032 C130.486211,37.89696 132.68203,40.07232 135.508337,40.18496" id="path144" fill="#C7A008"></path>
                    <path d="M157.095533,57.25696 L158.018841,57.87392 L169.288189,24.09152 L160.854119,22.14464 L160.748396,24.12352 L167.551781,25.63136 L157.095533,57.25696 Z" id="polygon146" fill="#C7A008"></path>
                    <path d="M143.712381,18.52352 L143.786067,20.41024 L152.753233,22.20928 L156.205544,38.5632 L157.603,37.15648 L154.314078,20.63424 L143.712381,18.52352 Z" id="polygon148" fill="#C7A008"></path>
                    <path d="M150.613159,37.15968 L148.144385,51.10656 L149.566189,51.56672 L152.017022,35.78624 L150.613159,37.15968 Z" id="polygon150" fill="#C7A008"></path>
                    <path d="M34.2443889,56.224 L30.0501,41.03488 L28.5148852,42.10752 L32.4022593,56.6592 L34.2443889,56.224 Z" id="polygon152" fill="#C7A008"></path>
                    <path d="M33.1557704,33.38368 C32.1882519,34.40896 30.0436926,36.40128 28.8218,37.1872 L28.0798222,34.80768 L26.4549037,29.5904 L25.4220296,26.05824 L24.4141444,27.3504 L25.4431741,30.88768 L27.0680926,36.10112 L27.8068667,38.48768 C29.4798407,37.4112 31.9133741,35.39072 33.1557704,33.38368" id="path154" fill="#C7A008"></path>
                    <path d="M92.5857556,24.40256 C91.2619852,23.89376 89.3871778,24.04672 88.3748074,25.15328 C88.1396556,25.40992 87.6821667,26.06464 87.5373593,26.35712 C88.5170519,25.57888 90.2617889,25.41056 91.4055111,25.82272 L92.5857556,24.40256 L92.5857556,24.40256 Z" id="path156" fill="#7D7F68"></path>
                    <path d="M31.9454111,29.11552 C31.7967593,28.33472 31.0310741,27.71456 30.6556,27.5424 C29.9841037,27.21856 28.8224407,27.168 27.9741,27.32224 C28.1265963,27.84832 28.3015185,28.46528 28.3758444,28.71808 C28.7199222,28.76608 29.2850556,28.86848 29.5817185,29.00352 C29.9539889,29.18272 30.6049815,29.60512 30.7561963,30.39104 C30.9586704,31.44 30.9054889,32.42048 30.467863,33.21664 C31.6679704,32.04032 32.2504037,30.76096 31.9454111,29.11552" id="path158" fill="#7D7F68"></path>
                    <g id="g160" transform="translate(25.340656, 25.160960)" fill="#3C5AA6">
                        <g id="g162">
                            <path d="M8.70638519,3.9328 C8.13035926,0.84544 4.08856667,-0.85632 0.0813740741,1.32672 L1.11424815,4.86016 L2.73916667,10.08192 L3.4805037,12.46016 C6.48685926,10.52928 9.50859259,8.20928 8.70638519,3.9328 L8.70638519,3.9328 Z M4.7261037,8.68032 C4.28847778,7.25376 3.32864815,4.17344 3.32864815,4.17344 C3.33313333,4.18752 3.13962963,3.51424 2.91024444,2.74368 C3.75986667,2.592 4.57617037,2.65344 5.24766667,2.976 C5.62314074,3.15456 6.2831037,3.5712 6.42727037,4.36096 C6.75917407,6.13632 6.16008148,7.40352 4.7261037,8.68032 L4.7261037,8.68032 Z" id="path164"></path>
                        </g>
                    </g>
                    <g id="g166" transform="translate(84.929544, 22.600960)" fill="#3567B0">
                        <g id="g168">
                            <path d="M9.7539963,1.59424 C7.51396667,-0.45824 4.03218148,-0.29888 1.98885926,1.93664 C-0.066637037,4.16832 0.0948296296,7.648 2.33806296,9.69216 C2.52067407,9.86816 2.71802222,10.01216 2.91665185,10.1536 L10.1422852,1.98016 C10.0147778,1.84704 9.88662963,1.71456 9.7539963,1.59424 L9.7539963,1.59424 Z M2.93138889,7.34336 C2.22465185,6.04736 2.36753704,4.40192 3.42411852,3.24864 C4.44033333,2.14272 5.99733333,1.82784 7.32494815,2.3392 L2.93138889,7.34336 L2.93138889,7.34336 Z" id="path170"></path>
                        </g>
                    </g>
                    <path d="M104.338222,23.29792 L100.336796,27.1488 L104.138311,30.55872 L104.338222,23.29792 Z" id="polygon172" fill="#1E2D5F"></path>
                    <path d="M141.442237,31.5488 C141.503107,31.79136 141.534504,32.03136 141.526815,32.28672 C141.460178,33.81376 140.022996,34.99264 138.309656,34.91264 C136.597596,34.85376 135.252681,33.55584 135.319959,32.03264 C135.377626,30.6048 136.651419,29.47456 138.224437,29.40224 C137.925852,29.33504 137.613811,29.29984 137.288315,29.28832 C134.422281,29.1648 132.079733,31.19232 131.981059,33.71648 C131.870852,36.416 134.037196,38.61696 136.857737,38.7392 C139.727615,38.85376 142.068881,36.8192 142.182933,34.13248 C142.216252,33.20128 141.940733,32.30848 141.442237,31.5488" id="path174" fill="#3466AF"></path>
                    <path d="M54.4969222,34.63168 C54.4969222,36.16512 53.1007481,37.39392 51.3906111,37.39392 C49.6759889,37.39392 48.2849407,36.16448 48.2849407,34.63168 C48.2849407,33.20256 49.5087556,32.02432 51.0772889,31.88736 C50.7767815,31.83296 50.4641,31.8016 50.1411667,31.8016 C47.2757741,31.8016 45.0152407,33.92448 45.0152407,36.45248 C45.0152407,39.15008 47.2764148,41.26592 50.0950333,41.26592 C52.9629889,41.26592 55.2216,39.1488 55.2216,36.45248 C55.2216,35.51872 54.912763,34.63872 54.3815889,33.91424 C54.4533519,34.13248 54.4969222,34.3744 54.4969222,34.63168" id="path183" fill="url(#linearGradient-8)"></path>
                    <g id="g185" transform="translate(2.273989, 0.200960)" fill="url(#linearGradient-9)">
                        <g id="g187">
                            <path d="M156.994296,18.94272 L155.721785,24.18112 L154.546667,18.3808 L138.810715,14.92096 L138.920922,23.6608 L141.292304,24.192 L141.121226,25.76832 C141.09047,25.75616 141.071248,25.7376 141.054589,25.72416 C138.11487,24.17472 134.470337,24.016 131.040452,25.31008 C129.889681,25.74976 128.821567,26.32768 127.852767,27.0304 L125.478822,12.06208 L115.013604,12.06208 L114.72527,13.78304 L103.710296,13.78304 L102.452522,21.47776 L101.538826,20.35072 C98.8695,17.0752 95.0000667,15.27104 90.7135111,15.18144 L100.065763,10.16064 L93.5443037,0.43968 L81.7617222,14.00064 L83.7954333,16.47744 C81.9533037,17.22944 80.343763,18.26624 79.0103815,19.51872 L68.9078222,10.56576 L65.3754185,17.328 L65.5112556,10.82944 L49.7163556,15.86944 L50.1213037,24.3456 L52.8085704,23.64928 L53.2058296,27.94496 C50.1354,26.56768 46.4447333,26.6016 43.0218963,28.04608 C42.0076037,28.48768 41.0618704,29.0304 40.190463,29.66144 C40.7825074,27.04448 40.6421852,24.46464 39.6439111,22.16384 C38.4649481,19.44512 36.3902296,17.19808 33.8464889,15.78048 C32.0633074,14.59392 29.9379704,13.85472 27.7139593,13.6032 C22.2484407,12.64896 15.6853333,13.6288 9.22602593,16.3776 C6.85144074,17.38944 4.6364,18.5376 2.63857037,19.80864 L0.113411111,21.408 L1.63837407,23.98016 L6.37088519,31.96928 C6.37088519,31.96928 7.81895926,34.41728 7.82857037,34.416 L10.3876889,33.15968 L10.7445815,32.99584 L22.5040963,59.21088 L23.6382074,61.73056 L26.263963,60.88576 L32.6265185,58.84992 L35.4150222,57.9648 L34.6794519,55.1296 L31.3001852,42.1728 C32.2721889,41.45408 33.1794778,40.69184 34.0169259,39.89376 C33.8279074,41.44192 33.9272222,43.00928 34.3539556,44.50944 C35.237537,47.65056 37.2968778,50.13184 40.1545815,51.50656 C43.2410296,52.98816 47.006663,52.992 50.4903704,51.51616 C52.2376704,50.77568 53.7914667,49.69536 55.1081889,48.4096 L55.5881037,53.56992 L66.7305852,51.93088 L66.7132852,41.95136 L89.9958815,53.44512 L89.9958815,42.31616 C90.9300815,42.23808 91.8835037,42.09088 92.8420519,41.856 C95.4062963,41.23712 97.6008333,40.38848 99.5506074,39.22176 L98.572837,45.19872 L111.12623,47.17184 L111.815026,42.65984 L115.093696,48.70976 L117.097933,44.85248 L117.8303,51.18592 L132.063074,53.69216 L131.308281,48.90944 C133.256774,49.1296 135.310348,48.86848 137.294081,48.12096 C137.763744,47.94752 138.227641,47.73632 138.671674,47.50976 L138.104619,52.5984 L147.57733,53.93344 L147.647811,57.81376 L157.52547,60.91072 L170.385778,22.19392 L156.994296,18.94272 L156.994296,18.94272 Z M101.382485,24.69632 L102.0354,24.0032 L101.246648,28.88448 L99.1892296,27.0336 L101.382485,24.69632 L101.382485,24.69632 Z M93.0413222,4.75648 L96.4897889,9.43552 L86.6307111,14.31744 L85.9496037,13.28384 L93.0413222,4.75648 L93.0413222,4.75648 Z M27.7568889,40.83776 L31.6903963,55.91296 L25.3239963,57.94432 L12.2599333,28.80256 C11.5493519,29.17568 10.2371148,29.8016 9.03188148,30.39168 L4.30129259,22.4096 C6.18250741,21.2096 8.24569259,20.14592 10.4402296,19.21984 C16.5990296,16.60352 22.475263,15.82272 27.1750963,16.65216 C28.8378185,16.83904 30.5979333,17.32864 32.1395556,18.35072 C34.2546407,19.54048 35.8725111,21.23392 36.8054296,23.39072 C39.0807,28.64256 35.2798259,36.20032 27.7568889,40.83776 L27.7568889,40.83776 Z M57.0265667,38.15488 C56.9535222,40.39936 56.1282481,42.64832 54.7468111,44.55104 C53.4326519,46.39104 51.5969296,47.90976 49.4369926,48.8384 C43.9138074,51.17568 38.3906222,48.8384 36.9149963,43.60064 C35.4855037,38.53632 38.8115889,32.50752 44.1630556,30.2048 C47.5807667,28.76352 51.0100111,29.10528 53.4666111,30.77248 C54.9838852,31.80032 56.141063,33.34592 56.6812074,35.28256 C56.7491259,35.488 56.7939778,35.70368 56.8394704,35.91488 C56.9938889,36.6528 57.0560407,37.40928 57.0265667,38.15488 L57.0265667,38.15488 Z M87.0779481,48.8128 L63.9760407,37.27168 L64.0170481,49.36384 L58.0408593,50.17792 L57.6243778,45.1936 C59.4697111,42.03328 60.1444111,38.30912 59.1813778,34.89408 C58.6527667,33.01696 57.6762778,31.38752 56.3493037,30.08192 L55.4919926,19.91936 L52.8085704,20.6144 L52.6900333,18.0448 L62.2870481,15.1904 L62.8752481,25.07712 L69.9451815,15.1552 L76.8568519,21.72992 L67.1912778,31.9008 L76.2718556,35.48864 C77.2861481,37.40864 78.833537,39.04 80.7749815,40.24192 C82.6517111,41.39904 84.802037,42.0832 87.0766667,42.30784 L87.0779481,48.8128 L87.0779481,48.8128 L87.0779481,48.8128 Z M75.0826407,32.09216 L71.8693259,30.85376 L74.8647889,27.9456 C74.7366407,29.28064 74.802637,30.67648 75.0826407,32.09216 L75.0826407,32.09216 Z M100.223385,35.11552 C98.0064222,36.9472 95.4793407,38.14144 92.1404407,38.9472 C91.410637,39.11424 90.6955704,39.23584 89.9958815,39.29728 C84.6963148,39.8176 80.2502148,37.38688 78.5631444,33.44448 C78.3529815,32.96704 78.1908741,32.48384 78.0684926,31.968 C77.2880704,28.64768 77.9544407,25.68 79.5966593,23.35488 C80.0695259,22.67648 80.6308148,22.05824 81.2613037,21.50144 C82.8080519,20.12288 84.7828148,19.12064 87.0279704,18.58176 C92.0763667,17.36576 96.5224667,18.90496 99.2481778,22.24576 L89.6280963,32.4736 C90.2803704,32.59648 91.3177296,32.4256 92.0834148,32.24256 C94.3747037,31.68448 95.6568259,30.46976 96.7864519,29.14624 L100.630896,32.60096 L101.795763,33.65184 C101.290859,34.17344 100.760326,34.6656 100.223385,35.11552 L100.223385,35.11552 Z M120.6329,48.7648 L118.540241,34.9184 L115.580659,42.5568 L111.149296,33.00992 L111.099319,33.00992 L109.348174,44.06592 L101.962356,42.78208 L103.000996,36.61248 C103.279719,36.35072 103.553956,36.08832 103.823707,35.8112 L106.217515,33.34912 L103.890985,31.26784 L106.362963,16.57536 L113.814778,16.57536 L115.679974,26.74624 L117.77007,14.95936 L123.100393,14.95936 L125.31223,29.31968 C122.497456,32.52224 121.130115,36.82752 122.070722,40.76608 C122.797963,43.81952 124.676615,46.2784 127.369648,47.71456 C127.640681,47.85088 127.921326,47.98592 128.210941,48.1024 L128.492867,49.96416 L120.6329,48.7648 L120.6329,48.7648 Z M139.038178,44.25344 C138.223796,44.83264 137.3274,45.3248 136.363726,45.68 C134.461367,46.40384 132.569259,46.55424 130.88347,46.21952 C129.708352,45.98784 128.637033,45.53024 127.704756,44.86784 C126.222081,43.79648 125.130259,42.2144 124.649063,40.22784 C124.087774,37.84128 124.604852,35.2928 125.890178,33.06048 C126.530919,31.96928 127.352989,30.944 128.325633,30.06016 C129.410407,29.08864 130.668181,28.29312 132.067559,27.75552 C135.324444,26.54208 138.536478,26.96064 140.797652,28.58432 C141.629333,29.17312 142.319411,29.92256 142.8634,30.7936 C143.276037,31.4816 143.596407,32.24 143.790552,33.06816 C144.483193,35.93408 143.658559,39.00352 141.848467,41.47648 C141.07317,42.53056 140.128078,43.47776 139.038178,44.25344 L139.038178,44.25344 Z M155.668604,57.30432 L150.20693,55.67936 L149.730859,35.56672 L146.984004,51.08224 L141.025756,50.13248 L141.452489,45.66528 C145.343067,42.38144 147.405611,37.20128 146.275344,32.50688 C145.77877,30.42816 144.708733,28.61824 143.20043,27.24224 L143.703411,21.97376 L141.450567,21.37472 L141.601141,18.56192 L151.866448,20.62272 L155.318119,36.97216 L158.858211,22.31424 L166.667559,24.03776 L155.668604,57.30432 L155.668604,57.30432 Z" id="path196"></path>
                        </g>
                    </g>
                    <g id="flowRoot3115" transform="translate(161.768840, 57.664946)" fill="#000000">
                        <path d="M0.661896185,1.74648223 L0.661896185,0.228112767 L0.0940526904,0.228112767 L0.0940526904,0.0249593316 L1.46016727,0.0249593316 L1.46016727,0.228112767 L0.889976217,0.228112767 L0.889976217,1.74648223 L0.661896185,1.74648223 Z" id="path3084"></path>
                        <path d="M1.6882473,1.74648223 L1.6882473,0.0249593316 L2.03153811,0.0249593316 L2.43948902,1.24388175 C2.4771101,1.35739792 2.5045464,1.44233889 2.52178588,1.49870526 C2.54134884,1.43607576 2.57192725,1.34408944 2.61349102,1.22274451 L3.02614306,0.0249593316 L3.33299259,0.0249593316 L3.33299259,1.74648223 L3.11314104,1.74648223 L3.11314104,0.305616984 L2.61231122,1.74648223 L2.4065751,1.74648223 L1.90809283,0.28095647 L1.90809283,1.74648223 L1.6882473,1.74648223 Z" id="path3086"></path>
                    </g>
                </g>
            </g>
            <rect id="Rectangle-1" fill="#F0F0F0" sketch:type="MSShapeGroup" x="0" y="88" width="321" height="34"></rect>
            <text id="ABcdefghijklmnopqrst" sketch:type="MSTextLayer" font-family="annone" font-size="20" font-weight="normal" sketch:alignment="middle" fill="#000000">
                <tspan x="8.1875" y="112">ABcdefghijklmnopqrstuvwxyz</tspan>
            </text>
            <circle id="Oval-1" fill="#FFCB05" sketch:type="MSShapeGroup" cx="228" cy="204" r="67"></circle>
            <g id="H" sketch:type="MSLayerGroup" transform="translate(181.000000, 158.000000)">
                <path d="M46.958042,44.5428304 C45.8258554,44.5428304 44.9079015,45.4571082 44.9079015,46.5847606 C44.9079015,47.712413 45.8258554,48.6266908 46.958042,48.6266908 C48.0902285,48.6266908 49.0081825,47.712413 49.0081825,46.5847606 C49.0081825,45.4571082 48.0902285,44.5428304 46.958042,44.5428304" id="Fill-1" fill="#3367B0" sketch:type="MSShapeGroup"></path>
                <path d="M46.958042,44.5428304 C45.8258554,44.5428304 44.9079015,45.4571082 44.9079015,46.5847606 C44.9079015,47.712413 45.8258554,48.6266908 46.958042,48.6266908 C48.0902285,48.6266908 49.0081825,47.712413 49.0081825,46.5847606 C49.0081825,45.4571082 48.0902285,44.5428304 46.958042,44.5428304 L46.958042,44.5428304 Z" id="Stroke-3" stroke="#3169B1" stroke-width="2.7607362" sketch:type="MSShapeGroup"></path>
                <path d="M46.958042,58.1780274 C40.4730714,58.1780274 35.2155019,52.9419441 35.2155019,46.4825132 C35.2155019,40.0235134 40.4730714,34.7869991 46.958042,34.7869991 C53.4430125,34.7869991 58.700582,40.0235134 58.700582,46.4825132 C58.700582,52.9419441 53.4430125,58.1780274 46.958042,58.1780274 M50.8531791,0.0901346017 L50.8531791,3.96665527 C72.1379395,5.87668119 88.9342035,23.2807201 89.786373,44.7694816 L62.4420776,44.7694816 C61.5855802,37.0056638 54.9815916,30.9643609 46.958042,30.9643609 C38.9344923,30.9643609 32.3305037,37.0056638 31.4740063,44.7694816 L4.12971093,44.7694816 C4.98188038,23.2807201 21.7781444,5.87668119 43.0629048,3.96665527 L43.0629048,0.0901346017 C19.0710241,2.06223313 0.216396507,22.0780633 0.216396507,46.4825132 C0.216396507,70.8873942 19.0710241,90.9032244 43.0629048,92.8748918 L43.0629048,88.9983712 C21.8456601,87.0943801 5.08704908,69.7946576 4.13750121,48.3998672 L31.4999739,48.3998672 C32.449089,56.0649723 39.0054703,62.0006656 46.958042,62.0006656 C54.9106136,62.0006656 61.4669949,56.0649723 62.41611,48.3998672 L89.7785827,48.3998672 C88.8290348,69.7946576 72.0704238,87.0943801 50.8531791,88.9983712 L50.8531791,92.8748918 C74.8450598,90.9032244 93.6996874,70.8873942 93.6996874,46.4825132 C93.6996874,22.0780633 74.8450598,2.06223313 50.8531791,0.0901346017" id="Fill-5" fill="#3A5DA8" sketch:type="MSShapeGroup"></path>
                <path d="M46.958042,58.1780274 C40.4730714,58.1780274 35.2155019,52.9419441 35.2155019,46.4825132 C35.2155019,40.0235134 40.4730714,34.7869991 46.958042,34.7869991 C53.4430125,34.7869991 58.700582,40.0235134 58.700582,46.4825132 C58.700582,52.9419441 53.4430125,58.1780274 46.958042,58.1780274 L46.958042,58.1780274 Z M50.8531791,0.0901346017 L50.8531791,3.96665527 C72.1379395,5.87668119 88.9342035,23.2807201 89.786373,44.7694816 L62.4420776,44.7694816 C61.5855802,37.0056638 54.9815916,30.9643609 46.958042,30.9643609 C38.9344923,30.9643609 32.3305037,37.0056638 31.4740063,44.7694816 L4.12971093,44.7694816 C4.98188038,23.2807201 21.7781444,5.87668119 43.0629048,3.96665527 L43.0629048,0.0901346017 C19.0710241,2.06223313 0.216396507,22.0780633 0.216396507,46.4825132 C0.216396507,70.8873942 19.0710241,90.9032244 43.0629048,92.8748918 L43.0629048,88.9983712 C21.8456601,87.0943801 5.08704908,69.7946576 4.13750121,48.3998672 L31.4999739,48.3998672 C32.449089,56.0649723 39.0054703,62.0006656 46.958042,62.0006656 C54.9106136,62.0006656 61.4669949,56.0649723 62.41611,48.3998672 L89.7785827,48.3998672 C88.8290348,69.7946576 72.0704238,87.0943801 50.8531791,88.9983712 L50.8531791,92.8748918 C74.8450598,90.9032244 93.6996874,70.8873942 93.6996874,46.4825132 C93.6996874,22.0780633 74.8450598,2.06223313 50.8531791,0.0901346017 L50.8531791,0.0901346017 Z" id="Stroke-7" stroke="#385FAA" stroke-width="2.7607362" sketch:type="MSShapeGroup"></path>
            </g>
            <text id=".H-{" sketch:type="MSTextLayer" font-family="Monaco" font-size="10" font-weight="normal" fill="#21386E">
                <tspan x="53" y="301">.H {</tspan>
                <tspan x="53" y="314.834961">	position: relative;</tspan>
                <tspan x="53" y="328.669922">	height: 150px;</tspan>
                <tspan x="53" y="342.504883">	width: 150px;</tspan>
                <tspan x="53" y="356.339844">	border:5px solid black;</tspan>
                <tspan x="53" y="370.174805">	border-radius: 50%;}</tspan>
                <tspan x="53" y="384.009766"></tspan>
                <tspan x="53" y="398.009766">.H:before {</tspan>
                <tspan x="53" y="411.844727">	position: absolute;</tspan>
                <tspan x="53" y="425.679688">	content: '';</tspan>
                <tspan x="53" y="439.514648">	height: 75px;</tspan>
                <tspan x="53" y="453.349609">	width: 150px;</tspan>
                <tspan x="53" y="467.18457">	border-bottom:5px solid black;}</tspan>
                <tspan x="53" y="481.019531"></tspan>
                <tspan x="53" y="495.019531">.H:after{</tspan>
                <tspan x="53" y="508.854492">	position: absolute;</tspan>
                <tspan x="53" y="522.689453">	content: '';</tspan>
                <tspan x="53" y="536.524414">	height: 160px;</tspan>
                <tspan x="53" y="550.359375">	width: 10px;</tspan>
                <tspan x="53" y="564.194336">	left: 70px;</tspan>
                <tspan x="53" y="578.029297">	top: -5px;</tspan>
                <tspan x="53" y="591.864258">	background: white;}</tspan>
            </text>
            <g id="Oval-1-Copy-3-+-D" sketch:type="MSLayerGroup" transform="translate(26.000000, 681.000000)">
                <circle id="Oval-1-Copy-3" fill="#FFCB05" sketch:type="MSShapeGroup" cx="67" cy="67" r="67"></circle>
                <g id="D" transform="translate(47.893536, 19.870722)">
                    <path d="M15.8545496,0.217185611 L15.8545496,4.11697044 C39.6120492,4.11697044 58.8712004,23.3761217 58.8712004,47.1336213 C58.8712004,70.8911209 39.6120492,90.1502721 15.8545496,90.1502721 L15.8545496,94.0413695 C41.7634899,94.0413695 62.7666416,73.0382178 62.7666416,47.1292776 C62.7666416,21.2203373 41.7634899,0.217185611 15.8545496,0.217185611" id="Fill-1" fill="#385EA9" sketch:type="MSShapeGroup"></path>
                    <path d="M15.8545496,0.217185611 L15.8545496,4.11697044 C39.6120492,4.11697044 58.8712004,23.3761217 58.8712004,47.1336213 C58.8712004,70.8911209 39.6120492,90.1502721 15.8545496,90.1502721 L15.8545496,94.0413695 C41.7634899,94.0413695 62.7666416,73.0382178 62.7666416,47.1292776 C62.7666416,21.2203373 41.7634899,0.217185611 15.8545496,0.217185611 L15.8545496,0.217185611 Z" id="Stroke-3" stroke="#385FAA" sketch:type="MSShapeGroup"></path>
                    <path d="M15.8545496,58.9145507 C9.34593121,58.9145507 4.06918961,53.6382435 4.06918961,47.1291907 C4.06918961,40.6205723 9.34593121,35.3438307 15.8545496,35.3438307 C22.363168,35.3438307 27.6399096,40.6205723 27.6399096,47.1291907 C27.6399096,53.6382435 22.363168,58.9145507 15.8545496,58.9145507 M15.8545496,31.4918267 C7.21838096,31.4918267 0.217185611,38.4930221 0.217185611,47.1291907 C0.217185611,55.7653593 7.21838096,62.7665547 15.8545496,62.7665547 C24.4907182,62.7665547 31.4919136,55.7653593 31.4919136,47.1291907 C31.4919136,38.4930221 24.4907182,31.4918267 15.8545496,31.4918267" id="Fill-5" fill="#385EA9" sketch:type="MSShapeGroup"></path>
                    <path d="M15.8545496,58.9145507 C9.34593121,58.9145507 4.06918961,53.6382435 4.06918961,47.1291907 C4.06918961,40.6205723 9.34593121,35.3438307 15.8545496,35.3438307 C22.363168,35.3438307 27.6399096,40.6205723 27.6399096,47.1291907 C27.6399096,53.6382435 22.363168,58.9145507 15.8545496,58.9145507 L15.8545496,58.9145507 Z M15.8545496,31.4918267 C7.21838096,31.4918267 0.217185611,38.4930221 0.217185611,47.1291907 C0.217185611,55.7653593 7.21838096,62.7665547 15.8545496,62.7665547 C24.4907182,62.7665547 31.4919136,55.7653593 31.4919136,47.1291907 C31.4919136,38.4930221 24.4907182,31.4918267 15.8545496,31.4918267 L15.8545496,31.4918267 Z" id="Stroke-7" stroke="#385FAA" sketch:type="MSShapeGroup"></path>
                    <path d="M17.8092201,47.1062125 C17.8092201,48.1856249 16.9339621,49.060883 15.8545496,49.060883 C14.7751371,49.060883 13.8998791,48.1856249 13.8998791,47.1062125 C13.8998791,46.0268 14.7751371,45.151542 15.8545496,45.151542 C16.9339621,45.151542 17.8092201,46.0268 17.8092201,47.1062125" id="Fill-9" fill="#385EA9" sketch:type="MSShapeGroup"></path>
                    <path d="M17.8092201,47.1062125 C17.8092201,48.1856249 16.9339621,49.060883 15.8545496,49.060883 C14.7751371,49.060883 13.8998791,48.1856249 13.8998791,47.1062125 C13.8998791,46.0268 14.7751371,45.151542 15.8545496,45.151542 C16.9339621,45.151542 17.8092201,46.0268 17.8092201,47.1062125 L17.8092201,47.1062125 Z" id="Stroke-11" stroke="#385FAA" sketch:type="MSShapeGroup"></path>
                    <mask id="mask-11" sketch:name="Clip 14" fill="white">
                        <use xlink:href="#path-10"></use>
                    </mask>
                    <g id="Clip-14"></g>
                    <path d="M17.8092201,0.217185611 L13.8998791,0.217185611 L13.8998791,31.4919136 L17.8092201,31.4919136 L17.8092201,0.217185611 Z" id="Fill-13" fill="#385EA9" sketch:type="MSShapeGroup" mask="url(#mask-11)"></path>
                    <path d="M17.8092201,0.217185611 L13.8998791,0.217185611 L13.8998791,31.4919136 L17.8092201,31.4919136 L17.8092201,0.217185611 Z" id="Stroke-15" stroke="#385FAA" sketch:type="MSShapeGroup" mask="url(#mask-11)"></path>
                </g>
            </g>
            <g id="Oval-1-Copy-2-+-O" sketch:type="MSLayerGroup" transform="translate(170.000000, 681.000000)">
                <circle id="Oval-1-Copy-2" fill="#FFCB05" sketch:type="MSShapeGroup" cx="67" cy="67" r="67"></circle>
                <g id="O" transform="translate(19.870722, 19.870722)" sketch:type="MSShapeGroup">
                    <path d="M47.1292776,45.071748 C45.9929625,45.071748 45.0716611,45.9930493 45.0716611,47.1293644 C45.0716611,48.2656796 45.9929625,49.1869809 47.1292776,49.1869809 C48.2655927,49.1869809 49.186894,48.2656796 49.186894,47.1293644 C49.186894,45.9930493 48.2655927,45.071748 47.1292776,45.071748" id="Fill-1" fill="#385FAA"></path>
                    <path d="M47.1292776,45.071748 C45.9929625,45.071748 45.0716611,45.9930493 45.0716611,47.1293644 C45.0716611,48.2656796 45.9929625,49.1869809 47.1292776,49.1869809 C48.2655927,49.1869809 49.186894,48.2656796 49.186894,47.1293644 C49.186894,45.9930493 48.2655927,45.071748 47.1292776,45.071748 L47.1292776,45.071748 Z" id="Stroke-3" stroke="#385FAA"></path>
                    <path d="M49.0839481,90.1043156 L49.0839481,62.6407608 C56.7970779,61.6781941 62.7666416,55.103117 62.7666416,47.1293644 C62.7666416,38.4931958 55.7654462,31.4920005 47.1292776,31.4920005 C38.4931089,31.4920005 31.4919136,38.4931958 31.4919136,47.1293644 C31.4919136,55.103117 37.4614773,61.6781941 45.1746071,62.6407608 L45.1746071,90.1043156 C22.3223371,89.0822402 4.10828302,70.2340041 4.10828302,47.1293644 C4.10828302,23.3692586 23.3691717,4.10793552 47.1292776,4.10793552 C70.8893834,4.10793552 90.1502721,23.3692586 90.1502721,47.1293644 C90.1502721,70.2340041 71.936218,89.0822402 49.0839481,90.1043156 M35.3439176,47.1293644 C35.3439176,40.6203117 40.6206592,35.3440045 47.1292776,35.3440045 C53.637896,35.3440045 58.9146376,40.6203117 58.9146376,47.1293644 C58.9146376,53.6379828 53.637896,58.9147244 47.1292776,58.9147244 C40.6206592,58.9147244 35.3439176,53.6379828 35.3439176,47.1293644 M47.1292776,0.217272485 C21.2203373,0.217272485 0.217185611,21.2204242 0.217185611,47.1293644 C0.217185611,73.0383047 21.2203373,94.0414564 47.1292776,94.0414564 C73.0382178,94.0414564 94.0413695,73.0383047 94.0413695,47.1293644 C94.0413695,21.2204242 73.0382178,0.217272485 47.1292776,0.217272485" id="Fill-5" fill="#395DA8"></path>
                    <path d="M49.0839481,90.1043156 L49.0839481,62.6407608 C56.7970779,61.6781941 62.7666416,55.103117 62.7666416,47.1293644 C62.7666416,38.4931958 55.7654462,31.4920005 47.1292776,31.4920005 C38.4931089,31.4920005 31.4919136,38.4931958 31.4919136,47.1293644 C31.4919136,55.103117 37.4614773,61.6781941 45.1746071,62.6407608 L45.1746071,90.1043156 C22.3223371,89.0822402 4.10828302,70.2340041 4.10828302,47.1293644 C4.10828302,23.3692586 23.3691717,4.10793552 47.1292776,4.10793552 C70.8893834,4.10793552 90.1502721,23.3692586 90.1502721,47.1293644 C90.1502721,70.2340041 71.936218,89.0822402 49.0839481,90.1043156 L49.0839481,90.1043156 Z M35.3439176,47.1293644 C35.3439176,40.6203117 40.6206592,35.3440045 47.1292776,35.3440045 C53.637896,35.3440045 58.9146376,40.6203117 58.9146376,47.1293644 C58.9146376,53.6379828 53.637896,58.9147244 47.1292776,58.9147244 C40.6206592,58.9147244 35.3439176,53.6379828 35.3439176,47.1293644 L35.3439176,47.1293644 Z M47.1292776,0.217272485 C21.2203373,0.217272485 0.217185611,21.2204242 0.217185611,47.1293644 C0.217185611,73.0383047 21.2203373,94.0414564 47.1292776,94.0414564 C73.0382178,94.0414564 94.0413695,73.0383047 94.0413695,47.1293644 C94.0413695,21.2204242 73.0382178,0.217272485 47.1292776,0.217272485 L47.1292776,0.217272485 Z" id="Stroke-7" stroke="#385EA9"></path>
                </g>
            </g>
        </g>
    </g>
</svg>