<?xml version="1.0" encoding="UTF-8" standalone="no"?>
<svg width="320px" height="1024px" viewBox="0 0 320 1024" version="1.1" xmlns="http://www.w3.org/2000/svg" xmlns:xlink="http://www.w3.org/1999/xlink" xmlns:sketch="http://www.bohemiancoding.com/sketch/ns">
    <!-- Generator: Sketch 3.4 (15588) - http://www.bohemiancoding.com/sketch -->
    <title>Mobile Portrait</title>
    <desc>Created with Sketch.</desc>
    <defs></defs>
    <g id="Black-and-White-" stroke="none" stroke-width="1" fill="none" fill-rule="evenodd" sketch:type="MSPage">
        <g id="Mobile-Portrait" sketch:type="MSArtboardGroup">
            <path d="M181.5625,1000.75 C181.5625,1000.54167 181.637369,1000.35938 181.787109,1000.20312 C181.93685,1000.04687 182.122395,999.96875 182.34375,999.96875 C182.552084,999.96875 182.734374,1000.04687 182.890625,1000.20312 C183.046876,1000.35938 183.125,1000.54167 183.125,1000.75 C183.125,1000.97136 183.046876,1001.1569 182.890625,1001.30664 C182.734374,1001.45638 182.552084,1001.53125 182.34375,1001.53125 C182.122395,1001.53125 181.93685,1001.45638 181.787109,1001.30664 C181.637369,1001.1569 181.5625,1000.97136 181.5625,1000.75 L181.5625,1000.75 Z M180,1000.75 C180,1001.40104 180.227862,1001.95442 180.683594,1002.41016 C181.139325,1002.86589 181.692705,1003.09375 182.34375,1003.09375 C182.981774,1003.09375 183.531899,1002.86589 183.994141,1002.41016 C184.456383,1001.95442 184.6875,1001.40104 184.6875,1000.75 C184.6875,1000.11198 184.456383,999.561851 183.994141,999.099609 C183.531899,998.637367 182.981774,998.40625 182.34375,998.40625 C181.692705,998.40625 181.139325,998.637367 180.683594,999.099609 C180.227862,999.561851 180,1000.11198 180,1000.75 L180,1000.75 Z M178.828125,1000.75 C178.828125,999.786454 179.169918,998.959639 179.853516,998.269531 C180.537113,997.579424 181.367183,997.234375 182.34375,997.234375 C183.307296,997.234375 184.134111,997.579424 184.824219,998.269531 C185.514326,998.959639 185.859375,999.786454 185.859375,1000.75 C185.859375,1001.72657 185.729168,1002.3776 185.46875,1002.70312 L186.25,1003.48438 C187.031254,1003.05469 187.421875,1002.14324 187.421875,1000.75 C187.838544,1000.125 188.229165,1000.125 188.59375,1000.75 C188.59375,1002.46876 187.978522,1003.9401 186.748047,1005.16406 C185.517572,1006.38803 184.049488,1007 182.34375,1007 C180.624991,1007 179.153652,1006.38803 177.929688,1005.16406 C176.705723,1003.9401 176.09375,1002.46876 176.09375,1000.75 C176.458335,1000.125 176.848956,1000.125 177.265625,1000.75 C177.265625,1002.14324 177.656246,1003.05469 178.4375,1003.48438 L179.21875,1002.70312 C178.958332,1002.3776 178.828125,1001.72657 178.828125,1000.75 L178.828125,1000.75 Z M179.21875,1004.65625 C179.908858,1005.4375 180.6901,1005.82812 181.5625,1005.82812 L181.5625,1004.26562 C181.106769,1004.26562 180.58594,1004.00521 180,1003.48438 L179.21875,1004.65625 Z M184.6875,1003.48438 C184.088539,1004.00521 183.567711,1004.26562 183.125,1004.26562 L183.125,1005.82812 C184.218755,1005.56771 184.999998,1005.17709 185.46875,1004.65625 L184.6875,1003.48438 Z M195.625,1000.75 C195.625,1000.54167 195.699869,1000.35938 195.849609,1000.20312 C195.99935,1000.04687 196.184895,999.96875 196.40625,999.96875 C196.614584,999.96875 196.796874,1000.04687 196.953125,1000.20312 C197.109376,1000.35938 197.1875,1000.54167 197.1875,1000.75 C197.1875,1000.97136 197.109376,1001.1569 196.953125,1001.30664 C196.796874,1001.45638 196.614584,1001.53125 196.40625,1001.53125 C196.184895,1001.53125 195.99935,1001.45638 195.849609,1001.30664 C195.699869,1001.1569 195.625,1000.97136 195.625,1000.75 L195.625,1000.75 Z M194.0625,1000.75 C194.0625,1001.40104 194.290362,1001.95442 194.746094,1002.41016 C195.201825,1002.86589 195.755205,1003.09375 196.40625,1003.09375 C197.044274,1003.09375 197.594399,1002.86589 198.056641,1002.41016 C198.518883,1001.95442 198.75,1001.40104 198.75,1000.75 C198.75,1000.11198 198.518883,999.561851 198.056641,999.099609 C197.594399,998.637367 197.044274,998.40625 196.40625,998.40625 C195.755205,998.40625 195.201825,998.637367 194.746094,999.099609 C194.290362,999.561851 194.0625,1000.11198 194.0625,1000.75 L194.0625,1000.75 Z M192.890625,1000.75 C192.890625,999.786454 193.020832,999.135418 193.28125,998.796875 L192.109375,996.84375 L191.328125,1006.60938 C191.015623,1006.86979 190.690106,1006.88281 190.351562,1006.64844 C190.013019,1006.41406 189.947916,1006.01042 190.15625,1005.4375 L190.9375,996.0625 C190.9375,994.968745 191.328121,994.447916 192.109375,994.5 L194.453125,997.625 C194.778647,997.364582 195.429683,997.234375 196.40625,997.234375 C197.369796,997.234375 198.196611,997.579424 198.886719,998.269531 C199.576826,998.959639 199.921875,999.786454 199.921875,1000.75 C199.921875,1001.72657 199.791668,1002.3776 199.53125,1002.70312 L200.839844,1004.55859 L201.484375,994.753906 C201.783856,994.493488 202.106118,994.477212 202.451172,994.705078 C202.796226,994.932944 202.864584,995.33333 202.65625,995.90625 L202.03125,1005.32031 C202.044271,1006.41407 201.66016,1006.94141 200.878906,1006.90234 L198.359375,1003.875 C198.020832,1004.13542 197.369796,1004.26562 196.40625,1004.26562 C195.429683,1004.26562 194.599613,1003.92383 193.916016,1003.24023 C193.232418,1002.55664 192.890625,1001.72657 192.890625,1000.75 L192.890625,1000.75 Z M210,1000.75 C210,1000.54167 210.074869,1000.35938 210.224609,1000.20312 C210.37435,1000.04687 210.559895,999.96875 210.78125,999.96875 C210.989584,999.96875 211.171874,1000.04687 211.328125,1000.20312 C211.484376,1000.35938 211.5625,1000.54167 211.5625,1000.75 C211.5625,1000.97136 211.484376,1001.1569 211.328125,1001.30664 C211.171874,1001.45638 210.989584,1001.53125 210.78125,1001.53125 C210.559895,1001.53125 210.37435,1001.45638 210.224609,1001.30664 C210.074869,1001.1569 210,1000.97136 210,1000.75 L210,1000.75 Z M208.4375,1000.75 C208.4375,1001.40104 208.665362,1001.95442 209.121094,1002.41016 C209.576825,1002.86589 210.130205,1003.09375 210.78125,1003.09375 C211.419274,1003.09375 211.969399,1002.86589 212.431641,1002.41016 C212.893883,1001.95442 213.125,1001.40104 213.125,1000.75 C213.125,1000.11198 212.893883,999.561851 212.431641,999.099609 C211.969399,998.637367 211.419274,998.40625 210.78125,998.40625 C210.130205,998.40625 209.576825,998.637367 209.121094,999.099609 C208.665362,999.561851 208.4375,1000.11198 208.4375,1000.75 L208.4375,1000.75 Z M207.265625,1000.75 C207.265625,999.786454 207.607418,998.959639 208.291016,998.269531 C208.974613,997.579424 209.804683,997.234375 210.78125,997.234375 C211.744796,997.234375 212.571611,997.579424 213.261719,998.269531 C213.951826,998.959639 214.296875,999.786454 214.296875,1000.75 C214.296875,1001.72657 213.951826,1002.55664 213.261719,1003.24023 C212.571611,1003.92383 212.005211,1004.26562 211.5625,1004.26562 L211.5625,1005.82812 C212.421879,1005.82812 213.35286,1005.33008 214.355469,1004.33398 C215.358078,1003.33789 215.859375,1002.14324 215.859375,1000.75 C215.859375,999.369785 215.358078,998.17839 214.355469,997.175781 C213.35286,996.173172 212.161465,995.671875 210.78125,995.671875 C209.388014,995.671875 208.193364,996.173172 207.197266,997.175781 C206.201167,998.17839 205.703125,999.369785 205.703125,1000.75 C205.703125,1002.14324 206.201167,1003.33789 207.197266,1004.33398 C208.193364,1005.33008 209.1276,1005.82812 210,1005.82812 L210,1004.26562 C209.544269,1004.26562 208.974613,1003.92383 208.291016,1003.24023 C207.607418,1002.55664 207.265625,1001.72657 207.265625,1000.75 L207.265625,1000.75 Z M204.53125,1000.75 C204.53125,999.044262 205.143223,997.576178 206.367188,996.345703 C207.591152,995.115228 209.062491,994.5 210.78125,994.5 C212.486988,994.5 213.955072,995.115228 215.185547,996.345703 C216.416022,997.576178 217.03125,999.044262 217.03125,1000.75 C217.03125,1002.46876 216.416022,1003.9401 215.185547,1005.16406 C213.955072,1006.38803 212.486988,1007 210.78125,1007 C209.062491,1007 207.591152,1006.38803 206.367188,1005.16406 C205.143223,1003.9401 204.53125,1002.46876 204.53125,1000.75 L204.53125,1000.75 Z M222.890625,1003.48438 C222.890625,1003.27604 222.965494,1003.09375 223.115234,1002.9375 C223.264975,1002.78125 223.45052,1002.70312 223.671875,1002.70312 C223.880209,1002.70312 224.062499,1002.78125 224.21875,1002.9375 C224.375001,1003.09375 224.453125,1003.27604 224.453125,1003.48438 C224.453125,1003.70573 224.375001,1003.89128 224.21875,1004.04102 C224.062499,1004.19076 223.880209,1004.26562 223.671875,1004.26562 C223.45052,1004.26562 223.264975,1004.19076 223.115234,1004.04102 C222.965494,1003.89128 222.890625,1003.70573 222.890625,1003.48438 L222.890625,1003.48438 Z M221.328125,1003.48438 C221.328125,1004.13542 221.555987,1004.6888 222.011719,1005.14453 C222.46745,1005.60026 223.02083,1005.82812 223.671875,1005.82812 C224.309899,1005.82812 224.860024,1005.60026 225.322266,1005.14453 C225.784508,1004.6888 226.015625,1004.13542 226.015625,1003.48438 C226.015625,1002.84635 225.784508,1002.29623 225.322266,1001.83398 C224.860024,1001.37174 224.309899,1001.14062 223.671875,1001.14062 C223.02083,1001.14062 222.46745,1001.37174 222.011719,1001.83398 C221.555987,1002.29623 221.328125,1002.84635 221.328125,1003.48438 L221.328125,1003.48438 Z M220.15625,1003.48438 C220.15625,1002.52083 220.312498,1001.94792 220.625,1001.76562 C219.270827,1000.98437 218.59375,999.734384 218.59375,998.015625 C219.114586,997.07812 219.635414,997.07812 220.15625,998.015625 C220.052083,999.005213 220.572911,999.916663 221.71875,1000.75 C222.044272,1000.22916 222.434894,999.96875 222.890625,999.96875 L222.890625,995.671875 C223.359377,994.890621 223.880205,994.890621 224.453125,995.671875 L224.453125,999.96875 C224.895836,999.96875 225.416664,1000.22916 226.015625,1000.75 C226.901046,999.916663 227.291667,999.005213 227.1875,998.015625 C227.708336,997.07812 228.229164,997.07812 228.75,998.015625 C228.75,999.734384 228.125006,1001.01041 226.875,1001.84375 C227.083334,1001.97396 227.1875,1002.52083 227.1875,1003.48438 C227.1875,1004.46094 226.842451,1005.29101 226.152344,1005.97461 C225.462236,1006.65821 224.635421,1007 223.671875,1007 C222.695308,1007 221.865238,1006.65821 221.181641,1005.97461 C220.498043,1005.29101 220.15625,1004.46094 220.15625,1003.48438 L220.15625,1003.48438 Z M235.78125,1000.75 C235.78125,1000.54167 235.856119,1000.35938 236.005859,1000.20312 C236.1556,1000.04687 236.341145,999.96875 236.5625,999.96875 C236.770834,999.96875 236.953124,1000.04687 237.109375,1000.20312 C237.265626,1000.35938 237.34375,1000.54167 237.34375,1000.75 C237.34375,1000.97136 237.265626,1001.1569 237.109375,1001.30664 C236.953124,1001.45638 236.770834,1001.53125 236.5625,1001.53125 C236.341145,1001.53125 236.1556,1001.45638 236.005859,1001.30664 C235.856119,1001.1569 235.78125,1000.97136 235.78125,1000.75 L235.78125,1000.75 Z M234.21875,1000.75 C234.21875,1001.40104 234.446612,1001.95442 234.902344,1002.41016 C235.358075,1002.86589 235.911455,1003.09375 236.5625,1003.09375 C237.200524,1003.09375 237.750649,1002.86589 238.212891,1002.41016 C238.675133,1001.95442 238.90625,1001.40104 238.90625,1000.75 C238.90625,1000.11198 238.675133,999.561851 238.212891,999.099609 C237.750649,998.637367 237.200524,998.40625 236.5625,998.40625 C235.911455,998.40625 235.358075,998.637367 234.902344,999.099609 C234.446612,999.561851 234.21875,1000.11198 234.21875,1000.75 L234.21875,1000.75 Z M233.046875,1000.75 C233.046875,999.786454 233.177082,999.135418 233.4375,998.796875 L232.265625,996.84375 L231.484375,1006.60938 C231.171873,1006.86979 230.846356,1006.88281 230.507812,1006.64844 C230.169269,1006.41406 230.104166,1006.01042 230.3125,1005.4375 L231.09375,996.0625 C231.09375,994.968745 231.484371,994.447916 232.265625,994.5 L234.609375,997.625 C234.934897,997.364582 235.585933,997.234375 236.5625,997.234375 C237.526046,997.234375 238.352861,997.579424 239.042969,998.269531 C239.733076,998.959639 240.078125,999.786454 240.078125,1000.75 C240.078125,1001.72657 239.947918,1002.3776 239.6875,1002.70312 L240.996094,1004.55859 L241.640625,994.753906 C241.940106,994.493488 242.262368,994.477212 242.607422,994.705078 C242.952476,994.932944 243.020834,995.33333 242.8125,995.90625 L242.1875,1005.32031 C242.200521,1006.41407 241.81641,1006.94141 241.035156,1006.90234 L238.515625,1003.875 C238.177082,1004.13542 237.526046,1004.26562 236.5625,1004.26562 C235.585933,1004.26562 234.755863,1003.92383 234.072266,1003.24023 C233.388668,1002.55664 233.046875,1001.72657 233.046875,1000.75 L233.046875,1000.75 Z M258.59375,999.578125 C258.59375,999.369791 258.668619,999.187501 258.818359,999.03125 C258.9681,998.874999 259.153645,998.796875 259.375,998.796875 C259.583334,998.796875 259.765624,998.874999 259.921875,999.03125 C260.078126,999.187501 260.15625,999.369791 260.15625,999.578125 C260.15625,999.79948 260.078126,999.985025 259.921875,1000.13477 C259.765624,1000.28451 259.583334,1000.35938 259.375,1000.35938 C259.153645,1000.35938 258.9681,1000.28451 258.818359,1000.13477 C258.668619,999.985025 258.59375,999.79948 258.59375,999.578125 L258.59375,999.578125 Z M257.03125,999.578125 C257.03125,1000.22917 257.259112,1000.78255 257.714844,1001.23828 C258.170575,1001.69401 258.723955,1001.92188 259.375,1001.92188 C260.013024,1001.92188 260.563149,1001.69401 261.025391,1001.23828 C261.487633,1000.78255 261.71875,1000.22917 261.71875,999.578125 C261.71875,998.940101 261.487633,998.389976 261.025391,997.927734 C260.563149,997.465492 260.013024,997.234375 259.375,997.234375 C258.723955,997.234375 258.170575,997.465492 257.714844,997.927734 C257.259112,998.389976 257.03125,998.940101 257.03125,999.578125 L257.03125,999.578125 Z M255.859375,999.578125 C255.859375,998.614579 256.067706,997.885419 256.484375,997.390625 L255.390625,996.453125 C254.609371,995.984373 254.58333,995.411462 255.3125,994.734375 C256.302088,993.79687 257.395827,993.328125 258.59375,993.328125 C258.645834,992.130202 258.867186,991.609374 259.257812,991.765625 C259.648439,991.921876 259.817709,992.572911 259.765625,993.71875 C259.817709,994.239586 259.687502,994.5 259.375,994.5 C257.981764,994.5 256.940108,994.890621 256.25,995.671875 L257.421875,996.84375 C257.747397,996.322914 258.398433,996.0625 259.375,996.0625 C260.338546,996.0625 261.165361,996.407549 261.855469,997.097656 C262.545576,997.787764 262.890625,998.614579 262.890625,999.578125 C262.890625,1000.55469 262.630211,1001.20573 262.109375,1001.53125 L263.28125,1002.70312 C264.01042,1003.17188 264.01042,1003.69271 263.28125,1004.26562 C262.382808,1005.3073 261.341152,1005.82812 260.15625,1005.82812 C260.104166,1006.71355 259.895835,1007.18229 259.53125,1007.23438 C259.166665,1007.28646 258.984375,1006.68751 258.984375,1005.4375 C258.880208,1004.91666 259.010415,1004.65625 259.375,1004.65625 C260.755215,1004.65625 261.796871,1004.26563 262.5,1003.48438 L261.328125,1002.3125 C260.989582,1002.83334 260.338546,1003.09375 259.375,1003.09375 C258.398433,1003.09375 257.568363,1002.75196 256.884766,1002.06836 C256.201168,1001.38476 255.859375,1000.55469 255.859375,999.578125 L255.859375,999.578125 Z M266.09375,996.492188 C266.09375,995.541662 266.438799,994.711592 267.128906,994.001953 C267.819014,993.292314 268.385414,992.9375 268.828125,992.9375 L269.21875,991.375 C269.531252,990.906248 269.791666,990.906248 270,991.375 L270.390625,992.9375 C270.846356,992.9375 271.429033,993.292314 272.138672,994.001953 C272.848311,994.711592 273.203125,995.541662 273.203125,996.492188 C273.203125,997.481776 272.786462,998.380204 271.953125,999.1875 L273.90625,1006.21875 C273.593748,1007.15625 273.07292,1007.28646 272.34375,1006.60938 L271.5625,1003.48438 C270.26041,1004.42188 268.95834,1004.42188 267.65625,1003.48438 L266.875,1006.60938 C266.093746,1007.28646 265.572918,1007.15625 265.3125,1006.21875 L267.421875,999.34375 C266.536454,998.432287 266.09375,997.481776 266.09375,996.492188 L266.09375,996.492188 Z M267.265625,996.453125 C267.265625,997.10417 267.493487,997.65755 267.949219,998.113281 C268.40495,998.569013 268.95833,998.796875 269.609375,998.796875 C270.247399,998.796875 270.797524,998.569013 271.259766,998.113281 C271.722008,997.65755 271.953125,997.10417 271.953125,996.453125 C271.953125,995.815101 271.722008,995.264976 271.259766,994.802734 C270.797524,994.340492 270.247399,994.109375 269.609375,994.109375 C268.95833,994.109375 268.40495,994.340492 267.949219,994.802734 C267.493487,995.264976 267.265625,995.815101 267.265625,996.453125 L267.265625,996.453125 Z M268.828125,996.453125 C268.828125,996.244791 268.902994,996.062501 269.052734,995.90625 C269.202475,995.749999 269.38802,995.671875 269.609375,995.671875 C269.817709,995.671875 269.999999,995.749999 270.15625,995.90625 C270.312501,996.062501 270.390625,996.244791 270.390625,996.453125 C270.390625,996.67448 270.312501,996.860025 270.15625,997.009766 C269.999999,997.159506 269.817709,997.234375 269.609375,997.234375 C269.38802,997.234375 269.202475,997.159506 269.052734,997.009766 C268.902994,996.860025 268.828125,996.67448 268.828125,996.453125 L268.828125,996.453125 Z M268.4375,1001.53125 C268.4375,1001.85677 268.551431,1002.13346 268.779297,1002.36133 C269.007163,1002.58919 269.283853,1002.70312 269.609375,1002.70312 C269.921877,1002.70312 270.195311,1002.58919 270.429688,1002.36133 C270.664064,1002.13346 270.78125,1001.85677 270.78125,1001.53125 C270.78125,1001.21875 270.664064,1000.94531 270.429688,1000.71094 C270.195311,1000.47656 269.921877,1000.35938 269.609375,1000.35938 C269.283853,1000.35938 269.007163,1000.47656 268.779297,1000.71094 C268.551431,1000.94531 268.4375,1001.21875 268.4375,1001.53125 L268.4375,1001.53125 Z M281.015625,1000.75 C281.015625,1000.54167 281.090494,1000.35938 281.240234,1000.20312 C281.389975,1000.04687 281.57552,999.96875 281.796875,999.96875 C282.005209,999.96875 282.187499,1000.04687 282.34375,1000.20312 C282.500001,1000.35938 282.578125,1000.54167 282.578125,1000.75 C282.578125,1000.97136 282.500001,1001.1569 282.34375,1001.30664 C282.187499,1001.45638 282.005209,1001.53125 281.796875,1001.53125 C281.57552,1001.53125 281.389975,1001.45638 281.240234,1001.30664 C281.090494,1001.1569 281.015625,1000.97136 281.015625,1000.75 L281.015625,1000.75 Z M279.453125,1000.75 C279.453125,1001.40104 279.680987,1001.95442 280.136719,1002.41016 C280.59245,1002.86589 281.14583,1003.09375 281.796875,1003.09375 C282.434899,1003.09375 282.985024,1002.86589 283.447266,1002.41016 C283.909508,1001.95442 284.140625,1001.40104 284.140625,1000.75 C284.140625,1000.11198 283.909508,999.561851 283.447266,999.099609 C282.985024,998.637367 282.434899,998.40625 281.796875,998.40625 C281.14583,998.40625 280.59245,998.637367 280.136719,999.099609 C279.680987,999.561851 279.453125,1000.11198 279.453125,1000.75 L279.453125,1000.75 Z M278.28125,1000.75 C278.28125,999.786454 278.411457,999.135418 278.671875,998.796875 L277.5,996.84375 L276.71875,1006.60938 C276.406248,1006.86979 276.080731,1006.88281 275.742188,1006.64844 C275.403644,1006.41406 275.338541,1006.01042 275.546875,1005.4375 L276.328125,996.0625 C276.328125,994.968745 276.718746,994.447916 277.5,994.5 L279.84375,997.625 C280.169272,997.364582 280.820308,997.234375 281.796875,997.234375 C282.760421,997.234375 283.587236,997.579424 284.277344,998.269531 C284.967451,998.959639 285.3125,999.786454 285.3125,1000.75 C285.3125,1001.72657 285.182293,1002.3776 284.921875,1002.70312 L286.230469,1004.55859 L286.875,994.753906 C287.174481,994.493488 287.496743,994.477212 287.841797,994.705078 C288.186851,994.932944 288.255209,995.33333 288.046875,995.90625 L287.421875,1005.32031 C287.434896,1006.41407 287.050785,1006.94141 286.269531,1006.90234 L283.75,1003.875 C283.411457,1004.13542 282.760421,1004.26562 281.796875,1004.26562 C280.820308,1004.26562 279.990238,1003.92383 279.306641,1003.24023 C278.623043,1002.55664 278.28125,1001.72657 278.28125,1000.75 L278.28125,1000.75 Z M293.828125,999.578125 C293.828125,999.369791 293.902994,999.187501 294.052734,999.03125 C294.202475,998.874999 294.38802,998.796875 294.609375,998.796875 C294.817709,998.796875 294.999999,998.874999 295.15625,999.03125 C295.312501,999.187501 295.390625,999.369791 295.390625,999.578125 C295.390625,999.79948 295.312501,999.985025 295.15625,1000.13477 C294.999999,1000.28451 294.817709,1000.35938 294.609375,1000.35938 C294.38802,1000.35938 294.202475,1000.28451 294.052734,1000.13477 C293.902994,999.985025 293.828125,999.79948 293.828125,999.578125 L293.828125,999.578125 Z M292.265625,999.578125 C292.265625,1000.22917 292.493487,1000.78255 292.949219,1001.23828 C293.40495,1001.69401 293.95833,1001.92188 294.609375,1001.92188 C295.247399,1001.92188 295.797524,1001.69401 296.259766,1001.23828 C296.722008,1000.78255 296.953125,1000.22917 296.953125,999.578125 C296.953125,998.940101 296.722008,998.389976 296.259766,997.927734 C295.797524,997.465492 295.247399,997.234375 294.609375,997.234375 C293.95833,997.234375 293.40495,997.465492 292.949219,997.927734 C292.493487,998.389976 292.265625,998.940101 292.265625,999.578125 L292.265625,999.578125 Z M291.09375,999.578125 C291.09375,998.614579 291.302081,997.885419 291.71875,997.390625 L290.625,996.453125 C289.843746,995.984373 289.817705,995.411462 290.546875,994.734375 C291.536463,993.79687 292.630202,993.328125 293.828125,993.328125 C293.880209,992.130202 294.101561,991.609374 294.492188,991.765625 C294.882814,991.921876 295.052084,992.572911 295,993.71875 C295.052084,994.239586 294.921877,994.5 294.609375,994.5 C293.216139,994.5 292.174483,994.890621 291.484375,995.671875 L292.65625,996.84375 C292.981772,996.322914 293.632808,996.0625 294.609375,996.0625 C295.572921,996.0625 296.399736,996.407549 297.089844,997.097656 C297.779951,997.787764 298.125,998.614579 298.125,999.578125 C298.125,1000.55469 297.864586,1001.20573 297.34375,1001.53125 L298.515625,1002.70312 C299.244795,1003.17188 299.244795,1003.69271 298.515625,1004.26562 C297.617183,1005.3073 296.575527,1005.82812 295.390625,1005.82812 C295.338541,1006.71355 295.13021,1007.18229 294.765625,1007.23438 C294.40104,1007.28646 294.21875,1006.68751 294.21875,1005.4375 C294.114583,1004.91666 294.24479,1004.65625 294.609375,1004.65625 C295.98959,1004.65625 297.031246,1004.26563 297.734375,1003.48438 L296.5625,1002.3125 C296.223957,1002.83334 295.572921,1003.09375 294.609375,1003.09375 C293.632808,1003.09375 292.802738,1002.75196 292.119141,1002.06836 C291.435543,1001.38476 291.09375,1000.55469 291.09375,999.578125 L291.09375,999.578125 Z" id="unown-Sans" fill="#9B9B9B" sketch:type="MSShapeGroup"></path>
            <g id="Menu" sketch:type="MSLayerGroup" transform="translate(-3.000000, 21.000000)">
                <path d="M0.499615431,20 L325.533615,20" id="Line" stroke="#D8D8D8" stroke-linecap="square" sketch:type="MSShapeGroup"></path>
                <g id="Pokeball" transform="translate(143.000000, 0.000000)" sketch:type="MSShapeGroup">
                    <circle id="Oval-1" fill="#D8D8D8" cx="20" cy="20" r="20"></circle>
                    <path d="M0.273972603,20 L39.7260274,20" id="Line" stroke="#FFFFFF" stroke-linecap="square"></path>
                    <circle id="Oval-1-Copy" stroke="#FFFFFF" fill="#D8D8D8" cx="20" cy="20" r="5.75342466"></circle>
                </g>
                <path d="M28.392,2.78 L27.006,2.78 L27.006,12.122 C27.006,13.094 26.682,13.904 26.034,14.57 C25.404,15.236 24.612,15.56 23.694,15.56 C22.74,15.56 21.948,15.2 21.318,14.498 C20.688,13.778 20.382,12.896 20.382,11.852 L20.382,2.78 L19.014,2.78 L19.014,12.104 C19.014,13.454 19.464,14.606 20.346,15.524 C21.228,16.442 22.326,16.892 23.622,16.91 C24.936,16.928 26.07,16.496 26.988,15.578 C27.924,14.66 28.392,13.508 28.392,12.158 L28.392,2.78 Z M38.922,10.808 C38.922,9.476 38.49,8.378 37.626,7.496 C36.762,6.614 35.682,6.164 34.386,6.164 C33.072,6.164 31.992,6.614 31.128,7.496 C30.264,8.378 29.832,9.476 29.832,10.808 L29.832,16.658 L31.218,16.658 L31.218,10.664 C31.218,9.8 31.524,9.062 32.154,8.432 C32.784,7.802 33.54,7.496 34.386,7.496 C35.232,7.496 35.952,7.802 36.582,8.432 C37.212,9.062 37.536,9.8 37.536,10.664 L37.536,16.658 L38.922,16.658 L38.922,10.808 Z M50.91,11.528 C50.91,10.088 50.406,8.846 49.416,7.802 C48.426,6.74 47.202,6.2 45.78,6.146 C44.304,6.092 43.026,6.614 41.964,7.694 C40.902,8.756 40.362,10.052 40.362,11.546 C40.362,12.986 40.848,14.228 41.838,15.272 C42.828,16.316 44.052,16.856 45.474,16.892 C46.95,16.946 48.228,16.424 49.29,15.362 C50.37,14.282 50.91,13.004 50.91,11.528 L50.91,11.528 Z M42.81,14.282 C42.072,13.472 41.73,12.518 41.748,11.438 C41.766,10.34 42.144,9.422 42.918,8.648 C43.692,7.874 44.61,7.478 45.708,7.496 C46.752,7.496 47.634,7.874 48.372,8.648 C49.11,9.422 49.506,10.34 49.542,11.42 C49.56,12.554 49.182,13.526 48.372,14.372 C47.58,15.218 46.626,15.596 45.492,15.542 C44.43,15.506 43.548,15.092 42.81,14.282 L42.81,14.282 Z M67.542,6.398 L66.066,6.398 L62.826,14.894 L60.486,7.64 L59.316,7.64 L56.94,14.948 L53.754,6.398 L52.296,6.398 L56.184,16.658 L57.75,16.658 L59.856,9.872 L62.088,16.658 L63.69,16.658 L67.542,6.398 Z M77.802,10.808 C77.802,9.476 77.37,8.378 76.506,7.496 C75.642,6.614 74.562,6.164 73.266,6.164 C71.952,6.164 70.872,6.614 70.008,7.496 C69.144,8.378 68.712,9.476 68.712,10.808 L68.712,16.658 L70.098,16.658 L70.098,10.664 C70.098,9.8 70.404,9.062 71.034,8.432 C71.664,7.802 72.42,7.496 73.266,7.496 C74.112,7.496 74.832,7.802 75.462,8.432 C76.092,9.062 76.416,9.8 76.416,10.664 L76.416,16.658 L77.802,16.658 L77.802,10.808 Z M88.242,12.752 C88.26,13.94 88.656,14.93 89.466,15.722 C90.276,16.514 91.248,16.91 92.4,16.91 C93.552,16.91 94.524,16.514 95.334,15.722 C96.144,14.912 96.558,13.958 96.54,12.824 C96.522,10.898 95.442,9.602 93.3,8.936 L91.626,8.414 C90.582,8.09 90.042,7.388 90.024,6.308 C90.006,5.642 90.24,5.084 90.744,4.616 C91.266,4.13 91.86,3.914 92.526,3.95 C93.156,3.986 93.696,4.238 94.128,4.706 C94.578,5.174 94.794,5.732 94.776,6.38 L96.234,6.38 C96.234,5.354 95.874,4.472 95.154,3.734 C94.434,2.996 93.552,2.618 92.526,2.6 C91.482,2.582 90.582,2.942 89.808,3.662 C89.034,4.364 88.656,5.228 88.674,6.254 C88.692,7.91 89.592,9.152 91.158,9.638 L92.634,10.088 C94.308,10.61 95.154,11.51 95.19,12.788 C95.208,13.562 94.938,14.228 94.38,14.768 C93.822,15.308 93.156,15.578 92.382,15.56 C91.644,15.542 90.996,15.272 90.474,14.714 C89.952,14.156 89.682,13.508 89.7,12.752 L88.242,12.752 Z M108.222,11.582 L108.222,11.51 C108.276,10.088 107.79,8.846 106.782,7.802 C105.774,6.74 104.55,6.2 103.11,6.146 C101.616,6.092 100.338,6.596 99.276,7.676 C98.214,8.738 97.674,10.034 97.674,11.528 C97.674,12.968 98.178,14.21 99.168,15.254 C100.158,16.298 101.364,16.838 102.786,16.892 C104.406,16.946 105.774,16.334 106.89,15.056 L106.89,16.658 L108.222,16.658 L108.222,11.582 Z M100.23,8.63 C101.004,7.856 101.922,7.478 103.02,7.478 C104.064,7.478 104.964,7.856 105.702,8.63 C106.44,9.404 106.836,10.322 106.854,11.402 C106.872,12.536 106.494,13.526 105.684,14.372 C104.892,15.2 103.938,15.596 102.804,15.542 C101.76,15.488 100.86,15.074 100.122,14.264 C99.384,13.454 99.042,12.5 99.06,11.42 C99.078,10.322 99.456,9.404 100.23,8.63 L100.23,8.63 Z M118.716,10.808 C118.716,9.476 118.284,8.378 117.42,7.496 C116.556,6.614 115.476,6.164 114.18,6.164 C112.866,6.164 111.786,6.614 110.922,7.496 C110.058,8.378 109.626,9.476 109.626,10.808 L109.626,16.658 L111.012,16.658 L111.012,10.664 C111.012,9.8 111.318,9.062 111.948,8.432 C112.578,7.802 113.334,7.496 114.18,7.496 C115.026,7.496 115.746,7.802 116.376,8.432 C117.006,9.062 117.33,9.8 117.33,10.664 L117.33,16.658 L118.716,16.658 L118.716,10.808 Z M121.578,13.616 L120.156,13.616 C120.156,14.498 120.444,15.254 121.02,15.884 C121.614,16.514 122.334,16.874 123.198,16.928 C124.134,16.982 124.962,16.676 125.682,16.01 C126.402,15.326 126.726,14.516 126.654,13.598 C126.564,12.248 125.826,11.33 124.458,10.862 L123.27,10.466 C122.352,10.16 121.902,9.638 121.956,8.9 C121.974,8.108 122.622,7.514 123.396,7.496 C124.188,7.496 124.908,7.982 124.908,8.702 L124.908,8.936 L126.348,8.936 L126.33,8.63 C126.276,7.91 125.952,7.316 125.34,6.83 C124.746,6.344 124.098,6.11 123.396,6.146 C122.586,6.182 121.902,6.488 121.326,7.046 C120.768,7.604 120.498,8.288 120.534,9.08 C120.588,10.394 121.254,11.258 122.514,11.654 L123.72,12.032 C124.728,12.356 125.232,12.95 125.214,13.832 C125.196,14.336 125.052,14.75 124.746,15.056 C124.404,15.398 123.954,15.56 123.378,15.578 C122.946,15.596 122.532,15.416 122.154,15.038 C121.776,14.66 121.578,14.3 121.578,13.958 L121.578,13.616 Z" id="Unown-Sans" fill="#000000" sketch:type="MSShapeGroup"></path>
                <path d="M197.988,14.524 L201.072,14.524 L201.072,13.648 L197.988,13.648 L197.988,11.656 C197.988,11.332 198.144,11.02 198.444,10.696 C198.636,10.504 198.972,10.408 199.452,10.408 L202.104,10.408 L202.104,9.544 L199.452,9.544 C198.06,9.544 197.064,10.36 197.064,11.812 L197.064,18.772 L197.988,18.772 L197.988,14.524 Z M209.496,15.352 C209.496,14.392 209.16,13.564 208.5,12.868 C207.84,12.16 207.024,11.8 206.076,11.764 C205.092,11.728 204.24,12.076 203.532,12.796 C202.824,13.504 202.464,14.368 202.464,15.364 C202.464,16.324 202.788,17.152 203.448,17.848 C204.108,18.544 204.924,18.904 205.872,18.928 C206.856,18.964 207.708,18.616 208.416,17.908 C209.136,17.188 209.496,16.336 209.496,15.352 L209.496,15.352 Z M204.096,17.188 C203.604,16.648 203.376,16.012 203.388,15.292 C203.4,14.56 203.652,13.948 204.168,13.432 C204.684,12.916 205.296,12.652 206.028,12.664 C206.724,12.664 207.312,12.916 207.804,13.432 C208.296,13.948 208.56,14.56 208.584,15.28 C208.596,16.036 208.344,16.684 207.804,17.248 C207.276,17.812 206.64,18.064 205.884,18.028 C205.176,18.004 204.588,17.728 204.096,17.188 L204.096,17.188 Z M216.456,14.872 C216.456,13.984 216.168,13.252 215.592,12.664 C215.016,12.076 214.296,11.776 213.432,11.776 C212.556,11.776 211.836,12.076 211.26,12.664 C210.684,13.252 210.396,13.984 210.396,14.872 L210.396,18.772 L211.32,18.772 L211.32,14.776 C211.32,14.2 211.524,13.708 211.944,13.288 C212.364,12.868 212.868,12.664 213.432,12.664 C213.996,12.664 214.476,12.868 214.896,13.288 C215.316,13.708 215.532,14.2 215.532,14.776 L215.532,18.772 L216.456,18.772 L216.456,14.872 Z M219.912,18.16 C218.868,18.16 218.34,17.656 218.34,16.636 L218.34,12.772 L219.912,12.772 L219.912,11.92 L218.34,11.92 L218.34,9.532 L217.416,9.532 L217.416,16.792 C217.416,18.208 218.244,18.916 219.912,18.916 L219.912,18.16 Z M221.664,16.744 L220.716,16.744 C220.716,17.332 220.908,17.836 221.292,18.256 C221.688,18.676 222.168,18.916 222.744,18.952 C223.368,18.988 223.92,18.784 224.4,18.34 C224.88,17.884 225.096,17.344 225.048,16.732 C224.988,15.832 224.496,15.22 223.584,14.908 L222.792,14.644 C222.18,14.44 221.88,14.092 221.916,13.6 C221.928,13.072 222.36,12.676 222.876,12.664 C223.404,12.664 223.884,12.988 223.884,13.468 L223.884,13.624 L224.844,13.624 L224.832,13.42 C224.796,12.94 224.58,12.544 224.172,12.22 C223.776,11.896 223.344,11.74 222.876,11.764 C222.336,11.788 221.88,11.992 221.496,12.364 C221.124,12.736 220.944,13.192 220.968,13.72 C221.004,14.596 221.448,15.172 222.288,15.436 L223.092,15.688 C223.764,15.904 224.1,16.3 224.088,16.888 C224.076,17.224 223.98,17.5 223.776,17.704 C223.548,17.932 223.248,18.04 222.864,18.052 C222.576,18.064 222.3,17.944 222.048,17.692 C221.796,17.44 221.664,17.2 221.664,16.972 L221.664,16.744 Z" id="Fonts" fill="#000000" sketch:type="MSShapeGroup"></path>
                <path d="M243.27,18.772 C244.53,18.772 245.61,18.316 246.51,17.416 C247.422,16.516 247.878,15.424 247.878,14.164 C247.878,12.844 247.398,11.74 246.45,10.864 C245.502,9.988 244.29,9.544 242.814,9.544 L240.138,9.544 L240.138,18.772 L243.27,18.772 Z M241.026,17.908 L241.026,10.408 L242.958,10.408 C244.026,10.408 244.95,10.756 245.73,11.452 C246.51,12.148 246.918,13.012 246.942,14.032 C246.978,15.076 246.618,15.988 245.886,16.756 C245.154,17.524 244.266,17.908 243.222,17.908 L241.026,17.908 Z M255.738,15.352 C255.738,14.392 255.402,13.564 254.742,12.868 C254.082,12.16 253.266,11.8 252.318,11.764 C251.334,11.728 250.482,12.076 249.774,12.796 C249.066,13.504 248.706,14.368 248.706,15.364 C248.706,16.324 249.03,17.152 249.69,17.848 C250.35,18.544 251.166,18.904 252.114,18.928 C253.098,18.964 253.95,18.616 254.658,17.908 C255.378,17.188 255.738,16.336 255.738,15.352 L255.738,15.352 Z M250.338,17.188 C249.846,16.648 249.618,16.012 249.63,15.292 C249.642,14.56 249.894,13.948 250.41,13.432 C250.926,12.916 251.538,12.652 252.27,12.664 C252.966,12.664 253.554,12.916 254.046,13.432 C254.538,13.948 254.802,14.56 254.826,15.28 C254.838,16.036 254.586,16.684 254.046,17.248 C253.518,17.812 252.882,18.064 252.126,18.028 C251.418,18.004 250.83,17.728 250.338,17.188 L250.338,17.188 Z M266.826,11.932 L265.842,11.932 L263.682,17.596 L262.122,12.76 L261.342,12.76 L259.758,17.632 L257.634,11.932 L256.662,11.932 L259.254,18.772 L260.298,18.772 L261.702,14.248 L263.19,18.772 L264.258,18.772 L266.826,11.932 Z M273.666,14.872 C273.666,13.984 273.378,13.252 272.802,12.664 C272.226,12.076 271.506,11.776 270.642,11.776 C269.766,11.776 269.046,12.076 268.47,12.664 C267.894,13.252 267.606,13.984 267.606,14.872 L267.606,18.772 L268.53,18.772 L268.53,14.776 C268.53,14.2 268.734,13.708 269.154,13.288 C269.574,12.868 270.078,12.664 270.642,12.664 C271.206,12.664 271.686,12.868 272.106,13.288 C272.526,13.708 272.742,14.2 272.742,14.776 L272.742,18.772 L273.666,18.772 L273.666,14.872 Z M275.538,9.52 L274.626,9.52 L274.626,18.772 L275.538,18.772 L275.538,9.52 Z M283.602,15.352 C283.602,14.392 283.266,13.564 282.606,12.868 C281.946,12.16 281.13,11.8 280.182,11.764 C279.198,11.728 278.346,12.076 277.638,12.796 C276.93,13.504 276.57,14.368 276.57,15.364 C276.57,16.324 276.894,17.152 277.554,17.848 C278.214,18.544 279.03,18.904 279.978,18.928 C280.962,18.964 281.814,18.616 282.522,17.908 C283.242,17.188 283.602,16.336 283.602,15.352 L283.602,15.352 Z M278.202,17.188 C277.71,16.648 277.482,16.012 277.494,15.292 C277.506,14.56 277.758,13.948 278.274,13.432 C278.79,12.916 279.402,12.652 280.134,12.664 C280.83,12.664 281.418,12.916 281.91,13.432 C282.402,13.948 282.666,14.56 282.69,15.28 C282.702,16.036 282.45,16.684 281.91,17.248 C281.382,17.812 280.746,18.064 279.99,18.028 C279.282,18.004 278.694,17.728 278.202,17.188 L278.202,17.188 Z M291.546,15.388 L291.546,15.34 C291.582,14.392 291.258,13.564 290.586,12.868 C289.914,12.16 289.098,11.8 288.138,11.764 C287.142,11.728 286.29,12.064 285.582,12.784 C284.874,13.492 284.514,14.356 284.514,15.352 C284.514,16.312 284.85,17.14 285.51,17.836 C286.17,18.532 286.974,18.892 287.922,18.928 C289.002,18.964 289.914,18.556 290.658,17.704 L290.658,18.772 L291.546,18.772 L291.546,15.388 Z M286.218,13.42 C286.734,12.904 287.346,12.652 288.078,12.652 C288.774,12.652 289.374,12.904 289.866,13.42 C290.358,13.936 290.622,14.548 290.634,15.268 C290.646,16.024 290.394,16.684 289.854,17.248 C289.326,17.8 288.69,18.064 287.934,18.028 C287.238,17.992 286.638,17.716 286.146,17.176 C285.654,16.636 285.426,16 285.438,15.28 C285.45,14.548 285.702,13.936 286.218,13.42 L286.218,13.42 Z M299.67,9.568 L298.77,9.568 L298.77,13.012 C298.098,12.244 297.258,11.836 296.25,11.8 C295.266,11.764 294.414,12.112 293.706,12.832 C292.998,13.54 292.638,14.404 292.638,15.4 C292.638,16.36 292.962,17.188 293.622,17.884 C294.282,18.58 295.098,18.94 296.046,18.964 C297.03,19 297.882,18.652 298.614,17.944 C299.346,17.224 299.694,16.372 299.67,15.388 L299.67,9.568 Z M294.27,17.224 C293.778,16.684 293.538,16.048 293.55,15.328 C293.562,14.596 293.814,13.984 294.33,13.468 C294.846,12.952 295.47,12.688 296.19,12.7 C296.898,12.7 297.486,12.952 297.978,13.468 C298.47,13.984 298.734,14.596 298.746,15.316 C298.77,16.072 298.518,16.72 297.978,17.284 C297.45,17.848 296.814,18.1 296.058,18.064 C295.35,18.04 294.762,17.764 294.27,17.224 L294.27,17.224 Z M301.59,16.744 L300.642,16.744 C300.642,17.332 300.834,17.836 301.218,18.256 C301.614,18.676 302.094,18.916 302.67,18.952 C303.294,18.988 303.846,18.784 304.326,18.34 C304.806,17.884 305.022,17.344 304.974,16.732 C304.914,15.832 304.422,15.22 303.51,14.908 L302.718,14.644 C302.106,14.44 301.806,14.092 301.842,13.6 C301.854,13.072 302.286,12.676 302.802,12.664 C303.33,12.664 303.81,12.988 303.81,13.468 L303.81,13.624 L304.77,13.624 L304.758,13.42 C304.722,12.94 304.506,12.544 304.098,12.22 C303.702,11.896 303.27,11.74 302.802,11.764 C302.262,11.788 301.806,11.992 301.422,12.364 C301.05,12.736 300.87,13.192 300.894,13.72 C300.93,14.596 301.374,15.172 302.214,15.436 L303.018,15.688 C303.69,15.904 304.026,16.3 304.014,16.888 C304.002,17.224 303.906,17.5 303.702,17.704 C303.474,17.932 303.174,18.04 302.79,18.052 C302.502,18.064 302.226,17.944 301.974,17.692 C301.722,17.44 301.59,17.2 301.59,16.972 L301.59,16.744 Z" id="Downloads" fill="#000000" sketch:type="MSShapeGroup"></path>
            </g>
            <g id="Letter-O" sketch:type="MSLayerGroup" transform="translate(56.000000, 580.000000)">
                <g id="Pokeball-Copy" transform="translate(82.000000, 0.000000)" sketch:type="MSShapeGroup">
                    <circle id="Oval-1" fill="#D8D8D8" cx="20" cy="20" r="20"></circle>
                    <path d="M0.273972603,20 L39.7260274,20" id="Line" stroke="#FFFFFF" stroke-linecap="square"></path>
                    <circle id="Oval-1-Copy" stroke="#FFFFFF" fill="#D8D8D8" cx="20" cy="20" r="5.75342466"></circle>
                </g>
                <text id=".O-{" sketch:type="MSTextLayer" font-family="Courier New" font-size="10" font-weight="normal" fill="#000000">
                    <tspan x="0" y="115">.O {</tspan>
                    <tspan x="0" y="126">	position: relative;</tspan>
                    <tspan x="0" y="137">	height: 150px;</tspan>
                    <tspan x="0" y="148">	width: 150px;</tspan>
                    <tspan x="0" y="159">	border:5px solid black;</tspan>
                    <tspan x="0" y="170">	border-radius: 50%;</tspan>
                    <tspan x="0" y="181">}</tspan>
                    <tspan x="0" y="192"></tspan>
                    <tspan x="0" y="203">.O:before {</tspan>
                    <tspan x="0" y="214">	position: absolute;</tspan>
                    <tspan x="0" y="225">	content: '';</tspan>
                    <tspan x="0" y="236">	top: 75px;</tspan>
                    <tspan x="0" y="247">	left: -77px;</tspan>
                    <tspan x="0" y="258">	height: 75px;</tspan>
                    <tspan x="0" y="269">	width: 150px;</tspan>
                    <tspan x="0" y="280">	border-right:5px solid black;</tspan>
                    <tspan x="0" y="291">}</tspan>
                    <tspan x="0" y="302"></tspan>
                    <tspan x="0" y="313">.O .eye{</tspan>
                    <tspan x="0" y="324">	position: absolute;</tspan>
                    <tspan x="0" y="335">	top:47px;</tspan>
                    <tspan x="0" y="346">	left:45px;</tspan>
                    <tspan x="0" y="357">	z-index: 1;</tspan>
                    <tspan x="0" y="368">}</tspan>
                </text>
            </g>
            <g id="Letter-H" sketch:type="MSLayerGroup" transform="translate(23.000000, 99.000000)">
                <path d="M28.2647774,61.2125 C28.2798666,60.906068 28.2875,60.5976754 28.2875,60.2875 C28.2875,50.0702321 20.0047679,41.7875 9.7875,41.7875 C-0.429767871,41.7875 -8.7125,50.0702321 -8.7125,60.2875 C-8.7125,60.5976754 -8.70486659,60.906068 -8.68977737,61.2125 L28.2647774,61.2125 Z" id="pokeball-bottom" fill="#D8D8D8" sketch:type="MSShapeGroup" transform="translate(9.787500, 51.500000) rotate(-90.000000) translate(-9.787500, -51.500000) "></path>
                <g id="Pokeball-top" transform="translate(262.500000, 51.000000) rotate(-270.000000) translate(-262.500000, -51.000000) translate(244.000000, 39.000000)" fill="#D8D8D8" sketch:type="MSShapeGroup">
                    <path d="M36.7615309,18.512805 C36.7765321,18.220763 36.784121,17.9268525 36.784121,17.6312429 C36.784121,7.89377632 28.549715,0 18.3920605,0 C8.23440596,0 0,7.89377632 0,17.6312429 C0,17.9268525 0.00758887609,18.220763 0.0225900543,18.512805 L36.7615309,18.512805 Z" id="Oval-1-Copy-2"></path>
                    <path d="M0.251946034,18.5 L36.5321749,18.5" id="Line" stroke="#FFFFFF"></path>
                    <ellipse id="Oval-1-Copy" stroke="#FFFFFF" cx="18.2908667" cy="18.0720014" rx="5.29086672" ry="5.07200138"></ellipse>
                </g>
                <g id="H" transform="translate(84.000000, 0.000000)" sketch:type="MSShapeGroup">
                    <path d="M51,48.4237899 C49.7703594,48.4237899 48.7733917,49.4177275 48.7733917,50.6436308 C48.7733917,51.8695341 49.7703594,52.8634718 51,52.8634718 C52.2296406,52.8634718 53.2266083,51.8695341 53.2266083,50.6436308 C53.2266083,49.4177275 52.2296406,48.4237899 51,48.4237899" id="Fill-1" fill="#221F20"></path>
                    <path d="M51,48.4237899 C49.7703594,48.4237899 48.7733917,49.4177275 48.7733917,50.6436308 C48.7733917,51.8695341 49.7703594,52.8634718 51,52.8634718 C52.2296406,52.8634718 53.2266083,51.8695341 53.2266083,50.6436308 C53.2266083,49.4177275 52.2296406,48.4237899 51,48.4237899 L51,48.4237899 Z" id="Stroke-3" stroke="#221F20"></path>
                    <path d="M51,63.247004 C43.9568295,63.247004 38.2467097,57.5547076 38.2467097,50.5324748 C38.2467097,43.5107106 43.9568295,37.8179455 51,37.8179455 C58.0431705,37.8179455 63.7532903,43.5107106 63.7532903,50.5324748 C63.7532903,57.5547076 58.0431705,63.247004 51,63.247004 M55.2304147,0.0979879135 L55.2304147,4.31226484 C78.3472811,6.38870886 96.5892995,25.3091393 97.5148203,48.6701889 L67.8168387,48.6701889 C66.8866175,40.2299196 59.7141843,33.6622458 51,33.6622458 C42.2858157,33.6622458 35.1133825,40.2299196 34.1831613,48.6701889 L4.48517972,48.6701889 C5.41070046,25.3091393 23.6527189,6.38870886 46.7695853,4.31226484 L46.7695853,0.0979879135 C20.7125806,2.24191285 0.235023041,24.0016966 0.235023041,50.5324748 C0.235023041,77.0637216 20.7125806,98.8235053 46.7695853,100.966962 L46.7695853,96.7526847 C23.7260461,94.6828013 5.52492166,75.8757763 4.49364055,52.6168853 L34.2113641,52.6168853 C35.2421751,60.9498412 42.3629032,67.4027038 51,67.4027038 C59.6370968,67.4027038 66.7578249,60.9498412 67.7886359,52.6168853 L97.5063594,52.6168853 C96.4750783,75.8757763 78.2739539,94.6828013 55.2304147,96.7526847 L55.2304147,100.966962 C81.2874194,98.8235053 101.764977,77.0637216 101.764977,50.5324748 C101.764977,24.0016966 81.2874194,2.24191285 55.2304147,0.0979879135" id="Fill-5" fill="#221F20"></path>
                    <path d="M51,63.247004 C43.9568295,63.247004 38.2467097,57.5547076 38.2467097,50.5324748 C38.2467097,43.5107106 43.9568295,37.8179455 51,37.8179455 C58.0431705,37.8179455 63.7532903,43.5107106 63.7532903,50.5324748 C63.7532903,57.5547076 58.0431705,63.247004 51,63.247004 L51,63.247004 Z M55.2304147,0.0979879135 L55.2304147,4.31226484 C78.3472811,6.38870886 96.5892995,25.3091393 97.5148203,48.6701889 L67.8168387,48.6701889 C66.8866175,40.2299196 59.7141843,33.6622458 51,33.6622458 C42.2858157,33.6622458 35.1133825,40.2299196 34.1831613,48.6701889 L4.48517972,48.6701889 C5.41070046,25.3091393 23.6527189,6.38870886 46.7695853,4.31226484 L46.7695853,0.0979879135 C20.7125806,2.24191285 0.235023041,24.0016966 0.235023041,50.5324748 C0.235023041,77.0637216 20.7125806,98.8235053 46.7695853,100.966962 L46.7695853,96.7526847 C23.7260461,94.6828013 5.52492166,75.8757763 4.49364055,52.6168853 L34.2113641,52.6168853 C35.2421751,60.9498412 42.3629032,67.4027038 51,67.4027038 C59.6370968,67.4027038 66.7578249,60.9498412 67.7886359,52.6168853 L97.5063594,52.6168853 C96.4750783,75.8757763 78.2739539,94.6828013 55.2304147,96.7526847 L55.2304147,100.966962 C81.2874194,98.8235053 101.764977,77.0637216 101.764977,50.5324748 C101.764977,24.0016966 81.2874194,2.24191285 55.2304147,0.0979879135 L55.2304147,0.0979879135 Z" id="Stroke-7" stroke="#221F20"></path>
                </g>
                <text id=".H-{" opacity="0.949999988" sketch:type="MSTextLayer" font-family="Courier New" font-size="10" font-weight="normal" fill="#000000">
                    <tspan x="31" y="135">.H {</tspan>
                    <tspan x="31" y="146">	position: relative;</tspan>
                    <tspan x="31" y="157">	height: 150px;</tspan>
                    <tspan x="31" y="168">	width: 150px;</tspan>
                    <tspan x="31" y="179">	border:5px solid black;</tspan>
                    <tspan x="31" y="190">	border-radius: 50%;</tspan>
                    <tspan x="31" y="201">}</tspan>
                    <tspan x="31" y="212"></tspan>
                    <tspan x="31" y="223">.H:before {</tspan>
                    <tspan x="31" y="234">	position: absolute;</tspan>
                    <tspan x="31" y="245">	content: '';</tspan>
                    <tspan x="31" y="256">	height: 75px;</tspan>
                    <tspan x="31" y="267">	width: 150px;</tspan>
                    <tspan x="31" y="278">	border-bottom:5px solid black;</tspan>
                    <tspan x="31" y="289">	</tspan>
                    <tspan x="31" y="300">}</tspan>
                    <tspan x="31" y="311"></tspan>
                    <tspan x="31" y="322">.H:after{</tspan>
                    <tspan x="31" y="333">	position: absolute;</tspan>
                    <tspan x="31" y="344">	content: '';</tspan>
                    <tspan x="31" y="355">	height: 160px;</tspan>
                    <tspan x="31" y="366">	width: 10px;</tspan>
                    <tspan x="31" y="377">	left: 70px;</tspan>
                    <tspan x="31" y="388">	top: -5px;</tspan>
                    <tspan x="31" y="399">	background: white;</tspan>
                    <tspan x="31" y="410">}</tspan>
                </text>
            </g>
            <g id="Page-1" sketch:type="MSLayerGroup" transform="translate(252.409500, 244.999961) rotate(-37.000000) translate(-252.409500, -244.999961) translate(243.409500, 232.999961)" fill="#4990E2">
                <path d="M15.18,13.465 L15.047,13.465 C14.863,13.465 14.684,13.492 14.516,13.543 C14.281,12.777 13.566,12.219 12.727,12.219 L12.598,12.219 C12.418,12.219 12.242,12.246 12.078,12.301 C11.855,11.516 11.133,10.938 10.277,10.938 L10.148,10.938 C9.992,10.938 9.844,10.957 9.695,10.992 L9.695,7.863 C9.695,6.832 8.855,5.992 7.824,5.992 L7.695,5.992 C6.664,5.992 5.824,6.832 5.824,7.863 L5.824,16.223 L5.047,15.727 C4.336,15.078 3.148,15.098 2.465,15.785 L2.371,15.879 C1.645,16.609 1.645,17.793 2.328,18.477 L5.723,22.547 C6.031,22.914 6.488,23.125 6.969,23.125 L13.766,23.125 C14.605,23.125 15.297,22.484 15.383,21.648 L17.039,15.52 C17.055,15.461 17.062,15.398 17.062,15.336 C17.051,14.305 16.211,13.465 15.18,13.465 L15.18,13.465 Z M14.027,21.219 C13.992,21.305 13.973,21.402 13.973,21.5 C13.973,21.621 13.875,21.719 13.754,21.719 L6.957,21.719 C6.867,21.719 6.812,21.668 6.789,21.641 L3.355,17.527 C3.176,17.348 3.176,17.051 3.355,16.867 L3.449,16.777 C3.535,16.691 3.652,16.641 3.777,16.641 C3.902,16.641 4.02,16.688 4.105,16.777 C4.141,16.812 4.184,16.848 4.227,16.875 L6.145,18.094 C6.359,18.23 6.633,18.238 6.859,18.117 C7.086,17.992 7.223,17.758 7.223,17.5 L7.223,7.859 C7.223,7.602 7.434,7.395 7.688,7.395 L7.816,7.395 C8.074,7.395 8.281,7.602 8.281,7.859 L8.281,12.625 C8.281,12.992 8.562,13.297 8.93,13.328 C9.309,13.359 9.621,13.098 9.68,12.734 C9.715,12.512 9.91,12.344 10.141,12.344 L10.27,12.344 C10.527,12.344 10.734,12.555 10.734,12.809 L10.734,13.988 C10.734,14.355 11.02,14.66 11.383,14.691 C11.758,14.723 12.074,14.461 12.129,14.098 C12.168,13.852 12.383,13.633 12.59,13.633 L12.719,13.633 C12.977,13.633 13.184,13.84 13.184,14.098 L13.184,15.164 C13.184,15.531 13.465,15.836 13.832,15.867 C14.215,15.895 14.523,15.637 14.582,15.273 C14.617,15.051 14.816,14.883 15.043,14.883 L15.176,14.883 C15.406,14.883 15.598,15.055 15.637,15.273 L14.027,21.219 Z" id="Fill-1" sketch:type="MSShapeGroup"></path>
                <path d="M4.316,7.133 C4.316,6.746 4.004,6.43 3.613,6.43 L1.328,6.43 C0.941,6.43 0.625,6.742 0.625,7.133 C0.625,7.52 0.941,7.836 1.328,7.836 L3.613,7.836 C4,7.836 4.316,7.52 4.316,7.133 L4.316,7.133 Z" id="Fill-2" sketch:type="MSShapeGroup"></path>
                <path d="M7.777,4.316 C8.164,4.316 8.48,4 8.48,3.613 L8.48,1.328 C8.48,0.941 8.164,0.625 7.777,0.625 C7.387,0.625 7.074,0.941 7.074,1.328 L7.074,3.613 C7.074,4 7.391,4.316 7.777,4.316 L7.777,4.316 Z" id="Fill-3" sketch:type="MSShapeGroup"></path>
                <path d="M4.734,5.309 C4.871,5.445 5.051,5.516 5.23,5.516 C5.41,5.516 5.59,5.445 5.727,5.309 C5.863,5.172 5.934,4.992 5.934,4.812 C5.934,4.633 5.863,4.453 5.727,4.316 L4.113,2.703 C3.84,2.43 3.395,2.43 3.121,2.703 C2.984,2.84 2.914,3.02 2.914,3.199 C2.914,3.379 2.984,3.559 3.121,3.695 L4.734,5.309 Z" id="Fill-4" sketch:type="MSShapeGroup"></path>
                <path d="M11.18,7.133 C11.18,7.52 11.492,7.836 11.883,7.836 L14.168,7.836 C14.559,7.836 14.871,7.52 14.871,7.133 C14.871,6.746 14.559,6.43 14.168,6.43 L11.883,6.43 C11.496,6.43 11.18,6.742 11.18,7.133 L11.18,7.133 Z" id="Fill-5" sketch:type="MSShapeGroup"></path>
                <path d="M10.266,5.516 C10.445,5.516 10.625,5.449 10.762,5.309 L12.379,3.691 C12.652,3.418 12.652,2.973 12.379,2.695 C12.105,2.422 11.66,2.422 11.387,2.695 L9.77,4.309 C9.496,4.582 9.496,5.027 9.77,5.305 C9.902,5.445 10.086,5.516 10.266,5.516 L10.266,5.516 Z" id="Fill-6" sketch:type="MSShapeGroup"></path>
            </g>
        </g>
    </g>
</svg>