<?xml version="1.0" encoding="UTF-8" standalone="no"?>
<svg width="73px" height="73px" viewBox="0 0 73 73" version="1.1" xmlns="http://www.w3.org/2000/svg" xmlns:xlink="http://www.w3.org/1999/xlink" xmlns:sketch="http://www.bohemiancoding.com/sketch/ns">
    <!-- Generator: Sketch 3.4.2 (15857) - http://www.bohemiancoding.com/sketch -->
    <title>Page 1</title>
    <desc>Created with Sketch.</desc>
    <defs></defs>
    <g id="website" stroke="none" stroke-width="1" fill="none" fill-rule="evenodd" sketch:type="MSPage">
        <g id="Desktop-HD" sketch:type="MSArtboardGroup" transform="translate(-966.000000, -224.000000)" fill="#FFFFFF">
            <path d="M1032.72658,243.277 C1037.66358,237.656 1040.78158,230.106 1036.61758,225.945 C1035.73058,225.055 1034.14458,224 1031.60558,224 C1028.05858,224 1023.45258,226.184 1019.28458,229.836 C1017.36358,231.524 1012.97258,235.941 1009.21458,239.785 C1008.91758,239.285 1008.53458,238.801 1008.07758,238.34 C1006.43758,236.703 1004.80458,236.359 1003.71858,236.359 C1002.67558,236.359 1001.12058,236.672 999.63258,238.16 C999.57058,238.227 999.50758,238.285 999.41758,238.371 L999.39858,238.395 C999.07758,238.703 998.49158,239.27 997.05458,240.703 C990.38258,238.531 982.52358,236.07 978.95258,234.949 L978.89058,234.93 L978.58158,234.832 C977.67158,234.551 976.89058,234.305 976.75758,234.262 C976.06658,234.027 975.33958,233.918 974.59758,233.918 C971.80458,233.914 969.44958,235.563 968.28858,236.547 C966.81258,237.797 966.09358,239.688 966.36358,241.606 C966.62058,243.473 967.83958,245.125 969.54258,245.926 C970.30858,246.293 987.61358,254.77 989.78158,255.848 C990.11358,256.016 990.90958,256.539 992.23458,257.504 C988.92958,260.883 985.08158,265.098 982.28158,268.406 C980.76558,268.004 978.64858,267.453 975.95258,266.766 C975.56258,266.664 975.16358,266.617 974.76558,266.617 C973.32458,266.617 971.97658,267.262 971.07458,268.391 L969.96458,269.774 C969.04258,270.91 968.70658,272.395 969.05058,273.828 C969.25358,274.691 969.69158,275.477 970.31658,276.109 C970.41758,276.207 970.51558,276.301 970.63258,276.395 C970.64458,276.41 970.65958,276.422 970.67158,276.434 C970.89858,276.613 971.13658,276.774 971.39858,276.922 C971.43758,276.941 971.47658,276.965 971.51558,276.984 C971.83558,277.176 972.83158,277.797 975.51958,279.531 C975.14858,280.274 974.85558,280.899 974.64458,281.484 C973.63658,284.274 974.74558,285.957 975.49558,286.707 L975.86358,287.074 C976.67558,287.891 977.78458,288.336 978.97258,288.336 C980.23858,288.336 981.40958,287.867 983.03858,287.055 C984.48058,289.285 985.33158,290.625 985.58158,291.051 C985.59358,291.07 985.60158,291.09 985.61358,291.113 C985.62058,291.129 985.62858,291.145 985.64058,291.16 C985.78158,291.422 985.94958,291.664 986.14058,291.906 C986.15958,291.926 986.17158,291.945 986.18758,291.957 C986.84758,292.734 987.74958,293.289 988.72658,293.516 C989.08958,293.602 989.45658,293.645 989.82758,293.645 C990.90658,293.645 991.95658,293.274 992.79658,292.598 L994.16758,291.496 C995.62058,290.328 996.25758,288.414 995.79258,286.609 C995.10158,283.918 994.55458,281.805 994.15658,280.293 C997.46458,277.492 1001.67158,273.641 1005.06258,270.34 C1005.98458,271.613 1006.54658,272.457 1006.70658,272.793 C1007.62458,274.629 1015.74558,291.086 1016.59758,292.949 L1016.61358,292.973 C1017.39458,294.707 1019.06658,295.945 1020.95258,296.207 C1021.21058,296.238 1021.46858,296.262 1021.73058,296.262 C1023.37858,296.262 1024.94558,295.539 1026.01558,294.277 C1028.34358,291.539 1029.17558,288.453 1028.29658,285.817 C1028.24958,285.668 1027.96858,284.777 1027.64458,283.746 L1027.57058,283.527 C1026.38658,279.809 1024.05458,272.473 1021.80058,265.574 C1023.28458,264.098 1023.85558,263.5 1024.16758,263.172 L1024.21458,263.125 C1024.28858,263.051 1024.33958,262.996 1024.39058,262.945 C1026.87058,260.469 1026.79658,257.07 1024.21458,254.492 C1023.73058,254.008 1023.24558,253.633 1022.77358,253.352 C1026.62858,249.578 1031.05458,245.176 1032.72658,243.277 L1032.72658,243.277 Z M1014.90658,255.957 C1015.21458,256.93 1015.55858,258.02 1015.93758,259.184 C1017.19558,257.926 1017.73458,257.406 1018.03158,257.117 C1018.15258,257 1018.23458,256.926 1018.31258,256.848 C1018.81658,256.348 1019.32758,256.098 1019.85958,256.098 C1020.44558,256.098 1021.05058,256.41 1021.67158,257.027 C1022.85158,258.203 1022.90658,259.336 1021.85158,260.395 C1021.77758,260.469 1021.69158,260.551 1021.58158,260.668 C1021.26558,260.996 1020.67558,261.606 1019.14858,263.133 C1018.61758,263.664 1018.10958,264.09 1017.63658,264.391 C1020.07458,271.836 1022.81658,280.449 1024.14058,284.609 C1024.56658,285.934 1024.83158,286.777 1024.89058,286.941 C1025.55858,288.957 1023.97658,291.113 1023.26958,291.949 C1022.88258,292.402 1022.32058,292.656 1021.73058,292.656 C1021.63658,292.656 1021.54258,292.656 1021.44558,292.641 C1020.76958,292.547 1020.15958,292.086 1019.87858,291.469 L1019.86358,291.441 C1018.98858,289.516 1010.83558,273.008 1009.91758,271.172 C1009.24158,269.828 1006.54658,266.289 1005.46858,264.899 C1004.99158,265.348 1004.49558,265.813 1004.33958,265.973 C1000.61358,269.738 995.05858,274.848 991.13258,278.117 C990.88658,278.328 990.51958,278.594 990.05858,278.906 C990.35558,279.969 991.11358,282.856 992.30458,287.504 C992.41758,287.945 992.26558,288.402 991.91358,288.688 L990.53458,289.793 C990.33158,289.961 990.08158,290.039 989.82058,290.039 C989.72658,290.039 989.63258,290.031 989.53858,290.012 C989.30458,289.961 989.08558,289.824 988.91358,289.625 C988.85958,289.551 988.81658,289.496 988.77758,289.43 C988.76958,289.406 988.75758,289.387 988.74958,289.375 C988.30058,288.563 984.61758,282.899 984.58958,282.848 L984.57058,282.805 C984.48058,282.637 984.39858,282.481 984.32458,282.348 C984.18758,282.414 984.04658,282.484 983.90658,282.559 L983.81258,282.606 C983.44558,282.797 983.09758,282.973 982.76958,283.141 C980.87058,284.125 979.67958,284.738 978.96058,284.738 C978.72258,284.738 978.53458,284.668 978.39458,284.527 L978.02758,284.16 C977.44558,283.582 978.10158,282.313 979.40958,279.781 C979.58158,279.453 979.75758,279.102 979.94958,278.738 C980.03858,278.563 980.12458,278.391 980.20658,278.227 C980.06258,278.152 979.90258,278.063 979.72258,277.969 L979.69558,277.953 C979.66358,277.934 973.98858,274.246 973.17558,273.797 C973.15658,273.789 973.14058,273.781 973.12458,273.77 C973.05858,273.738 972.99558,273.695 972.93758,273.649 C972.89858,273.617 972.87458,273.594 972.85158,273.57 C972.69158,273.41 972.58558,273.215 972.53858,273 C972.45258,272.66 972.53458,272.301 972.76158,272.016 L973.86358,270.641 C974.08958,270.367 974.41358,270.211 974.75358,270.211 C974.85158,270.211 974.94958,270.227 975.04658,270.25 C979.70258,271.441 982.58958,272.199 983.64858,272.496 C983.95658,272.039 984.22258,271.668 984.42958,271.422 C987.69958,267.496 992.80458,261.941 996.57458,258.215 C996.71058,258.074 997.03458,257.738 997.64858,257.086 C995.75358,255.617 992.65658,253.277 991.37058,252.637 C989.14058,251.516 971.14058,242.707 971.08558,242.676 C970.47258,242.395 970.01158,241.785 969.92158,241.109 C969.82458,240.418 970.08558,239.734 970.61758,239.281 C971.30858,238.695 972.91358,237.504 974.59758,237.504 C974.93758,237.504 975.28158,237.555 975.61758,237.672 C975.77758,237.719 976.58558,237.969 977.81658,238.363 C981.82058,239.613 991.14058,242.531 998.20258,244.863 C998.50758,244.406 998.92158,243.918 999.42958,243.41 C1000.95658,241.883 1001.56658,241.293 1001.89058,240.977 C1002.01158,240.863 1002.09758,240.781 1002.17158,240.703 C1002.66758,240.207 1003.18758,239.961 1003.71458,239.961 C1004.30458,239.961 1004.90958,240.266 1005.53158,240.891 C1006.70258,242.07 1006.76958,243.199 1005.71458,244.25 C1005.64058,244.324 1005.55458,244.414 1005.44158,244.531 C1005.15658,244.824 1004.64458,245.356 1003.41758,246.586 L1006.61358,247.641 C1010.53858,243.547 1018.91358,234.953 1021.65958,232.539 C1024.89458,229.699 1028.83158,227.602 1031.60558,227.602 C1032.60958,227.602 1033.46058,227.871 1034.07058,228.488 C1036.38658,230.797 1033.89458,236.496 1030.02358,240.906 C1027.65258,243.609 1019.02358,252.016 1014.90658,255.957 L1014.90658,255.957 Z" id="Page-1" sketch:type="MSShapeGroup"></path>
        </g>
    </g>
</svg>