<?xml version="1.0" encoding="UTF-8" standalone="no"?>
<svg width="43px" height="75px" viewBox="0 0 43 75" version="1.1" xmlns="http://www.w3.org/2000/svg" xmlns:xlink="http://www.w3.org/1999/xlink" xmlns:sketch="http://www.bohemiancoding.com/sketch/ns">
    <!-- Generator: Sketch 3.4.2 (15857) - http://www.bohemiancoding.com/sketch -->
    <title>Page 1</title>
    <desc>Created with Sketch.</desc>
    <defs></defs>
    <g id="website" stroke="none" stroke-width="1" fill="none" fill-rule="evenodd" sketch:type="MSPage">
        <g id="Desktop-HD" sketch:type="MSArtboardGroup" transform="translate(-707.000000, -224.000000)" fill="#FFFFFF">
            <path d="M743.538462,224 L712.769231,224 C709.59359,224 707,226.59359 707,229.769231 L707,293.230769 C707,296.40641 709.59359,299 712.769231,299 L743.538462,299 C746.714103,299 749.307692,296.40641 749.307692,293.230769 L749.307692,229.769231 C749.307692,226.59359 746.714103,224 743.538462,224 L743.538462,224 Z M745.461538,293.230769 C745.461538,294.287179 744.594872,295.153846 743.538462,295.153846 L712.769231,295.153846 C711.712821,295.153846 710.846154,294.287179 710.846154,293.230769 L710.846154,289.384615 L745.461538,289.384615 L745.461538,293.230769 Z M745.461538,285.538462 L710.846154,285.538462 L710.846154,237.461538 L745.461538,237.461538 L745.461538,285.538462 Z M745.461538,233.615385 L710.846154,233.615385 L710.846154,229.769231 C710.846154,228.712821 711.712821,227.846154 712.769231,227.846154 L743.538462,227.846154 C744.594872,227.846154 745.461538,228.712821 745.461538,229.769231 L745.461538,233.615385 Z" id="Page-1" sketch:type="MSShapeGroup"></path>
        </g>
    </g>
</svg>