<?xml version="1.0" encoding="UTF-8" standalone="no"?>
<svg width="76px" height="75px" viewBox="0 0 76 75" version="1.1" xmlns="http://www.w3.org/2000/svg" xmlns:xlink="http://www.w3.org/1999/xlink" xmlns:sketch="http://www.bohemiancoding.com/sketch/ns">
    <!-- Generator: Sketch 3.4.2 (15857) - http://www.bohemiancoding.com/sketch -->
    <title>Page 1</title>
    <desc>Created with Sketch.</desc>
    <defs></defs>
    <g id="website" stroke="none" stroke-width="1" fill="none" fill-rule="evenodd" sketch:type="MSPage">
        <g id="Desktop-HD" sketch:type="MSArtboardGroup" transform="translate(-820.000000, -224.000000)" fill="#FFFFFF">
            <g id="Page-1" sketch:type="MSLayerGroup" transform="translate(820.307692, 224.000000)">
                <path d="M37.5,75 C16.82,75 1.13686838e-13,58.18 1.13686838e-13,37.5 C1.13686838e-13,16.82 16.82,0 37.5,0 C58.18,0 75,16.82 75,37.5 C75,58.18 58.18,75 37.5,75 L37.5,75 Z M37.5,2.586 C18.25,2.586 2.586,18.25 2.586,37.5 C2.586,56.75 18.25,72.414 37.5,72.414 C56.75,72.414 72.414,56.75 72.414,37.5 C72.414,18.25 56.75,2.586 37.5,2.586 L37.5,2.586 Z" id="Fill-1" sketch:type="MSShapeGroup"></path>
                <path d="M37.5,67.242 C21.102,67.242 7.758,53.898 7.758,37.5 C7.758,21.102 21.102,7.758 37.5,7.758 C53.898,7.758 67.242,21.102 67.242,37.5 C67.242,53.898 53.898,67.242 37.5,67.242 L37.5,67.242 Z M37.5,10.344 C22.527,10.344 10.344,22.527 10.344,37.5 C10.344,52.473 22.527,64.656 37.5,64.656 C52.473,64.656 64.656,52.473 64.656,37.5 C64.656,22.527 52.473,10.344 37.5,10.344 L37.5,10.344 Z" id="Fill-2" sketch:type="MSShapeGroup"></path>
                <path d="M61.609,53.082 C59.016,51.676 56.918,49.484 55.375,46.559 C54.16,44.254 54.012,41.551 54.961,39.141 C55.902,36.75 57.84,34.891 60.277,34.043 C61.895,33.477 63.711,33.027 65.684,32.703 L66.102,35.254 C64.281,35.555 62.605,35.969 61.129,36.484 C59.402,37.086 58.031,38.398 57.367,40.09 C56.691,41.797 56.801,43.715 57.664,45.352 C58.965,47.816 60.703,49.652 62.84,50.805 L61.609,53.082" id="Fill-3" sketch:type="MSShapeGroup"></path>
                <path d="M53.586,60.895 C51.496,57.324 45.938,47.844 37.5,47.844 C29.98,47.844 23.82,56.969 21.52,60.895 L19.289,59.586 C21.816,55.277 28.645,45.258 37.5,45.258 C47.422,45.258 53.523,55.668 55.82,59.586 L53.586,60.895" id="Fill-4" sketch:type="MSShapeGroup"></path>
                <path d="M13.609,53.082 L12.379,50.805 C14.508,49.656 16.246,47.82 17.547,45.352 C18.406,43.719 18.516,41.805 17.844,40.102 C17.172,38.402 15.801,37.086 14.07,36.484 C12.609,35.977 10.926,35.562 9.066,35.254 L9.484,32.703 C11.492,33.035 13.32,33.484 14.922,34.043 C17.359,34.891 19.305,36.754 20.25,39.152 C21.199,41.559 21.047,44.258 19.836,46.559 C18.289,49.484 16.195,51.68 13.609,53.082" id="Fill-5" sketch:type="MSShapeGroup"></path>
                <path d="M61.965,24.246 C58.707,24.004 48.781,23.277 37.5,23.277 C27.781,23.277 18.07,23.883 13.148,24.246 L12.957,21.664 C17.914,21.301 27.699,20.691 37.5,20.691 C48.875,20.691 58.871,21.426 62.156,21.664 L61.965,24.246" id="Fill-6" sketch:type="MSShapeGroup"></path>
                <path d="M37.5,42.672 C33.223,42.672 29.742,39.191 29.742,34.914 C29.742,30.637 33.223,27.156 37.5,27.156 C41.777,27.156 45.258,30.637 45.258,34.914 C45.258,39.191 41.777,42.672 37.5,42.672 L37.5,42.672 Z M37.5,29.742 C34.648,29.742 32.328,32.062 32.328,34.914 C32.328,37.766 34.648,40.086 37.5,40.086 C40.352,40.086 42.672,37.766 42.672,34.914 C42.672,32.062 40.352,29.742 37.5,29.742 L37.5,29.742 Z" id="Fill-7" sketch:type="MSShapeGroup"></path>
            </g>
        </g>
    </g>
</svg>