<?xml version="1.0" encoding="UTF-8" standalone="no"?>
<svg width="339px" height="63px" viewBox="0 0 339 63" version="1.1" xmlns="http://www.w3.org/2000/svg" xmlns:xlink="http://www.w3.org/1999/xlink" xmlns:sketch="http://www.bohemiancoding.com/sketch/ns">
    <!-- Generator: Sketch 3.4.2 (15857) - http://www.bohemiancoding.com/sketch -->
    <title>Fill 1 + Fill 3 + Oval 1</title>
    <desc>Created with Sketch.</desc>
    <defs></defs>
    <g id="icon" stroke="none" stroke-width="1" fill="none" fill-rule="evenodd" sketch:type="MSPage">
        <g id="Artboard-10" sketch:type="MSArtboardGroup" transform="translate(-279.000000, -44.000000)" fill="#FFFFFF">
            <g id="Fill-1-+-Fill-3-+-Oval-1" sketch:type="MSLayerGroup" transform="translate(279.000000, 44.000000)">
                <path d="M309.843849,32.9180857 L309.843849,32.6413429 L290.637788,4.48275714 L299.230162,4.48275714 L314.47732,27.388 L314.754802,27.388 L330.198112,4.48275714 L338.31446,4.48275714 L318.594101,32.9968143 L318.594101,33.233 L337.879101,61.4727 L329.327392,61.4727 L314.159173,38.7630857 L313.884083,38.7630857 L298.479047,61.4727 L290.400971,61.4727 L309.843849,32.9180857 Z M259.241867,32.9180857 L259.241867,32.6413429 L240.038198,4.48275714 L248.630572,4.48275714 L263.875338,27.388 L264.15282,27.388 L279.596129,4.48275714 L287.714871,4.48275714 L267.994511,32.9968143 L267.994511,33.233 L287.279511,61.4727 L278.72541,61.4727 L263.559583,38.7630857 L263.282101,38.7630857 L247.877065,61.4727 L239.798989,61.4727 L259.241867,32.9180857 Z M225.798989,4.48275714 L232.927406,4.48275714 L232.927406,61.4727 L225.798989,61.4727 L225.798989,4.48275714 Z M106.977392,0.970985714 L147.121385,0.970985714 L115.816151,61.4727 L112.816475,61.4727 L142.904137,3.31614286 L106.977392,3.31614286 L106.977392,0.970985714 Z M78.0178957,51.4431571 L78.0178957,9.3019 L54.5802338,51.4431571 L78.0178957,51.4431571 Z M78.0178957,61.4727 L78.0178957,54.1127714 L50.6045863,54.1127714 L80.6922482,0 L80.6922482,51.4431571 L87.7489029,51.4431571 L87.7489029,54.1127714 L80.6922482,54.1127714 L80.6922482,61.4727 L78.0178957,61.4727 Z M42.6580755,22.6475857 C42.6580755,17.201 40.8735791,12.4558143 37.3045863,8.41202857 C33.7355935,4.36824286 29.0064388,2.34754286 23.1123381,2.34754286 C17.2206295,2.34754286 12.3120683,4.46367143 8.39383094,8.69592857 C4.47320144,12.9281857 2.51408273,18.0646286 2.51408273,24.1028714 L0,24.1028714 C0,17.2558714 2.21746403,11.5397 6.65,6.95674286 C11.082536,2.37378571 16.6106475,0.0811142857 23.2343345,0.0811142857 C29.8580216,0.0811142857 35.1971583,2.31891429 39.2517446,6.79451429 C43.3063309,11.2701143 45.3348201,16.5831 45.3348201,22.7287 C45.3348201,31.6250286 40.5482554,39.0684571 30.9799101,45.0518286 L8.92008993,58.8030857 L45.0908273,58.8030857 L45.0908273,61.4727 L0.485593525,61.4727 L28.788759,43.5965429 C38.0341727,37.7730143 42.6580755,30.7900286 42.6580755,22.6475857 L42.6580755,22.6475857 Z" id="Fill-1" sketch:type="MSShapeGroup"></path>
                <path d="M217.194245,18.2081571 C217.194245,8.70347143 209.434317,1 199.861187,1 C194.242176,1 189.264245,3.66484286 186.097122,7.77781429 C182.93,3.66484286 177.952068,1 172.333058,1 C162.759928,1 155,8.70347143 155,18.2081571 L155,61.788 L162.128417,61.788 L162.128417,18.2081571 L162.14277,18.2081571 C162.14277,12.6136571 166.709263,8.07841429 172.345018,8.07841429 C177.913795,8.07841429 182.432446,12.5110714 182.537698,18.0149143 C182.537698,18.0793286 182.528129,18.1437429 182.528129,18.2081571 L182.528129,61.788 L189.656547,61.788 L189.656547,18.2081571 L189.666115,18.2081571 L189.668507,18.2081571 C189.668507,12.6136571 194.237392,8.07841429 199.873147,8.07841429 C205.506511,8.07841429 210.075396,12.6136571 210.075396,18.2081571 L209.96536,18.2081571 L209.96536,61.788 L217.091385,61.788 L217.091385,18.2081571 L217.194245,18.2081571 Z" id="Fill-3" sketch:type="MSShapeGroup"></path>
                <ellipse id="Oval-1" sketch:type="MSShapeGroup" cx="97.5" cy="59.5" rx="3.5" ry="3.5"></ellipse>
            </g>
        </g>
    </g>
</svg>