<?xml version="1.0" encoding="UTF-8" standalone="no"?>
<svg width="838px" height="79px" viewBox="0 0 838 79" version="1.1" xmlns="http://www.w3.org/2000/svg" xmlns:xlink="http://www.w3.org/1999/xlink" xmlns:sketch="http://www.bohemiancoding.com/sketch/ns">
    <!-- Generator: Sketch 3.4.3 (16044) - http://www.bohemiancoding.com/sketch -->
    <title>logo copy</title>
    <desc>Created with Sketch.</desc>
    <defs>
        <linearGradient x1="100%" y1="100%" x2="0%" y2="0%" id="linearGradient-1">
            <stop stop-color="#6058A6" offset="0%"></stop>
            <stop stop-color="#ED3895" offset="100%"></stop>
        </linearGradient>
        <linearGradient x1="64.1906753%" y1="50%" x2="100%" y2="100%" id="linearGradient-2">
            <stop stop-color="#000000" stop-opacity="0" offset="0%"></stop>
            <stop stop-color="#000000" stop-opacity="0.854817708" offset="100%"></stop>
        </linearGradient>
        <path id="path-3" d="M3.66332341,16.5826372 C5.59292912,16.5174056 7.6634187,16.5487669 10.1867493,16.7030649 C13.879919,16.9338845 17.8699512,17.3955239 22.0788565,18.1557234 C33.4979964,20.220556 44.7963788,24.0905488 55.342542,30.212288 C58.9602382,32.3122452 62.4420822,34.6530577 65.7604002,37.23598 L70.3114521,33.1138418 C66.3755092,29.9375624 62.2219512,27.092459 57.8910304,24.5735139 C46.790137,18.1331433 34.9206718,14.0674555 22.9518332,11.9110478 C15.203221,10.504804 8.64583204,10.0971062 3.92748064,10.2288239 C3.67464443,10.240114 3.49602382,10.2514041 3.38658725,10.2514041 L0.599099464,10.4057021 L0.8632567,16.725645 L3.66332341,16.5826372"></path>
        <linearGradient x1="0%" y1="-49.7001377%" x2="100%" y2="50%" id="linearGradient-4">
            <stop stop-color="#6058A6" offset="0%"></stop>
            <stop stop-color="#ED3895" offset="100%"></stop>
        </linearGradient>
        <linearGradient x1="27.1039279%" y1="37.5540029%" x2="4.37215083%" y2="6.53743258%" id="linearGradient-5">
            <stop stop-color="#000000" stop-opacity="0" offset="0%"></stop>
            <stop stop-color="#000000" stop-opacity="0.8" offset="100%"></stop>
        </linearGradient>
        <path id="path-6" d="M130.872643,52.8489237 L126.932927,56.7766215 L133.029927,62.8481825 C132.970806,62.8431646 132.920491,62.8419102 132.860112,62.8368924 C129.026058,62.5496222 124.881306,61.9562651 120.505101,61.0104063 C108.581546,58.4049038 96.7636546,53.5376194 85.7432662,45.8528297 C82.833763,43.820613 80.0123121,41.6115182 77.2776557,39.2255453 L72.7240881,43.2272559 C75.9656748,46.1501354 79.3267612,48.8208696 82.8111209,51.2407128 C94.4503919,59.3507627 106.893456,64.4852459 119.447214,67.2212117 C124.054871,68.2222666 128.431076,68.846985 132.473939,69.1568354 C132.584634,69.1656165 132.686523,69.1718888 132.794702,69.1794155 L126.932927,75.015139 L130.872643,78.9428368 L143.942137,65.8977619 L130.872643,52.8489237"></path>
        <linearGradient x1="0%" y1="100%" x2="100%" y2="0%" id="linearGradient-7">
            <stop stop-color="#6058A6" offset="0%"></stop>
            <stop stop-color="#ED3895" offset="100%"></stop>
        </linearGradient>
        <path id="path-8" d="M130.872643,0.472929437 L126.932927,4.40062723 L132.910428,10.353015 C129.210968,10.5712901 124.92659,11.0530007 120.174275,11.9110478 C108.205437,14.0674555 96.3460345,18.1331433 85.235078,24.5735139 C79.0726671,28.1562366 73.2775605,32.3988026 67.9415843,37.3463721 C64.5591138,40.4774911 61.0420488,43.3037776 57.3828422,45.8528297 C46.3624538,53.5376194 34.5445622,58.4049038 22.6210077,61.0104063 C18.2448029,61.9562651 14.10005,62.5496222 10.2773175,62.8368924 C7.68606075,63.0338418 5.5816081,63.0790021 4.04949613,63.0338418 C3.86081239,63.0225517 3.7387969,63.0225517 3.68596546,63.0112616 L0.89470399,62.8481825 L0.599099464,69.1681254 L3.38658725,69.3424947 C3.4847028,69.3424947 3.65200238,69.3537847 3.89477546,69.3537847 C5.59292912,69.4102352 7.87222871,69.3650748 10.6496534,69.1568354 C14.6950328,68.846985 19.0712376,68.2222666 23.6788946,67.2212117 C36.2326528,64.4852459 48.6757165,59.3507627 60.3149875,51.2407128 C64.1830042,48.5448895 67.9076212,45.5567783 71.4800334,42.2475267 C76.5053103,37.5884818 81.9620441,33.5867712 87.7911138,30.212288 C98.3297296,24.0892944 109.639433,20.220556 121.054799,18.1557234 C125.234773,17.3992872 129.204679,16.9401568 132.890301,16.7080827 L126.932927,22.6391447 L130.872643,26.5668425 L143.942137,13.5205132 L130.872643,0.472929437"></path>
        <linearGradient x1="0%" y1="0%" x2="100%" y2="100%" id="linearGradient-10">
            <stop stop-color="#6058A6" offset="0%"></stop>
            <stop stop-color="#ED3895" offset="100%"></stop>
        </linearGradient>
        <linearGradient x1="-27.3590247%" y1="-21.4973162%" x2="100%" y2="100%" id="linearGradient-11">
            <stop stop-color="#6058A6" offset="0%"></stop>
            <stop stop-color="#ED3895" offset="100%"></stop>
        </linearGradient>
    </defs>
    <g id="icon" stroke="none" stroke-width="1" fill="none" fill-rule="evenodd" sketch:type="MSPage">
        <g id="Artboard-10-Copy" sketch:type="MSArtboardGroup" transform="translate(-88.000000, -36.000000)">
            <g id="logo-copy" sketch:type="MSLayerGroup" transform="translate(88.000000, 36.000000)">
                <g id="logo">
                    <g id="Clip-2">
                        <use fill="url(#linearGradient-1)" sketch:type="MSShapeGroup" xlink:href="#path-3"></use>
                        <use fill="url(#linearGradient-2)" xlink:href="#path-3"></use>
                    </g>
                    <g id="Clip-8">
                        <use fill="url(#linearGradient-4)" sketch:type="MSShapeGroup" xlink:href="#path-6"></use>
                        <use fill="url(#linearGradient-5)" xlink:href="#path-6"></use>
                    </g>
                    <mask id="mask-9" sketch:name="Clip 5" fill="white">
                        <use xlink:href="#path-8"></use>
                    </mask>
                    <use id="Clip-5" fill="url(#linearGradient-7)" sketch:type="MSShapeGroup" xlink:href="#path-8"></use>
                </g>
                <g id="Fill-1-+-Fill-3-+-Oval-1" transform="translate(223.000000, 8.000000)" fill="url(#linearGradient-10)" sketch:type="MSShapeGroup">
                    <path d="M309.843849,32.9180857 L309.843849,32.6413429 L290.637788,4.48275714 L299.230162,4.48275714 L314.47732,27.388 L314.754802,27.388 L330.198112,4.48275714 L338.31446,4.48275714 L318.594101,32.9968143 L318.594101,33.233 L337.879101,61.4727 L329.327392,61.4727 L314.159173,38.7630857 L313.884083,38.7630857 L298.479047,61.4727 L290.400971,61.4727 L309.843849,32.9180857 Z M259.241867,32.9180857 L259.241867,32.6413429 L240.038198,4.48275714 L248.630572,4.48275714 L263.875338,27.388 L264.15282,27.388 L279.596129,4.48275714 L287.714871,4.48275714 L267.994511,32.9968143 L267.994511,33.233 L287.279511,61.4727 L278.72541,61.4727 L263.559583,38.7630857 L263.282101,38.7630857 L247.877065,61.4727 L239.798989,61.4727 L259.241867,32.9180857 Z M225.798989,4.48275714 L232.927406,4.48275714 L232.927406,61.4727 L225.798989,61.4727 L225.798989,4.48275714 Z M106.977392,0.970985714 L147.121385,0.970985714 L115.816151,61.4727 L112.816475,61.4727 L142.904137,3.31614286 L106.977392,3.31614286 L106.977392,0.970985714 Z M78.0178957,51.4431571 L78.0178957,9.3019 L54.5802338,51.4431571 L78.0178957,51.4431571 Z M78.0178957,61.4727 L78.0178957,54.1127714 L50.6045863,54.1127714 L80.6922482,0 L80.6922482,51.4431571 L87.7489029,51.4431571 L87.7489029,54.1127714 L80.6922482,54.1127714 L80.6922482,61.4727 L78.0178957,61.4727 Z M42.6580755,22.6475857 C42.6580755,17.201 40.8735791,12.4558143 37.3045863,8.41202857 C33.7355935,4.36824286 29.0064388,2.34754286 23.1123381,2.34754286 C17.2206295,2.34754286 12.3120683,4.46367143 8.39383094,8.69592857 C4.47320144,12.9281857 2.51408273,18.0646286 2.51408273,24.1028714 L0,24.1028714 C0,17.2558714 2.21746403,11.5397 6.65,6.95674286 C11.082536,2.37378571 16.6106475,0.0811142857 23.2343345,0.0811142857 C29.8580216,0.0811142857 35.1971583,2.31891429 39.2517446,6.79451429 C43.3063309,11.2701143 45.3348201,16.5831 45.3348201,22.7287 C45.3348201,31.6250286 40.5482554,39.0684571 30.9799101,45.0518286 L8.92008993,58.8030857 L45.0908273,58.8030857 L45.0908273,61.4727 L0.485593525,61.4727 L28.788759,43.5965429 C38.0341727,37.7730143 42.6580755,30.7900286 42.6580755,22.6475857 L42.6580755,22.6475857 Z" id="Fill-1"></path>
                    <path d="M217.194245,18.2081571 C217.194245,8.70347143 209.434317,1 199.861187,1 C194.242176,1 189.264245,3.66484286 186.097122,7.77781429 C182.93,3.66484286 177.952068,1 172.333058,1 C162.759928,1 155,8.70347143 155,18.2081571 L155,61.788 L162.128417,61.788 L162.128417,18.2081571 L162.14277,18.2081571 C162.14277,12.6136571 166.709263,8.07841429 172.345018,8.07841429 C177.913795,8.07841429 182.432446,12.5110714 182.537698,18.0149143 C182.537698,18.0793286 182.528129,18.1437429 182.528129,18.2081571 L182.528129,61.788 L189.656547,61.788 L189.656547,18.2081571 L189.666115,18.2081571 L189.668507,18.2081571 C189.668507,12.6136571 194.237392,8.07841429 199.873147,8.07841429 C205.506511,8.07841429 210.075396,12.6136571 210.075396,18.2081571 L209.96536,18.2081571 L209.96536,61.788 L217.091385,61.788 L217.091385,18.2081571 L217.194245,18.2081571 Z" id="Fill-3"></path>
                    <ellipse id="Oval-1" cx="97.5" cy="59.5" rx="3.5" ry="3.5"></ellipse>
                </g>
                <path d="M703.78125,47.796875 L677.570312,47.796875 L670.148438,67.3671875 L668,67.3671875 L689.679688,11 L691.671875,11 L713.351562,67.3671875 L711.164062,67.3671875 L703.78125,47.796875 Z M678.273438,46 L703.078125,46 L690.773438,13.6953125 L690.578125,13.6953125 L678.273438,46 Z M756.476562,11 C759.236993,11 761.730458,11.3841107 763.957031,12.1523438 C766.183605,12.9205768 768.084628,14.0208262 769.660156,15.453125 C771.235685,16.8854238 772.44661,18.6171773 773.292969,20.6484375 C774.139327,22.6796977 774.5625,24.9453 774.5625,27.4453125 C774.5625,29.945325 774.139327,32.2109273 773.292969,34.2421875 C772.44661,36.2734477 771.235685,38.0052012 769.660156,39.4375 C768.084628,40.8697988 766.177095,41.9700482 763.9375,42.7382812 C761.697905,43.5065143 759.19793,43.890625 756.4375,43.890625 L740.929688,43.890625 L740.929688,67.3671875 L738.976562,67.3671875 L738.976562,11 L756.476562,11 Z M740.929688,42.0546875 L756.320312,42.0546875 C758.820325,42.0546875 761.072907,41.7161492 763.078125,41.0390625 C765.083343,40.3619758 766.789055,39.3919334 768.195312,38.1289062 C769.60157,36.8658791 770.688798,35.3359465 771.457031,33.5390625 C772.225264,31.7421785 772.609375,29.7109488 772.609375,27.4453125 C772.609375,25.1796762 772.231775,23.1419361 771.476562,21.3320312 C770.72135,19.5221264 769.634122,17.9921937 768.214844,16.7421875 C766.795566,15.4921813 765.083343,14.5286492 763.078125,13.8515625 C761.072907,13.1744758 758.820325,12.8359375 756.320312,12.8359375 L740.929688,12.8359375 L740.929688,42.0546875 Z M818.9375,11 C821.69793,11 824.191395,11.3841107 826.417969,12.1523438 C828.644542,12.9205768 830.545565,14.0208262 832.121094,15.453125 C833.696622,16.8854238 834.907548,18.6171773 835.753906,20.6484375 C836.600265,22.6796977 837.023438,24.9453 837.023438,27.4453125 C837.023438,29.945325 836.600265,32.2109273 835.753906,34.2421875 C834.907548,36.2734477 833.696622,38.0052012 832.121094,39.4375 C830.545565,40.8697988 828.638032,41.9700482 826.398438,42.7382812 C824.158843,43.5065143 821.658868,43.890625 818.898438,43.890625 L803.390625,43.890625 L803.390625,67.3671875 L801.4375,67.3671875 L801.4375,11 L818.9375,11 Z M803.390625,42.0546875 L818.78125,42.0546875 C821.281263,42.0546875 823.533844,41.7161492 825.539062,41.0390625 C827.544281,40.3619758 829.249993,39.3919334 830.65625,38.1289062 C832.062507,36.8658791 833.149736,35.3359465 833.917969,33.5390625 C834.686202,31.7421785 835.070312,29.7109488 835.070312,27.4453125 C835.070312,25.1796762 834.692712,23.1419361 833.9375,21.3320312 C833.182288,19.5221264 832.095059,17.9921937 830.675781,16.7421875 C829.256503,15.4921813 827.544281,14.5286492 825.539062,13.8515625 C823.533844,13.1744758 821.281263,12.8359375 818.78125,12.8359375 L803.390625,12.8359375 L803.390625,42.0546875 Z" id="APP" fill="url(#linearGradient-11)" sketch:type="MSShapeGroup"></path>
                <path d="M614,4 L614,74" id="Line" stroke="#FF0685" stroke-linecap="square" sketch:type="MSShapeGroup"></path>
            </g>
        </g>
    </g>
</svg>